solid OpenSCAD_Model
  facet normal 0.489859 -0.871802 0
    outer loop
      vertex 5.14954 -11.3899 0
      vertex 7.0491 -10.3226 9
      vertex 5.14954 -11.3899 9
    endloop
  endfacet
  facet normal 0.489859 -0.871802 0
    outer loop
      vertex 7.0491 -10.3226 9
      vertex 5.14954 -11.3899 0
      vertex 7.0491 -10.3226 0
    endloop
  endfacet
  facet normal 0.162116 -0.986772 0
    outer loop
      vertex 0.943298 -12.4643 0
      vertex 3.09341 -12.1111 9
      vertex 0.943298 -12.4643 9
    endloop
  endfacet
  facet normal 0.162116 -0.986772 0
    outer loop
      vertex 3.09341 -12.1111 9
      vertex 0.943298 -12.4643 0
      vertex 3.09341 -12.1111 0
    endloop
  endfacet
  facet normal -0.330959 0.943645 0
    outer loop
      vertex -18.895 47.0618 0
      vertex -20.9511 46.3406 9
      vertex -18.895 47.0618 9
    endloop
  endfacet
  facet normal -0.330959 0.943645 0
    outer loop
      vertex -20.9511 46.3406 9
      vertex -18.895 47.0618 0
      vertex -20.9511 46.3406 0
    endloop
  endfacet
  facet normal 0.330959 -0.943645 0
    outer loop
      vertex 3.09341 -12.1111 0
      vertex 5.14954 -11.3899 9
      vertex 3.09341 -12.1111 9
    endloop
  endfacet
  facet normal 0.330959 -0.943645 0
    outer loop
      vertex 5.14954 -11.3899 9
      vertex 3.09341 -12.1111 0
      vertex 5.14954 -11.3899 0
    endloop
  endfacet
  facet normal 0.9112 0.411964 0
    outer loop
      vertex 11.3899 5.14954 9
      vertex -4.41162 40.1001 0
      vertex -4.41162 40.1001 9
    endloop
  endfacet
  facet normal 0.9112 0.411964 0
    outer loop
      vertex -4.41162 40.1001 0
      vertex 11.3899 5.14954 9
      vertex 11.3899 5.14954 0
    endloop
  endfacet
  facet normal -0.943623 -0.331021 0
    outer loop
      vertex -27.1915 29.801 0
      vertex -27.9128 31.8571 9
      vertex -27.9128 31.8571 0
    endloop
  endfacet
  facet normal -0.943623 -0.331021 0
    outer loop
      vertex -27.9128 31.8571 9
      vertex -27.1915 29.801 0
      vertex -27.1915 29.801 9
    endloop
  endfacet
  facet normal 0.986772 0.162116 0
    outer loop
      vertex 12.4643 0.943298 9
      vertex 12.1111 3.09341 0
      vertex 12.1111 3.09341 9
    endloop
  endfacet
  facet normal 0.986772 0.162116 0
    outer loop
      vertex 12.1111 3.09341 0
      vertex 12.4643 0.943298 9
      vertex 12.4643 0.943298 0
    endloop
  endfacet
  facet normal -0.935614 0.353026 0
    outer loop
      vertex -27.8369 38.3272 0
      vertex -27.0677 40.3658 9
      vertex -27.0677 40.3658 0
    endloop
  endfacet
  facet normal -0.935614 0.353026 0
    outer loop
      vertex -27.0677 40.3658 9
      vertex -27.8369 38.3272 0
      vertex -27.8369 38.3272 9
    endloop
  endfacet
  facet normal 0 0 -1
    outer loop
      vertex -9.57611 37.2165 0
      vertex -4.41162 40.1001 0
      vertex -9.27719 36.1011 0
    endloop
  endfacet
  facet normal 0 0 -1
    outer loop
      vertex -6.62491 0 0
      vertex -9.57611 32.6848 0
      vertex -9.27719 33.8 0
    endloop
  endfacet
  facet normal 0 0 -1
    outer loop
      vertex -6.62491 0 0
      vertex -10.0641 31.6382 0
      vertex -9.57611 32.6848 0
    endloop
  endfacet
  facet normal -0 0 -1
    outer loop
      vertex -6.5242 -1.15036 0
      vertex -11.3899 -5.14954 0
      vertex -6.62491 0 0
    endloop
  endfacet
  facet normal 0 0 -1
    outer loop
      vertex -18.0675 28.7251 0
      vertex -6.62491 0 0
      vertex -11.3899 -5.14954 0
    endloop
  endfacet
  facet normal 0 0 -1
    outer loop
      vertex -6.62491 0 0
      vertex -10.7265 30.6921 0
      vertex -10.0641 31.6382 0
    endloop
  endfacet
  facet normal 0 0 -1
    outer loop
      vertex -6.62491 0 0
      vertex -11.5431 29.8755 0
      vertex -10.7265 30.6921 0
    endloop
  endfacet
  facet normal 0 0 -1
    outer loop
      vertex -6.62491 0 0
      vertex -12.489 29.2131 0
      vertex -11.5431 29.8755 0
    endloop
  endfacet
  facet normal 0 0 -1
    outer loop
      vertex -6.62491 0 0
      vertex -13.5358 28.7251 0
      vertex -12.489 29.2131 0
    endloop
  endfacet
  facet normal 0 0 -1
    outer loop
      vertex -6.62491 0 0
      vertex -14.6512 28.4262 0
      vertex -13.5358 28.7251 0
    endloop
  endfacet
  facet normal 0 0 -1
    outer loop
      vertex -6.62491 0 0
      vertex -15.8015 28.3257 0
      vertex -14.6512 28.4262 0
    endloop
  endfacet
  facet normal 0 0 -1
    outer loop
      vertex -6.62491 0 0
      vertex -16.9521 28.4262 0
      vertex -15.8015 28.3257 0
    endloop
  endfacet
  facet normal 0 0 -1
    outer loop
      vertex -6.62491 0 0
      vertex -18.0675 28.7251 0
      vertex -16.9521 28.4262 0
    endloop
  endfacet
  facet normal 0 0 -1
    outer loop
      vertex -27.1915 29.801 0
      vertex -18.0675 28.7251 0
      vertex -11.3899 -5.14954 0
    endloop
  endfacet
  facet normal 0 0 -1
    outer loop
      vertex -18.0675 28.7251 0
      vertex -27.1915 29.801 0
      vertex -19.1141 29.2131 0
    endloop
  endfacet
  facet normal 0 0 -1
    outer loop
      vertex -19.1141 29.2131 0
      vertex -27.1915 29.801 0
      vertex -20.06 29.8755 0
    endloop
  endfacet
  facet normal -0 0 -1
    outer loop
      vertex -20.06 29.8755 0
      vertex -27.1915 29.801 0
      vertex -20.8766 30.6921 0
    endloop
  endfacet
  facet normal -0 0 -1
    outer loop
      vertex -20.8766 30.6921 0
      vertex -27.1915 29.801 0
      vertex -21.539 31.6382 0
    endloop
  endfacet
  facet normal 0 0 -1
    outer loop
      vertex -20.06 40.0256 0
      vertex -24.5363 43.8924 0
      vertex -22.8508 45.2733 0
    endloop
  endfacet
  facet normal 0 0 -1
    outer loop
      vertex -28.266 34.0073 0
      vertex -22.4265 34.9506 0
      vertex -22.3259 33.8 0
    endloop
  endfacet
  facet normal 0 0 -1
    outer loop
      vertex -22.3259 36.1011 0
      vertex -25.9563 42.2398 0
      vertex -24.5363 43.8924 0
    endloop
  endfacet
  facet normal 0 0 -1
    outer loop
      vertex -27.9128 31.8571 0
      vertex -22.3259 33.8 0
      vertex -22.027 32.6848 0
    endloop
  endfacet
  facet normal -0 0 -1
    outer loop
      vertex -21.539 31.6382 0
      vertex -27.1915 29.801 0
      vertex -22.027 32.6848 0
    endloop
  endfacet
  facet normal 0 0 -1
    outer loop
      vertex -27.9128 31.8571 0
      vertex -22.027 32.6848 0
      vertex -27.1915 29.801 0
    endloop
  endfacet
  facet normal 0 0 -1
    outer loop
      vertex -22.3259 36.1011 0
      vertex -27.0677 40.3658 0
      vertex -25.9563 42.2398 0
    endloop
  endfacet
  facet normal 0 0 -1
    outer loop
      vertex -22.3259 36.1011 0
      vertex -27.8369 38.3272 0
      vertex -27.0677 40.3658 0
    endloop
  endfacet
  facet normal -0 0 -1
    outer loop
      vertex -22.3259 33.8 0
      vertex -27.9128 31.8571 0
      vertex -28.266 34.0073 0
    endloop
  endfacet
  facet normal 0 0 -1
    outer loop
      vertex -22.3259 36.1011 0
      vertex -28.2404 36.1859 0
      vertex -27.8369 38.3272 0
    endloop
  endfacet
  facet normal -0 0 -1
    outer loop
      vertex -22.4265 34.9506 0
      vertex -28.266 34.0073 0
      vertex -28.2404 36.1859 0
    endloop
  endfacet
  facet normal 0 0 -1
    outer loop
      vertex 12.4387 -1.2352 0
      vertex 6.5242 -1.15036 0
      vertex 6.62491 0 0
    endloop
  endfacet
  facet normal 0 0 -1
    outer loop
      vertex 8.73459 -8.9418 0
      vertex 6.22543 -2.26578 0
      vertex 6.5242 -1.15036 0
    endloop
  endfacet
  facet normal 0 0 -1
    outer loop
      vertex 8.73459 -8.9418 0
      vertex 5.7373 -3.31238 0
      vertex 6.22543 -2.26578 0
    endloop
  endfacet
  facet normal 0 0 -1
    outer loop
      vertex 3.31238 -5.7373 0
      vertex 7.0491 -10.3226 0
      vertex 5.14954 -11.3899 0
    endloop
  endfacet
  facet normal 0 0 -1
    outer loop
      vertex 8.73459 -8.9418 0
      vertex 5.07492 -4.25842 0
      vertex 5.7373 -3.31238 0
    endloop
  endfacet
  facet normal 0 0 -1
    outer loop
      vertex 8.73459 -8.9418 0
      vertex 4.25842 -5.07492 0
      vertex 5.07492 -4.25842 0
    endloop
  endfacet
  facet normal 0 0 -1
    outer loop
      vertex 7.0491 -10.3226 0
      vertex 3.31238 -5.7373 0
      vertex 4.25842 -5.07492 0
    endloop
  endfacet
  facet normal 0 0 -1
    outer loop
      vertex 2.26578 -6.22543 0
      vertex 5.14954 -11.3899 0
      vertex 3.09341 -12.1111 0
    endloop
  endfacet
  facet normal 0 0 -1
    outer loop
      vertex 5.14954 -11.3899 0
      vertex 2.26578 -6.22543 0
      vertex 3.31238 -5.7373 0
    endloop
  endfacet
  facet normal 0 0 -1
    outer loop
      vertex 3.09341 -12.1111 0
      vertex 1.15036 -6.5242 0
      vertex 2.26578 -6.22543 0
    endloop
  endfacet
  facet normal 0 0 -1
    outer loop
      vertex 0.943298 -12.4643 0
      vertex 1.15036 -6.5242 0
      vertex 3.09341 -12.1111 0
    endloop
  endfacet
  facet normal 0 0 -1
    outer loop
      vertex 0.943298 -12.4643 0
      vertex 0 -6.62491 0
      vertex 1.15036 -6.5242 0
    endloop
  endfacet
  facet normal 0 0 -1
    outer loop
      vertex -1.2352 -12.4387 0
      vertex 0 -6.62491 0
      vertex 0.943298 -12.4643 0
    endloop
  endfacet
  facet normal -0 0 -1
    outer loop
      vertex 0 -6.62491 0
      vertex -1.2352 -12.4387 0
      vertex -1.15036 -6.5242 0
    endloop
  endfacet
  facet normal 0 0 -1
    outer loop
      vertex -3.37646 -12.0352 0
      vertex -1.15036 -6.5242 0
      vertex -1.2352 -12.4387 0
    endloop
  endfacet
  facet normal -0 0 -1
    outer loop
      vertex -1.15036 -6.5242 0
      vertex -3.37646 -12.0352 0
      vertex -2.26578 -6.22543 0
    endloop
  endfacet
  facet normal 0 0 -1
    outer loop
      vertex -5.41504 -11.266 0
      vertex -2.26578 -6.22543 0
      vertex -3.37646 -12.0352 0
    endloop
  endfacet
  facet normal -0 0 -1
    outer loop
      vertex -2.26578 -6.22543 0
      vertex -5.41504 -11.266 0
      vertex -3.31238 -5.7373 0
    endloop
  endfacet
  facet normal 0 0 -1
    outer loop
      vertex -7.28912 -10.1546 0
      vertex -3.31238 -5.7373 0
      vertex -5.41504 -11.266 0
    endloop
  endfacet
  facet normal -0 0 -1
    outer loop
      vertex -3.31238 -5.7373 0
      vertex -7.28912 -10.1546 0
      vertex -4.25842 -5.07492 0
    endloop
  endfacet
  facet normal 0 0 -1
    outer loop
      vertex -8.9418 -8.73459 0
      vertex -4.25842 -5.07492 0
      vertex -7.28912 -10.1546 0
    endloop
  endfacet
  facet normal -0 0 -1
    outer loop
      vertex -4.25842 -5.07492 0
      vertex -8.9418 -8.73459 0
      vertex -5.07492 -4.25842 0
    endloop
  endfacet
  facet normal 0 0 -1
    outer loop
      vertex -10.3226 -7.0491 0
      vertex -5.07492 -4.25842 0
      vertex -8.9418 -8.73459 0
    endloop
  endfacet
  facet normal -0 0 -1
    outer loop
      vertex -5.07492 -4.25842 0
      vertex -10.3226 -7.0491 0
      vertex -5.7373 -3.31238 0
    endloop
  endfacet
  facet normal 0 0 -1
    outer loop
      vertex -11.3899 -5.14954 0
      vertex -5.7373 -3.31238 0
      vertex -10.3226 -7.0491 0
    endloop
  endfacet
  facet normal -0 0 -1
    outer loop
      vertex -5.7373 -3.31238 0
      vertex -11.3899 -5.14954 0
      vertex -6.22543 -2.26578 0
    endloop
  endfacet
  facet normal 0 0 -1
    outer loop
      vertex -9.27719 36.1011 0
      vertex -4.41162 40.1001 0
      vertex -9.17664 34.9506 0
    endloop
  endfacet
  facet normal -0 0 -1
    outer loop
      vertex -6.22543 -2.26578 0
      vertex -11.3899 -5.14954 0
      vertex -6.5242 -1.15036 0
    endloop
  endfacet
  facet normal 0 0 -1
    outer loop
      vertex -10.0641 38.2631 0
      vertex -4.41162 40.1001 0
      vertex -9.57611 37.2165 0
    endloop
  endfacet
  facet normal -0 0 -1
    outer loop
      vertex -4.41162 40.1001 0
      vertex -10.0641 38.2631 0
      vertex -5.47882 41.9997 0
    endloop
  endfacet
  facet normal 0 0 -1
    outer loop
      vertex -10.7265 39.209 0
      vertex -5.47882 41.9997 0
      vertex -10.0641 38.2631 0
    endloop
  endfacet
  facet normal -0 0 -1
    outer loop
      vertex -5.47882 41.9997 0
      vertex -10.7265 39.209 0
      vertex -6.85974 43.6852 0
    endloop
  endfacet
  facet normal 0 0 -1
    outer loop
      vertex -11.5431 40.0256 0
      vertex -6.85974 43.6852 0
      vertex -10.7265 39.209 0
    endloop
  endfacet
  facet normal -0 0 -1
    outer loop
      vertex -6.85974 43.6852 0
      vertex -11.5431 40.0256 0
      vertex -8.51227 45.1053 0
    endloop
  endfacet
  facet normal 0 0 -1
    outer loop
      vertex -12.489 40.688 0
      vertex -8.51227 45.1053 0
      vertex -11.5431 40.0256 0
    endloop
  endfacet
  facet normal -0 0 -1
    outer loop
      vertex -8.51227 45.1053 0
      vertex -12.489 40.688 0
      vertex -10.3864 46.2167 0
    endloop
  endfacet
  facet normal 0 0 -1
    outer loop
      vertex -13.5358 41.176 0
      vertex -10.3864 46.2167 0
      vertex -12.489 40.688 0
    endloop
  endfacet
  facet normal -0 0 -1
    outer loop
      vertex -10.3864 46.2167 0
      vertex -13.5358 41.176 0
      vertex -12.4251 46.9859 0
    endloop
  endfacet
  facet normal 0 0 -1
    outer loop
      vertex -14.6512 41.4749 0
      vertex -12.4251 46.9859 0
      vertex -13.5358 41.176 0
    endloop
  endfacet
  facet normal -0 0 -1
    outer loop
      vertex -12.4251 46.9859 0
      vertex -14.6512 41.4749 0
      vertex -14.5662 47.3894 0
    endloop
  endfacet
  facet normal 0 0 -1
    outer loop
      vertex -15.8015 41.5756 0
      vertex -14.5662 47.3894 0
      vertex -14.6512 41.4749 0
    endloop
  endfacet
  facet normal 0 0 -1
    outer loop
      vertex -15.8015 41.5756 0
      vertex -16.745 47.4149 0
      vertex -14.5662 47.3894 0
    endloop
  endfacet
  facet normal 0 0 -1
    outer loop
      vertex -16.9521 41.4749 0
      vertex -16.745 47.4149 0
      vertex -15.8015 41.5756 0
    endloop
  endfacet
  facet normal 0 0 -1
    outer loop
      vertex -18.895 47.0618 0
      vertex -16.9521 41.4749 0
      vertex -18.0675 41.176 0
    endloop
  endfacet
  facet normal 0 0 -1
    outer loop
      vertex -16.9521 41.4749 0
      vertex -18.895 47.0618 0
      vertex -16.745 47.4149 0
    endloop
  endfacet
  facet normal 0 0 -1
    outer loop
      vertex -20.9511 46.3406 0
      vertex -18.0675 41.176 0
      vertex -19.1141 40.688 0
    endloop
  endfacet
  facet normal 0 0 -1
    outer loop
      vertex -22.8508 45.2733 0
      vertex -19.1141 40.688 0
      vertex -20.06 40.0256 0
    endloop
  endfacet
  facet normal 0 0 -1
    outer loop
      vertex -24.5363 43.8924 0
      vertex -20.06 40.0256 0
      vertex -20.8766 39.209 0
    endloop
  endfacet
  facet normal 0 0 -1
    outer loop
      vertex -18.0675 41.176 0
      vertex -20.9511 46.3406 0
      vertex -18.895 47.0618 0
    endloop
  endfacet
  facet normal 0 0 -1
    outer loop
      vertex -24.5363 43.8924 0
      vertex -20.8766 39.209 0
      vertex -21.539 38.2631 0
    endloop
  endfacet
  facet normal 0 0 -1
    outer loop
      vertex -24.5363 43.8924 0
      vertex -21.539 38.2631 0
      vertex -22.027 37.2165 0
    endloop
  endfacet
  facet normal 0 0 -1
    outer loop
      vertex -24.5363 43.8924 0
      vertex -22.027 37.2165 0
      vertex -22.3259 36.1011 0
    endloop
  endfacet
  facet normal 0 0 -1
    outer loop
      vertex -19.1141 40.688 0
      vertex -22.8508 45.2733 0
      vertex -20.9511 46.3406 0
    endloop
  endfacet
  facet normal 0 0 -1
    outer loop
      vertex -28.2404 36.1859 0
      vertex -22.3259 36.1011 0
      vertex -22.4265 34.9506 0
    endloop
  endfacet
  facet normal 0 0 -1
    outer loop
      vertex 6.62491 0 0
      vertex 12.4643 0.943298 0
      vertex 12.4387 -1.2352 0
    endloop
  endfacet
  facet normal 0 0 -1
    outer loop
      vertex 6.5242 -1.15036 0
      vertex 12.4387 -1.2352 0
      vertex 12.0352 -3.37646 0
    endloop
  endfacet
  facet normal 0 0 -1
    outer loop
      vertex 6.5242 1.15036 0
      vertex 12.4643 0.943298 0
      vertex 6.62491 0 0
    endloop
  endfacet
  facet normal 0 0 -1
    outer loop
      vertex 6.5242 -1.15036 0
      vertex 12.0352 -3.37646 0
      vertex 11.266 -5.41504 0
    endloop
  endfacet
  facet normal 0 0 -1
    outer loop
      vertex 6.5242 -1.15036 0
      vertex 11.266 -5.41504 0
      vertex 10.1546 -7.28912 0
    endloop
  endfacet
  facet normal 0 0 -1
    outer loop
      vertex 6.5242 -1.15036 0
      vertex 10.1546 -7.28912 0
      vertex 8.73459 -8.9418 0
    endloop
  endfacet
  facet normal 0 0 -1
    outer loop
      vertex 4.25842 -5.07492 0
      vertex 8.73459 -8.9418 0
      vertex 7.0491 -10.3226 0
    endloop
  endfacet
  facet normal 0 0 -1
    outer loop
      vertex 12.4643 0.943298 0
      vertex 6.5242 1.15036 0
      vertex 12.1111 3.09341 0
    endloop
  endfacet
  facet normal 0 0 -1
    outer loop
      vertex 6.22543 2.26578 0
      vertex 12.1111 3.09341 0
      vertex 6.5242 1.15036 0
    endloop
  endfacet
  facet normal -0 0 -1
    outer loop
      vertex 12.1111 3.09341 0
      vertex 6.22543 2.26578 0
      vertex 11.3899 5.14954 0
    endloop
  endfacet
  facet normal 0 0 -1
    outer loop
      vertex 5.7373 3.31238 0
      vertex 11.3899 5.14954 0
      vertex 6.22543 2.26578 0
    endloop
  endfacet
  facet normal 0 0 -1
    outer loop
      vertex 5.07492 4.25842 0
      vertex 11.3899 5.14954 0
      vertex 5.7373 3.31238 0
    endloop
  endfacet
  facet normal 0 0 -1
    outer loop
      vertex 4.25842 5.07492 0
      vertex 11.3899 5.14954 0
      vertex 5.07492 4.25842 0
    endloop
  endfacet
  facet normal 0 0 -1
    outer loop
      vertex 3.31238 5.7373 0
      vertex 11.3899 5.14954 0
      vertex 4.25842 5.07492 0
    endloop
  endfacet
  facet normal 0 0 -1
    outer loop
      vertex 2.26578 6.22543 0
      vertex 11.3899 5.14954 0
      vertex 3.31238 5.7373 0
    endloop
  endfacet
  facet normal 0 0 -1
    outer loop
      vertex -9.27719 33.8 0
      vertex 2.26578 6.22543 0
      vertex 1.15036 6.5242 0
    endloop
  endfacet
  facet normal 0 0 -1
    outer loop
      vertex 2.26578 6.22543 0
      vertex -4.41162 40.1001 0
      vertex 11.3899 5.14954 0
    endloop
  endfacet
  facet normal 0 0 -1
    outer loop
      vertex -9.27719 33.8 0
      vertex 1.15036 6.5242 0
      vertex 0 6.62491 0
    endloop
  endfacet
  facet normal 0 0 -1
    outer loop
      vertex -9.27719 33.8 0
      vertex 0 6.62491 0
      vertex -1.15036 6.5242 0
    endloop
  endfacet
  facet normal 0 0 -1
    outer loop
      vertex -9.27719 33.8 0
      vertex -1.15036 6.5242 0
      vertex -2.26578 6.22543 0
    endloop
  endfacet
  facet normal 0 0 -1
    outer loop
      vertex -9.27719 33.8 0
      vertex -2.26578 6.22543 0
      vertex -3.31238 5.7373 0
    endloop
  endfacet
  facet normal 0 0 -1
    outer loop
      vertex -9.27719 33.8 0
      vertex -3.31238 5.7373 0
      vertex -4.25842 5.07492 0
    endloop
  endfacet
  facet normal 0 0 -1
    outer loop
      vertex -9.27719 33.8 0
      vertex -4.25842 5.07492 0
      vertex -5.07492 4.25842 0
    endloop
  endfacet
  facet normal 0 0 -1
    outer loop
      vertex -9.27719 33.8 0
      vertex -5.07492 4.25842 0
      vertex -5.7373 3.31238 0
    endloop
  endfacet
  facet normal 0 0 -1
    outer loop
      vertex 2.26578 6.22543 0
      vertex -9.27719 33.8 0
      vertex -4.41162 40.1001 0
    endloop
  endfacet
  facet normal 0 0 -1
    outer loop
      vertex -9.27719 33.8 0
      vertex -5.7373 3.31238 0
      vertex -6.22543 2.26578 0
    endloop
  endfacet
  facet normal 0 0 -1
    outer loop
      vertex -9.27719 33.8 0
      vertex -6.22543 2.26578 0
      vertex -6.5242 1.15036 0
    endloop
  endfacet
  facet normal 0 0 -1
    outer loop
      vertex -9.27719 33.8 0
      vertex -6.5242 1.15036 0
      vertex -6.62491 0 0
    endloop
  endfacet
  facet normal 0 -0 -1
    outer loop
      vertex -9.17664 34.9506 0
      vertex -4.41162 40.1001 0
      vertex -9.27719 33.8 0
    endloop
  endfacet
  facet normal -0.9112 -0.411964 0
    outer loop
      vertex -11.3899 -5.14954 0
      vertex -27.1915 29.801 9
      vertex -27.1915 29.801 0
    endloop
  endfacet
  facet normal -0.9112 -0.411964 0
    outer loop
      vertex -27.1915 29.801 9
      vertex -11.3899 -5.14954 0
      vertex -11.3899 -5.14954 9
    endloop
  endfacet
  facet normal 0.510102 0.860114 -0
    outer loop
      vertex -8.51227 45.1053 0
      vertex -10.3864 46.2167 9
      vertex -8.51227 45.1053 9
    endloop
  endfacet
  facet normal 0.510102 0.860114 0
    outer loop
      vertex -10.3864 46.2167 9
      vertex -8.51227 45.1053 0
      vertex -10.3864 46.2167 0
    endloop
  endfacet
  facet normal 0.943645 0.330959 0
    outer loop
      vertex 12.1111 3.09341 9
      vertex 11.3899 5.14954 0
      vertex 11.3899 5.14954 9
    endloop
  endfacet
  facet normal 0.943645 0.330959 0
    outer loop
      vertex 11.3899 5.14954 0
      vertex 12.1111 3.09341 9
      vertex 12.1111 3.09341 0
    endloop
  endfacet
  facet normal 0.860114 -0.510102 0
    outer loop
      vertex 10.1546 -7.28912 9
      vertex 11.266 -5.41504 0
      vertex 11.266 -5.41504 9
    endloop
  endfacet
  facet normal 0.860114 -0.510102 0
    outer loop
      vertex 11.266 -5.41504 0
      vertex 10.1546 -7.28912 9
      vertex 10.1546 -7.28912 0
    endloop
  endfacet
  facet normal -0.510102 -0.860114 0
    outer loop
      vertex -7.28912 -10.1546 0
      vertex -5.41504 -11.266 9
      vertex -7.28912 -10.1546 9
    endloop
  endfacet
  facet normal -0.510102 -0.860114 -0
    outer loop
      vertex -5.41504 -11.266 9
      vertex -7.28912 -10.1546 0
      vertex -5.41504 -11.266 0
    endloop
  endfacet
  facet normal -0.633756 0.773533 0
    outer loop
      vertex -22.8508 45.2733 0
      vertex -24.5363 43.8924 9
      vertex -22.8508 45.2733 9
    endloop
  endfacet
  facet normal -0.633756 0.773533 0
    outer loop
      vertex -24.5363 43.8924 9
      vertex -22.8508 45.2733 0
      vertex -24.5363 43.8924 0
    endloop
  endfacet
  facet normal -0.489829 0.871819 0
    outer loop
      vertex -20.9511 46.3406 0
      vertex -22.8508 45.2733 9
      vertex -20.9511 46.3406 9
    endloop
  endfacet
  facet normal -0.489829 0.871819 0
    outer loop
      vertex -22.8508 45.2733 9
      vertex -20.9511 46.3406 0
      vertex -22.8508 45.2733 0
    endloop
  endfacet
  facet normal -0.758455 0.651725 0
    outer loop
      vertex -25.9563 42.2398 0
      vertex -24.5363 43.8924 9
      vertex -24.5363 43.8924 0
    endloop
  endfacet
  facet normal -0.758455 0.651725 0
    outer loop
      vertex -24.5363 43.8924 9
      vertex -25.9563 42.2398 0
      vertex -25.9563 42.2398 9
    endloop
  endfacet
  facet normal -0.999931 0.0117655 0
    outer loop
      vertex -28.266 34.0073 0
      vertex -28.2404 36.1859 9
      vertex -28.2404 36.1859 0
    endloop
  endfacet
  facet normal -0.999931 0.0117655 0
    outer loop
      vertex -28.2404 36.1859 9
      vertex -28.266 34.0073 0
      vertex -28.266 34.0073 9
    endloop
  endfacet
  facet normal -0.986772 -0.162116 0
    outer loop
      vertex -27.9128 31.8571 0
      vertex -28.266 34.0073 9
      vertex -28.266 34.0073 0
    endloop
  endfacet
  facet normal -0.986772 -0.162116 0
    outer loop
      vertex -28.266 34.0073 9
      vertex -27.9128 31.8571 0
      vertex -27.9128 31.8571 9
    endloop
  endfacet
  facet normal -0.982709 0.185155 0
    outer loop
      vertex -28.2404 36.1859 0
      vertex -27.8369 38.3272 9
      vertex -27.8369 38.3272 0
    endloop
  endfacet
  facet normal -0.982709 0.185155 0
    outer loop
      vertex -27.8369 38.3272 9
      vertex -28.2404 36.1859 0
      vertex -28.2404 36.1859 9
    endloop
  endfacet
  facet normal -0.871802 -0.489859 0
    outer loop
      vertex -10.3226 -7.0491 0
      vertex -11.3899 -5.14954 9
      vertex -11.3899 -5.14954 0
    endloop
  endfacet
  facet normal -0.871802 -0.489859 0
    outer loop
      vertex -11.3899 -5.14954 9
      vertex -10.3226 -7.0491 0
      vertex -10.3226 -7.0491 9
    endloop
  endfacet
  facet normal 0.185168 0.982707 -0
    outer loop
      vertex -12.4251 46.9859 0
      vertex -14.5662 47.3894 9
      vertex -12.4251 46.9859 9
    endloop
  endfacet
  facet normal 0.185168 0.982707 0
    outer loop
      vertex -14.5662 47.3894 9
      vertex -12.4251 46.9859 0
      vertex -14.5662 47.3894 0
    endloop
  endfacet
  facet normal 0.773533 0.633756 0
    outer loop
      vertex -5.47882 41.9997 9
      vertex -6.85974 43.6852 0
      vertex -6.85974 43.6852 9
    endloop
  endfacet
  facet normal 0.773533 0.633756 0
    outer loop
      vertex -6.85974 43.6852 0
      vertex -5.47882 41.9997 9
      vertex -5.47882 41.9997 0
    endloop
  endfacet
  facet normal 0.871832 0.489806 0
    outer loop
      vertex -4.41162 40.1001 9
      vertex -5.47882 41.9997 0
      vertex -5.47882 41.9997 9
    endloop
  endfacet
  facet normal 0.871832 0.489806 0
    outer loop
      vertex -5.47882 41.9997 0
      vertex -4.41162 40.1001 9
      vertex -4.41162 40.1001 0
    endloop
  endfacet
  facet normal 0.651765 0.758421 -0
    outer loop
      vertex -6.85974 43.6852 0
      vertex -8.51227 45.1053 9
      vertex -6.85974 43.6852 9
    endloop
  endfacet
  facet normal 0.651765 0.758421 0
    outer loop
      vertex -8.51227 45.1053 9
      vertex -6.85974 43.6852 0
      vertex -8.51227 45.1053 0
    endloop
  endfacet
  facet normal 0.353003 0.935622 -0
    outer loop
      vertex -10.3864 46.2167 0
      vertex -12.4251 46.9859 9
      vertex -10.3864 46.2167 9
    endloop
  endfacet
  facet normal 0.353003 0.935622 0
    outer loop
      vertex -12.4251 46.9859 9
      vertex -10.3864 46.2167 0
      vertex -12.4251 46.9859 0
    endloop
  endfacet
  facet normal 0 0 1
    outer loop
      vertex -2.26578 6.22543 9
      vertex -13.5358 28.7251 9
      vertex -3.31238 5.7373 9
    endloop
  endfacet
  facet normal -0 0 1
    outer loop
      vertex -14.6512 28.4262 9
      vertex -3.31238 5.7373 9
      vertex -13.5358 28.7251 9
    endloop
  endfacet
  facet normal 0 0 1
    outer loop
      vertex -3.31238 5.7373 9
      vertex -14.6512 28.4262 9
      vertex -4.25842 5.07492 9
    endloop
  endfacet
  facet normal 0 -0 1
    outer loop
      vertex -10.3226 -7.0491 9
      vertex -6.5242 1.15036 9
      vertex -11.3899 -5.14954 9
    endloop
  endfacet
  facet normal -0 0 1
    outer loop
      vertex -15.8015 28.3257 9
      vertex -4.25842 5.07492 9
      vertex -14.6512 28.4262 9
    endloop
  endfacet
  facet normal 0 0 1
    outer loop
      vertex -6.5242 1.15036 9
      vertex -10.3226 -7.0491 9
      vertex -8.9418 -8.73459 9
    endloop
  endfacet
  facet normal 0 0 1
    outer loop
      vertex -4.25842 5.07492 9
      vertex -15.8015 28.3257 9
      vertex -5.07492 4.25842 9
    endloop
  endfacet
  facet normal 0 0 1
    outer loop
      vertex -16.9521 28.4262 9
      vertex -5.07492 4.25842 9
      vertex -15.8015 28.3257 9
    endloop
  endfacet
  facet normal 0 0 1
    outer loop
      vertex -5.07492 4.25842 9
      vertex -16.9521 28.4262 9
      vertex -5.7373 3.31238 9
    endloop
  endfacet
  facet normal 0 0 1
    outer loop
      vertex -18.0675 28.7251 9
      vertex -5.7373 3.31238 9
      vertex -16.9521 28.4262 9
    endloop
  endfacet
  facet normal 0 0 1
    outer loop
      vertex -5.7373 3.31238 9
      vertex -18.0675 28.7251 9
      vertex -6.22543 2.26578 9
    endloop
  endfacet
  facet normal 0 -0 1
    outer loop
      vertex -11.3899 -5.14954 9
      vertex -6.22543 2.26578 9
      vertex -18.0675 28.7251 9
    endloop
  endfacet
  facet normal 0 0 1
    outer loop
      vertex -6.22543 2.26578 9
      vertex -11.3899 -5.14954 9
      vertex -6.5242 1.15036 9
    endloop
  endfacet
  facet normal 0 0 1
    outer loop
      vertex -27.1915 29.801 9
      vertex -18.0675 28.7251 9
      vertex -19.1141 29.2131 9
    endloop
  endfacet
  facet normal -0 0 1
    outer loop
      vertex -27.1915 29.801 9
      vertex -19.1141 29.2131 9
      vertex -20.06 29.8755 9
    endloop
  endfacet
  facet normal 0 0 1
    outer loop
      vertex -27.1915 29.801 9
      vertex -20.06 29.8755 9
      vertex -20.8766 30.6921 9
    endloop
  endfacet
  facet normal 0 0 1
    outer loop
      vertex -27.1915 29.801 9
      vertex -20.8766 30.6921 9
      vertex -21.539 31.6382 9
    endloop
  endfacet
  facet normal 0 0 1
    outer loop
      vertex -27.1915 29.801 9
      vertex -21.539 31.6382 9
      vertex -22.027 32.6848 9
    endloop
  endfacet
  facet normal 0 0 1
    outer loop
      vertex -21.539 38.2631 9
      vertex -27.0677 40.3658 9
      vertex -22.027 37.2165 9
    endloop
  endfacet
  facet normal -0 0 1
    outer loop
      vertex -27.8369 38.3272 9
      vertex -22.027 37.2165 9
      vertex -27.0677 40.3658 9
    endloop
  endfacet
  facet normal 0 0 1
    outer loop
      vertex -22.027 37.2165 9
      vertex -27.8369 38.3272 9
      vertex -22.3259 36.1011 9
    endloop
  endfacet
  facet normal -0 0 1
    outer loop
      vertex -28.2404 36.1859 9
      vertex -22.3259 36.1011 9
      vertex -27.8369 38.3272 9
    endloop
  endfacet
  facet normal 0 0 1
    outer loop
      vertex -22.3259 36.1011 9
      vertex -28.2404 36.1859 9
      vertex -22.4265 34.9506 9
    endloop
  endfacet
  facet normal 0 0 1
    outer loop
      vertex -28.266 34.0073 9
      vertex -22.4265 34.9506 9
      vertex -28.2404 36.1859 9
    endloop
  endfacet
  facet normal 0 0 1
    outer loop
      vertex -18.0675 28.7251 9
      vertex -27.1915 29.801 9
      vertex -11.3899 -5.14954 9
    endloop
  endfacet
  facet normal 0 0 1
    outer loop
      vertex -22.4265 34.9506 9
      vertex -28.266 34.0073 9
      vertex -22.3259 33.8 9
    endloop
  endfacet
  facet normal 0 0 1
    outer loop
      vertex -22.027 32.6848 9
      vertex -27.9128 31.8571 9
      vertex -27.1915 29.801 9
    endloop
  endfacet
  facet normal 0 -0 1
    outer loop
      vertex -27.9128 31.8571 9
      vertex -22.3259 33.8 9
      vertex -28.266 34.0073 9
    endloop
  endfacet
  facet normal 0 0 1
    outer loop
      vertex -22.3259 33.8 9
      vertex -27.9128 31.8571 9
      vertex -22.027 32.6848 9
    endloop
  endfacet
  facet normal -0 0 1
    outer loop
      vertex 6.5242 1.15036 9
      vertex 12.4643 0.943298 9
      vertex 12.1111 3.09341 9
    endloop
  endfacet
  facet normal 0 0 1
    outer loop
      vertex 12.4643 0.943298 9
      vertex 6.62491 0 9
      vertex 12.4387 -1.2352 9
    endloop
  endfacet
  facet normal 0 0 1
    outer loop
      vertex 6.22543 2.26578 9
      vertex 12.1111 3.09341 9
      vertex 11.3899 5.14954 9
    endloop
  endfacet
  facet normal -0 0 1
    outer loop
      vertex 6.5242 -1.15036 9
      vertex 12.4387 -1.2352 9
      vertex 6.62491 0 9
    endloop
  endfacet
  facet normal 0 0 1
    outer loop
      vertex 12.4387 -1.2352 9
      vertex 6.5242 -1.15036 9
      vertex 12.0352 -3.37646 9
    endloop
  endfacet
  facet normal 0 0 1
    outer loop
      vertex 12.0352 -3.37646 9
      vertex 6.22543 -2.26578 9
      vertex 11.266 -5.41504 9
    endloop
  endfacet
  facet normal -0 0 1
    outer loop
      vertex 5.7373 -3.31238 9
      vertex 11.266 -5.41504 9
      vertex 6.22543 -2.26578 9
    endloop
  endfacet
  facet normal -0 0 1
    outer loop
      vertex 6.22543 -2.26578 9
      vertex 12.0352 -3.37646 9
      vertex 6.5242 -1.15036 9
    endloop
  endfacet
  facet normal 0 0 1
    outer loop
      vertex 12.4643 0.943298 9
      vertex 6.5242 1.15036 9
      vertex 6.62491 0 9
    endloop
  endfacet
  facet normal 0 0 1
    outer loop
      vertex 12.1111 3.09341 9
      vertex 6.22543 2.26578 9
      vertex 6.5242 1.15036 9
    endloop
  endfacet
  facet normal 0 0 1
    outer loop
      vertex 11.3899 5.14954 9
      vertex 5.7373 3.31238 9
      vertex 6.22543 2.26578 9
    endloop
  endfacet
  facet normal 0 0 1
    outer loop
      vertex 11.3899 5.14954 9
      vertex 5.07492 4.25842 9
      vertex 5.7373 3.31238 9
    endloop
  endfacet
  facet normal 0 0 1
    outer loop
      vertex 11.3899 5.14954 9
      vertex 4.25842 5.07492 9
      vertex 5.07492 4.25842 9
    endloop
  endfacet
  facet normal 0 0 1
    outer loop
      vertex 11.3899 5.14954 9
      vertex 3.31238 5.7373 9
      vertex 4.25842 5.07492 9
    endloop
  endfacet
  facet normal 0 0 1
    outer loop
      vertex 11.3899 5.14954 9
      vertex 2.26578 6.22543 9
      vertex 3.31238 5.7373 9
    endloop
  endfacet
  facet normal 0 0 1
    outer loop
      vertex -4.41162 40.1001 9
      vertex 2.26578 6.22543 9
      vertex 11.3899 5.14954 9
    endloop
  endfacet
  facet normal 0 0 1
    outer loop
      vertex -9.27719 33.8 9
      vertex -4.41162 40.1001 9
      vertex -9.17664 34.9506 9
    endloop
  endfacet
  facet normal 0 0 1
    outer loop
      vertex -9.57611 32.6848 9
      vertex -4.41162 40.1001 9
      vertex -9.27719 33.8 9
    endloop
  endfacet
  facet normal 0 0 1
    outer loop
      vertex -4.41162 40.1001 9
      vertex -9.57611 32.6848 9
      vertex 2.26578 6.22543 9
    endloop
  endfacet
  facet normal -0 0 1
    outer loop
      vertex -10.0641 31.6382 9
      vertex 2.26578 6.22543 9
      vertex -9.57611 32.6848 9
    endloop
  endfacet
  facet normal 0 0 1
    outer loop
      vertex 2.26578 6.22543 9
      vertex -10.0641 31.6382 9
      vertex 1.15036 6.5242 9
    endloop
  endfacet
  facet normal -0 0 1
    outer loop
      vertex -10.7265 30.6921 9
      vertex 1.15036 6.5242 9
      vertex -10.0641 31.6382 9
    endloop
  endfacet
  facet normal 0 0 1
    outer loop
      vertex 1.15036 6.5242 9
      vertex -10.7265 30.6921 9
      vertex 0 6.62491 9
    endloop
  endfacet
  facet normal 0 0 1
    outer loop
      vertex -10.0641 38.2631 9
      vertex -4.41162 40.1001 9
      vertex -5.47882 41.9997 9
    endloop
  endfacet
  facet normal -0 0 1
    outer loop
      vertex -11.5431 29.8755 9
      vertex 0 6.62491 9
      vertex -10.7265 30.6921 9
    endloop
  endfacet
  facet normal 0 0 1
    outer loop
      vertex 0 6.62491 9
      vertex -11.5431 29.8755 9
      vertex -1.15036 6.5242 9
    endloop
  endfacet
  facet normal -0 0 1
    outer loop
      vertex -12.489 29.2131 9
      vertex -1.15036 6.5242 9
      vertex -11.5431 29.8755 9
    endloop
  endfacet
  facet normal 0 0 1
    outer loop
      vertex -1.15036 6.5242 9
      vertex -12.489 29.2131 9
      vertex -2.26578 6.22543 9
    endloop
  endfacet
  facet normal 0 0 1
    outer loop
      vertex -10.7265 39.209 9
      vertex -5.47882 41.9997 9
      vertex -6.85974 43.6852 9
    endloop
  endfacet
  facet normal 0 0 1
    outer loop
      vertex 11.266 -5.41504 9
      vertex 5.7373 -3.31238 9
      vertex 10.1546 -7.28912 9
    endloop
  endfacet
  facet normal -0 0 1
    outer loop
      vertex 5.07492 -4.25842 9
      vertex 10.1546 -7.28912 9
      vertex 5.7373 -3.31238 9
    endloop
  endfacet
  facet normal 0 0 1
    outer loop
      vertex 10.1546 -7.28912 9
      vertex 5.07492 -4.25842 9
      vertex 8.73459 -8.9418 9
    endloop
  endfacet
  facet normal -0 0 1
    outer loop
      vertex 4.25842 -5.07492 9
      vertex 8.73459 -8.9418 9
      vertex 5.07492 -4.25842 9
    endloop
  endfacet
  facet normal 0 0 1
    outer loop
      vertex 8.73459 -8.9418 9
      vertex 4.25842 -5.07492 9
      vertex 7.0491 -10.3226 9
    endloop
  endfacet
  facet normal -0 0 1
    outer loop
      vertex 3.31238 -5.7373 9
      vertex 7.0491 -10.3226 9
      vertex 4.25842 -5.07492 9
    endloop
  endfacet
  facet normal 0 0 1
    outer loop
      vertex 7.0491 -10.3226 9
      vertex 3.31238 -5.7373 9
      vertex 5.14954 -11.3899 9
    endloop
  endfacet
  facet normal -0 0 1
    outer loop
      vertex 2.26578 -6.22543 9
      vertex 5.14954 -11.3899 9
      vertex 3.31238 -5.7373 9
    endloop
  endfacet
  facet normal 0 0 1
    outer loop
      vertex 5.14954 -11.3899 9
      vertex 2.26578 -6.22543 9
      vertex 3.09341 -12.1111 9
    endloop
  endfacet
  facet normal -0 0 1
    outer loop
      vertex 1.15036 -6.5242 9
      vertex 3.09341 -12.1111 9
      vertex 2.26578 -6.22543 9
    endloop
  endfacet
  facet normal 0 0 1
    outer loop
      vertex 1.15036 -6.5242 9
      vertex 0.943298 -12.4643 9
      vertex 3.09341 -12.1111 9
    endloop
  endfacet
  facet normal -0 0 1
    outer loop
      vertex 0 -6.62491 9
      vertex 0.943298 -12.4643 9
      vertex 1.15036 -6.5242 9
    endloop
  endfacet
  facet normal 0 0 1
    outer loop
      vertex -1.2352 -12.4387 9
      vertex 0 -6.62491 9
      vertex -1.15036 -6.5242 9
    endloop
  endfacet
  facet normal 0 0 1
    outer loop
      vertex 0 -6.62491 9
      vertex -1.2352 -12.4387 9
      vertex 0.943298 -12.4643 9
    endloop
  endfacet
  facet normal 0 0 1
    outer loop
      vertex -3.37646 -12.0352 9
      vertex -1.15036 -6.5242 9
      vertex -2.26578 -6.22543 9
    endloop
  endfacet
  facet normal 0 0 1
    outer loop
      vertex -5.41504 -11.266 9
      vertex -2.26578 -6.22543 9
      vertex -3.31238 -5.7373 9
    endloop
  endfacet
  facet normal 0 0 1
    outer loop
      vertex -1.15036 -6.5242 9
      vertex -3.37646 -12.0352 9
      vertex -1.2352 -12.4387 9
    endloop
  endfacet
  facet normal 0 0 1
    outer loop
      vertex -7.28912 -10.1546 9
      vertex -3.31238 -5.7373 9
      vertex -4.25842 -5.07492 9
    endloop
  endfacet
  facet normal 0 0 1
    outer loop
      vertex -8.9418 -8.73459 9
      vertex -4.25842 -5.07492 9
      vertex -5.07492 -4.25842 9
    endloop
  endfacet
  facet normal 0 0 1
    outer loop
      vertex -2.26578 -6.22543 9
      vertex -5.41504 -11.266 9
      vertex -3.37646 -12.0352 9
    endloop
  endfacet
  facet normal 0 0 1
    outer loop
      vertex -8.9418 -8.73459 9
      vertex -5.07492 -4.25842 9
      vertex -5.7373 -3.31238 9
    endloop
  endfacet
  facet normal 0 0 1
    outer loop
      vertex -8.9418 -8.73459 9
      vertex -5.7373 -3.31238 9
      vertex -6.22543 -2.26578 9
    endloop
  endfacet
  facet normal 0 0 1
    outer loop
      vertex -8.9418 -8.73459 9
      vertex -6.22543 -2.26578 9
      vertex -6.5242 -1.15036 9
    endloop
  endfacet
  facet normal 0 0 1
    outer loop
      vertex -3.31238 -5.7373 9
      vertex -7.28912 -10.1546 9
      vertex -5.41504 -11.266 9
    endloop
  endfacet
  facet normal 0 0 1
    outer loop
      vertex -8.9418 -8.73459 9
      vertex -6.5242 -1.15036 9
      vertex -6.62491 0 9
    endloop
  endfacet
  facet normal -0 0 1
    outer loop
      vertex -13.5358 28.7251 9
      vertex -2.26578 6.22543 9
      vertex -12.489 29.2131 9
    endloop
  endfacet
  facet normal 0 0 1
    outer loop
      vertex -11.5431 40.0256 9
      vertex -6.85974 43.6852 9
      vertex -8.51227 45.1053 9
    endloop
  endfacet
  facet normal 0 0 1
    outer loop
      vertex -6.5242 1.15036 9
      vertex -8.9418 -8.73459 9
      vertex -6.62491 0 9
    endloop
  endfacet
  facet normal 0 0 1
    outer loop
      vertex -4.25842 -5.07492 9
      vertex -8.9418 -8.73459 9
      vertex -7.28912 -10.1546 9
    endloop
  endfacet
  facet normal 0 0 1
    outer loop
      vertex -4.41162 40.1001 9
      vertex -9.27719 36.1011 9
      vertex -9.17664 34.9506 9
    endloop
  endfacet
  facet normal 0 0 1
    outer loop
      vertex -4.41162 40.1001 9
      vertex -9.57611 37.2165 9
      vertex -9.27719 36.1011 9
    endloop
  endfacet
  facet normal 0 0 1
    outer loop
      vertex -4.41162 40.1001 9
      vertex -10.0641 38.2631 9
      vertex -9.57611 37.2165 9
    endloop
  endfacet
  facet normal 0 0 1
    outer loop
      vertex -12.489 40.688 9
      vertex -8.51227 45.1053 9
      vertex -10.3864 46.2167 9
    endloop
  endfacet
  facet normal 0 0 1
    outer loop
      vertex -5.47882 41.9997 9
      vertex -10.7265 39.209 9
      vertex -10.0641 38.2631 9
    endloop
  endfacet
  facet normal 0 0 1
    outer loop
      vertex -6.85974 43.6852 9
      vertex -11.5431 40.0256 9
      vertex -10.7265 39.209 9
    endloop
  endfacet
  facet normal 0 0 1
    outer loop
      vertex -13.5358 41.176 9
      vertex -10.3864 46.2167 9
      vertex -12.4251 46.9859 9
    endloop
  endfacet
  facet normal 0 0 1
    outer loop
      vertex -8.51227 45.1053 9
      vertex -12.489 40.688 9
      vertex -11.5431 40.0256 9
    endloop
  endfacet
  facet normal 0 0 1
    outer loop
      vertex -10.3864 46.2167 9
      vertex -13.5358 41.176 9
      vertex -12.489 40.688 9
    endloop
  endfacet
  facet normal 0 0 1
    outer loop
      vertex -14.6512 41.4749 9
      vertex -12.4251 46.9859 9
      vertex -14.5662 47.3894 9
    endloop
  endfacet
  facet normal 0 0 1
    outer loop
      vertex -12.4251 46.9859 9
      vertex -14.6512 41.4749 9
      vertex -13.5358 41.176 9
    endloop
  endfacet
  facet normal 0 0 1
    outer loop
      vertex -14.5662 47.3894 9
      vertex -15.8015 41.5756 9
      vertex -14.6512 41.4749 9
    endloop
  endfacet
  facet normal 0 0 1
    outer loop
      vertex -16.745 47.4149 9
      vertex -15.8015 41.5756 9
      vertex -14.5662 47.3894 9
    endloop
  endfacet
  facet normal 0 0 1
    outer loop
      vertex -16.745 47.4149 9
      vertex -16.9521 41.4749 9
      vertex -15.8015 41.5756 9
    endloop
  endfacet
  facet normal -0 0 1
    outer loop
      vertex -18.895 47.0618 9
      vertex -16.9521 41.4749 9
      vertex -16.745 47.4149 9
    endloop
  endfacet
  facet normal 0 0 1
    outer loop
      vertex -16.9521 41.4749 9
      vertex -18.895 47.0618 9
      vertex -18.0675 41.176 9
    endloop
  endfacet
  facet normal -0 0 1
    outer loop
      vertex -20.9511 46.3406 9
      vertex -18.0675 41.176 9
      vertex -18.895 47.0618 9
    endloop
  endfacet
  facet normal 0 0 1
    outer loop
      vertex -18.0675 41.176 9
      vertex -20.9511 46.3406 9
      vertex -19.1141 40.688 9
    endloop
  endfacet
  facet normal -0 0 1
    outer loop
      vertex -22.8508 45.2733 9
      vertex -19.1141 40.688 9
      vertex -20.9511 46.3406 9
    endloop
  endfacet
  facet normal 0 0 1
    outer loop
      vertex -19.1141 40.688 9
      vertex -22.8508 45.2733 9
      vertex -20.06 40.0256 9
    endloop
  endfacet
  facet normal -0 0 1
    outer loop
      vertex -24.5363 43.8924 9
      vertex -20.06 40.0256 9
      vertex -22.8508 45.2733 9
    endloop
  endfacet
  facet normal 0 0 1
    outer loop
      vertex -20.06 40.0256 9
      vertex -24.5363 43.8924 9
      vertex -20.8766 39.209 9
    endloop
  endfacet
  facet normal -0 0 1
    outer loop
      vertex -25.9563 42.2398 9
      vertex -20.8766 39.209 9
      vertex -24.5363 43.8924 9
    endloop
  endfacet
  facet normal -0 0 1
    outer loop
      vertex -27.0677 40.3658 9
      vertex -21.539 38.2631 9
      vertex -25.9563 42.2398 9
    endloop
  endfacet
  facet normal 0 0 1
    outer loop
      vertex -20.8766 39.209 9
      vertex -25.9563 42.2398 9
      vertex -21.539 38.2631 9
    endloop
  endfacet
  facet normal -0.773567 -0.633714 0
    outer loop
      vertex -8.9418 -8.73459 0
      vertex -10.3226 -7.0491 9
      vertex -10.3226 -7.0491 0
    endloop
  endfacet
  facet normal -0.773567 -0.633714 0
    outer loop
      vertex -10.3226 -7.0491 9
      vertex -8.9418 -8.73459 0
      vertex -8.9418 -8.73459 9
    endloop
  endfacet
  facet normal -0.651691 -0.758485 0
    outer loop
      vertex -8.9418 -8.73459 0
      vertex -7.28912 -10.1546 9
      vertex -8.9418 -8.73459 9
    endloop
  endfacet
  facet normal -0.651691 -0.758485 -0
    outer loop
      vertex -7.28912 -10.1546 9
      vertex -8.9418 -8.73459 0
      vertex -7.28912 -10.1546 0
    endloop
  endfacet
  facet normal -0.0117664 -0.999931 0
    outer loop
      vertex -1.2352 -12.4387 0
      vertex 0.943298 -12.4643 9
      vertex -1.2352 -12.4387 9
    endloop
  endfacet
  facet normal -0.0117664 -0.999931 -0
    outer loop
      vertex 0.943298 -12.4643 9
      vertex -1.2352 -12.4387 0
      vertex 0.943298 -12.4643 0
    endloop
  endfacet
  facet normal -0.185155 -0.982709 0
    outer loop
      vertex -3.37646 -12.0352 0
      vertex -1.2352 -12.4387 9
      vertex -3.37646 -12.0352 9
    endloop
  endfacet
  facet normal -0.185155 -0.982709 -0
    outer loop
      vertex -1.2352 -12.4387 9
      vertex -3.37646 -12.0352 0
      vertex -1.2352 -12.4387 0
    endloop
  endfacet
  facet normal 0.0116947 0.999932 -0
    outer loop
      vertex -14.5662 47.3894 0
      vertex -16.745 47.4149 9
      vertex -14.5662 47.3894 9
    endloop
  endfacet
  facet normal 0.0116947 0.999932 0
    outer loop
      vertex -16.745 47.4149 9
      vertex -14.5662 47.3894 0
      vertex -16.745 47.4149 0
    endloop
  endfacet
  facet normal -0.162059 0.986781 0
    outer loop
      vertex -16.745 47.4149 0
      vertex -18.895 47.0618 9
      vertex -16.745 47.4149 9
    endloop
  endfacet
  facet normal -0.162059 0.986781 0
    outer loop
      vertex -18.895 47.0618 9
      vertex -16.745 47.4149 0
      vertex -18.895 47.0618 0
    endloop
  endfacet
  facet normal 0.982709 -0.185155 0
    outer loop
      vertex 12.0352 -3.37646 9
      vertex 12.4387 -1.2352 0
      vertex 12.4387 -1.2352 9
    endloop
  endfacet
  facet normal 0.982709 -0.185155 0
    outer loop
      vertex 12.4387 -1.2352 0
      vertex 12.0352 -3.37646 9
      vertex 12.0352 -3.37646 0
    endloop
  endfacet
  facet normal 0.633714 -0.773567 0
    outer loop
      vertex 7.0491 -10.3226 0
      vertex 8.73459 -8.9418 9
      vertex 7.0491 -10.3226 9
    endloop
  endfacet
  facet normal 0.633714 -0.773567 0
    outer loop
      vertex 8.73459 -8.9418 9
      vertex 7.0491 -10.3226 0
      vertex 8.73459 -8.9418 0
    endloop
  endfacet
  facet normal -0.860114 0.510102 0
    outer loop
      vertex -27.0677 40.3658 0
      vertex -25.9563 42.2398 9
      vertex -25.9563 42.2398 0
    endloop
  endfacet
  facet normal -0.860114 0.510102 0
    outer loop
      vertex -25.9563 42.2398 9
      vertex -27.0677 40.3658 0
      vertex -27.0677 40.3658 9
    endloop
  endfacet
  facet normal -0.353026 -0.935614 0
    outer loop
      vertex -5.41504 -11.266 0
      vertex -3.37646 -12.0352 9
      vertex -5.41504 -11.266 9
    endloop
  endfacet
  facet normal -0.353026 -0.935614 -0
    outer loop
      vertex -3.37646 -12.0352 9
      vertex -5.41504 -11.266 0
      vertex -3.37646 -12.0352 0
    endloop
  endfacet
  facet normal 0.999931 -0.0117664 0
    outer loop
      vertex 12.4387 -1.2352 9
      vertex 12.4643 0.943298 0
      vertex 12.4643 0.943298 9
    endloop
  endfacet
  facet normal 0.999931 -0.0117664 0
    outer loop
      vertex 12.4643 0.943298 0
      vertex 12.4387 -1.2352 9
      vertex 12.4387 -1.2352 0
    endloop
  endfacet
  facet normal 0.935614 -0.353026 0
    outer loop
      vertex 11.266 -5.41504 9
      vertex 12.0352 -3.37646 0
      vertex 12.0352 -3.37646 9
    endloop
  endfacet
  facet normal 0.935614 -0.353026 0
    outer loop
      vertex 12.0352 -3.37646 0
      vertex 11.266 -5.41504 9
      vertex 11.266 -5.41504 0
    endloop
  endfacet
  facet normal 0.758485 -0.651691 0
    outer loop
      vertex 8.73459 -8.9418 9
      vertex 10.1546 -7.28912 0
      vertex 10.1546 -7.28912 9
    endloop
  endfacet
  facet normal 0.758485 -0.651691 0
    outer loop
      vertex 10.1546 -7.28912 0
      vertex 8.73459 -8.9418 9
      vertex 8.73459 -8.9418 0
    endloop
  endfacet
  facet normal -0.422683 0.906278 0
    outer loop
      vertex 3.31238 -5.7373 0
      vertex 2.26578 -6.22543 9
      vertex 3.31238 -5.7373 9
    endloop
  endfacet
  facet normal -0.422683 0.906278 0
    outer loop
      vertex 2.26578 -6.22543 9
      vertex 3.31238 -5.7373 0
      vertex 2.26578 -6.22543 0
    endloop
  endfacet
  facet normal -0.0872112 0.99619 0
    outer loop
      vertex 1.15036 -6.5242 0
      vertex 0 -6.62491 9
      vertex 1.15036 -6.5242 9
    endloop
  endfacet
  facet normal -0.0872112 0.99619 0
    outer loop
      vertex 0 -6.62491 9
      vertex 1.15036 -6.5242 0
      vertex 0 -6.62491 0
    endloop
  endfacet
  facet normal 0.258732 -0.965949 0
    outer loop
      vertex -2.26578 6.22543 0
      vertex -1.15036 6.5242 9
      vertex -2.26578 6.22543 9
    endloop
  endfacet
  facet normal 0.258732 -0.965949 0
    outer loop
      vertex -1.15036 6.5242 9
      vertex -2.26578 6.22543 0
      vertex -1.15036 6.5242 0
    endloop
  endfacet
  facet normal -0.258732 0.965949 0
    outer loop
      vertex 2.26578 -6.22543 0
      vertex 1.15036 -6.5242 9
      vertex 2.26578 -6.22543 9
    endloop
  endfacet
  facet normal -0.258732 0.965949 0
    outer loop
      vertex 1.15036 -6.5242 9
      vertex 2.26578 -6.22543 0
      vertex 1.15036 -6.5242 0
    endloop
  endfacet
  facet normal -0.965949 -0.258732 0
    outer loop
      vertex 6.5242 1.15036 0
      vertex 6.22543 2.26578 9
      vertex 6.22543 2.26578 0
    endloop
  endfacet
  facet normal -0.965949 -0.258732 0
    outer loop
      vertex 6.22543 2.26578 9
      vertex 6.5242 1.15036 0
      vertex 6.5242 1.15036 9
    endloop
  endfacet
  facet normal 0.573551 -0.81917 0
    outer loop
      vertex -4.25842 5.07492 0
      vertex -3.31238 5.7373 9
      vertex -4.25842 5.07492 9
    endloop
  endfacet
  facet normal 0.573551 -0.81917 0
    outer loop
      vertex -3.31238 5.7373 9
      vertex -4.25842 5.07492 0
      vertex -3.31238 5.7373 0
    endloop
  endfacet
  facet normal 0.906278 -0.422683 0
    outer loop
      vertex -6.22543 2.26578 9
      vertex -5.7373 3.31238 0
      vertex -5.7373 3.31238 9
    endloop
  endfacet
  facet normal 0.906278 -0.422683 0
    outer loop
      vertex -5.7373 3.31238 0
      vertex -6.22543 2.26578 9
      vertex -6.22543 2.26578 0
    endloop
  endfacet
  facet normal -0.422683 -0.906278 0
    outer loop
      vertex 2.26578 6.22543 0
      vertex 3.31238 5.7373 9
      vertex 2.26578 6.22543 9
    endloop
  endfacet
  facet normal -0.422683 -0.906278 -0
    outer loop
      vertex 3.31238 5.7373 9
      vertex 2.26578 6.22543 0
      vertex 3.31238 5.7373 0
    endloop
  endfacet
  facet normal -0.81917 -0.573551 0
    outer loop
      vertex 5.7373 3.31238 0
      vertex 5.07492 4.25842 9
      vertex 5.07492 4.25842 0
    endloop
  endfacet
  facet normal -0.81917 -0.573551 0
    outer loop
      vertex 5.07492 4.25842 9
      vertex 5.7373 3.31238 0
      vertex 5.7373 3.31238 9
    endloop
  endfacet
  facet normal 0.81917 -0.573551 0
    outer loop
      vertex -5.7373 3.31238 9
      vertex -5.07492 4.25842 0
      vertex -5.07492 4.25842 9
    endloop
  endfacet
  facet normal 0.81917 -0.573551 0
    outer loop
      vertex -5.07492 4.25842 0
      vertex -5.7373 3.31238 9
      vertex -5.7373 3.31238 0
    endloop
  endfacet
  facet normal 0.99619 -0.0872112 0
    outer loop
      vertex -6.62491 0 9
      vertex -6.5242 1.15036 0
      vertex -6.5242 1.15036 9
    endloop
  endfacet
  facet normal 0.99619 -0.0872112 0
    outer loop
      vertex -6.5242 1.15036 0
      vertex -6.62491 0 9
      vertex -6.62491 0 0
    endloop
  endfacet
  facet normal 0.99619 0.0872112 0
    outer loop
      vertex -6.5242 -1.15036 9
      vertex -6.62491 0 0
      vertex -6.62491 0 9
    endloop
  endfacet
  facet normal 0.99619 0.0872112 0
    outer loop
      vertex -6.62491 0 0
      vertex -6.5242 -1.15036 9
      vertex -6.5242 -1.15036 0
    endloop
  endfacet
  facet normal 0.965949 -0.258732 0
    outer loop
      vertex -6.5242 1.15036 9
      vertex -6.22543 2.26578 0
      vertex -6.22543 2.26578 9
    endloop
  endfacet
  facet normal 0.965949 -0.258732 0
    outer loop
      vertex -6.22543 2.26578 0
      vertex -6.5242 1.15036 9
      vertex -6.5242 1.15036 0
    endloop
  endfacet
  facet normal 0.906278 0.422683 0
    outer loop
      vertex -5.7373 -3.31238 9
      vertex -6.22543 -2.26578 0
      vertex -6.22543 -2.26578 9
    endloop
  endfacet
  facet normal 0.906278 0.422683 0
    outer loop
      vertex -6.22543 -2.26578 0
      vertex -5.7373 -3.31238 9
      vertex -5.7373 -3.31238 0
    endloop
  endfacet
  facet normal 0.707107 0.707107 0
    outer loop
      vertex -4.25842 -5.07492 9
      vertex -5.07492 -4.25842 0
      vertex -5.07492 -4.25842 9
    endloop
  endfacet
  facet normal 0.707107 0.707107 0
    outer loop
      vertex -5.07492 -4.25842 0
      vertex -4.25842 -5.07492 9
      vertex -4.25842 -5.07492 0
    endloop
  endfacet
  facet normal 0.422683 0.906278 -0
    outer loop
      vertex -2.26578 -6.22543 0
      vertex -3.31238 -5.7373 9
      vertex -2.26578 -6.22543 9
    endloop
  endfacet
  facet normal 0.422683 0.906278 0
    outer loop
      vertex -3.31238 -5.7373 9
      vertex -2.26578 -6.22543 0
      vertex -3.31238 -5.7373 0
    endloop
  endfacet
  facet normal 0.0872112 0.99619 -0
    outer loop
      vertex 0 -6.62491 0
      vertex -1.15036 -6.5242 9
      vertex 0 -6.62491 9
    endloop
  endfacet
  facet normal 0.0872112 0.99619 0
    outer loop
      vertex -1.15036 -6.5242 9
      vertex 0 -6.62491 0
      vertex -1.15036 -6.5242 0
    endloop
  endfacet
  facet normal -0.0872112 -0.99619 0
    outer loop
      vertex 0 6.62491 0
      vertex 1.15036 6.5242 9
      vertex 0 6.62491 9
    endloop
  endfacet
  facet normal -0.0872112 -0.99619 -0
    outer loop
      vertex 1.15036 6.5242 9
      vertex 0 6.62491 0
      vertex 1.15036 6.5242 0
    endloop
  endfacet
  facet normal -0.707107 -0.707107 0
    outer loop
      vertex 5.07492 4.25842 0
      vertex 4.25842 5.07492 9
      vertex 4.25842 5.07492 0
    endloop
  endfacet
  facet normal -0.707107 -0.707107 0
    outer loop
      vertex 4.25842 5.07492 9
      vertex 5.07492 4.25842 0
      vertex 5.07492 4.25842 9
    endloop
  endfacet
  facet normal -0.573551 -0.81917 0
    outer loop
      vertex 3.31238 5.7373 0
      vertex 4.25842 5.07492 9
      vertex 3.31238 5.7373 9
    endloop
  endfacet
  facet normal -0.573551 -0.81917 -0
    outer loop
      vertex 4.25842 5.07492 9
      vertex 3.31238 5.7373 0
      vertex 4.25842 5.07492 0
    endloop
  endfacet
  facet normal -0.258732 -0.965949 0
    outer loop
      vertex 1.15036 6.5242 0
      vertex 2.26578 6.22543 9
      vertex 1.15036 6.5242 9
    endloop
  endfacet
  facet normal -0.258732 -0.965949 -0
    outer loop
      vertex 2.26578 6.22543 9
      vertex 1.15036 6.5242 0
      vertex 2.26578 6.22543 0
    endloop
  endfacet
  facet normal 0.0872112 -0.99619 0
    outer loop
      vertex -1.15036 6.5242 0
      vertex 0 6.62491 9
      vertex -1.15036 6.5242 9
    endloop
  endfacet
  facet normal 0.0872112 -0.99619 0
    outer loop
      vertex 0 6.62491 9
      vertex -1.15036 6.5242 0
      vertex 0 6.62491 0
    endloop
  endfacet
  facet normal -0.99619 0.0872112 0
    outer loop
      vertex 6.5242 -1.15036 0
      vertex 6.62491 0 9
      vertex 6.62491 0 0
    endloop
  endfacet
  facet normal -0.99619 0.0872112 0
    outer loop
      vertex 6.62491 0 9
      vertex 6.5242 -1.15036 0
      vertex 6.5242 -1.15036 9
    endloop
  endfacet
  facet normal -0.965949 0.258732 0
    outer loop
      vertex 6.22543 -2.26578 0
      vertex 6.5242 -1.15036 9
      vertex 6.5242 -1.15036 0
    endloop
  endfacet
  facet normal -0.965949 0.258732 0
    outer loop
      vertex 6.5242 -1.15036 9
      vertex 6.22543 -2.26578 0
      vertex 6.22543 -2.26578 9
    endloop
  endfacet
  facet normal -0.99619 -0.0872112 0
    outer loop
      vertex 6.62491 0 0
      vertex 6.5242 1.15036 9
      vertex 6.5242 1.15036 0
    endloop
  endfacet
  facet normal -0.99619 -0.0872112 0
    outer loop
      vertex 6.5242 1.15036 9
      vertex 6.62491 0 0
      vertex 6.62491 0 9
    endloop
  endfacet
  facet normal -0.81917 0.573551 0
    outer loop
      vertex 5.07492 -4.25842 0
      vertex 5.7373 -3.31238 9
      vertex 5.7373 -3.31238 0
    endloop
  endfacet
  facet normal -0.81917 0.573551 0
    outer loop
      vertex 5.7373 -3.31238 9
      vertex 5.07492 -4.25842 0
      vertex 5.07492 -4.25842 9
    endloop
  endfacet
  facet normal -0.906278 0.422683 0
    outer loop
      vertex 5.7373 -3.31238 0
      vertex 6.22543 -2.26578 9
      vertex 6.22543 -2.26578 0
    endloop
  endfacet
  facet normal -0.906278 0.422683 0
    outer loop
      vertex 6.22543 -2.26578 9
      vertex 5.7373 -3.31238 0
      vertex 5.7373 -3.31238 9
    endloop
  endfacet
  facet normal -0.573551 0.81917 0
    outer loop
      vertex 4.25842 -5.07492 0
      vertex 3.31238 -5.7373 9
      vertex 4.25842 -5.07492 9
    endloop
  endfacet
  facet normal -0.573551 0.81917 0
    outer loop
      vertex 3.31238 -5.7373 9
      vertex 4.25842 -5.07492 0
      vertex 3.31238 -5.7373 0
    endloop
  endfacet
  facet normal 0.422683 -0.906278 0
    outer loop
      vertex -3.31238 5.7373 0
      vertex -2.26578 6.22543 9
      vertex -3.31238 5.7373 9
    endloop
  endfacet
  facet normal 0.422683 -0.906278 0
    outer loop
      vertex -2.26578 6.22543 9
      vertex -3.31238 5.7373 0
      vertex -2.26578 6.22543 0
    endloop
  endfacet
  facet normal 0.707107 -0.707107 0
    outer loop
      vertex -5.07492 4.25842 9
      vertex -4.25842 5.07492 0
      vertex -4.25842 5.07492 9
    endloop
  endfacet
  facet normal 0.707107 -0.707107 0
    outer loop
      vertex -4.25842 5.07492 0
      vertex -5.07492 4.25842 9
      vertex -5.07492 4.25842 0
    endloop
  endfacet
  facet normal 0.965949 0.258732 0
    outer loop
      vertex -6.22543 -2.26578 9
      vertex -6.5242 -1.15036 0
      vertex -6.5242 -1.15036 9
    endloop
  endfacet
  facet normal 0.965949 0.258732 0
    outer loop
      vertex -6.5242 -1.15036 0
      vertex -6.22543 -2.26578 9
      vertex -6.22543 -2.26578 0
    endloop
  endfacet
  facet normal 0.81917 0.573551 0
    outer loop
      vertex -5.07492 -4.25842 9
      vertex -5.7373 -3.31238 0
      vertex -5.7373 -3.31238 9
    endloop
  endfacet
  facet normal 0.81917 0.573551 0
    outer loop
      vertex -5.7373 -3.31238 0
      vertex -5.07492 -4.25842 9
      vertex -5.07492 -4.25842 0
    endloop
  endfacet
  facet normal 0.573551 0.81917 -0
    outer loop
      vertex -3.31238 -5.7373 0
      vertex -4.25842 -5.07492 9
      vertex -3.31238 -5.7373 9
    endloop
  endfacet
  facet normal 0.573551 0.81917 0
    outer loop
      vertex -4.25842 -5.07492 9
      vertex -3.31238 -5.7373 0
      vertex -4.25842 -5.07492 0
    endloop
  endfacet
  facet normal 0.258732 0.965949 -0
    outer loop
      vertex -1.15036 -6.5242 0
      vertex -2.26578 -6.22543 9
      vertex -1.15036 -6.5242 9
    endloop
  endfacet
  facet normal 0.258732 0.965949 0
    outer loop
      vertex -2.26578 -6.22543 9
      vertex -1.15036 -6.5242 0
      vertex -2.26578 -6.22543 0
    endloop
  endfacet
  facet normal -0.707107 0.707107 0
    outer loop
      vertex 4.25842 -5.07492 0
      vertex 5.07492 -4.25842 9
      vertex 5.07492 -4.25842 0
    endloop
  endfacet
  facet normal -0.707107 0.707107 0
    outer loop
      vertex 5.07492 -4.25842 9
      vertex 4.25842 -5.07492 0
      vertex 4.25842 -5.07492 9
    endloop
  endfacet
  facet normal -0.906278 -0.422683 0
    outer loop
      vertex 6.22543 2.26578 0
      vertex 5.7373 3.31238 9
      vertex 5.7373 3.31238 0
    endloop
  endfacet
  facet normal -0.906278 -0.422683 0
    outer loop
      vertex 5.7373 3.31238 9
      vertex 6.22543 2.26578 0
      vertex 6.22543 2.26578 9
    endloop
  endfacet
  facet normal -0.0870801 0.996201 0
    outer loop
      vertex -14.6512 28.4262 0
      vertex -15.8015 28.3257 9
      vertex -14.6512 28.4262 9
    endloop
  endfacet
  facet normal -0.0870801 0.996201 0
    outer loop
      vertex -15.8015 28.3257 9
      vertex -14.6512 28.4262 0
      vertex -15.8015 28.3257 0
    endloop
  endfacet
  facet normal -0.258855 0.965916 0
    outer loop
      vertex -13.5358 28.7251 0
      vertex -14.6512 28.4262 9
      vertex -13.5358 28.7251 9
    endloop
  endfacet
  facet normal -0.258855 0.965916 0
    outer loop
      vertex -14.6512 28.4262 9
      vertex -13.5358 28.7251 0
      vertex -14.6512 28.4262 0
    endloop
  endfacet
  facet normal 0.0871997 -0.996191 0
    outer loop
      vertex -16.9521 41.4749 0
      vertex -15.8015 41.5756 9
      vertex -16.9521 41.4749 9
    endloop
  endfacet
  facet normal 0.0871997 -0.996191 0
    outer loop
      vertex -15.8015 41.5756 9
      vertex -16.9521 41.4749 0
      vertex -15.8015 41.5756 0
    endloop
  endfacet
  facet normal 0.906328 0.422574 0
    outer loop
      vertex -21.539 31.6382 9
      vertex -22.027 32.6848 0
      vertex -22.027 32.6848 9
    endloop
  endfacet
  facet normal 0.906328 0.422574 0
    outer loop
      vertex -22.027 32.6848 0
      vertex -21.539 31.6382 9
      vertex -21.539 31.6382 0
    endloop
  endfacet
  facet normal -0.573613 -0.819126 0
    outer loop
      vertex -12.489 40.688 0
      vertex -11.5431 40.0256 9
      vertex -12.489 40.688 9
    endloop
  endfacet
  facet normal -0.573613 -0.819126 -0
    outer loop
      vertex -11.5431 40.0256 9
      vertex -12.489 40.688 0
      vertex -11.5431 40.0256 0
    endloop
  endfacet
  facet normal 0.819126 -0.573613 0
    outer loop
      vertex -21.539 38.2631 9
      vertex -20.8766 39.209 0
      vertex -20.8766 39.209 9
    endloop
  endfacet
  facet normal 0.819126 -0.573613 0
    outer loop
      vertex -20.8766 39.209 0
      vertex -21.539 38.2631 9
      vertex -21.539 38.2631 0
    endloop
  endfacet
  facet normal 0.573613 0.819126 -0
    outer loop
      vertex -19.1141 29.2131 0
      vertex -20.06 29.8755 9
      vertex -19.1141 29.2131 9
    endloop
  endfacet
  facet normal 0.573613 0.819126 0
    outer loop
      vertex -20.06 29.8755 9
      vertex -19.1141 29.2131 0
      vertex -20.06 29.8755 0
    endloop
  endfacet
  facet normal 0.996202 0.0870686 0
    outer loop
      vertex -22.3259 33.8 9
      vertex -22.4265 34.9506 0
      vertex -22.4265 34.9506 9
    endloop
  endfacet
  facet normal 0.996202 0.0870686 0
    outer loop
      vertex -22.4265 34.9506 0
      vertex -22.3259 33.8 9
      vertex -22.3259 33.8 0
    endloop
  endfacet
  facet normal -0.258855 -0.965916 0
    outer loop
      vertex -14.6512 41.4749 0
      vertex -13.5358 41.176 9
      vertex -14.6512 41.4749 9
    endloop
  endfacet
  facet normal -0.258855 -0.965916 -0
    outer loop
      vertex -13.5358 41.176 9
      vertex -14.6512 41.4749 0
      vertex -13.5358 41.176 0
    endloop
  endfacet
  facet normal 0.81917 0.573551 0
    outer loop
      vertex -20.8766 30.6921 9
      vertex -21.539 31.6382 0
      vertex -21.539 31.6382 9
    endloop
  endfacet
  facet normal 0.81917 0.573551 0
    outer loop
      vertex -21.539 31.6382 0
      vertex -20.8766 30.6921 9
      vertex -20.8766 30.6921 0
    endloop
  endfacet
  facet normal 0.707107 0.707107 0
    outer loop
      vertex -20.06 29.8755 9
      vertex -20.8766 30.6921 0
      vertex -20.8766 30.6921 9
    endloop
  endfacet
  facet normal 0.707107 0.707107 0
    outer loop
      vertex -20.8766 30.6921 0
      vertex -20.06 29.8755 9
      vertex -20.06 29.8755 0
    endloop
  endfacet
  facet normal 0.422574 0.906328 -0
    outer loop
      vertex -18.0675 28.7251 0
      vertex -19.1141 29.2131 9
      vertex -18.0675 28.7251 9
    endloop
  endfacet
  facet normal 0.422574 0.906328 0
    outer loop
      vertex -19.1141 29.2131 9
      vertex -18.0675 28.7251 0
      vertex -19.1141 29.2131 0
    endloop
  endfacet
  facet normal 0.258855 0.965916 -0
    outer loop
      vertex -16.9521 28.4262 0
      vertex -18.0675 28.7251 9
      vertex -16.9521 28.4262 9
    endloop
  endfacet
  facet normal 0.258855 0.965916 0
    outer loop
      vertex -18.0675 28.7251 9
      vertex -16.9521 28.4262 0
      vertex -18.0675 28.7251 0
    endloop
  endfacet
  facet normal 0.965907 0.258888 0
    outer loop
      vertex -22.027 32.6848 9
      vertex -22.3259 33.8 0
      vertex -22.3259 33.8 9
    endloop
  endfacet
  facet normal 0.965907 0.258888 0
    outer loop
      vertex -22.3259 33.8 0
      vertex -22.027 32.6848 9
      vertex -22.027 32.6848 0
    endloop
  endfacet
  facet normal -0.0872112 -0.99619 0
    outer loop
      vertex -15.8015 41.5756 0
      vertex -14.6512 41.4749 9
      vertex -15.8015 41.5756 9
    endloop
  endfacet
  facet normal -0.0872112 -0.99619 -0
    outer loop
      vertex -14.6512 41.4749 9
      vertex -15.8015 41.5756 0
      vertex -14.6512 41.4749 0
    endloop
  endfacet
  facet normal -0.906328 0.422574 0
    outer loop
      vertex -10.0641 31.6382 0
      vertex -9.57611 32.6848 9
      vertex -9.57611 32.6848 0
    endloop
  endfacet
  facet normal -0.906328 0.422574 0
    outer loop
      vertex -9.57611 32.6848 9
      vertex -10.0641 31.6382 0
      vertex -10.0641 31.6382 9
    endloop
  endfacet
  facet normal -0.996202 -0.0870686 0
    outer loop
      vertex -9.17664 34.9506 0
      vertex -9.27719 36.1011 9
      vertex -9.27719 36.1011 0
    endloop
  endfacet
  facet normal -0.996202 -0.0870686 0
    outer loop
      vertex -9.27719 36.1011 9
      vertex -9.17664 34.9506 0
      vertex -9.17664 34.9506 9
    endloop
  endfacet
  facet normal -0.422524 0.906352 0
    outer loop
      vertex -12.489 29.2131 0
      vertex -13.5358 28.7251 9
      vertex -12.489 29.2131 9
    endloop
  endfacet
  facet normal -0.422524 0.906352 0
    outer loop
      vertex -13.5358 28.7251 9
      vertex -12.489 29.2131 0
      vertex -13.5358 28.7251 0
    endloop
  endfacet
  facet normal 0.707107 -0.707107 0
    outer loop
      vertex -20.8766 39.209 9
      vertex -20.06 40.0256 0
      vertex -20.06 40.0256 9
    endloop
  endfacet
  facet normal 0.707107 -0.707107 0
    outer loop
      vertex -20.06 40.0256 0
      vertex -20.8766 39.209 9
      vertex -20.8766 39.209 0
    endloop
  endfacet
  facet normal 0.0870686 0.996202 -0
    outer loop
      vertex -15.8015 28.3257 0
      vertex -16.9521 28.4262 9
      vertex -15.8015 28.3257 9
    endloop
  endfacet
  facet normal 0.0870686 0.996202 0
    outer loop
      vertex -16.9521 28.4262 9
      vertex -15.8015 28.3257 0
      vertex -16.9521 28.4262 0
    endloop
  endfacet
  facet normal -0.422524 -0.906352 0
    outer loop
      vertex -13.5358 41.176 0
      vertex -12.489 40.688 9
      vertex -13.5358 41.176 9
    endloop
  endfacet
  facet normal -0.422524 -0.906352 -0
    outer loop
      vertex -12.489 40.688 9
      vertex -13.5358 41.176 0
      vertex -12.489 40.688 0
    endloop
  endfacet
  facet normal -0.996202 0.0870686 0
    outer loop
      vertex -9.27719 33.8 0
      vertex -9.17664 34.9506 9
      vertex -9.17664 34.9506 0
    endloop
  endfacet
  facet normal -0.996202 0.0870686 0
    outer loop
      vertex -9.17664 34.9506 9
      vertex -9.27719 33.8 0
      vertex -9.27719 33.8 9
    endloop
  endfacet
  facet normal -0.819126 -0.573613 0
    outer loop
      vertex -10.0641 38.2631 0
      vertex -10.7265 39.209 9
      vertex -10.7265 39.209 0
    endloop
  endfacet
  facet normal -0.819126 -0.573613 0
    outer loop
      vertex -10.7265 39.209 9
      vertex -10.0641 38.2631 0
      vertex -10.0641 38.2631 9
    endloop
  endfacet
  facet normal -0.906328 -0.422574 0
    outer loop
      vertex -9.57611 37.2165 0
      vertex -10.0641 38.2631 9
      vertex -10.0641 38.2631 0
    endloop
  endfacet
  facet normal -0.906328 -0.422574 0
    outer loop
      vertex -10.0641 38.2631 9
      vertex -9.57611 37.2165 0
      vertex -9.57611 37.2165 9
    endloop
  endfacet
  facet normal -0.965916 -0.258855 0
    outer loop
      vertex -9.27719 36.1011 0
      vertex -9.57611 37.2165 9
      vertex -9.57611 37.2165 0
    endloop
  endfacet
  facet normal -0.965916 -0.258855 0
    outer loop
      vertex -9.57611 37.2165 9
      vertex -9.27719 36.1011 0
      vertex -9.27719 36.1011 9
    endloop
  endfacet
  facet normal 0.573613 -0.819126 0
    outer loop
      vertex -20.06 40.0256 0
      vertex -19.1141 40.688 9
      vertex -20.06 40.0256 9
    endloop
  endfacet
  facet normal 0.573613 -0.819126 0
    outer loop
      vertex -19.1141 40.688 9
      vertex -20.06 40.0256 0
      vertex -19.1141 40.688 0
    endloop
  endfacet
  facet normal 0.422574 -0.906328 0
    outer loop
      vertex -19.1141 40.688 0
      vertex -18.0675 41.176 9
      vertex -19.1141 40.688 9
    endloop
  endfacet
  facet normal 0.422574 -0.906328 0
    outer loop
      vertex -18.0675 41.176 9
      vertex -19.1141 40.688 0
      vertex -18.0675 41.176 0
    endloop
  endfacet
  facet normal 0.258855 -0.965916 0
    outer loop
      vertex -18.0675 41.176 0
      vertex -16.9521 41.4749 9
      vertex -18.0675 41.176 9
    endloop
  endfacet
  facet normal 0.258855 -0.965916 0
    outer loop
      vertex -16.9521 41.4749 9
      vertex -18.0675 41.176 0
      vertex -16.9521 41.4749 0
    endloop
  endfacet
  facet normal 0.996202 -0.0870686 0
    outer loop
      vertex -22.4265 34.9506 9
      vertex -22.3259 36.1011 0
      vertex -22.3259 36.1011 9
    endloop
  endfacet
  facet normal 0.996202 -0.0870686 0
    outer loop
      vertex -22.3259 36.1011 0
      vertex -22.4265 34.9506 9
      vertex -22.4265 34.9506 0
    endloop
  endfacet
  facet normal 0.965916 -0.258855 0
    outer loop
      vertex -22.3259 36.1011 9
      vertex -22.027 37.2165 0
      vertex -22.027 37.2165 9
    endloop
  endfacet
  facet normal 0.965916 -0.258855 0
    outer loop
      vertex -22.027 37.2165 0
      vertex -22.3259 36.1011 9
      vertex -22.3259 36.1011 0
    endloop
  endfacet
  facet normal 0.906328 -0.422574 0
    outer loop
      vertex -22.027 37.2165 9
      vertex -21.539 38.2631 0
      vertex -21.539 38.2631 9
    endloop
  endfacet
  facet normal 0.906328 -0.422574 0
    outer loop
      vertex -21.539 38.2631 0
      vertex -22.027 37.2165 9
      vertex -22.027 37.2165 0
    endloop
  endfacet
  facet normal -0.965907 0.258888 0
    outer loop
      vertex -9.57611 32.6848 0
      vertex -9.27719 33.8 9
      vertex -9.27719 33.8 0
    endloop
  endfacet
  facet normal -0.965907 0.258888 0
    outer loop
      vertex -9.27719 33.8 9
      vertex -9.57611 32.6848 0
      vertex -9.57611 32.6848 9
    endloop
  endfacet
  facet normal -0.573613 0.819126 0
    outer loop
      vertex -11.5431 29.8755 0
      vertex -12.489 29.2131 9
      vertex -11.5431 29.8755 9
    endloop
  endfacet
  facet normal -0.573613 0.819126 0
    outer loop
      vertex -12.489 29.2131 9
      vertex -11.5431 29.8755 0
      vertex -12.489 29.2131 0
    endloop
  endfacet
  facet normal -0.707107 -0.707107 0
    outer loop
      vertex -10.7265 39.209 0
      vertex -11.5431 40.0256 9
      vertex -11.5431 40.0256 0
    endloop
  endfacet
  facet normal -0.707107 -0.707107 0
    outer loop
      vertex -11.5431 40.0256 9
      vertex -10.7265 39.209 0
      vertex -10.7265 39.209 9
    endloop
  endfacet
  facet normal -0.81917 0.573551 0
    outer loop
      vertex -10.7265 30.6921 0
      vertex -10.0641 31.6382 9
      vertex -10.0641 31.6382 0
    endloop
  endfacet
  facet normal -0.81917 0.573551 0
    outer loop
      vertex -10.0641 31.6382 9
      vertex -10.7265 30.6921 0
      vertex -10.7265 30.6921 9
    endloop
  endfacet
  facet normal -0.707107 0.707107 0
    outer loop
      vertex -11.5431 29.8755 0
      vertex -10.7265 30.6921 9
      vertex -10.7265 30.6921 0
    endloop
  endfacet
  facet normal -0.707107 0.707107 0
    outer loop
      vertex -10.7265 30.6921 9
      vertex -11.5431 29.8755 0
      vertex -11.5431 29.8755 9
    endloop
  endfacet
endsolid OpenSCAD_Model
