solid OpenSCAD_Model
  facet normal 0.384814 -0.922994 0
    outer loop
      vertex 32.9984 -35.1765 0
      vertex 34.205 -34.6734 5.4
      vertex 32.9984 -35.1765 5.4
    endloop
  endfacet
  facet normal 0.384814 -0.922994 0
    outer loop
      vertex 34.205 -34.6734 5.4
      vertex 32.9984 -35.1765 0
      vertex 34.205 -34.6734 0
    endloop
  endfacet
  facet normal 0.0458683 -0.998947 0
    outer loop
      vertex 30.4167 -35.5223 0
      vertex 31.7227 -35.4623 5.4
      vertex 30.4167 -35.5223 5.4
    endloop
  endfacet
  facet normal 0.0458683 -0.998947 0
    outer loop
      vertex 31.7227 -35.4623 5.4
      vertex 30.4167 -35.5223 0
      vertex 31.7227 -35.4623 0
    endloop
  endfacet
  facet normal -0.218636 0.975807 0
    outer loop
      vertex -0.995728 7.43353 0
      vertex -2.27142 7.14771 5.4
      vertex -0.995728 7.43353 5.4
    endloop
  endfacet
  facet normal -0.218636 0.975807 0
    outer loop
      vertex -2.27142 7.14771 5.4
      vertex -0.995728 7.43353 0
      vertex -2.27142 7.14771 0
    endloop
  endfacet
  facet normal 0.218636 -0.975807 0
    outer loop
      vertex 31.7227 -35.4623 0
      vertex 32.9984 -35.1765 5.4
      vertex 31.7227 -35.4623 5.4
    endloop
  endfacet
  facet normal 0.218636 -0.975807 0
    outer loop
      vertex 32.9984 -35.1765 5.4
      vertex 31.7227 -35.4623 0
      vertex 32.9984 -35.1765 0
    endloop
  endfacet
  facet normal 0.842196 0.539171 0
    outer loop
      vertex 37.3716 -24.5506 5.4
      vertex 36.6668 -23.4496 0
      vertex 36.6668 -23.4496 5.4
    endloop
  endfacet
  facet normal 0.842196 0.539171 0
    outer loop
      vertex 36.6668 -23.4496 0
      vertex 37.3716 -24.5506 5.4
      vertex 37.3716 -24.5506 0
    endloop
  endfacet
  facet normal -0.842165 -0.539221 0
    outer loop
      vertex -5.93976 -4.5791 0
      vertex -6.64471 -3.47809 5.4
      vertex -6.64471 -3.47809 0
    endloop
  endfacet
  facet normal -0.842165 -0.539221 0
    outer loop
      vertex -6.64471 -3.47809 5.4
      vertex -5.93976 -4.5791 0
      vertex -5.93976 -4.5791 5.4
    endloop
  endfacet
  facet normal 0.954395 -0.298546 0
    outer loop
      vertex 37.6624 -30.8831 5.4
      vertex 38.0527 -29.6354 0
      vertex 38.0527 -29.6354 5.4
    endloop
  endfacet
  facet normal 0.954395 -0.298546 0
    outer loop
      vertex 38.0527 -29.6354 0
      vertex 37.6624 -30.8831 5.4
      vertex 37.6624 -30.8831 0
    endloop
  endfacet
  facet normal -0.888021 0.459802 0
    outer loop
      vertex -6.93558 2.85443 0
      vertex -6.33444 4.01541 5.4
      vertex -6.33444 4.01541 0
    endloop
  endfacet
  facet normal -0.888021 0.459802 0
    outer loop
      vertex -6.33444 4.01541 5.4
      vertex -6.93558 2.85443 0
      vertex -6.93558 2.85443 5.4
    endloop
  endfacet
  facet normal -0.73574 -0.677264 0
    outer loop
      vertex -5.05435 -5.54095 0
      vertex -5.93976 -4.5791 5.4
      vertex -5.93976 -4.5791 0
    endloop
  endfacet
  facet normal -0.73574 -0.677264 0
    outer loop
      vertex -5.93976 -4.5791 5.4
      vertex -5.05435 -5.54095 0
      vertex -5.05435 -5.54095 5.4
    endloop
  endfacet
  facet normal 0.673923 0.738802 -0
    outer loop
      vertex 35.7813 -22.4876 0
      vertex 5.05435 5.54095 5.4
      vertex 35.7813 -22.4876 5.4
    endloop
  endfacet
  facet normal 0.673923 0.738802 0
    outer loop
      vertex 5.05435 5.54095 5.4
      vertex 35.7813 -22.4876 0
      vertex 5.05435 5.54095 0
    endloop
  endfacet
  facet normal 0.735737 0.677267 0
    outer loop
      vertex 36.6668 -23.4496 5.4
      vertex 35.7813 -22.4876 0
      vertex 35.7813 -22.4876 5.4
    endloop
  endfacet
  facet normal 0.735737 0.677267 0
    outer loop
      vertex 35.7813 -22.4876 0
      vertex 36.6668 -23.4496 5.4
      vertex 36.6668 -23.4496 0
    endloop
  endfacet
  facet normal -0.539221 0.842165 0
    outer loop
      vertex -3.47809 6.64471 0
      vertex -4.5791 5.93976 5.4
      vertex -3.47809 6.64471 5.4
    endloop
  endfacet
  facet normal -0.539221 0.842165 0
    outer loop
      vertex -4.5791 5.93976 5.4
      vertex -3.47809 6.64471 0
      vertex -4.5791 5.93976 0
    endloop
  endfacet
  facet normal -0.384755 0.923019 0
    outer loop
      vertex -2.27142 7.14771 0
      vertex -3.47809 6.64471 5.4
      vertex -2.27142 7.14771 5.4
    endloop
  endfacet
  facet normal -0.384755 0.923019 0
    outer loop
      vertex -3.47809 6.64471 5.4
      vertex -2.27142 7.14771 0
      vertex -3.47809 6.64471 0
    endloop
  endfacet
  facet normal -0.677264 0.73574 0
    outer loop
      vertex -4.5791 5.93976 0
      vertex -5.54095 5.05435 5.4
      vertex -4.5791 5.93976 5.4
    endloop
  endfacet
  facet normal -0.677264 0.73574 0
    outer loop
      vertex -5.54095 5.05435 5.4
      vertex -4.5791 5.93976 0
      vertex -5.54095 5.05435 0
    endloop
  endfacet
  facet normal -0.998947 -0.0458715 0
    outer loop
      vertex -7.43353 -0.995728 0
      vertex -7.4935 0.310181 5.4
      vertex -7.4935 0.310181 0
    endloop
  endfacet
  facet normal -0.998947 -0.0458715 0
    outer loop
      vertex -7.4935 0.310181 5.4
      vertex -7.43353 -0.995728 0
      vertex -7.43353 -0.995728 5.4
    endloop
  endfacet
  facet normal -0.954395 0.298546 0
    outer loop
      vertex -7.32587 1.60675 0
      vertex -6.93558 2.85443 5.4
      vertex -6.93558 2.85443 0
    endloop
  endfacet
  facet normal -0.954395 0.298546 0
    outer loop
      vertex -6.93558 2.85443 5.4
      vertex -7.32587 1.60675 0
      vertex -7.32587 1.60675 5.4
    endloop
  endfacet
  facet normal -0.673925 -0.7388 0
    outer loop
      vertex -5.05435 -5.54095 0
      vertex 25.6725 -33.5696 5.4
      vertex -5.05435 -5.54095 5.4
    endloop
  endfacet
  facet normal -0.673925 -0.7388 -0
    outer loop
      vertex 25.6725 -33.5696 5.4
      vertex -5.05435 -5.54095 0
      vertex 25.6725 -33.5696 0
    endloop
  endfacet
  facet normal -0.607013 -0.794692 0
    outer loop
      vertex 25.6725 -33.5696 0
      vertex 26.7114 -34.3632 5.4
      vertex 25.6725 -33.5696 5.4
    endloop
  endfacet
  facet normal -0.607013 -0.794692 -0
    outer loop
      vertex 26.7114 -34.3632 5.4
      vertex 25.6725 -33.5696 0
      vertex 26.7114 -34.3632 0
    endloop
  endfacet
  facet normal 0.298546 0.954395 -0
    outer loop
      vertex 2.85443 6.93558 0
      vertex 1.60675 7.32587 5.4
      vertex 2.85443 6.93558 5.4
    endloop
  endfacet
  facet normal 0.298546 0.954395 0
    outer loop
      vertex 1.60675 7.32587 5.4
      vertex 2.85443 6.93558 0
      vertex 1.60675 7.32587 0
    endloop
  endfacet
  facet normal 0.998944 0.0459381 0
    outer loop
      vertex 38.2205 -28.339 5.4
      vertex 38.1605 -27.033 0
      vertex 38.1605 -27.033 5.4
    endloop
  endfacet
  facet normal 0.998944 0.0459381 0
    outer loop
      vertex 38.1605 -27.033 0
      vertex 38.2205 -28.339 5.4
      vertex 38.2205 -28.339 0
    endloop
  endfacet
  facet normal 0.991726 -0.128369 0
    outer loop
      vertex 38.0527 -29.6354 5.4
      vertex 38.2205 -28.339 0
      vertex 38.2205 -28.339 5.4
    endloop
  endfacet
  facet normal 0.991726 -0.128369 0
    outer loop
      vertex 38.2205 -28.339 0
      vertex 38.0527 -29.6354 5.4
      vertex 38.0527 -29.6354 0
    endloop
  endfacet
  facet normal 0.975807 0.218636 0
    outer loop
      vertex 38.1605 -27.033 5.4
      vertex 37.8746 -25.7573 0
      vertex 37.8746 -25.7573 5.4
    endloop
  endfacet
  facet normal 0.975807 0.218636 0
    outer loop
      vertex 37.8746 -25.7573 0
      vertex 38.1605 -27.033 5.4
      vertex 38.1605 -27.033 0
    endloop
  endfacet
  facet normal 0.888065 -0.459718 0
    outer loop
      vertex 37.0614 -32.0442 5.4
      vertex 37.6624 -30.8831 0
      vertex 37.6624 -30.8831 5.4
    endloop
  endfacet
  facet normal 0.888065 -0.459718 0
    outer loop
      vertex 37.6624 -30.8831 0
      vertex 37.0614 -32.0442 5.4
      vertex 37.0614 -32.0442 0
    endloop
  endfacet
  facet normal 0.539171 -0.842196 0
    outer loop
      vertex 34.205 -34.6734 0
      vertex 35.306 -33.9685 5.4
      vertex 34.205 -34.6734 5.4
    endloop
  endfacet
  facet normal 0.539171 -0.842196 0
    outer loop
      vertex 35.306 -33.9685 5.4
      vertex 34.205 -34.6734 0
      vertex 35.306 -33.9685 0
    endloop
  endfacet
  facet normal -0.794725 0.606969 0
    outer loop
      vertex -6.33444 4.01541 0
      vertex -5.54095 5.05435 5.4
      vertex -5.54095 5.05435 0
    endloop
  endfacet
  facet normal -0.794725 0.606969 0
    outer loop
      vertex -5.54095 5.05435 5.4
      vertex -6.33444 4.01541 0
      vertex -6.33444 4.01541 5.4
    endloop
  endfacet
  facet normal -0.975807 -0.218636 0
    outer loop
      vertex -7.14771 -2.27142 0
      vertex -7.43353 -0.995728 5.4
      vertex -7.43353 -0.995728 0
    endloop
  endfacet
  facet normal -0.975807 -0.218636 0
    outer loop
      vertex -7.43353 -0.995728 5.4
      vertex -7.14771 -2.27142 0
      vertex -7.14771 -2.27142 5.4
    endloop
  endfacet
  facet normal -0.991745 0.128222 0
    outer loop
      vertex -7.4935 0.310181 0
      vertex -7.32587 1.60675 5.4
      vertex -7.32587 1.60675 0
    endloop
  endfacet
  facet normal -0.991745 0.128222 0
    outer loop
      vertex -7.32587 1.60675 5.4
      vertex -7.4935 0.310181 0
      vertex -7.4935 0.310181 5.4
    endloop
  endfacet
  facet normal 0 0 -1
    outer loop
      vertex 3.73526 1.35947 0
      vertex 5.05435 5.54095 0
      vertex 3.91452 0.690216 0
    endloop
  endfacet
  facet normal 0 0 -1
    outer loop
      vertex 3.44238 1.98743 0
      vertex 5.05435 5.54095 0
      vertex 3.73526 1.35947 0
    endloop
  endfacet
  facet normal 0 0 -1
    outer loop
      vertex 3.04495 2.55505 0
      vertex 5.05435 5.54095 0
      vertex 3.44238 1.98743 0
    endloop
  endfacet
  facet normal 0 0 -1
    outer loop
      vertex 2.55505 3.04495 0
      vertex 5.05435 5.54095 0
      vertex 3.04495 2.55505 0
    endloop
  endfacet
  facet normal -0 0 -1
    outer loop
      vertex 5.05435 5.54095 0
      vertex 2.55505 3.04495 0
      vertex 4.01541 6.33444 0
    endloop
  endfacet
  facet normal 0 0 -1
    outer loop
      vertex 1.98743 3.44238 0
      vertex 4.01541 6.33444 0
      vertex 2.55505 3.04495 0
    endloop
  endfacet
  facet normal -0 0 -1
    outer loop
      vertex 4.01541 6.33444 0
      vertex 1.98743 3.44238 0
      vertex 2.85443 6.93558 0
    endloop
  endfacet
  facet normal 0 0 -1
    outer loop
      vertex 1.35947 3.73526 0
      vertex 2.85443 6.93558 0
      vertex 1.98743 3.44238 0
    endloop
  endfacet
  facet normal -0 0 -1
    outer loop
      vertex 2.85443 6.93558 0
      vertex 1.35947 3.73526 0
      vertex 1.60675 7.32587 0
    endloop
  endfacet
  facet normal 0 0 -1
    outer loop
      vertex 0.690216 3.91452 0
      vertex 1.60675 7.32587 0
      vertex 1.35947 3.73526 0
    endloop
  endfacet
  facet normal 0 0 -1
    outer loop
      vertex 0.690216 3.91452 0
      vertex 0.310181 7.4935 0
      vertex 1.60675 7.32587 0
    endloop
  endfacet
  facet normal 0 0 -1
    outer loop
      vertex 0 3.97495 0
      vertex 0.310181 7.4935 0
      vertex 0.690216 3.91452 0
    endloop
  endfacet
  facet normal 0 0 -1
    outer loop
      vertex -0.995728 7.43353 0
      vertex 0 3.97495 0
      vertex -0.690216 3.91452 0
    endloop
  endfacet
  facet normal 0 0 -1
    outer loop
      vertex 0 3.97495 0
      vertex -0.995728 7.43353 0
      vertex 0.310181 7.4935 0
    endloop
  endfacet
  facet normal 0 0 -1
    outer loop
      vertex -2.27142 7.14771 0
      vertex -0.690216 3.91452 0
      vertex -1.35947 3.73526 0
    endloop
  endfacet
  facet normal 0 0 -1
    outer loop
      vertex -3.47809 6.64471 0
      vertex -1.35947 3.73526 0
      vertex -1.98743 3.44238 0
    endloop
  endfacet
  facet normal 0 0 -1
    outer loop
      vertex -0.690216 3.91452 0
      vertex -2.27142 7.14771 0
      vertex -0.995728 7.43353 0
    endloop
  endfacet
  facet normal 0 0 -1
    outer loop
      vertex -4.5791 5.93976 0
      vertex -1.98743 3.44238 0
      vertex -2.55505 3.04495 0
    endloop
  endfacet
  facet normal 0 0 -1
    outer loop
      vertex -5.54095 5.05435 0
      vertex -2.55505 3.04495 0
      vertex -3.04495 2.55505 0
    endloop
  endfacet
  facet normal 0 0 -1
    outer loop
      vertex -6.33444 4.01541 0
      vertex -3.04495 2.55505 0
      vertex -3.44238 1.98743 0
    endloop
  endfacet
  facet normal 0 0 -1
    outer loop
      vertex -1.35947 3.73526 0
      vertex -3.47809 6.64471 0
      vertex -2.27142 7.14771 0
    endloop
  endfacet
  facet normal 0 0 -1
    outer loop
      vertex -6.93558 2.85443 0
      vertex -3.44238 1.98743 0
      vertex -3.73526 1.35947 0
    endloop
  endfacet
  facet normal 0 0 -1
    outer loop
      vertex -7.32587 1.60675 0
      vertex -3.73526 1.35947 0
      vertex -3.91452 0.690216 0
    endloop
  endfacet
  facet normal 0 0 -1
    outer loop
      vertex -7.4935 0.310181 0
      vertex -3.91452 0.690216 0
      vertex -3.97495 0 0
    endloop
  endfacet
  facet normal 0 0 -1
    outer loop
      vertex -1.98743 3.44238 0
      vertex -4.5791 5.93976 0
      vertex -3.47809 6.64471 0
    endloop
  endfacet
  facet normal -0 0 -1
    outer loop
      vertex 38.2205 -28.339 0
      vertex 34.6414 -28.719 0
      vertex 34.7019 -28.0287 0
    endloop
  endfacet
  facet normal 0 0 -1
    outer loop
      vertex 36.2679 -33.0831 0
      vertex 34.4622 -29.3882 0
      vertex 34.6414 -28.719 0
    endloop
  endfacet
  facet normal 0 0 -1
    outer loop
      vertex 32.7144 -31.4712 0
      vertex 35.306 -33.9685 0
      vertex 34.205 -34.6734 0
    endloop
  endfacet
  facet normal 0 0 -1
    outer loop
      vertex 36.2679 -33.0831 0
      vertex 34.1693 -30.0161 0
      vertex 34.4622 -29.3882 0
    endloop
  endfacet
  facet normal 0 0 -1
    outer loop
      vertex 36.2679 -33.0831 0
      vertex 33.7719 -30.5837 0
      vertex 34.1693 -30.0161 0
    endloop
  endfacet
  facet normal 0 0 -1
    outer loop
      vertex 36.2679 -33.0831 0
      vertex 33.282 -31.0737 0
      vertex 33.7719 -30.5837 0
    endloop
  endfacet
  facet normal 0 0 -1
    outer loop
      vertex 32.0865 -31.7639 0
      vertex 34.205 -34.6734 0
      vertex 32.9984 -35.1765 0
    endloop
  endfacet
  facet normal 0 0 -1
    outer loop
      vertex 35.306 -33.9685 0
      vertex 32.7144 -31.4712 0
      vertex 33.282 -31.0737 0
    endloop
  endfacet
  facet normal 0 0 -1
    outer loop
      vertex 34.205 -34.6734 0
      vertex 32.0865 -31.7639 0
      vertex 32.7144 -31.4712 0
    endloop
  endfacet
  facet normal 0 0 -1
    outer loop
      vertex 31.4171 -31.9433 0
      vertex 32.9984 -35.1765 0
      vertex 31.7227 -35.4623 0
    endloop
  endfacet
  facet normal 0 0 -1
    outer loop
      vertex 32.9984 -35.1765 0
      vertex 31.4171 -31.9433 0
      vertex 32.0865 -31.7639 0
    endloop
  endfacet
  facet normal 0 0 -1
    outer loop
      vertex 31.7227 -35.4623 0
      vertex 30.7269 -32.0036 0
      vertex 31.4171 -31.9433 0
    endloop
  endfacet
  facet normal 0 0 -1
    outer loop
      vertex 30.4167 -35.5223 0
      vertex 30.7269 -32.0036 0
      vertex 31.7227 -35.4623 0
    endloop
  endfacet
  facet normal 0 0 -1
    outer loop
      vertex 30.4167 -35.5223 0
      vertex 30.0367 -31.9433 0
      vertex 30.7269 -32.0036 0
    endloop
  endfacet
  facet normal 0 0 -1
    outer loop
      vertex 29.1201 -35.3546 0
      vertex 30.0367 -31.9433 0
      vertex 30.4167 -35.5223 0
    endloop
  endfacet
  facet normal -0 0 -1
    outer loop
      vertex 30.0367 -31.9433 0
      vertex 29.1201 -35.3546 0
      vertex 29.3674 -31.7639 0
    endloop
  endfacet
  facet normal 0 0 -1
    outer loop
      vertex 27.8724 -34.9643 0
      vertex 29.3674 -31.7639 0
      vertex 29.1201 -35.3546 0
    endloop
  endfacet
  facet normal -0 0 -1
    outer loop
      vertex 29.3674 -31.7639 0
      vertex 27.8724 -34.9643 0
      vertex 28.7394 -31.4712 0
    endloop
  endfacet
  facet normal 0 0 -1
    outer loop
      vertex 26.7114 -34.3632 0
      vertex 28.7394 -31.4712 0
      vertex 27.8724 -34.9643 0
    endloop
  endfacet
  facet normal -0 0 -1
    outer loop
      vertex 28.7394 -31.4712 0
      vertex 26.7114 -34.3632 0
      vertex 28.1718 -31.0737 0
    endloop
  endfacet
  facet normal 0 0 -1
    outer loop
      vertex 25.6725 -33.5696 0
      vertex 28.1718 -31.0737 0
      vertex 26.7114 -34.3632 0
    endloop
  endfacet
  facet normal -0 0 -1
    outer loop
      vertex 28.1718 -31.0737 0
      vertex 25.6725 -33.5696 0
      vertex 27.6819 -30.5837 0
    endloop
  endfacet
  facet normal -0 0 -1
    outer loop
      vertex 27.6819 -30.5837 0
      vertex 25.6725 -33.5696 0
      vertex 27.2845 -30.0161 0
    endloop
  endfacet
  facet normal -0 0 -1
    outer loop
      vertex 26.9916 -29.3882 0
      vertex 25.6725 -33.5696 0
      vertex 26.8123 -28.719 0
    endloop
  endfacet
  facet normal -0 0 -1
    outer loop
      vertex 27.2845 -30.0161 0
      vertex 25.6725 -33.5696 0
      vertex 26.9916 -29.3882 0
    endloop
  endfacet
  facet normal 0 0 -1
    outer loop
      vertex 34.6414 -28.719 0
      vertex 38.2205 -28.339 0
      vertex 38.0527 -29.6354 0
    endloop
  endfacet
  facet normal 0 0 -1
    outer loop
      vertex 38.2205 -28.339 0
      vertex 34.7019 -28.0287 0
      vertex 38.1605 -27.033 0
    endloop
  endfacet
  facet normal 0 0 -1
    outer loop
      vertex 34.6414 -28.719 0
      vertex 38.0527 -29.6354 0
      vertex 37.6624 -30.8831 0
    endloop
  endfacet
  facet normal 0 0 -1
    outer loop
      vertex 34.6414 -27.3384 0
      vertex 38.1605 -27.033 0
      vertex 34.7019 -28.0287 0
    endloop
  endfacet
  facet normal 0 0 -1
    outer loop
      vertex 34.6414 -28.719 0
      vertex 37.6624 -30.8831 0
      vertex 37.0614 -32.0442 0
    endloop
  endfacet
  facet normal -0 0 -1
    outer loop
      vertex 38.1605 -27.033 0
      vertex 34.6414 -27.3384 0
      vertex 37.8746 -25.7573 0
    endloop
  endfacet
  facet normal 0 0 -1
    outer loop
      vertex 34.6414 -28.719 0
      vertex 37.0614 -32.0442 0
      vertex 36.2679 -33.0831 0
    endloop
  endfacet
  facet normal 0 0 -1
    outer loop
      vertex 34.4622 -26.6692 0
      vertex 37.8746 -25.7573 0
      vertex 34.6414 -27.3384 0
    endloop
  endfacet
  facet normal 0 0 -1
    outer loop
      vertex 33.282 -31.0737 0
      vertex 36.2679 -33.0831 0
      vertex 35.306 -33.9685 0
    endloop
  endfacet
  facet normal -0 0 -1
    outer loop
      vertex 37.8746 -25.7573 0
      vertex 34.4622 -26.6692 0
      vertex 37.3716 -24.5506 0
    endloop
  endfacet
  facet normal 0 0 -1
    outer loop
      vertex 34.1693 -26.0412 0
      vertex 37.3716 -24.5506 0
      vertex 34.4622 -26.6692 0
    endloop
  endfacet
  facet normal -0 0 -1
    outer loop
      vertex 37.3716 -24.5506 0
      vertex 34.1693 -26.0412 0
      vertex 36.6668 -23.4496 0
    endloop
  endfacet
  facet normal 0 0 -1
    outer loop
      vertex 33.7719 -25.4736 0
      vertex 36.6668 -23.4496 0
      vertex 34.1693 -26.0412 0
    endloop
  endfacet
  facet normal -0 0 -1
    outer loop
      vertex 36.6668 -23.4496 0
      vertex 33.7719 -25.4736 0
      vertex 35.7813 -22.4876 0
    endloop
  endfacet
  facet normal 0 0 -1
    outer loop
      vertex 33.282 -24.9836 0
      vertex 35.7813 -22.4876 0
      vertex 33.7719 -25.4736 0
    endloop
  endfacet
  facet normal 0 0 -1
    outer loop
      vertex 32.7144 -24.5862 0
      vertex 35.7813 -22.4876 0
      vertex 33.282 -24.9836 0
    endloop
  endfacet
  facet normal 0 0 -1
    outer loop
      vertex 32.0865 -24.2934 0
      vertex 35.7813 -22.4876 0
      vertex 32.7144 -24.5862 0
    endloop
  endfacet
  facet normal 0 0 -1
    outer loop
      vertex 31.4171 -24.1141 0
      vertex 35.7813 -22.4876 0
      vertex 32.0865 -24.2934 0
    endloop
  endfacet
  facet normal 0 0 -1
    outer loop
      vertex 30.7269 -24.0536 0
      vertex 35.7813 -22.4876 0
      vertex 31.4171 -24.1141 0
    endloop
  endfacet
  facet normal 0 0 -1
    outer loop
      vertex 30.0367 -24.1141 0
      vertex 35.7813 -22.4876 0
      vertex 30.7269 -24.0536 0
    endloop
  endfacet
  facet normal 0 0 -1
    outer loop
      vertex 3.91452 -0.690216 0
      vertex 30.0367 -24.1141 0
      vertex 29.3674 -24.2934 0
    endloop
  endfacet
  facet normal -0 0 -1
    outer loop
      vertex 26.8123 -28.719 0
      vertex 25.6725 -33.5696 0
      vertex 26.7519 -28.0287 0
    endloop
  endfacet
  facet normal 0 0 -1
    outer loop
      vertex 0.690216 -3.91452 0
      vertex 26.7519 -28.0287 0
      vertex 25.6725 -33.5696 0
    endloop
  endfacet
  facet normal 0 0 -1
    outer loop
      vertex 30.0367 -24.1141 0
      vertex 3.97495 0 0
      vertex 35.7813 -22.4876 0
    endloop
  endfacet
  facet normal 0 0 -1
    outer loop
      vertex 3.73526 -1.35947 0
      vertex 29.3674 -24.2934 0
      vertex 28.7394 -24.5862 0
    endloop
  endfacet
  facet normal 0 0 -1
    outer loop
      vertex 3.44238 -1.98743 0
      vertex 28.7394 -24.5862 0
      vertex 28.1718 -24.9836 0
    endloop
  endfacet
  facet normal 0 0 -1
    outer loop
      vertex 3.04495 -2.55505 0
      vertex 28.1718 -24.9836 0
      vertex 27.6819 -25.4736 0
    endloop
  endfacet
  facet normal 0 0 -1
    outer loop
      vertex 2.55505 -3.04495 0
      vertex 27.6819 -25.4736 0
      vertex 27.2845 -26.0412 0
    endloop
  endfacet
  facet normal 0 0 -1
    outer loop
      vertex 1.98743 -3.44238 0
      vertex 27.2845 -26.0412 0
      vertex 26.9916 -26.6692 0
    endloop
  endfacet
  facet normal 0 0 -1
    outer loop
      vertex 1.35947 -3.73526 0
      vertex 26.9916 -26.6692 0
      vertex 26.8123 -27.3384 0
    endloop
  endfacet
  facet normal 0 0 -1
    outer loop
      vertex 26.7519 -28.0287 0
      vertex 0.690216 -3.91452 0
      vertex 26.8123 -27.3384 0
    endloop
  endfacet
  facet normal 0 0 -1
    outer loop
      vertex 35.7813 -22.4876 0
      vertex 3.97495 0 0
      vertex 5.05435 5.54095 0
    endloop
  endfacet
  facet normal 0 0 -1
    outer loop
      vertex 3.91452 0.690216 0
      vertex 5.05435 5.54095 0
      vertex 3.97495 0 0
    endloop
  endfacet
  facet normal 0 0 -1
    outer loop
      vertex 30.0367 -24.1141 0
      vertex 3.91452 -0.690216 0
      vertex 3.97495 0 0
    endloop
  endfacet
  facet normal 0 0 -1
    outer loop
      vertex 29.3674 -24.2934 0
      vertex 3.73526 -1.35947 0
      vertex 3.91452 -0.690216 0
    endloop
  endfacet
  facet normal 0 0 -1
    outer loop
      vertex 28.7394 -24.5862 0
      vertex 3.44238 -1.98743 0
      vertex 3.73526 -1.35947 0
    endloop
  endfacet
  facet normal 0 0 -1
    outer loop
      vertex 28.1718 -24.9836 0
      vertex 3.04495 -2.55505 0
      vertex 3.44238 -1.98743 0
    endloop
  endfacet
  facet normal 0 0 -1
    outer loop
      vertex 27.6819 -25.4736 0
      vertex 2.55505 -3.04495 0
      vertex 3.04495 -2.55505 0
    endloop
  endfacet
  facet normal 0 0 -1
    outer loop
      vertex 27.2845 -26.0412 0
      vertex 1.98743 -3.44238 0
      vertex 2.55505 -3.04495 0
    endloop
  endfacet
  facet normal 0 0 -1
    outer loop
      vertex 26.9916 -26.6692 0
      vertex 1.35947 -3.73526 0
      vertex 1.98743 -3.44238 0
    endloop
  endfacet
  facet normal 0 0 -1
    outer loop
      vertex 26.8123 -27.3384 0
      vertex 0.690216 -3.91452 0
      vertex 1.35947 -3.73526 0
    endloop
  endfacet
  facet normal 0 0 -1
    outer loop
      vertex -5.05435 -5.54095 0
      vertex 0.690216 -3.91452 0
      vertex 25.6725 -33.5696 0
    endloop
  endfacet
  facet normal 0 0 -1
    outer loop
      vertex 0.690216 -3.91452 0
      vertex -5.05435 -5.54095 0
      vertex 0 -3.97495 0
    endloop
  endfacet
  facet normal -0 0 -1
    outer loop
      vertex 0 -3.97495 0
      vertex -5.05435 -5.54095 0
      vertex -0.690216 -3.91452 0
    endloop
  endfacet
  facet normal -0 0 -1
    outer loop
      vertex -0.690216 -3.91452 0
      vertex -5.05435 -5.54095 0
      vertex -1.35947 -3.73526 0
    endloop
  endfacet
  facet normal -0 0 -1
    outer loop
      vertex -1.35947 -3.73526 0
      vertex -5.05435 -5.54095 0
      vertex -1.98743 -3.44238 0
    endloop
  endfacet
  facet normal -0 0 -1
    outer loop
      vertex -1.98743 -3.44238 0
      vertex -5.05435 -5.54095 0
      vertex -2.55505 -3.04495 0
    endloop
  endfacet
  facet normal 0 0 -1
    outer loop
      vertex -7.43353 -0.995728 0
      vertex -3.97495 0 0
      vertex -3.91452 -0.690216 0
    endloop
  endfacet
  facet normal -0 0 -1
    outer loop
      vertex -2.55505 -3.04495 0
      vertex -5.05435 -5.54095 0
      vertex -3.04495 -2.55505 0
    endloop
  endfacet
  facet normal 0 0 -1
    outer loop
      vertex -5.93976 -4.5791 0
      vertex -3.04495 -2.55505 0
      vertex -5.05435 -5.54095 0
    endloop
  endfacet
  facet normal -0 0 -1
    outer loop
      vertex -3.04495 -2.55505 0
      vertex -5.93976 -4.5791 0
      vertex -3.44238 -1.98743 0
    endloop
  endfacet
  facet normal 0 0 -1
    outer loop
      vertex -6.64471 -3.47809 0
      vertex -3.44238 -1.98743 0
      vertex -5.93976 -4.5791 0
    endloop
  endfacet
  facet normal -0 0 -1
    outer loop
      vertex -3.44238 -1.98743 0
      vertex -6.64471 -3.47809 0
      vertex -3.73526 -1.35947 0
    endloop
  endfacet
  facet normal 0 0 -1
    outer loop
      vertex -2.55505 3.04495 0
      vertex -5.54095 5.05435 0
      vertex -4.5791 5.93976 0
    endloop
  endfacet
  facet normal 0 0 -1
    outer loop
      vertex -7.14771 -2.27142 0
      vertex -3.73526 -1.35947 0
      vertex -6.64471 -3.47809 0
    endloop
  endfacet
  facet normal 0 0 -1
    outer loop
      vertex -3.04495 2.55505 0
      vertex -6.33444 4.01541 0
      vertex -5.54095 5.05435 0
    endloop
  endfacet
  facet normal -0 0 -1
    outer loop
      vertex -3.73526 -1.35947 0
      vertex -7.14771 -2.27142 0
      vertex -3.91452 -0.690216 0
    endloop
  endfacet
  facet normal 0 0 -1
    outer loop
      vertex -3.44238 1.98743 0
      vertex -6.93558 2.85443 0
      vertex -6.33444 4.01541 0
    endloop
  endfacet
  facet normal 0 0 -1
    outer loop
      vertex -7.43353 -0.995728 0
      vertex -3.91452 -0.690216 0
      vertex -7.14771 -2.27142 0
    endloop
  endfacet
  facet normal 0 0 -1
    outer loop
      vertex -3.73526 1.35947 0
      vertex -7.32587 1.60675 0
      vertex -6.93558 2.85443 0
    endloop
  endfacet
  facet normal -0 0 -1
    outer loop
      vertex -3.97495 0 0
      vertex -7.43353 -0.995728 0
      vertex -7.4935 0.310181 0
    endloop
  endfacet
  facet normal -0 0 -1
    outer loop
      vertex -3.91452 0.690216 0
      vertex -7.4935 0.310181 0
      vertex -7.32587 1.60675 0
    endloop
  endfacet
  facet normal 0 0 1
    outer loop
      vertex 5.05435 5.54095 5.4
      vertex 3.91452 0.690216 5.4
      vertex 3.97495 0 5.4
    endloop
  endfacet
  facet normal 0 0 1
    outer loop
      vertex 5.05435 5.54095 5.4
      vertex 3.73526 1.35947 5.4
      vertex 3.91452 0.690216 5.4
    endloop
  endfacet
  facet normal 0 0 1
    outer loop
      vertex 5.05435 5.54095 5.4
      vertex 3.44238 1.98743 5.4
      vertex 3.73526 1.35947 5.4
    endloop
  endfacet
  facet normal 0 0 1
    outer loop
      vertex 5.05435 5.54095 5.4
      vertex 3.04495 2.55505 5.4
      vertex 3.44238 1.98743 5.4
    endloop
  endfacet
  facet normal 0 0 1
    outer loop
      vertex 1.98743 3.44238 5.4
      vertex 4.01541 6.33444 5.4
      vertex 2.85443 6.93558 5.4
    endloop
  endfacet
  facet normal 0 0 1
    outer loop
      vertex 5.05435 5.54095 5.4
      vertex 2.55505 3.04495 5.4
      vertex 3.04495 2.55505 5.4
    endloop
  endfacet
  facet normal 0 0 1
    outer loop
      vertex 4.01541 6.33444 5.4
      vertex 1.98743 3.44238 5.4
      vertex 2.55505 3.04495 5.4
    endloop
  endfacet
  facet normal 0 0 1
    outer loop
      vertex 1.35947 3.73526 5.4
      vertex 2.85443 6.93558 5.4
      vertex 1.60675 7.32587 5.4
    endloop
  endfacet
  facet normal 0 0 1
    outer loop
      vertex 2.85443 6.93558 5.4
      vertex 1.35947 3.73526 5.4
      vertex 1.98743 3.44238 5.4
    endloop
  endfacet
  facet normal 0 0 1
    outer loop
      vertex 1.60675 7.32587 5.4
      vertex 0.690216 3.91452 5.4
      vertex 1.35947 3.73526 5.4
    endloop
  endfacet
  facet normal 0 0 1
    outer loop
      vertex 0.310181 7.4935 5.4
      vertex 0.690216 3.91452 5.4
      vertex 1.60675 7.32587 5.4
    endloop
  endfacet
  facet normal 0 0 1
    outer loop
      vertex 0.310181 7.4935 5.4
      vertex 0 3.97495 5.4
      vertex 0.690216 3.91452 5.4
    endloop
  endfacet
  facet normal -0 0 1
    outer loop
      vertex -0.995728 7.43353 5.4
      vertex 0 3.97495 5.4
      vertex 0.310181 7.4935 5.4
    endloop
  endfacet
  facet normal 0 0 1
    outer loop
      vertex 0 3.97495 5.4
      vertex -0.995728 7.43353 5.4
      vertex -0.690216 3.91452 5.4
    endloop
  endfacet
  facet normal -0 0 1
    outer loop
      vertex -2.27142 7.14771 5.4
      vertex -0.690216 3.91452 5.4
      vertex -0.995728 7.43353 5.4
    endloop
  endfacet
  facet normal 0 0 1
    outer loop
      vertex -0.690216 3.91452 5.4
      vertex -2.27142 7.14771 5.4
      vertex -1.35947 3.73526 5.4
    endloop
  endfacet
  facet normal -0 0 1
    outer loop
      vertex -3.47809 6.64471 5.4
      vertex -1.35947 3.73526 5.4
      vertex -2.27142 7.14771 5.4
    endloop
  endfacet
  facet normal 0 0 1
    outer loop
      vertex -1.35947 3.73526 5.4
      vertex -3.47809 6.64471 5.4
      vertex -1.98743 3.44238 5.4
    endloop
  endfacet
  facet normal -0 0 1
    outer loop
      vertex -4.5791 5.93976 5.4
      vertex -1.98743 3.44238 5.4
      vertex -3.47809 6.64471 5.4
    endloop
  endfacet
  facet normal 0 0 1
    outer loop
      vertex -1.98743 3.44238 5.4
      vertex -4.5791 5.93976 5.4
      vertex -2.55505 3.04495 5.4
    endloop
  endfacet
  facet normal -0 0 1
    outer loop
      vertex -5.54095 5.05435 5.4
      vertex -2.55505 3.04495 5.4
      vertex -4.5791 5.93976 5.4
    endloop
  endfacet
  facet normal 0 0 1
    outer loop
      vertex -2.55505 3.04495 5.4
      vertex -5.54095 5.05435 5.4
      vertex -3.04495 2.55505 5.4
    endloop
  endfacet
  facet normal -0 0 1
    outer loop
      vertex -6.33444 4.01541 5.4
      vertex -3.04495 2.55505 5.4
      vertex -5.54095 5.05435 5.4
    endloop
  endfacet
  facet normal 0 0 1
    outer loop
      vertex -3.04495 2.55505 5.4
      vertex -6.33444 4.01541 5.4
      vertex -3.44238 1.98743 5.4
    endloop
  endfacet
  facet normal -0 0 1
    outer loop
      vertex -6.93558 2.85443 5.4
      vertex -3.44238 1.98743 5.4
      vertex -6.33444 4.01541 5.4
    endloop
  endfacet
  facet normal -0 0 1
    outer loop
      vertex 34.7019 -28.0287 5.4
      vertex 38.2205 -28.339 5.4
      vertex 38.1605 -27.033 5.4
    endloop
  endfacet
  facet normal 0 0 1
    outer loop
      vertex 34.6414 -27.3384 5.4
      vertex 38.1605 -27.033 5.4
      vertex 37.8746 -25.7573 5.4
    endloop
  endfacet
  facet normal 0 0 1
    outer loop
      vertex 34.6414 -28.719 5.4
      vertex 38.2205 -28.339 5.4
      vertex 34.7019 -28.0287 5.4
    endloop
  endfacet
  facet normal 0 0 1
    outer loop
      vertex 34.4622 -26.6692 5.4
      vertex 37.8746 -25.7573 5.4
      vertex 37.3716 -24.5506 5.4
    endloop
  endfacet
  facet normal 0 0 1
    outer loop
      vertex 38.2205 -28.339 5.4
      vertex 34.6414 -28.719 5.4
      vertex 38.0527 -29.6354 5.4
    endloop
  endfacet
  facet normal 0 0 1
    outer loop
      vertex 34.1693 -26.0412 5.4
      vertex 37.3716 -24.5506 5.4
      vertex 36.6668 -23.4496 5.4
    endloop
  endfacet
  facet normal -0 0 1
    outer loop
      vertex 34.4622 -29.3882 5.4
      vertex 38.0527 -29.6354 5.4
      vertex 34.6414 -28.719 5.4
    endloop
  endfacet
  facet normal 0 0 1
    outer loop
      vertex 33.7719 -25.4736 5.4
      vertex 36.6668 -23.4496 5.4
      vertex 35.7813 -22.4876 5.4
    endloop
  endfacet
  facet normal 0 0 1
    outer loop
      vertex 38.0527 -29.6354 5.4
      vertex 34.4622 -29.3882 5.4
      vertex 37.6624 -30.8831 5.4
    endloop
  endfacet
  facet normal -0 0 1
    outer loop
      vertex 34.1693 -30.0161 5.4
      vertex 37.6624 -30.8831 5.4
      vertex 34.4622 -29.3882 5.4
    endloop
  endfacet
  facet normal 0 0 1
    outer loop
      vertex 38.1605 -27.033 5.4
      vertex 34.6414 -27.3384 5.4
      vertex 34.7019 -28.0287 5.4
    endloop
  endfacet
  facet normal 0 0 1
    outer loop
      vertex 37.8746 -25.7573 5.4
      vertex 34.4622 -26.6692 5.4
      vertex 34.6414 -27.3384 5.4
    endloop
  endfacet
  facet normal 0 0 1
    outer loop
      vertex 37.3716 -24.5506 5.4
      vertex 34.1693 -26.0412 5.4
      vertex 34.4622 -26.6692 5.4
    endloop
  endfacet
  facet normal 0 0 1
    outer loop
      vertex 36.6668 -23.4496 5.4
      vertex 33.7719 -25.4736 5.4
      vertex 34.1693 -26.0412 5.4
    endloop
  endfacet
  facet normal 0 0 1
    outer loop
      vertex 35.7813 -22.4876 5.4
      vertex 33.282 -24.9836 5.4
      vertex 33.7719 -25.4736 5.4
    endloop
  endfacet
  facet normal 0 0 1
    outer loop
      vertex 35.7813 -22.4876 5.4
      vertex 32.7144 -24.5862 5.4
      vertex 33.282 -24.9836 5.4
    endloop
  endfacet
  facet normal 0 0 1
    outer loop
      vertex 35.7813 -22.4876 5.4
      vertex 32.0865 -24.2934 5.4
      vertex 32.7144 -24.5862 5.4
    endloop
  endfacet
  facet normal 0 0 1
    outer loop
      vertex 35.7813 -22.4876 5.4
      vertex 31.4171 -24.1141 5.4
      vertex 32.0865 -24.2934 5.4
    endloop
  endfacet
  facet normal 0 0 1
    outer loop
      vertex 35.7813 -22.4876 5.4
      vertex 30.7269 -24.0536 5.4
      vertex 31.4171 -24.1141 5.4
    endloop
  endfacet
  facet normal 0 0 1
    outer loop
      vertex 35.7813 -22.4876 5.4
      vertex 30.0367 -24.1141 5.4
      vertex 30.7269 -24.0536 5.4
    endloop
  endfacet
  facet normal 0 0 1
    outer loop
      vertex 3.97495 0 5.4
      vertex 30.0367 -24.1141 5.4
      vertex 35.7813 -22.4876 5.4
    endloop
  endfacet
  facet normal 0 0 1
    outer loop
      vertex 28.1718 -31.0737 5.4
      vertex 25.6725 -33.5696 5.4
      vertex 26.7114 -34.3632 5.4
    endloop
  endfacet
  facet normal 0 0 1
    outer loop
      vertex 0.690216 -3.91452 5.4
      vertex 26.7519 -28.0287 5.4
      vertex 26.8123 -27.3384 5.4
    endloop
  endfacet
  facet normal -0 0 1
    outer loop
      vertex 3.97495 0 5.4
      vertex 35.7813 -22.4876 5.4
      vertex 5.05435 5.54095 5.4
    endloop
  endfacet
  facet normal -0 0 1
    outer loop
      vertex 3.91452 -0.690216 5.4
      vertex 30.0367 -24.1141 5.4
      vertex 3.97495 0 5.4
    endloop
  endfacet
  facet normal 0 0 1
    outer loop
      vertex 30.0367 -24.1141 5.4
      vertex 3.91452 -0.690216 5.4
      vertex 29.3674 -24.2934 5.4
    endloop
  endfacet
  facet normal -0 0 1
    outer loop
      vertex 3.73526 -1.35947 5.4
      vertex 29.3674 -24.2934 5.4
      vertex 3.91452 -0.690216 5.4
    endloop
  endfacet
  facet normal 0 0 1
    outer loop
      vertex 29.3674 -24.2934 5.4
      vertex 3.73526 -1.35947 5.4
      vertex 28.7394 -24.5862 5.4
    endloop
  endfacet
  facet normal -0 0 1
    outer loop
      vertex 3.44238 -1.98743 5.4
      vertex 28.7394 -24.5862 5.4
      vertex 3.73526 -1.35947 5.4
    endloop
  endfacet
  facet normal 0 0 1
    outer loop
      vertex 28.7394 -24.5862 5.4
      vertex 3.44238 -1.98743 5.4
      vertex 28.1718 -24.9836 5.4
    endloop
  endfacet
  facet normal -0 0 1
    outer loop
      vertex 3.04495 -2.55505 5.4
      vertex 28.1718 -24.9836 5.4
      vertex 3.44238 -1.98743 5.4
    endloop
  endfacet
  facet normal 0 0 1
    outer loop
      vertex 2.55505 3.04495 5.4
      vertex 5.05435 5.54095 5.4
      vertex 4.01541 6.33444 5.4
    endloop
  endfacet
  facet normal 0 0 1
    outer loop
      vertex 28.1718 -24.9836 5.4
      vertex 3.04495 -2.55505 5.4
      vertex 27.6819 -25.4736 5.4
    endloop
  endfacet
  facet normal -0 0 1
    outer loop
      vertex 2.55505 -3.04495 5.4
      vertex 27.6819 -25.4736 5.4
      vertex 3.04495 -2.55505 5.4
    endloop
  endfacet
  facet normal 0 0 1
    outer loop
      vertex 27.6819 -25.4736 5.4
      vertex 2.55505 -3.04495 5.4
      vertex 27.2845 -26.0412 5.4
    endloop
  endfacet
  facet normal -0 0 1
    outer loop
      vertex 1.98743 -3.44238 5.4
      vertex 27.2845 -26.0412 5.4
      vertex 2.55505 -3.04495 5.4
    endloop
  endfacet
  facet normal 0 0 1
    outer loop
      vertex 27.2845 -26.0412 5.4
      vertex 1.98743 -3.44238 5.4
      vertex 26.9916 -26.6692 5.4
    endloop
  endfacet
  facet normal -0 0 1
    outer loop
      vertex 1.35947 -3.73526 5.4
      vertex 26.9916 -26.6692 5.4
      vertex 1.98743 -3.44238 5.4
    endloop
  endfacet
  facet normal 0 0 1
    outer loop
      vertex 26.9916 -26.6692 5.4
      vertex 1.35947 -3.73526 5.4
      vertex 26.8123 -27.3384 5.4
    endloop
  endfacet
  facet normal -0 0 1
    outer loop
      vertex 0.690216 -3.91452 5.4
      vertex 26.8123 -27.3384 5.4
      vertex 1.35947 -3.73526 5.4
    endloop
  endfacet
  facet normal 0 0 1
    outer loop
      vertex 26.7519 -28.0287 5.4
      vertex 0.690216 -3.91452 5.4
      vertex 25.6725 -33.5696 5.4
    endloop
  endfacet
  facet normal 0 0 1
    outer loop
      vertex -5.05435 -5.54095 5.4
      vertex 0.690216 -3.91452 5.4
      vertex 0 -3.97495 5.4
    endloop
  endfacet
  facet normal 0 0 1
    outer loop
      vertex -5.05435 -5.54095 5.4
      vertex 0 -3.97495 5.4
      vertex -0.690216 -3.91452 5.4
    endloop
  endfacet
  facet normal 0 0 1
    outer loop
      vertex -5.05435 -5.54095 5.4
      vertex -0.690216 -3.91452 5.4
      vertex -1.35947 -3.73526 5.4
    endloop
  endfacet
  facet normal 0 0 1
    outer loop
      vertex -5.05435 -5.54095 5.4
      vertex -1.35947 -3.73526 5.4
      vertex -1.98743 -3.44238 5.4
    endloop
  endfacet
  facet normal 0 0 1
    outer loop
      vertex -5.05435 -5.54095 5.4
      vertex -1.98743 -3.44238 5.4
      vertex -2.55505 -3.04495 5.4
    endloop
  endfacet
  facet normal 0 0 1
    outer loop
      vertex -5.05435 -5.54095 5.4
      vertex -2.55505 -3.04495 5.4
      vertex -3.04495 -2.55505 5.4
    endloop
  endfacet
  facet normal 0 0 1
    outer loop
      vertex -3.44238 1.98743 5.4
      vertex -6.93558 2.85443 5.4
      vertex -3.73526 1.35947 5.4
    endloop
  endfacet
  facet normal 0 0 1
    outer loop
      vertex 0.690216 -3.91452 5.4
      vertex -5.05435 -5.54095 5.4
      vertex 25.6725 -33.5696 5.4
    endloop
  endfacet
  facet normal 0 0 1
    outer loop
      vertex -5.93976 -4.5791 5.4
      vertex -3.04495 -2.55505 5.4
      vertex -3.44238 -1.98743 5.4
    endloop
  endfacet
  facet normal 0 0 1
    outer loop
      vertex -6.64471 -3.47809 5.4
      vertex -3.44238 -1.98743 5.4
      vertex -3.73526 -1.35947 5.4
    endloop
  endfacet
  facet normal 0 0 1
    outer loop
      vertex -7.14771 -2.27142 5.4
      vertex -3.73526 -1.35947 5.4
      vertex -3.91452 -0.690216 5.4
    endloop
  endfacet
  facet normal -0 0 1
    outer loop
      vertex -7.32587 1.60675 5.4
      vertex -3.73526 1.35947 5.4
      vertex -6.93558 2.85443 5.4
    endloop
  endfacet
  facet normal 0 0 1
    outer loop
      vertex -3.73526 1.35947 5.4
      vertex -7.32587 1.60675 5.4
      vertex -3.91452 0.690216 5.4
    endloop
  endfacet
  facet normal 0 0 1
    outer loop
      vertex -3.04495 -2.55505 5.4
      vertex -5.93976 -4.5791 5.4
      vertex -5.05435 -5.54095 5.4
    endloop
  endfacet
  facet normal 0 0 1
    outer loop
      vertex -7.4935 0.310181 5.4
      vertex -3.91452 0.690216 5.4
      vertex -7.32587 1.60675 5.4
    endloop
  endfacet
  facet normal 0 0 1
    outer loop
      vertex -3.44238 -1.98743 5.4
      vertex -6.64471 -3.47809 5.4
      vertex -5.93976 -4.5791 5.4
    endloop
  endfacet
  facet normal 0 0 1
    outer loop
      vertex -3.91452 0.690216 5.4
      vertex -7.4935 0.310181 5.4
      vertex -3.97495 0 5.4
    endloop
  endfacet
  facet normal 0 0 1
    outer loop
      vertex -3.73526 -1.35947 5.4
      vertex -7.14771 -2.27142 5.4
      vertex -6.64471 -3.47809 5.4
    endloop
  endfacet
  facet normal 0 -0 1
    outer loop
      vertex -7.43353 -0.995728 5.4
      vertex -3.97495 0 5.4
      vertex -7.4935 0.310181 5.4
    endloop
  endfacet
  facet normal 0 0 1
    outer loop
      vertex -3.91452 -0.690216 5.4
      vertex -7.43353 -0.995728 5.4
      vertex -7.14771 -2.27142 5.4
    endloop
  endfacet
  facet normal 0 0 1
    outer loop
      vertex -3.97495 0 5.4
      vertex -7.43353 -0.995728 5.4
      vertex -3.91452 -0.690216 5.4
    endloop
  endfacet
  facet normal 0 0 1
    outer loop
      vertex 37.6624 -30.8831 5.4
      vertex 34.1693 -30.0161 5.4
      vertex 37.0614 -32.0442 5.4
    endloop
  endfacet
  facet normal -0 0 1
    outer loop
      vertex 33.7719 -30.5837 5.4
      vertex 37.0614 -32.0442 5.4
      vertex 34.1693 -30.0161 5.4
    endloop
  endfacet
  facet normal 0 0 1
    outer loop
      vertex 37.0614 -32.0442 5.4
      vertex 33.7719 -30.5837 5.4
      vertex 36.2679 -33.0831 5.4
    endloop
  endfacet
  facet normal -0 0 1
    outer loop
      vertex 33.282 -31.0737 5.4
      vertex 36.2679 -33.0831 5.4
      vertex 33.7719 -30.5837 5.4
    endloop
  endfacet
  facet normal 0 0 1
    outer loop
      vertex 36.2679 -33.0831 5.4
      vertex 33.282 -31.0737 5.4
      vertex 35.306 -33.9685 5.4
    endloop
  endfacet
  facet normal -0 0 1
    outer loop
      vertex 32.7144 -31.4712 5.4
      vertex 35.306 -33.9685 5.4
      vertex 33.282 -31.0737 5.4
    endloop
  endfacet
  facet normal 0 0 1
    outer loop
      vertex 35.306 -33.9685 5.4
      vertex 32.7144 -31.4712 5.4
      vertex 34.205 -34.6734 5.4
    endloop
  endfacet
  facet normal -0 0 1
    outer loop
      vertex 32.0865 -31.7639 5.4
      vertex 34.205 -34.6734 5.4
      vertex 32.7144 -31.4712 5.4
    endloop
  endfacet
  facet normal 0 0 1
    outer loop
      vertex 34.205 -34.6734 5.4
      vertex 32.0865 -31.7639 5.4
      vertex 32.9984 -35.1765 5.4
    endloop
  endfacet
  facet normal -0 0 1
    outer loop
      vertex 31.4171 -31.9433 5.4
      vertex 32.9984 -35.1765 5.4
      vertex 32.0865 -31.7639 5.4
    endloop
  endfacet
  facet normal 0 0 1
    outer loop
      vertex 32.9984 -35.1765 5.4
      vertex 31.4171 -31.9433 5.4
      vertex 31.7227 -35.4623 5.4
    endloop
  endfacet
  facet normal -0 0 1
    outer loop
      vertex 30.7269 -32.0036 5.4
      vertex 31.7227 -35.4623 5.4
      vertex 31.4171 -31.9433 5.4
    endloop
  endfacet
  facet normal 0 0 1
    outer loop
      vertex 30.7269 -32.0036 5.4
      vertex 30.4167 -35.5223 5.4
      vertex 31.7227 -35.4623 5.4
    endloop
  endfacet
  facet normal 0 0 1
    outer loop
      vertex 30.0367 -31.9433 5.4
      vertex 30.4167 -35.5223 5.4
      vertex 30.7269 -32.0036 5.4
    endloop
  endfacet
  facet normal 0 0 1
    outer loop
      vertex 29.1201 -35.3546 5.4
      vertex 30.0367 -31.9433 5.4
      vertex 29.3674 -31.7639 5.4
    endloop
  endfacet
  facet normal 0 0 1
    outer loop
      vertex 30.0367 -31.9433 5.4
      vertex 29.1201 -35.3546 5.4
      vertex 30.4167 -35.5223 5.4
    endloop
  endfacet
  facet normal 0 0 1
    outer loop
      vertex 27.8724 -34.9643 5.4
      vertex 29.3674 -31.7639 5.4
      vertex 28.7394 -31.4712 5.4
    endloop
  endfacet
  facet normal 0 0 1
    outer loop
      vertex 26.7114 -34.3632 5.4
      vertex 28.7394 -31.4712 5.4
      vertex 28.1718 -31.0737 5.4
    endloop
  endfacet
  facet normal 0 0 1
    outer loop
      vertex 29.3674 -31.7639 5.4
      vertex 27.8724 -34.9643 5.4
      vertex 29.1201 -35.3546 5.4
    endloop
  endfacet
  facet normal 0 0 1
    outer loop
      vertex 25.6725 -33.5696 5.4
      vertex 28.1718 -31.0737 5.4
      vertex 27.6819 -30.5837 5.4
    endloop
  endfacet
  facet normal 0 0 1
    outer loop
      vertex 25.6725 -33.5696 5.4
      vertex 27.6819 -30.5837 5.4
      vertex 27.2845 -30.0161 5.4
    endloop
  endfacet
  facet normal 0 0 1
    outer loop
      vertex 25.6725 -33.5696 5.4
      vertex 27.2845 -30.0161 5.4
      vertex 26.9916 -29.3882 5.4
    endloop
  endfacet
  facet normal 0 0 1
    outer loop
      vertex 25.6725 -33.5696 5.4
      vertex 26.9916 -29.3882 5.4
      vertex 26.8123 -28.719 5.4
    endloop
  endfacet
  facet normal 0 0 1
    outer loop
      vertex 28.7394 -31.4712 5.4
      vertex 26.7114 -34.3632 5.4
      vertex 27.8724 -34.9643 5.4
    endloop
  endfacet
  facet normal 0 0 1
    outer loop
      vertex 25.6725 -33.5696 5.4
      vertex 26.8123 -28.719 5.4
      vertex 26.7519 -28.0287 5.4
    endloop
  endfacet
  facet normal -0.459747 -0.88805 0
    outer loop
      vertex 26.7114 -34.3632 0
      vertex 27.8724 -34.9643 5.4
      vertex 26.7114 -34.3632 5.4
    endloop
  endfacet
  facet normal -0.459747 -0.88805 -0
    outer loop
      vertex 27.8724 -34.9643 5.4
      vertex 26.7114 -34.3632 0
      vertex 27.8724 -34.9643 0
    endloop
  endfacet
  facet normal -0.298546 -0.954395 0
    outer loop
      vertex 27.8724 -34.9643 0
      vertex 29.1201 -35.3546 5.4
      vertex 27.8724 -34.9643 5.4
    endloop
  endfacet
  facet normal -0.298546 -0.954395 -0
    outer loop
      vertex 29.1201 -35.3546 5.4
      vertex 27.8724 -34.9643 0
      vertex 29.1201 -35.3546 0
    endloop
  endfacet
  facet normal 0.459802 0.888021 -0
    outer loop
      vertex 4.01541 6.33444 0
      vertex 2.85443 6.93558 5.4
      vertex 4.01541 6.33444 5.4
    endloop
  endfacet
  facet normal 0.459802 0.888021 0
    outer loop
      vertex 2.85443 6.93558 5.4
      vertex 4.01541 6.33444 0
      vertex 2.85443 6.93558 0
    endloop
  endfacet
  facet normal 0.606969 0.794725 -0
    outer loop
      vertex 5.05435 5.54095 0
      vertex 4.01541 6.33444 5.4
      vertex 5.05435 5.54095 5.4
    endloop
  endfacet
  facet normal 0.606969 0.794725 0
    outer loop
      vertex 4.01541 6.33444 5.4
      vertex 5.05435 5.54095 0
      vertex 4.01541 6.33444 0
    endloop
  endfacet
  facet normal 0.128222 0.991745 -0
    outer loop
      vertex 1.60675 7.32587 0
      vertex 0.310181 7.4935 5.4
      vertex 1.60675 7.32587 5.4
    endloop
  endfacet
  facet normal 0.128222 0.991745 0
    outer loop
      vertex 0.310181 7.4935 5.4
      vertex 1.60675 7.32587 0
      vertex 0.310181 7.4935 0
    endloop
  endfacet
  facet normal -0.0458715 0.998947 0
    outer loop
      vertex 0.310181 7.4935 0
      vertex -0.995728 7.43353 5.4
      vertex 0.310181 7.4935 5.4
    endloop
  endfacet
  facet normal -0.0458715 0.998947 0
    outer loop
      vertex -0.995728 7.43353 5.4
      vertex 0.310181 7.4935 0
      vertex -0.995728 7.43353 0
    endloop
  endfacet
  facet normal 0.923019 0.384755 0
    outer loop
      vertex 37.8746 -25.7573 5.4
      vertex 37.3716 -24.5506 0
      vertex 37.3716 -24.5506 5.4
    endloop
  endfacet
  facet normal 0.923019 0.384755 0
    outer loop
      vertex 37.3716 -24.5506 0
      vertex 37.8746 -25.7573 5.4
      vertex 37.8746 -25.7573 0
    endloop
  endfacet
  facet normal 0.677264 -0.73574 0
    outer loop
      vertex 35.306 -33.9685 0
      vertex 36.2679 -33.0831 5.4
      vertex 35.306 -33.9685 5.4
    endloop
  endfacet
  facet normal 0.677264 -0.73574 0
    outer loop
      vertex 36.2679 -33.0831 5.4
      vertex 35.306 -33.9685 0
      vertex 36.2679 -33.0831 0
    endloop
  endfacet
  facet normal -0.923019 -0.384755 0
    outer loop
      vertex -6.64471 -3.47809 0
      vertex -7.14771 -2.27142 5.4
      vertex -7.14771 -2.27142 0
    endloop
  endfacet
  facet normal -0.923019 -0.384755 0
    outer loop
      vertex -7.14771 -2.27142 5.4
      vertex -6.64471 -3.47809 0
      vertex -6.64471 -3.47809 5.4
    endloop
  endfacet
  facet normal -0.128291 -0.991737 0
    outer loop
      vertex 29.1201 -35.3546 0
      vertex 30.4167 -35.5223 5.4
      vertex 29.1201 -35.3546 5.4
    endloop
  endfacet
  facet normal -0.128291 -0.991737 -0
    outer loop
      vertex 30.4167 -35.5223 5.4
      vertex 29.1201 -35.3546 0
      vertex 30.4167 -35.5223 0
    endloop
  endfacet
  facet normal 0.794725 -0.606969 0
    outer loop
      vertex 36.2679 -33.0831 5.4
      vertex 37.0614 -32.0442 0
      vertex 37.0614 -32.0442 5.4
    endloop
  endfacet
  facet normal 0.794725 -0.606969 0
    outer loop
      vertex 37.0614 -32.0442 0
      vertex 36.2679 -33.0831 5.4
      vertex 36.2679 -33.0831 0
    endloop
  endfacet
  facet normal -0.422683 0.906278 0
    outer loop
      vertex 1.98743 -3.44238 0
      vertex 1.35947 -3.73526 5.4
      vertex 1.98743 -3.44238 5.4
    endloop
  endfacet
  facet normal -0.422683 0.906278 0
    outer loop
      vertex 1.35947 -3.73526 5.4
      vertex 1.98743 -3.44238 0
      vertex 1.35947 -3.73526 0
    endloop
  endfacet
  facet normal 0.258732 -0.965949 0
    outer loop
      vertex -1.35947 3.73526 0
      vertex -0.690216 3.91452 5.4
      vertex -1.35947 3.73526 5.4
    endloop
  endfacet
  facet normal 0.258732 -0.965949 0
    outer loop
      vertex -0.690216 3.91452 5.4
      vertex -1.35947 3.73526 0
      vertex -0.690216 3.91452 0
    endloop
  endfacet
  facet normal -0.258732 0.965949 0
    outer loop
      vertex 1.35947 -3.73526 0
      vertex 0.690216 -3.91452 5.4
      vertex 1.35947 -3.73526 5.4
    endloop
  endfacet
  facet normal -0.258732 0.965949 0
    outer loop
      vertex 0.690216 -3.91452 5.4
      vertex 1.35947 -3.73526 0
      vertex 0.690216 -3.91452 0
    endloop
  endfacet
  facet normal -0.965949 -0.258732 0
    outer loop
      vertex 3.91452 0.690216 0
      vertex 3.73526 1.35947 5.4
      vertex 3.73526 1.35947 0
    endloop
  endfacet
  facet normal -0.965949 -0.258732 0
    outer loop
      vertex 3.73526 1.35947 5.4
      vertex 3.91452 0.690216 0
      vertex 3.91452 0.690216 5.4
    endloop
  endfacet
  facet normal 0.573551 -0.81917 0
    outer loop
      vertex -2.55505 3.04495 0
      vertex -1.98743 3.44238 5.4
      vertex -2.55505 3.04495 5.4
    endloop
  endfacet
  facet normal 0.573551 -0.81917 0
    outer loop
      vertex -1.98743 3.44238 5.4
      vertex -2.55505 3.04495 0
      vertex -1.98743 3.44238 0
    endloop
  endfacet
  facet normal 0.906278 -0.422683 0
    outer loop
      vertex -3.73526 1.35947 5.4
      vertex -3.44238 1.98743 0
      vertex -3.44238 1.98743 5.4
    endloop
  endfacet
  facet normal 0.906278 -0.422683 0
    outer loop
      vertex -3.44238 1.98743 0
      vertex -3.73526 1.35947 5.4
      vertex -3.73526 1.35947 0
    endloop
  endfacet
  facet normal -0.422683 -0.906278 0
    outer loop
      vertex 1.35947 3.73526 0
      vertex 1.98743 3.44238 5.4
      vertex 1.35947 3.73526 5.4
    endloop
  endfacet
  facet normal -0.422683 -0.906278 -0
    outer loop
      vertex 1.98743 3.44238 5.4
      vertex 1.35947 3.73526 0
      vertex 1.98743 3.44238 0
    endloop
  endfacet
  facet normal -0.81917 -0.573551 0
    outer loop
      vertex 3.44238 1.98743 0
      vertex 3.04495 2.55505 5.4
      vertex 3.04495 2.55505 0
    endloop
  endfacet
  facet normal -0.81917 -0.573551 0
    outer loop
      vertex 3.04495 2.55505 5.4
      vertex 3.44238 1.98743 0
      vertex 3.44238 1.98743 5.4
    endloop
  endfacet
  facet normal 0.707107 -0.707107 0
    outer loop
      vertex -3.04495 2.55505 5.4
      vertex -2.55505 3.04495 0
      vertex -2.55505 3.04495 5.4
    endloop
  endfacet
  facet normal 0.707107 -0.707107 0
    outer loop
      vertex -2.55505 3.04495 0
      vertex -3.04495 2.55505 5.4
      vertex -3.04495 2.55505 0
    endloop
  endfacet
  facet normal 0.81917 -0.573551 0
    outer loop
      vertex -3.44238 1.98743 5.4
      vertex -3.04495 2.55505 0
      vertex -3.04495 2.55505 5.4
    endloop
  endfacet
  facet normal 0.81917 -0.573551 0
    outer loop
      vertex -3.04495 2.55505 0
      vertex -3.44238 1.98743 5.4
      vertex -3.44238 1.98743 0
    endloop
  endfacet
  facet normal 0.99619 -0.0872112 0
    outer loop
      vertex -3.97495 0 5.4
      vertex -3.91452 0.690216 0
      vertex -3.91452 0.690216 5.4
    endloop
  endfacet
  facet normal 0.99619 -0.0872112 0
    outer loop
      vertex -3.91452 0.690216 0
      vertex -3.97495 0 5.4
      vertex -3.97495 0 0
    endloop
  endfacet
  facet normal 0.99619 0.0872112 0
    outer loop
      vertex -3.91452 -0.690216 5.4
      vertex -3.97495 0 0
      vertex -3.97495 0 5.4
    endloop
  endfacet
  facet normal 0.99619 0.0872112 0
    outer loop
      vertex -3.97495 0 0
      vertex -3.91452 -0.690216 5.4
      vertex -3.91452 -0.690216 0
    endloop
  endfacet
  facet normal 0.965949 -0.258732 0
    outer loop
      vertex -3.91452 0.690216 5.4
      vertex -3.73526 1.35947 0
      vertex -3.73526 1.35947 5.4
    endloop
  endfacet
  facet normal 0.965949 -0.258732 0
    outer loop
      vertex -3.73526 1.35947 0
      vertex -3.91452 0.690216 5.4
      vertex -3.91452 0.690216 0
    endloop
  endfacet
  facet normal 0.906278 0.422683 0
    outer loop
      vertex -3.44238 -1.98743 5.4
      vertex -3.73526 -1.35947 0
      vertex -3.73526 -1.35947 5.4
    endloop
  endfacet
  facet normal 0.906278 0.422683 0
    outer loop
      vertex -3.73526 -1.35947 0
      vertex -3.44238 -1.98743 5.4
      vertex -3.44238 -1.98743 0
    endloop
  endfacet
  facet normal 0.707107 0.707107 0
    outer loop
      vertex -2.55505 -3.04495 5.4
      vertex -3.04495 -2.55505 0
      vertex -3.04495 -2.55505 5.4
    endloop
  endfacet
  facet normal 0.707107 0.707107 0
    outer loop
      vertex -3.04495 -2.55505 0
      vertex -2.55505 -3.04495 5.4
      vertex -2.55505 -3.04495 0
    endloop
  endfacet
  facet normal 0.422683 0.906278 -0
    outer loop
      vertex -1.35947 -3.73526 0
      vertex -1.98743 -3.44238 5.4
      vertex -1.35947 -3.73526 5.4
    endloop
  endfacet
  facet normal 0.422683 0.906278 0
    outer loop
      vertex -1.98743 -3.44238 5.4
      vertex -1.35947 -3.73526 0
      vertex -1.98743 -3.44238 0
    endloop
  endfacet
  facet normal 0.0872112 0.99619 -0
    outer loop
      vertex 0 -3.97495 0
      vertex -0.690216 -3.91452 5.4
      vertex 0 -3.97495 5.4
    endloop
  endfacet
  facet normal 0.0872112 0.99619 0
    outer loop
      vertex -0.690216 -3.91452 5.4
      vertex 0 -3.97495 0
      vertex -0.690216 -3.91452 0
    endloop
  endfacet
  facet normal -0.0872112 -0.99619 0
    outer loop
      vertex 0 3.97495 0
      vertex 0.690216 3.91452 5.4
      vertex 0 3.97495 5.4
    endloop
  endfacet
  facet normal -0.0872112 -0.99619 -0
    outer loop
      vertex 0.690216 3.91452 5.4
      vertex 0 3.97495 0
      vertex 0.690216 3.91452 0
    endloop
  endfacet
  facet normal -0.707107 -0.707107 0
    outer loop
      vertex 3.04495 2.55505 0
      vertex 2.55505 3.04495 5.4
      vertex 2.55505 3.04495 0
    endloop
  endfacet
  facet normal -0.707107 -0.707107 0
    outer loop
      vertex 2.55505 3.04495 5.4
      vertex 3.04495 2.55505 0
      vertex 3.04495 2.55505 5.4
    endloop
  endfacet
  facet normal -0.573551 -0.81917 0
    outer loop
      vertex 1.98743 3.44238 0
      vertex 2.55505 3.04495 5.4
      vertex 1.98743 3.44238 5.4
    endloop
  endfacet
  facet normal -0.573551 -0.81917 -0
    outer loop
      vertex 2.55505 3.04495 5.4
      vertex 1.98743 3.44238 0
      vertex 2.55505 3.04495 0
    endloop
  endfacet
  facet normal 0.0872112 -0.99619 0
    outer loop
      vertex -0.690216 3.91452 0
      vertex 0 3.97495 5.4
      vertex -0.690216 3.91452 5.4
    endloop
  endfacet
  facet normal 0.0872112 -0.99619 0
    outer loop
      vertex 0 3.97495 5.4
      vertex -0.690216 3.91452 0
      vertex 0 3.97495 0
    endloop
  endfacet
  facet normal -0.99619 0.0872112 0
    outer loop
      vertex 3.91452 -0.690216 0
      vertex 3.97495 0 5.4
      vertex 3.97495 0 0
    endloop
  endfacet
  facet normal -0.99619 0.0872112 0
    outer loop
      vertex 3.97495 0 5.4
      vertex 3.91452 -0.690216 0
      vertex 3.91452 -0.690216 5.4
    endloop
  endfacet
  facet normal -0.965949 0.258732 0
    outer loop
      vertex 3.73526 -1.35947 0
      vertex 3.91452 -0.690216 5.4
      vertex 3.91452 -0.690216 0
    endloop
  endfacet
  facet normal -0.965949 0.258732 0
    outer loop
      vertex 3.91452 -0.690216 5.4
      vertex 3.73526 -1.35947 0
      vertex 3.73526 -1.35947 5.4
    endloop
  endfacet
  facet normal -0.81917 0.573551 0
    outer loop
      vertex 3.04495 -2.55505 0
      vertex 3.44238 -1.98743 5.4
      vertex 3.44238 -1.98743 0
    endloop
  endfacet
  facet normal -0.81917 0.573551 0
    outer loop
      vertex 3.44238 -1.98743 5.4
      vertex 3.04495 -2.55505 0
      vertex 3.04495 -2.55505 5.4
    endloop
  endfacet
  facet normal -0.906278 0.422683 0
    outer loop
      vertex 3.44238 -1.98743 0
      vertex 3.73526 -1.35947 5.4
      vertex 3.73526 -1.35947 0
    endloop
  endfacet
  facet normal -0.906278 0.422683 0
    outer loop
      vertex 3.73526 -1.35947 5.4
      vertex 3.44238 -1.98743 0
      vertex 3.44238 -1.98743 5.4
    endloop
  endfacet
  facet normal -0.573551 0.81917 0
    outer loop
      vertex 2.55505 -3.04495 0
      vertex 1.98743 -3.44238 5.4
      vertex 2.55505 -3.04495 5.4
    endloop
  endfacet
  facet normal -0.573551 0.81917 0
    outer loop
      vertex 1.98743 -3.44238 5.4
      vertex 2.55505 -3.04495 0
      vertex 1.98743 -3.44238 0
    endloop
  endfacet
  facet normal 0.422683 -0.906278 0
    outer loop
      vertex -1.98743 3.44238 0
      vertex -1.35947 3.73526 5.4
      vertex -1.98743 3.44238 5.4
    endloop
  endfacet
  facet normal 0.422683 -0.906278 0
    outer loop
      vertex -1.35947 3.73526 5.4
      vertex -1.98743 3.44238 0
      vertex -1.35947 3.73526 0
    endloop
  endfacet
  facet normal 0.965949 0.258732 0
    outer loop
      vertex -3.73526 -1.35947 5.4
      vertex -3.91452 -0.690216 0
      vertex -3.91452 -0.690216 5.4
    endloop
  endfacet
  facet normal 0.965949 0.258732 0
    outer loop
      vertex -3.91452 -0.690216 0
      vertex -3.73526 -1.35947 5.4
      vertex -3.73526 -1.35947 0
    endloop
  endfacet
  facet normal 0.81917 0.573551 0
    outer loop
      vertex -3.04495 -2.55505 5.4
      vertex -3.44238 -1.98743 0
      vertex -3.44238 -1.98743 5.4
    endloop
  endfacet
  facet normal 0.81917 0.573551 0
    outer loop
      vertex -3.44238 -1.98743 0
      vertex -3.04495 -2.55505 5.4
      vertex -3.04495 -2.55505 0
    endloop
  endfacet
  facet normal 0.573551 0.81917 -0
    outer loop
      vertex -1.98743 -3.44238 0
      vertex -2.55505 -3.04495 5.4
      vertex -1.98743 -3.44238 5.4
    endloop
  endfacet
  facet normal 0.573551 0.81917 0
    outer loop
      vertex -2.55505 -3.04495 5.4
      vertex -1.98743 -3.44238 0
      vertex -2.55505 -3.04495 0
    endloop
  endfacet
  facet normal 0.258732 0.965949 -0
    outer loop
      vertex -0.690216 -3.91452 0
      vertex -1.35947 -3.73526 5.4
      vertex -0.690216 -3.91452 5.4
    endloop
  endfacet
  facet normal 0.258732 0.965949 0
    outer loop
      vertex -1.35947 -3.73526 5.4
      vertex -0.690216 -3.91452 0
      vertex -1.35947 -3.73526 0
    endloop
  endfacet
  facet normal -0.0872112 0.99619 0
    outer loop
      vertex 0.690216 -3.91452 0
      vertex 0 -3.97495 5.4
      vertex 0.690216 -3.91452 5.4
    endloop
  endfacet
  facet normal -0.0872112 0.99619 0
    outer loop
      vertex 0 -3.97495 5.4
      vertex 0.690216 -3.91452 0
      vertex 0 -3.97495 0
    endloop
  endfacet
  facet normal -0.258732 -0.965949 0
    outer loop
      vertex 0.690216 3.91452 0
      vertex 1.35947 3.73526 5.4
      vertex 0.690216 3.91452 5.4
    endloop
  endfacet
  facet normal -0.258732 -0.965949 -0
    outer loop
      vertex 1.35947 3.73526 5.4
      vertex 0.690216 3.91452 0
      vertex 1.35947 3.73526 0
    endloop
  endfacet
  facet normal -0.99619 -0.0872112 0
    outer loop
      vertex 3.97495 0 0
      vertex 3.91452 0.690216 5.4
      vertex 3.91452 0.690216 0
    endloop
  endfacet
  facet normal -0.99619 -0.0872112 0
    outer loop
      vertex 3.91452 0.690216 5.4
      vertex 3.97495 0 0
      vertex 3.97495 0 5.4
    endloop
  endfacet
  facet normal -0.707107 0.707107 0
    outer loop
      vertex 2.55505 -3.04495 0
      vertex 3.04495 -2.55505 5.4
      vertex 3.04495 -2.55505 0
    endloop
  endfacet
  facet normal -0.707107 0.707107 0
    outer loop
      vertex 3.04495 -2.55505 5.4
      vertex 2.55505 -3.04495 0
      vertex 2.55505 -3.04495 5.4
    endloop
  endfacet
  facet normal -0.906278 -0.422683 0
    outer loop
      vertex 3.73526 1.35947 0
      vertex 3.44238 1.98743 5.4
      vertex 3.44238 1.98743 0
    endloop
  endfacet
  facet normal -0.906278 -0.422683 0
    outer loop
      vertex 3.44238 1.98743 5.4
      vertex 3.73526 1.35947 0
      vertex 3.73526 1.35947 5.4
    endloop
  endfacet
  facet normal 0.0870801 0.996201 -0
    outer loop
      vertex 30.7269 -32.0036 0
      vertex 30.0367 -31.9433 5.4
      vertex 30.7269 -32.0036 5.4
    endloop
  endfacet
  facet normal 0.0870801 0.996201 0
    outer loop
      vertex 30.0367 -31.9433 5.4
      vertex 30.7269 -32.0036 0
      vertex 30.0367 -31.9433 0
    endloop
  endfacet
  facet normal -0.0870801 0.996201 0
    outer loop
      vertex 31.4171 -31.9433 0
      vertex 30.7269 -32.0036 5.4
      vertex 31.4171 -31.9433 5.4
    endloop
  endfacet
  facet normal -0.0870801 0.996201 0
    outer loop
      vertex 30.7269 -32.0036 5.4
      vertex 31.4171 -31.9433 0
      vertex 30.7269 -32.0036 0
    endloop
  endfacet
  facet normal -0.258822 0.965925 0
    outer loop
      vertex 32.0865 -31.7639 0
      vertex 31.4171 -31.9433 5.4
      vertex 32.0865 -31.7639 5.4
    endloop
  endfacet
  facet normal -0.258822 0.965925 0
    outer loop
      vertex 31.4171 -31.9433 5.4
      vertex 32.0865 -31.7639 0
      vertex 31.4171 -31.9433 0
    endloop
  endfacet
  facet normal 0.996191 0.0871997 0
    outer loop
      vertex 26.8123 -28.719 5.4
      vertex 26.7519 -28.0287 0
      vertex 26.7519 -28.0287 5.4
    endloop
  endfacet
  facet normal 0.996191 0.0871997 0
    outer loop
      vertex 26.7519 -28.0287 0
      vertex 26.8123 -28.719 5.4
      vertex 26.8123 -28.719 0
    endloop
  endfacet
  facet normal 0.0872112 -0.99619 0
    outer loop
      vertex 30.0367 -24.1141 0
      vertex 30.7269 -24.0536 5.4
      vertex 30.0367 -24.1141 5.4
    endloop
  endfacet
  facet normal 0.0872112 -0.99619 0
    outer loop
      vertex 30.7269 -24.0536 5.4
      vertex 30.0367 -24.1141 0
      vertex 30.7269 -24.0536 0
    endloop
  endfacet
  facet normal -0.96594 -0.258765 0
    outer loop
      vertex 34.6414 -27.3384 0
      vertex 34.4622 -26.6692 5.4
      vertex 34.4622 -26.6692 0
    endloop
  endfacet
  facet normal -0.96594 -0.258765 0
    outer loop
      vertex 34.4622 -26.6692 5.4
      vertex 34.6414 -27.3384 0
      vertex 34.6414 -27.3384 5.4
    endloop
  endfacet
  facet normal 0.573551 -0.81917 0
    outer loop
      vertex 28.1718 -24.9836 0
      vertex 28.7394 -24.5862 5.4
      vertex 28.1718 -24.9836 5.4
    endloop
  endfacet
  facet normal 0.573551 -0.81917 0
    outer loop
      vertex 28.7394 -24.5862 5.4
      vertex 28.1718 -24.9836 0
      vertex 28.7394 -24.5862 0
    endloop
  endfacet
  facet normal 0.707173 -0.707041 0
    outer loop
      vertex 27.6819 -25.4736 5.4
      vertex 28.1718 -24.9836 0
      vertex 28.1718 -24.9836 5.4
    endloop
  endfacet
  facet normal 0.707173 -0.707041 0
    outer loop
      vertex 28.1718 -24.9836 0
      vertex 27.6819 -25.4736 5.4
      vertex 27.6819 -25.4736 0
    endloop
  endfacet
  facet normal 0.573551 0.81917 -0
    outer loop
      vertex 28.7394 -31.4712 0
      vertex 28.1718 -31.0737 5.4
      vertex 28.7394 -31.4712 5.4
    endloop
  endfacet
  facet normal 0.573551 0.81917 0
    outer loop
      vertex 28.1718 -31.0737 5.4
      vertex 28.7394 -31.4712 0
      vertex 28.1718 -31.0737 0
    endloop
  endfacet
  facet normal -0.258822 -0.965925 0
    outer loop
      vertex 31.4171 -24.1141 0
      vertex 32.0865 -24.2934 5.4
      vertex 31.4171 -24.1141 5.4
    endloop
  endfacet
  facet normal -0.258822 -0.965925 -0
    outer loop
      vertex 32.0865 -24.2934 5.4
      vertex 31.4171 -24.1141 0
      vertex 32.0865 -24.2934 0
    endloop
  endfacet
  facet normal 0.819126 -0.573613 0
    outer loop
      vertex 27.2845 -26.0412 5.4
      vertex 27.6819 -25.4736 0
      vertex 27.6819 -25.4736 5.4
    endloop
  endfacet
  facet normal 0.819126 -0.573613 0
    outer loop
      vertex 27.6819 -25.4736 0
      vertex 27.2845 -26.0412 5.4
      vertex 27.2845 -26.0412 0
    endloop
  endfacet
  facet normal 0.906278 0.422683 0
    outer loop
      vertex 27.2845 -30.0161 5.4
      vertex 26.9916 -29.3882 0
      vertex 26.9916 -29.3882 5.4
    endloop
  endfacet
  facet normal 0.906278 0.422683 0
    outer loop
      vertex 26.9916 -29.3882 0
      vertex 27.2845 -30.0161 5.4
      vertex 27.2845 -30.0161 0
    endloop
  endfacet
  facet normal 0.707173 0.707041 0
    outer loop
      vertex 28.1718 -31.0737 5.4
      vertex 27.6819 -30.5837 0
      vertex 27.6819 -30.5837 5.4
    endloop
  endfacet
  facet normal 0.707173 0.707041 0
    outer loop
      vertex 27.6819 -30.5837 0
      vertex 28.1718 -31.0737 5.4
      vertex 28.1718 -31.0737 0
    endloop
  endfacet
  facet normal 0.422574 0.906328 -0
    outer loop
      vertex 29.3674 -31.7639 0
      vertex 28.7394 -31.4712 5.4
      vertex 29.3674 -31.7639 5.4
    endloop
  endfacet
  facet normal 0.422574 0.906328 0
    outer loop
      vertex 28.7394 -31.4712 5.4
      vertex 29.3674 -31.7639 0
      vertex 28.7394 -31.4712 0
    endloop
  endfacet
  facet normal 0.258822 0.965925 -0
    outer loop
      vertex 30.0367 -31.9433 0
      vertex 29.3674 -31.7639 5.4
      vertex 30.0367 -31.9433 5.4
    endloop
  endfacet
  facet normal 0.258822 0.965925 0
    outer loop
      vertex 29.3674 -31.7639 5.4
      vertex 30.0367 -31.9433 0
      vertex 29.3674 -31.7639 0
    endloop
  endfacet
  facet normal -0.0872112 -0.99619 0
    outer loop
      vertex 30.7269 -24.0536 0
      vertex 31.4171 -24.1141 5.4
      vertex 30.7269 -24.0536 5.4
    endloop
  endfacet
  facet normal -0.0872112 -0.99619 -0
    outer loop
      vertex 31.4171 -24.1141 5.4
      vertex 30.7269 -24.0536 0
      vertex 31.4171 -24.1141 0
    endloop
  endfacet
  facet normal -0.573613 -0.819126 0
    outer loop
      vertex 32.7144 -24.5862 0
      vertex 33.282 -24.9836 5.4
      vertex 32.7144 -24.5862 5.4
    endloop
  endfacet
  facet normal -0.573613 -0.819126 -0
    outer loop
      vertex 33.282 -24.9836 5.4
      vertex 32.7144 -24.5862 0
      vertex 33.282 -24.9836 0
    endloop
  endfacet
  facet normal 0.996191 -0.0871997 0
    outer loop
      vertex 26.7519 -28.0287 5.4
      vertex 26.8123 -27.3384 0
      vertex 26.8123 -27.3384 5.4
    endloop
  endfacet
  facet normal 0.996191 -0.0871997 0
    outer loop
      vertex 26.8123 -27.3384 0
      vertex 26.7519 -28.0287 5.4
      vertex 26.7519 -28.0287 0
    endloop
  endfacet
  facet normal 0.906301 -0.422632 0
    outer loop
      vertex 26.9916 -26.6692 5.4
      vertex 27.2845 -26.0412 0
      vertex 27.2845 -26.0412 5.4
    endloop
  endfacet
  facet normal 0.906301 -0.422632 0
    outer loop
      vertex 27.2845 -26.0412 0
      vertex 26.9916 -26.6692 5.4
      vertex 26.9916 -26.6692 0
    endloop
  endfacet
  facet normal -0.422574 -0.906328 0
    outer loop
      vertex 32.0865 -24.2934 0
      vertex 32.7144 -24.5862 5.4
      vertex 32.0865 -24.2934 5.4
    endloop
  endfacet
  facet normal -0.422574 -0.906328 -0
    outer loop
      vertex 32.7144 -24.5862 5.4
      vertex 32.0865 -24.2934 0
      vertex 32.7144 -24.5862 0
    endloop
  endfacet
  facet normal -0.996191 -0.0871997 0
    outer loop
      vertex 34.7019 -28.0287 0
      vertex 34.6414 -27.3384 5.4
      vertex 34.6414 -27.3384 0
    endloop
  endfacet
  facet normal -0.996191 -0.0871997 0
    outer loop
      vertex 34.6414 -27.3384 5.4
      vertex 34.7019 -28.0287 0
      vertex 34.7019 -28.0287 5.4
    endloop
  endfacet
  facet normal -0.707173 0.707041 0
    outer loop
      vertex 33.282 -31.0737 0
      vertex 33.7719 -30.5837 5.4
      vertex 33.7719 -30.5837 0
    endloop
  endfacet
  facet normal -0.707173 0.707041 0
    outer loop
      vertex 33.7719 -30.5837 5.4
      vertex 33.282 -31.0737 0
      vertex 33.282 -31.0737 5.4
    endloop
  endfacet
  facet normal -0.96594 0.258765 0
    outer loop
      vertex 34.4622 -29.3882 0
      vertex 34.6414 -28.719 5.4
      vertex 34.6414 -28.719 0
    endloop
  endfacet
  facet normal -0.96594 0.258765 0
    outer loop
      vertex 34.6414 -28.719 5.4
      vertex 34.4622 -29.3882 0
      vertex 34.4622 -29.3882 5.4
    endloop
  endfacet
  facet normal -0.707173 -0.707041 0
    outer loop
      vertex 33.7719 -25.4736 0
      vertex 33.282 -24.9836 5.4
      vertex 33.282 -24.9836 0
    endloop
  endfacet
  facet normal -0.707173 -0.707041 0
    outer loop
      vertex 33.282 -24.9836 5.4
      vertex 33.7719 -25.4736 0
      vertex 33.7719 -25.4736 5.4
    endloop
  endfacet
  facet normal 0.96594 -0.258765 0
    outer loop
      vertex 26.8123 -27.3384 5.4
      vertex 26.9916 -26.6692 0
      vertex 26.9916 -26.6692 5.4
    endloop
  endfacet
  facet normal 0.96594 -0.258765 0
    outer loop
      vertex 26.9916 -26.6692 0
      vertex 26.8123 -27.3384 5.4
      vertex 26.8123 -27.3384 0
    endloop
  endfacet
  facet normal 0.422574 -0.906328 0
    outer loop
      vertex 28.7394 -24.5862 0
      vertex 29.3674 -24.2934 5.4
      vertex 28.7394 -24.5862 5.4
    endloop
  endfacet
  facet normal 0.422574 -0.906328 0
    outer loop
      vertex 29.3674 -24.2934 5.4
      vertex 28.7394 -24.5862 0
      vertex 29.3674 -24.2934 0
    endloop
  endfacet
  facet normal 0.258822 -0.965925 0
    outer loop
      vertex 29.3674 -24.2934 0
      vertex 30.0367 -24.1141 5.4
      vertex 29.3674 -24.2934 5.4
    endloop
  endfacet
  facet normal 0.258822 -0.965925 0
    outer loop
      vertex 30.0367 -24.1141 5.4
      vertex 29.3674 -24.2934 0
      vertex 30.0367 -24.1141 0
    endloop
  endfacet
  facet normal 0.81917 0.573551 0
    outer loop
      vertex 27.6819 -30.5837 5.4
      vertex 27.2845 -30.0161 0
      vertex 27.2845 -30.0161 5.4
    endloop
  endfacet
  facet normal 0.81917 0.573551 0
    outer loop
      vertex 27.2845 -30.0161 0
      vertex 27.6819 -30.5837 5.4
      vertex 27.6819 -30.5837 0
    endloop
  endfacet
  facet normal -0.81917 0.573551 0
    outer loop
      vertex 33.7719 -30.5837 0
      vertex 34.1693 -30.0161 5.4
      vertex 34.1693 -30.0161 0
    endloop
  endfacet
  facet normal -0.81917 0.573551 0
    outer loop
      vertex 34.1693 -30.0161 5.4
      vertex 33.7719 -30.5837 0
      vertex 33.7719 -30.5837 5.4
    endloop
  endfacet
  facet normal -0.422574 0.906328 0
    outer loop
      vertex 32.7144 -31.4712 0
      vertex 32.0865 -31.7639 5.4
      vertex 32.7144 -31.4712 5.4
    endloop
  endfacet
  facet normal -0.422574 0.906328 0
    outer loop
      vertex 32.0865 -31.7639 5.4
      vertex 32.7144 -31.4712 0
      vertex 32.0865 -31.7639 0
    endloop
  endfacet
  facet normal -0.996191 0.0871997 0
    outer loop
      vertex 34.6414 -28.719 0
      vertex 34.7019 -28.0287 5.4
      vertex 34.7019 -28.0287 0
    endloop
  endfacet
  facet normal -0.996191 0.0871997 0
    outer loop
      vertex 34.7019 -28.0287 5.4
      vertex 34.6414 -28.719 0
      vertex 34.6414 -28.719 5.4
    endloop
  endfacet
  facet normal -0.819126 -0.573613 0
    outer loop
      vertex 34.1693 -26.0412 0
      vertex 33.7719 -25.4736 5.4
      vertex 33.7719 -25.4736 0
    endloop
  endfacet
  facet normal -0.819126 -0.573613 0
    outer loop
      vertex 33.7719 -25.4736 5.4
      vertex 34.1693 -26.0412 0
      vertex 34.1693 -26.0412 5.4
    endloop
  endfacet
  facet normal -0.906301 -0.422632 0
    outer loop
      vertex 34.4622 -26.6692 0
      vertex 34.1693 -26.0412 5.4
      vertex 34.1693 -26.0412 0
    endloop
  endfacet
  facet normal -0.906301 -0.422632 0
    outer loop
      vertex 34.1693 -26.0412 5.4
      vertex 34.4622 -26.6692 0
      vertex 34.4622 -26.6692 5.4
    endloop
  endfacet
  facet normal 0.96594 0.258765 0
    outer loop
      vertex 26.9916 -29.3882 5.4
      vertex 26.8123 -28.719 0
      vertex 26.8123 -28.719 5.4
    endloop
  endfacet
  facet normal 0.96594 0.258765 0
    outer loop
      vertex 26.8123 -28.719 0
      vertex 26.9916 -29.3882 5.4
      vertex 26.9916 -29.3882 0
    endloop
  endfacet
  facet normal -0.573613 0.819126 0
    outer loop
      vertex 33.282 -31.0737 0
      vertex 32.7144 -31.4712 5.4
      vertex 33.282 -31.0737 5.4
    endloop
  endfacet
  facet normal -0.573613 0.819126 0
    outer loop
      vertex 32.7144 -31.4712 5.4
      vertex 33.282 -31.0737 0
      vertex 32.7144 -31.4712 0
    endloop
  endfacet
  facet normal -0.906278 0.422683 0
    outer loop
      vertex 34.1693 -30.0161 0
      vertex 34.4622 -29.3882 5.4
      vertex 34.4622 -29.3882 0
    endloop
  endfacet
  facet normal -0.906278 0.422683 0
    outer loop
      vertex 34.4622 -29.3882 5.4
      vertex 34.1693 -30.0161 0
      vertex 34.1693 -30.0161 5.4
    endloop
  endfacet
endsolid OpenSCAD_Model
