solid OpenSCAD_Model
  facet normal 0.384814 -0.922994 0
    outer loop
      vertex 43.9978 -46.902 0
      vertex 45.6067 -46.2312 7.2
      vertex 43.9978 -46.902 7.2
    endloop
  endfacet
  facet normal 0.384814 -0.922994 0
    outer loop
      vertex 45.6067 -46.2312 7.2
      vertex 43.9978 -46.902 0
      vertex 45.6067 -46.2312 0
    endloop
  endfacet
  facet normal 0.0458683 -0.998947 0
    outer loop
      vertex 40.5555 -47.363 0
      vertex 42.2969 -47.2831 7.2
      vertex 40.5555 -47.363 7.2
    endloop
  endfacet
  facet normal 0.0458683 -0.998947 0
    outer loop
      vertex 42.2969 -47.2831 7.2
      vertex 40.5555 -47.363 0
      vertex 42.2969 -47.2831 0
    endloop
  endfacet
  facet normal -0.218636 0.975807 0
    outer loop
      vertex -1.32764 9.91138 0
      vertex -3.02856 9.53027 7.2
      vertex -1.32764 9.91138 7.2
    endloop
  endfacet
  facet normal -0.218636 0.975807 0
    outer loop
      vertex -3.02856 9.53027 7.2
      vertex -1.32764 9.91138 0
      vertex -3.02856 9.53027 0
    endloop
  endfacet
  facet normal 0.218636 -0.975807 0
    outer loop
      vertex 42.2969 -47.2831 0
      vertex 43.9978 -46.902 7.2
      vertex 42.2969 -47.2831 7.2
    endloop
  endfacet
  facet normal 0.218636 -0.975807 0
    outer loop
      vertex 43.9978 -46.902 7.2
      vertex 42.2969 -47.2831 0
      vertex 43.9978 -46.902 0
    endloop
  endfacet
  facet normal 0.842196 0.539171 0
    outer loop
      vertex 49.8289 -32.7341 7.2
      vertex 48.889 -31.2661 0
      vertex 48.889 -31.2661 7.2
    endloop
  endfacet
  facet normal 0.842196 0.539171 0
    outer loop
      vertex 48.889 -31.2661 0
      vertex 49.8289 -32.7341 7.2
      vertex 49.8289 -32.7341 0
    endloop
  endfacet
  facet normal 0.954395 -0.298546 0
    outer loop
      vertex 50.2166 -41.1775 7.2
      vertex 50.7369 -39.5139 0
      vertex 50.7369 -39.5139 7.2
    endloop
  endfacet
  facet normal 0.954395 -0.298546 0
    outer loop
      vertex 50.7369 -39.5139 0
      vertex 50.2166 -41.1775 7.2
      vertex 50.2166 -41.1775 0
    endloop
  endfacet
  facet normal -0.888021 0.459802 0
    outer loop
      vertex -9.24744 3.80591 0
      vertex -8.44592 5.35388 7.2
      vertex -8.44592 5.35388 0
    endloop
  endfacet
  facet normal -0.888021 0.459802 0
    outer loop
      vertex -8.44592 5.35388 7.2
      vertex -9.24744 3.80591 0
      vertex -9.24744 3.80591 7.2
    endloop
  endfacet
  facet normal -0.73574 -0.677264 0
    outer loop
      vertex -6.73914 -7.38794 0
      vertex -7.91968 -6.10547 7.2
      vertex -7.91968 -6.10547 0
    endloop
  endfacet
  facet normal -0.73574 -0.677264 0
    outer loop
      vertex -7.91968 -6.10547 7.2
      vertex -6.73914 -7.38794 0
      vertex -6.73914 -7.38794 7.2
    endloop
  endfacet
  facet normal 0.673923 0.738802 -0
    outer loop
      vertex 47.7084 -29.9835 0
      vertex 6.73914 7.38794 7.2
      vertex 47.7084 -29.9835 7.2
    endloop
  endfacet
  facet normal 0.673923 0.738802 0
    outer loop
      vertex 6.73914 7.38794 7.2
      vertex 47.7084 -29.9835 0
      vertex 6.73914 7.38794 0
    endloop
  endfacet
  facet normal 0.735737 0.677267 0
    outer loop
      vertex 48.889 -31.2661 7.2
      vertex 47.7084 -29.9835 0
      vertex 47.7084 -29.9835 7.2
    endloop
  endfacet
  facet normal 0.735737 0.677267 0
    outer loop
      vertex 47.7084 -29.9835 0
      vertex 48.889 -31.2661 7.2
      vertex 48.889 -31.2661 0
    endloop
  endfacet
  facet normal 0.794725 -0.606969 0
    outer loop
      vertex 48.3572 -44.1108 7.2
      vertex 49.4152 -42.7256 0
      vertex 49.4152 -42.7256 7.2
    endloop
  endfacet
  facet normal 0.794725 -0.606969 0
    outer loop
      vertex 49.4152 -42.7256 0
      vertex 48.3572 -44.1108 7.2
      vertex 48.3572 -44.1108 0
    endloop
  endfacet
  facet normal -0.539221 0.842165 0
    outer loop
      vertex -4.63745 8.85962 0
      vertex -6.10547 7.91968 7.2
      vertex -4.63745 8.85962 7.2
    endloop
  endfacet
  facet normal -0.539221 0.842165 0
    outer loop
      vertex -6.10547 7.91968 7.2
      vertex -4.63745 8.85962 0
      vertex -6.10547 7.91968 0
    endloop
  endfacet
  facet normal -0.384755 0.923019 0
    outer loop
      vertex -3.02856 9.53027 0
      vertex -4.63745 8.85962 7.2
      vertex -3.02856 9.53027 7.2
    endloop
  endfacet
  facet normal -0.384755 0.923019 0
    outer loop
      vertex -4.63745 8.85962 7.2
      vertex -3.02856 9.53027 0
      vertex -4.63745 8.85962 0
    endloop
  endfacet
  facet normal -0.677264 0.73574 0
    outer loop
      vertex -6.10547 7.91968 0
      vertex -7.38794 6.73914 7.2
      vertex -6.10547 7.91968 7.2
    endloop
  endfacet
  facet normal -0.677264 0.73574 0
    outer loop
      vertex -7.38794 6.73914 7.2
      vertex -6.10547 7.91968 0
      vertex -7.38794 6.73914 0
    endloop
  endfacet
  facet normal -0.998947 -0.0458715 0
    outer loop
      vertex -9.91138 -1.32764 0
      vertex -9.99133 0.413574 7.2
      vertex -9.99133 0.413574 0
    endloop
  endfacet
  facet normal -0.998947 -0.0458715 0
    outer loop
      vertex -9.99133 0.413574 7.2
      vertex -9.91138 -1.32764 0
      vertex -9.91138 -1.32764 7.2
    endloop
  endfacet
  facet normal -0.954395 0.298546 0
    outer loop
      vertex -9.76782 2.14233 0
      vertex -9.24744 3.80591 7.2
      vertex -9.24744 3.80591 0
    endloop
  endfacet
  facet normal -0.954395 0.298546 0
    outer loop
      vertex -9.24744 3.80591 7.2
      vertex -9.76782 2.14233 0
      vertex -9.76782 2.14233 7.2
    endloop
  endfacet
  facet normal -0.673925 -0.7388 0
    outer loop
      vertex -6.73914 -7.38794 0
      vertex 34.23 -44.7595 7.2
      vertex -6.73914 -7.38794 7.2
    endloop
  endfacet
  facet normal -0.673925 -0.7388 -0
    outer loop
      vertex 34.23 -44.7595 7.2
      vertex -6.73914 -7.38794 0
      vertex 34.23 -44.7595 0
    endloop
  endfacet
  facet normal -0.607013 -0.794692 0
    outer loop
      vertex 34.23 -44.7595 0
      vertex 35.6152 -45.8176 7.2
      vertex 34.23 -44.7595 7.2
    endloop
  endfacet
  facet normal -0.607013 -0.794692 -0
    outer loop
      vertex 35.6152 -45.8176 7.2
      vertex 34.23 -44.7595 0
      vertex 35.6152 -45.8176 0
    endloop
  endfacet
  facet normal 0.298546 0.954395 -0
    outer loop
      vertex 3.80591 9.24744 0
      vertex 2.14233 9.76782 7.2
      vertex 3.80591 9.24744 7.2
    endloop
  endfacet
  facet normal 0.298546 0.954395 0
    outer loop
      vertex 2.14233 9.76782 7.2
      vertex 3.80591 9.24744 0
      vertex 2.14233 9.76782 0
    endloop
  endfacet
  facet normal 0.998944 0.0459381 0
    outer loop
      vertex 50.9607 -37.7853 7.2
      vertex 50.8806 -36.0439 0
      vertex 50.8806 -36.0439 7.2
    endloop
  endfacet
  facet normal 0.998944 0.0459381 0
    outer loop
      vertex 50.8806 -36.0439 0
      vertex 50.9607 -37.7853 7.2
      vertex 50.9607 -37.7853 0
    endloop
  endfacet
  facet normal 0.991726 -0.128369 0
    outer loop
      vertex 50.7369 -39.5139 7.2
      vertex 50.9607 -37.7853 0
      vertex 50.9607 -37.7853 7.2
    endloop
  endfacet
  facet normal 0.991726 -0.128369 0
    outer loop
      vertex 50.9607 -37.7853 0
      vertex 50.7369 -39.5139 7.2
      vertex 50.7369 -39.5139 0
    endloop
  endfacet
  facet normal 0.975807 0.218636 0
    outer loop
      vertex 50.8806 -36.0439 7.2
      vertex 50.4995 -34.343 0
      vertex 50.4995 -34.343 7.2
    endloop
  endfacet
  facet normal 0.975807 0.218636 0
    outer loop
      vertex 50.4995 -34.343 0
      vertex 50.8806 -36.0439 7.2
      vertex 50.8806 -36.0439 0
    endloop
  endfacet
  facet normal 0.888065 -0.459718 0
    outer loop
      vertex 49.4152 -42.7256 7.2
      vertex 50.2166 -41.1775 0
      vertex 50.2166 -41.1775 7.2
    endloop
  endfacet
  facet normal 0.888065 -0.459718 0
    outer loop
      vertex 50.2166 -41.1775 0
      vertex 49.4152 -42.7256 7.2
      vertex 49.4152 -42.7256 0
    endloop
  endfacet
  facet normal 0.539171 -0.842196 0
    outer loop
      vertex 45.6067 -46.2312 0
      vertex 47.0747 -45.2914 7.2
      vertex 45.6067 -46.2312 7.2
    endloop
  endfacet
  facet normal 0.539171 -0.842196 0
    outer loop
      vertex 47.0747 -45.2914 7.2
      vertex 45.6067 -46.2312 0
      vertex 47.0747 -45.2914 0
    endloop
  endfacet
  facet normal -0.794725 0.606969 0
    outer loop
      vertex -8.44592 5.35388 0
      vertex -7.38794 6.73914 7.2
      vertex -7.38794 6.73914 0
    endloop
  endfacet
  facet normal -0.794725 0.606969 0
    outer loop
      vertex -7.38794 6.73914 7.2
      vertex -8.44592 5.35388 0
      vertex -8.44592 5.35388 7.2
    endloop
  endfacet
  facet normal -0.975807 -0.218636 0
    outer loop
      vertex -9.53027 -3.02856 0
      vertex -9.91138 -1.32764 7.2
      vertex -9.91138 -1.32764 0
    endloop
  endfacet
  facet normal -0.975807 -0.218636 0
    outer loop
      vertex -9.91138 -1.32764 7.2
      vertex -9.53027 -3.02856 0
      vertex -9.53027 -3.02856 7.2
    endloop
  endfacet
  facet normal -0.842165 -0.539221 0
    outer loop
      vertex -7.91968 -6.10547 0
      vertex -8.85962 -4.63745 7.2
      vertex -8.85962 -4.63745 0
    endloop
  endfacet
  facet normal -0.842165 -0.539221 0
    outer loop
      vertex -8.85962 -4.63745 7.2
      vertex -7.91968 -6.10547 0
      vertex -7.91968 -6.10547 7.2
    endloop
  endfacet
  facet normal -0.991745 0.128222 0
    outer loop
      vertex -9.99133 0.413574 0
      vertex -9.76782 2.14233 7.2
      vertex -9.76782 2.14233 0
    endloop
  endfacet
  facet normal -0.991745 0.128222 0
    outer loop
      vertex -9.76782 2.14233 7.2
      vertex -9.99133 0.413574 0
      vertex -9.99133 0.413574 7.2
    endloop
  endfacet
  facet normal 0 0 -1
    outer loop
      vertex 4.98035 1.81262 0
      vertex 6.73914 7.38794 0
      vertex 5.21936 0.920288 0
    endloop
  endfacet
  facet normal 0 0 -1
    outer loop
      vertex 4.58984 2.6499 0
      vertex 6.73914 7.38794 0
      vertex 4.98035 1.81262 0
    endloop
  endfacet
  facet normal 0 0 -1
    outer loop
      vertex 4.05994 3.40674 0
      vertex 6.73914 7.38794 0
      vertex 4.58984 2.6499 0
    endloop
  endfacet
  facet normal 0 0 -1
    outer loop
      vertex 3.40674 4.05994 0
      vertex 6.73914 7.38794 0
      vertex 4.05994 3.40674 0
    endloop
  endfacet
  facet normal -0 0 -1
    outer loop
      vertex 6.73914 7.38794 0
      vertex 3.40674 4.05994 0
      vertex 5.35388 8.44592 0
    endloop
  endfacet
  facet normal 0 0 -1
    outer loop
      vertex 2.6499 4.58984 0
      vertex 5.35388 8.44592 0
      vertex 3.40674 4.05994 0
    endloop
  endfacet
  facet normal -0 0 -1
    outer loop
      vertex 5.35388 8.44592 0
      vertex 2.6499 4.58984 0
      vertex 3.80591 9.24744 0
    endloop
  endfacet
  facet normal 0 0 -1
    outer loop
      vertex 1.81262 4.98035 0
      vertex 3.80591 9.24744 0
      vertex 2.6499 4.58984 0
    endloop
  endfacet
  facet normal -0 0 -1
    outer loop
      vertex 3.80591 9.24744 0
      vertex 1.81262 4.98035 0
      vertex 2.14233 9.76782 0
    endloop
  endfacet
  facet normal 0 0 -1
    outer loop
      vertex 0.920288 5.21936 0
      vertex 2.14233 9.76782 0
      vertex 1.81262 4.98035 0
    endloop
  endfacet
  facet normal 0 0 -1
    outer loop
      vertex 0.920288 5.21936 0
      vertex 0.413574 9.99133 0
      vertex 2.14233 9.76782 0
    endloop
  endfacet
  facet normal 0 0 -1
    outer loop
      vertex 0 5.29993 0
      vertex 0.413574 9.99133 0
      vertex 0.920288 5.21936 0
    endloop
  endfacet
  facet normal 0 0 -1
    outer loop
      vertex -1.32764 9.91138 0
      vertex 0 5.29993 0
      vertex -0.920288 5.21936 0
    endloop
  endfacet
  facet normal 0 0 -1
    outer loop
      vertex 0 5.29993 0
      vertex -1.32764 9.91138 0
      vertex 0.413574 9.99133 0
    endloop
  endfacet
  facet normal 0 0 -1
    outer loop
      vertex -3.02856 9.53027 0
      vertex -0.920288 5.21936 0
      vertex -1.81262 4.98035 0
    endloop
  endfacet
  facet normal 0 0 -1
    outer loop
      vertex -4.63745 8.85962 0
      vertex -1.81262 4.98035 0
      vertex -2.6499 4.58984 0
    endloop
  endfacet
  facet normal 0 0 -1
    outer loop
      vertex -0.920288 5.21936 0
      vertex -3.02856 9.53027 0
      vertex -1.32764 9.91138 0
    endloop
  endfacet
  facet normal 0 0 -1
    outer loop
      vertex -6.10547 7.91968 0
      vertex -2.6499 4.58984 0
      vertex -3.40674 4.05994 0
    endloop
  endfacet
  facet normal 0 0 -1
    outer loop
      vertex -7.38794 6.73914 0
      vertex -3.40674 4.05994 0
      vertex -4.05994 3.40674 0
    endloop
  endfacet
  facet normal 0 0 -1
    outer loop
      vertex -8.44592 5.35388 0
      vertex -4.05994 3.40674 0
      vertex -4.58984 2.6499 0
    endloop
  endfacet
  facet normal 0 0 -1
    outer loop
      vertex -1.81262 4.98035 0
      vertex -4.63745 8.85962 0
      vertex -3.02856 9.53027 0
    endloop
  endfacet
  facet normal 0 0 -1
    outer loop
      vertex -9.24744 3.80591 0
      vertex -4.58984 2.6499 0
      vertex -4.98035 1.81262 0
    endloop
  endfacet
  facet normal 0 0 -1
    outer loop
      vertex -9.76782 2.14233 0
      vertex -4.98035 1.81262 0
      vertex -5.21936 0.920288 0
    endloop
  endfacet
  facet normal 0 0 -1
    outer loop
      vertex -9.99133 0.413574 0
      vertex -5.21936 0.920288 0
      vertex -5.29993 0 0
    endloop
  endfacet
  facet normal 0 0 -1
    outer loop
      vertex -2.6499 4.58984 0
      vertex -6.10547 7.91968 0
      vertex -4.63745 8.85962 0
    endloop
  endfacet
  facet normal -0 0 -1
    outer loop
      vertex 50.9607 -37.7853 0
      vertex 46.1886 -38.292 0
      vertex 46.2692 -37.3716 0
    endloop
  endfacet
  facet normal 0 0 -1
    outer loop
      vertex 48.3572 -44.1108 0
      vertex 45.9496 -39.1842 0
      vertex 46.1886 -38.292 0
    endloop
  endfacet
  facet normal 0 0 -1
    outer loop
      vertex 43.6193 -41.9615 0
      vertex 47.0747 -45.2914 0
      vertex 45.6067 -46.2312 0
    endloop
  endfacet
  facet normal 0 0 -1
    outer loop
      vertex 48.3572 -44.1108 0
      vertex 45.5591 -40.0215 0
      vertex 45.9496 -39.1842 0
    endloop
  endfacet
  facet normal 0 0 -1
    outer loop
      vertex 48.3572 -44.1108 0
      vertex 45.0292 -40.7783 0
      vertex 45.5591 -40.0215 0
    endloop
  endfacet
  facet normal 0 0 -1
    outer loop
      vertex 48.3572 -44.1108 0
      vertex 44.376 -41.4316 0
      vertex 45.0292 -40.7783 0
    endloop
  endfacet
  facet normal 0 0 -1
    outer loop
      vertex 42.782 -42.3519 0
      vertex 45.6067 -46.2312 0
      vertex 43.9978 -46.902 0
    endloop
  endfacet
  facet normal 0 0 -1
    outer loop
      vertex 47.0747 -45.2914 0
      vertex 43.6193 -41.9615 0
      vertex 44.376 -41.4316 0
    endloop
  endfacet
  facet normal 0 0 -1
    outer loop
      vertex 45.6067 -46.2312 0
      vertex 42.782 -42.3519 0
      vertex 43.6193 -41.9615 0
    endloop
  endfacet
  facet normal 0 0 -1
    outer loop
      vertex 41.8895 -42.5911 0
      vertex 43.9978 -46.902 0
      vertex 42.2969 -47.2831 0
    endloop
  endfacet
  facet normal 0 0 -1
    outer loop
      vertex 43.9978 -46.902 0
      vertex 41.8895 -42.5911 0
      vertex 42.782 -42.3519 0
    endloop
  endfacet
  facet normal 0 0 -1
    outer loop
      vertex 42.2969 -47.2831 0
      vertex 40.9692 -42.6715 0
      vertex 41.8895 -42.5911 0
    endloop
  endfacet
  facet normal 0 0 -1
    outer loop
      vertex 40.5555 -47.363 0
      vertex 40.9692 -42.6715 0
      vertex 42.2969 -47.2831 0
    endloop
  endfacet
  facet normal 0 0 -1
    outer loop
      vertex 40.5555 -47.363 0
      vertex 40.049 -42.5911 0
      vertex 40.9692 -42.6715 0
    endloop
  endfacet
  facet normal 0 0 -1
    outer loop
      vertex 38.8268 -47.1394 0
      vertex 40.049 -42.5911 0
      vertex 40.5555 -47.363 0
    endloop
  endfacet
  facet normal -0 0 -1
    outer loop
      vertex 40.049 -42.5911 0
      vertex 38.8268 -47.1394 0
      vertex 39.1565 -42.3519 0
    endloop
  endfacet
  facet normal 0 0 -1
    outer loop
      vertex 37.1632 -46.619 0
      vertex 39.1565 -42.3519 0
      vertex 38.8268 -47.1394 0
    endloop
  endfacet
  facet normal -0 0 -1
    outer loop
      vertex 39.1565 -42.3519 0
      vertex 37.1632 -46.619 0
      vertex 38.3192 -41.9615 0
    endloop
  endfacet
  facet normal 0 0 -1
    outer loop
      vertex 35.6152 -45.8176 0
      vertex 38.3192 -41.9615 0
      vertex 37.1632 -46.619 0
    endloop
  endfacet
  facet normal -0 0 -1
    outer loop
      vertex 38.3192 -41.9615 0
      vertex 35.6152 -45.8176 0
      vertex 37.5624 -41.4316 0
    endloop
  endfacet
  facet normal 0 0 -1
    outer loop
      vertex 34.23 -44.7595 0
      vertex 37.5624 -41.4316 0
      vertex 35.6152 -45.8176 0
    endloop
  endfacet
  facet normal -0 0 -1
    outer loop
      vertex 37.5624 -41.4316 0
      vertex 34.23 -44.7595 0
      vertex 36.9092 -40.7783 0
    endloop
  endfacet
  facet normal -0 0 -1
    outer loop
      vertex 36.9092 -40.7783 0
      vertex 34.23 -44.7595 0
      vertex 36.3793 -40.0215 0
    endloop
  endfacet
  facet normal -0 0 -1
    outer loop
      vertex 35.9888 -39.1842 0
      vertex 34.23 -44.7595 0
      vertex 35.7498 -38.292 0
    endloop
  endfacet
  facet normal -0 0 -1
    outer loop
      vertex 36.3793 -40.0215 0
      vertex 34.23 -44.7595 0
      vertex 35.9888 -39.1842 0
    endloop
  endfacet
  facet normal 0 0 -1
    outer loop
      vertex 46.1886 -38.292 0
      vertex 50.9607 -37.7853 0
      vertex 50.7369 -39.5139 0
    endloop
  endfacet
  facet normal 0 0 -1
    outer loop
      vertex 50.9607 -37.7853 0
      vertex 46.2692 -37.3716 0
      vertex 50.8806 -36.0439 0
    endloop
  endfacet
  facet normal 0 0 -1
    outer loop
      vertex 46.1886 -38.292 0
      vertex 50.7369 -39.5139 0
      vertex 50.2166 -41.1775 0
    endloop
  endfacet
  facet normal 0 0 -1
    outer loop
      vertex 46.1886 -36.4512 0
      vertex 50.8806 -36.0439 0
      vertex 46.2692 -37.3716 0
    endloop
  endfacet
  facet normal 0 0 -1
    outer loop
      vertex 46.1886 -38.292 0
      vertex 50.2166 -41.1775 0
      vertex 49.4152 -42.7256 0
    endloop
  endfacet
  facet normal -0 0 -1
    outer loop
      vertex 50.8806 -36.0439 0
      vertex 46.1886 -36.4512 0
      vertex 50.4995 -34.343 0
    endloop
  endfacet
  facet normal 0 0 -1
    outer loop
      vertex 46.1886 -38.292 0
      vertex 49.4152 -42.7256 0
      vertex 48.3572 -44.1108 0
    endloop
  endfacet
  facet normal 0 0 -1
    outer loop
      vertex 45.9496 -35.559 0
      vertex 50.4995 -34.343 0
      vertex 46.1886 -36.4512 0
    endloop
  endfacet
  facet normal 0 0 -1
    outer loop
      vertex 44.376 -41.4316 0
      vertex 48.3572 -44.1108 0
      vertex 47.0747 -45.2914 0
    endloop
  endfacet
  facet normal -0 0 -1
    outer loop
      vertex 50.4995 -34.343 0
      vertex 45.9496 -35.559 0
      vertex 49.8289 -32.7341 0
    endloop
  endfacet
  facet normal 0 0 -1
    outer loop
      vertex 45.5591 -34.7216 0
      vertex 49.8289 -32.7341 0
      vertex 45.9496 -35.559 0
    endloop
  endfacet
  facet normal -0 0 -1
    outer loop
      vertex 49.8289 -32.7341 0
      vertex 45.5591 -34.7216 0
      vertex 48.889 -31.2661 0
    endloop
  endfacet
  facet normal 0 0 -1
    outer loop
      vertex 45.0292 -33.9648 0
      vertex 48.889 -31.2661 0
      vertex 45.5591 -34.7216 0
    endloop
  endfacet
  facet normal -0 0 -1
    outer loop
      vertex 48.889 -31.2661 0
      vertex 45.0292 -33.9648 0
      vertex 47.7084 -29.9835 0
    endloop
  endfacet
  facet normal 0 0 -1
    outer loop
      vertex 44.376 -33.3115 0
      vertex 47.7084 -29.9835 0
      vertex 45.0292 -33.9648 0
    endloop
  endfacet
  facet normal 0 0 -1
    outer loop
      vertex 43.6193 -32.7816 0
      vertex 47.7084 -29.9835 0
      vertex 44.376 -33.3115 0
    endloop
  endfacet
  facet normal 0 0 -1
    outer loop
      vertex 42.782 -32.3912 0
      vertex 47.7084 -29.9835 0
      vertex 43.6193 -32.7816 0
    endloop
  endfacet
  facet normal 0 0 -1
    outer loop
      vertex 41.8895 -32.1521 0
      vertex 47.7084 -29.9835 0
      vertex 42.782 -32.3912 0
    endloop
  endfacet
  facet normal 0 0 -1
    outer loop
      vertex 40.9692 -32.0715 0
      vertex 47.7084 -29.9835 0
      vertex 41.8895 -32.1521 0
    endloop
  endfacet
  facet normal 0 0 -1
    outer loop
      vertex 40.049 -32.1521 0
      vertex 47.7084 -29.9835 0
      vertex 40.9692 -32.0715 0
    endloop
  endfacet
  facet normal 0 0 -1
    outer loop
      vertex 5.21936 -0.920288 0
      vertex 40.049 -32.1521 0
      vertex 39.1565 -32.3912 0
    endloop
  endfacet
  facet normal -0 0 -1
    outer loop
      vertex 35.7498 -38.292 0
      vertex 34.23 -44.7595 0
      vertex 35.6692 -37.3716 0
    endloop
  endfacet
  facet normal 0 0 -1
    outer loop
      vertex 0.920288 -5.21936 0
      vertex 35.6692 -37.3716 0
      vertex 34.23 -44.7595 0
    endloop
  endfacet
  facet normal 0 0 -1
    outer loop
      vertex 40.049 -32.1521 0
      vertex 5.29993 0 0
      vertex 47.7084 -29.9835 0
    endloop
  endfacet
  facet normal 0 0 -1
    outer loop
      vertex 4.98035 -1.81262 0
      vertex 39.1565 -32.3912 0
      vertex 38.3192 -32.7816 0
    endloop
  endfacet
  facet normal 0 0 -1
    outer loop
      vertex 4.58984 -2.6499 0
      vertex 38.3192 -32.7816 0
      vertex 37.5624 -33.3115 0
    endloop
  endfacet
  facet normal 0 0 -1
    outer loop
      vertex 4.05994 -3.40674 0
      vertex 37.5624 -33.3115 0
      vertex 36.9092 -33.9648 0
    endloop
  endfacet
  facet normal 0 0 -1
    outer loop
      vertex 3.40674 -4.05994 0
      vertex 36.9092 -33.9648 0
      vertex 36.3793 -34.7216 0
    endloop
  endfacet
  facet normal 0 0 -1
    outer loop
      vertex 2.6499 -4.58984 0
      vertex 36.3793 -34.7216 0
      vertex 35.9888 -35.559 0
    endloop
  endfacet
  facet normal 0 0 -1
    outer loop
      vertex 1.81262 -4.98035 0
      vertex 35.9888 -35.559 0
      vertex 35.7498 -36.4512 0
    endloop
  endfacet
  facet normal 0 0 -1
    outer loop
      vertex 35.6692 -37.3716 0
      vertex 0.920288 -5.21936 0
      vertex 35.7498 -36.4512 0
    endloop
  endfacet
  facet normal 0 0 -1
    outer loop
      vertex 47.7084 -29.9835 0
      vertex 5.29993 0 0
      vertex 6.73914 7.38794 0
    endloop
  endfacet
  facet normal 0 0 -1
    outer loop
      vertex 5.21936 0.920288 0
      vertex 6.73914 7.38794 0
      vertex 5.29993 0 0
    endloop
  endfacet
  facet normal 0 0 -1
    outer loop
      vertex 40.049 -32.1521 0
      vertex 5.21936 -0.920288 0
      vertex 5.29993 0 0
    endloop
  endfacet
  facet normal 0 0 -1
    outer loop
      vertex 39.1565 -32.3912 0
      vertex 4.98035 -1.81262 0
      vertex 5.21936 -0.920288 0
    endloop
  endfacet
  facet normal 0 0 -1
    outer loop
      vertex 38.3192 -32.7816 0
      vertex 4.58984 -2.6499 0
      vertex 4.98035 -1.81262 0
    endloop
  endfacet
  facet normal 0 0 -1
    outer loop
      vertex 37.5624 -33.3115 0
      vertex 4.05994 -3.40674 0
      vertex 4.58984 -2.6499 0
    endloop
  endfacet
  facet normal 0 0 -1
    outer loop
      vertex 36.9092 -33.9648 0
      vertex 3.40674 -4.05994 0
      vertex 4.05994 -3.40674 0
    endloop
  endfacet
  facet normal 0 0 -1
    outer loop
      vertex 36.3793 -34.7216 0
      vertex 2.6499 -4.58984 0
      vertex 3.40674 -4.05994 0
    endloop
  endfacet
  facet normal 0 0 -1
    outer loop
      vertex 35.9888 -35.559 0
      vertex 1.81262 -4.98035 0
      vertex 2.6499 -4.58984 0
    endloop
  endfacet
  facet normal 0 0 -1
    outer loop
      vertex 35.7498 -36.4512 0
      vertex 0.920288 -5.21936 0
      vertex 1.81262 -4.98035 0
    endloop
  endfacet
  facet normal 0 0 -1
    outer loop
      vertex -6.73914 -7.38794 0
      vertex 0.920288 -5.21936 0
      vertex 34.23 -44.7595 0
    endloop
  endfacet
  facet normal 0 0 -1
    outer loop
      vertex 0.920288 -5.21936 0
      vertex -6.73914 -7.38794 0
      vertex 0 -5.29993 0
    endloop
  endfacet
  facet normal -0 0 -1
    outer loop
      vertex 0 -5.29993 0
      vertex -6.73914 -7.38794 0
      vertex -0.920288 -5.21936 0
    endloop
  endfacet
  facet normal -0 0 -1
    outer loop
      vertex -0.920288 -5.21936 0
      vertex -6.73914 -7.38794 0
      vertex -1.81262 -4.98035 0
    endloop
  endfacet
  facet normal -0 0 -1
    outer loop
      vertex -1.81262 -4.98035 0
      vertex -6.73914 -7.38794 0
      vertex -2.6499 -4.58984 0
    endloop
  endfacet
  facet normal -0 0 -1
    outer loop
      vertex -2.6499 -4.58984 0
      vertex -6.73914 -7.38794 0
      vertex -3.40674 -4.05994 0
    endloop
  endfacet
  facet normal 0 0 -1
    outer loop
      vertex -9.91138 -1.32764 0
      vertex -5.29993 0 0
      vertex -5.21936 -0.920288 0
    endloop
  endfacet
  facet normal -0 0 -1
    outer loop
      vertex -3.40674 -4.05994 0
      vertex -6.73914 -7.38794 0
      vertex -4.05994 -3.40674 0
    endloop
  endfacet
  facet normal 0 0 -1
    outer loop
      vertex -7.91968 -6.10547 0
      vertex -4.05994 -3.40674 0
      vertex -6.73914 -7.38794 0
    endloop
  endfacet
  facet normal -0 0 -1
    outer loop
      vertex -4.05994 -3.40674 0
      vertex -7.91968 -6.10547 0
      vertex -4.58984 -2.6499 0
    endloop
  endfacet
  facet normal 0 0 -1
    outer loop
      vertex -8.85962 -4.63745 0
      vertex -4.58984 -2.6499 0
      vertex -7.91968 -6.10547 0
    endloop
  endfacet
  facet normal -0 0 -1
    outer loop
      vertex -4.58984 -2.6499 0
      vertex -8.85962 -4.63745 0
      vertex -4.98035 -1.81262 0
    endloop
  endfacet
  facet normal 0 0 -1
    outer loop
      vertex -3.40674 4.05994 0
      vertex -7.38794 6.73914 0
      vertex -6.10547 7.91968 0
    endloop
  endfacet
  facet normal 0 0 -1
    outer loop
      vertex -9.53027 -3.02856 0
      vertex -4.98035 -1.81262 0
      vertex -8.85962 -4.63745 0
    endloop
  endfacet
  facet normal 0 0 -1
    outer loop
      vertex -4.05994 3.40674 0
      vertex -8.44592 5.35388 0
      vertex -7.38794 6.73914 0
    endloop
  endfacet
  facet normal -0 0 -1
    outer loop
      vertex -4.98035 -1.81262 0
      vertex -9.53027 -3.02856 0
      vertex -5.21936 -0.920288 0
    endloop
  endfacet
  facet normal 0 0 -1
    outer loop
      vertex -4.58984 2.6499 0
      vertex -9.24744 3.80591 0
      vertex -8.44592 5.35388 0
    endloop
  endfacet
  facet normal 0 0 -1
    outer loop
      vertex -9.91138 -1.32764 0
      vertex -5.21936 -0.920288 0
      vertex -9.53027 -3.02856 0
    endloop
  endfacet
  facet normal 0 0 -1
    outer loop
      vertex -4.98035 1.81262 0
      vertex -9.76782 2.14233 0
      vertex -9.24744 3.80591 0
    endloop
  endfacet
  facet normal -0 0 -1
    outer loop
      vertex -5.29993 0 0
      vertex -9.91138 -1.32764 0
      vertex -9.99133 0.413574 0
    endloop
  endfacet
  facet normal -0 0 -1
    outer loop
      vertex -5.21936 0.920288 0
      vertex -9.99133 0.413574 0
      vertex -9.76782 2.14233 0
    endloop
  endfacet
  facet normal 0 0 1
    outer loop
      vertex 6.73914 7.38794 7.2
      vertex 5.21936 0.920288 7.2
      vertex 5.29993 0 7.2
    endloop
  endfacet
  facet normal 0 0 1
    outer loop
      vertex 6.73914 7.38794 7.2
      vertex 4.98035 1.81262 7.2
      vertex 5.21936 0.920288 7.2
    endloop
  endfacet
  facet normal 0 0 1
    outer loop
      vertex 6.73914 7.38794 7.2
      vertex 4.58984 2.6499 7.2
      vertex 4.98035 1.81262 7.2
    endloop
  endfacet
  facet normal 0 0 1
    outer loop
      vertex 6.73914 7.38794 7.2
      vertex 4.05994 3.40674 7.2
      vertex 4.58984 2.6499 7.2
    endloop
  endfacet
  facet normal 0 0 1
    outer loop
      vertex 2.6499 4.58984 7.2
      vertex 5.35388 8.44592 7.2
      vertex 3.80591 9.24744 7.2
    endloop
  endfacet
  facet normal 0 0 1
    outer loop
      vertex 6.73914 7.38794 7.2
      vertex 3.40674 4.05994 7.2
      vertex 4.05994 3.40674 7.2
    endloop
  endfacet
  facet normal 0 0 1
    outer loop
      vertex 5.35388 8.44592 7.2
      vertex 2.6499 4.58984 7.2
      vertex 3.40674 4.05994 7.2
    endloop
  endfacet
  facet normal 0 0 1
    outer loop
      vertex 1.81262 4.98035 7.2
      vertex 3.80591 9.24744 7.2
      vertex 2.14233 9.76782 7.2
    endloop
  endfacet
  facet normal 0 0 1
    outer loop
      vertex 3.80591 9.24744 7.2
      vertex 1.81262 4.98035 7.2
      vertex 2.6499 4.58984 7.2
    endloop
  endfacet
  facet normal 0 0 1
    outer loop
      vertex 2.14233 9.76782 7.2
      vertex 0.920288 5.21936 7.2
      vertex 1.81262 4.98035 7.2
    endloop
  endfacet
  facet normal 0 0 1
    outer loop
      vertex 0.413574 9.99133 7.2
      vertex 0.920288 5.21936 7.2
      vertex 2.14233 9.76782 7.2
    endloop
  endfacet
  facet normal 0 0 1
    outer loop
      vertex 0.413574 9.99133 7.2
      vertex 0 5.29993 7.2
      vertex 0.920288 5.21936 7.2
    endloop
  endfacet
  facet normal -0 0 1
    outer loop
      vertex -1.32764 9.91138 7.2
      vertex 0 5.29993 7.2
      vertex 0.413574 9.99133 7.2
    endloop
  endfacet
  facet normal 0 0 1
    outer loop
      vertex 0 5.29993 7.2
      vertex -1.32764 9.91138 7.2
      vertex -0.920288 5.21936 7.2
    endloop
  endfacet
  facet normal -0 0 1
    outer loop
      vertex -3.02856 9.53027 7.2
      vertex -0.920288 5.21936 7.2
      vertex -1.32764 9.91138 7.2
    endloop
  endfacet
  facet normal 0 0 1
    outer loop
      vertex -0.920288 5.21936 7.2
      vertex -3.02856 9.53027 7.2
      vertex -1.81262 4.98035 7.2
    endloop
  endfacet
  facet normal -0 0 1
    outer loop
      vertex -4.63745 8.85962 7.2
      vertex -1.81262 4.98035 7.2
      vertex -3.02856 9.53027 7.2
    endloop
  endfacet
  facet normal 0 0 1
    outer loop
      vertex -1.81262 4.98035 7.2
      vertex -4.63745 8.85962 7.2
      vertex -2.6499 4.58984 7.2
    endloop
  endfacet
  facet normal -0 0 1
    outer loop
      vertex -6.10547 7.91968 7.2
      vertex -2.6499 4.58984 7.2
      vertex -4.63745 8.85962 7.2
    endloop
  endfacet
  facet normal 0 0 1
    outer loop
      vertex -2.6499 4.58984 7.2
      vertex -6.10547 7.91968 7.2
      vertex -3.40674 4.05994 7.2
    endloop
  endfacet
  facet normal -0 0 1
    outer loop
      vertex -7.38794 6.73914 7.2
      vertex -3.40674 4.05994 7.2
      vertex -6.10547 7.91968 7.2
    endloop
  endfacet
  facet normal 0 0 1
    outer loop
      vertex -3.40674 4.05994 7.2
      vertex -7.38794 6.73914 7.2
      vertex -4.05994 3.40674 7.2
    endloop
  endfacet
  facet normal -0 0 1
    outer loop
      vertex -8.44592 5.35388 7.2
      vertex -4.05994 3.40674 7.2
      vertex -7.38794 6.73914 7.2
    endloop
  endfacet
  facet normal 0 0 1
    outer loop
      vertex -4.05994 3.40674 7.2
      vertex -8.44592 5.35388 7.2
      vertex -4.58984 2.6499 7.2
    endloop
  endfacet
  facet normal -0 0 1
    outer loop
      vertex -9.24744 3.80591 7.2
      vertex -4.58984 2.6499 7.2
      vertex -8.44592 5.35388 7.2
    endloop
  endfacet
  facet normal -0 0 1
    outer loop
      vertex 46.2692 -37.3716 7.2
      vertex 50.9607 -37.7853 7.2
      vertex 50.8806 -36.0439 7.2
    endloop
  endfacet
  facet normal 0 0 1
    outer loop
      vertex 46.1886 -36.4512 7.2
      vertex 50.8806 -36.0439 7.2
      vertex 50.4995 -34.343 7.2
    endloop
  endfacet
  facet normal 0 0 1
    outer loop
      vertex 46.1886 -38.292 7.2
      vertex 50.9607 -37.7853 7.2
      vertex 46.2692 -37.3716 7.2
    endloop
  endfacet
  facet normal 0 0 1
    outer loop
      vertex 45.9496 -35.559 7.2
      vertex 50.4995 -34.343 7.2
      vertex 49.8289 -32.7341 7.2
    endloop
  endfacet
  facet normal 0 0 1
    outer loop
      vertex 50.9607 -37.7853 7.2
      vertex 46.1886 -38.292 7.2
      vertex 50.7369 -39.5139 7.2
    endloop
  endfacet
  facet normal 0 0 1
    outer loop
      vertex 45.5591 -34.7216 7.2
      vertex 49.8289 -32.7341 7.2
      vertex 48.889 -31.2661 7.2
    endloop
  endfacet
  facet normal -0 0 1
    outer loop
      vertex 45.9496 -39.1842 7.2
      vertex 50.7369 -39.5139 7.2
      vertex 46.1886 -38.292 7.2
    endloop
  endfacet
  facet normal 0 0 1
    outer loop
      vertex 45.0292 -33.9648 7.2
      vertex 48.889 -31.2661 7.2
      vertex 47.7084 -29.9835 7.2
    endloop
  endfacet
  facet normal 0 0 1
    outer loop
      vertex 50.7369 -39.5139 7.2
      vertex 45.9496 -39.1842 7.2
      vertex 50.2166 -41.1775 7.2
    endloop
  endfacet
  facet normal -0 0 1
    outer loop
      vertex 45.5591 -40.0215 7.2
      vertex 50.2166 -41.1775 7.2
      vertex 45.9496 -39.1842 7.2
    endloop
  endfacet
  facet normal 0 0 1
    outer loop
      vertex 50.8806 -36.0439 7.2
      vertex 46.1886 -36.4512 7.2
      vertex 46.2692 -37.3716 7.2
    endloop
  endfacet
  facet normal 0 0 1
    outer loop
      vertex 50.4995 -34.343 7.2
      vertex 45.9496 -35.559 7.2
      vertex 46.1886 -36.4512 7.2
    endloop
  endfacet
  facet normal 0 0 1
    outer loop
      vertex 49.8289 -32.7341 7.2
      vertex 45.5591 -34.7216 7.2
      vertex 45.9496 -35.559 7.2
    endloop
  endfacet
  facet normal 0 0 1
    outer loop
      vertex 48.889 -31.2661 7.2
      vertex 45.0292 -33.9648 7.2
      vertex 45.5591 -34.7216 7.2
    endloop
  endfacet
  facet normal 0 0 1
    outer loop
      vertex 47.7084 -29.9835 7.2
      vertex 44.376 -33.3115 7.2
      vertex 45.0292 -33.9648 7.2
    endloop
  endfacet
  facet normal 0 0 1
    outer loop
      vertex 47.7084 -29.9835 7.2
      vertex 43.6193 -32.7816 7.2
      vertex 44.376 -33.3115 7.2
    endloop
  endfacet
  facet normal 0 0 1
    outer loop
      vertex 47.7084 -29.9835 7.2
      vertex 42.782 -32.3912 7.2
      vertex 43.6193 -32.7816 7.2
    endloop
  endfacet
  facet normal 0 0 1
    outer loop
      vertex 47.7084 -29.9835 7.2
      vertex 41.8895 -32.1521 7.2
      vertex 42.782 -32.3912 7.2
    endloop
  endfacet
  facet normal 0 0 1
    outer loop
      vertex 47.7084 -29.9835 7.2
      vertex 40.9692 -32.0715 7.2
      vertex 41.8895 -32.1521 7.2
    endloop
  endfacet
  facet normal 0 0 1
    outer loop
      vertex 47.7084 -29.9835 7.2
      vertex 40.049 -32.1521 7.2
      vertex 40.9692 -32.0715 7.2
    endloop
  endfacet
  facet normal 0 0 1
    outer loop
      vertex 5.29993 0 7.2
      vertex 40.049 -32.1521 7.2
      vertex 47.7084 -29.9835 7.2
    endloop
  endfacet
  facet normal 0 0 1
    outer loop
      vertex 37.5624 -41.4316 7.2
      vertex 34.23 -44.7595 7.2
      vertex 35.6152 -45.8176 7.2
    endloop
  endfacet
  facet normal 0 0 1
    outer loop
      vertex 0.920288 -5.21936 7.2
      vertex 35.6692 -37.3716 7.2
      vertex 35.7498 -36.4512 7.2
    endloop
  endfacet
  facet normal -0 0 1
    outer loop
      vertex 5.29993 0 7.2
      vertex 47.7084 -29.9835 7.2
      vertex 6.73914 7.38794 7.2
    endloop
  endfacet
  facet normal -0 0 1
    outer loop
      vertex 5.21936 -0.920288 7.2
      vertex 40.049 -32.1521 7.2
      vertex 5.29993 0 7.2
    endloop
  endfacet
  facet normal 0 0 1
    outer loop
      vertex 40.049 -32.1521 7.2
      vertex 5.21936 -0.920288 7.2
      vertex 39.1565 -32.3912 7.2
    endloop
  endfacet
  facet normal -0 0 1
    outer loop
      vertex 4.98035 -1.81262 7.2
      vertex 39.1565 -32.3912 7.2
      vertex 5.21936 -0.920288 7.2
    endloop
  endfacet
  facet normal 0 0 1
    outer loop
      vertex 39.1565 -32.3912 7.2
      vertex 4.98035 -1.81262 7.2
      vertex 38.3192 -32.7816 7.2
    endloop
  endfacet
  facet normal -0 0 1
    outer loop
      vertex 4.58984 -2.6499 7.2
      vertex 38.3192 -32.7816 7.2
      vertex 4.98035 -1.81262 7.2
    endloop
  endfacet
  facet normal 0 0 1
    outer loop
      vertex 38.3192 -32.7816 7.2
      vertex 4.58984 -2.6499 7.2
      vertex 37.5624 -33.3115 7.2
    endloop
  endfacet
  facet normal -0 0 1
    outer loop
      vertex 4.05994 -3.40674 7.2
      vertex 37.5624 -33.3115 7.2
      vertex 4.58984 -2.6499 7.2
    endloop
  endfacet
  facet normal 0 0 1
    outer loop
      vertex 3.40674 4.05994 7.2
      vertex 6.73914 7.38794 7.2
      vertex 5.35388 8.44592 7.2
    endloop
  endfacet
  facet normal 0 0 1
    outer loop
      vertex 37.5624 -33.3115 7.2
      vertex 4.05994 -3.40674 7.2
      vertex 36.9092 -33.9648 7.2
    endloop
  endfacet
  facet normal -0 0 1
    outer loop
      vertex 3.40674 -4.05994 7.2
      vertex 36.9092 -33.9648 7.2
      vertex 4.05994 -3.40674 7.2
    endloop
  endfacet
  facet normal 0 0 1
    outer loop
      vertex 36.9092 -33.9648 7.2
      vertex 3.40674 -4.05994 7.2
      vertex 36.3793 -34.7216 7.2
    endloop
  endfacet
  facet normal -0 0 1
    outer loop
      vertex 2.6499 -4.58984 7.2
      vertex 36.3793 -34.7216 7.2
      vertex 3.40674 -4.05994 7.2
    endloop
  endfacet
  facet normal 0 0 1
    outer loop
      vertex 36.3793 -34.7216 7.2
      vertex 2.6499 -4.58984 7.2
      vertex 35.9888 -35.559 7.2
    endloop
  endfacet
  facet normal -0 0 1
    outer loop
      vertex 1.81262 -4.98035 7.2
      vertex 35.9888 -35.559 7.2
      vertex 2.6499 -4.58984 7.2
    endloop
  endfacet
  facet normal 0 0 1
    outer loop
      vertex 35.9888 -35.559 7.2
      vertex 1.81262 -4.98035 7.2
      vertex 35.7498 -36.4512 7.2
    endloop
  endfacet
  facet normal -0 0 1
    outer loop
      vertex 0.920288 -5.21936 7.2
      vertex 35.7498 -36.4512 7.2
      vertex 1.81262 -4.98035 7.2
    endloop
  endfacet
  facet normal 0 0 1
    outer loop
      vertex 35.6692 -37.3716 7.2
      vertex 0.920288 -5.21936 7.2
      vertex 34.23 -44.7595 7.2
    endloop
  endfacet
  facet normal 0 0 1
    outer loop
      vertex -6.73914 -7.38794 7.2
      vertex 0.920288 -5.21936 7.2
      vertex 0 -5.29993 7.2
    endloop
  endfacet
  facet normal 0 0 1
    outer loop
      vertex -6.73914 -7.38794 7.2
      vertex 0 -5.29993 7.2
      vertex -0.920288 -5.21936 7.2
    endloop
  endfacet
  facet normal 0 0 1
    outer loop
      vertex -6.73914 -7.38794 7.2
      vertex -0.920288 -5.21936 7.2
      vertex -1.81262 -4.98035 7.2
    endloop
  endfacet
  facet normal 0 0 1
    outer loop
      vertex -6.73914 -7.38794 7.2
      vertex -1.81262 -4.98035 7.2
      vertex -2.6499 -4.58984 7.2
    endloop
  endfacet
  facet normal 0 0 1
    outer loop
      vertex -6.73914 -7.38794 7.2
      vertex -2.6499 -4.58984 7.2
      vertex -3.40674 -4.05994 7.2
    endloop
  endfacet
  facet normal 0 0 1
    outer loop
      vertex -6.73914 -7.38794 7.2
      vertex -3.40674 -4.05994 7.2
      vertex -4.05994 -3.40674 7.2
    endloop
  endfacet
  facet normal 0 0 1
    outer loop
      vertex -4.58984 2.6499 7.2
      vertex -9.24744 3.80591 7.2
      vertex -4.98035 1.81262 7.2
    endloop
  endfacet
  facet normal 0 0 1
    outer loop
      vertex 0.920288 -5.21936 7.2
      vertex -6.73914 -7.38794 7.2
      vertex 34.23 -44.7595 7.2
    endloop
  endfacet
  facet normal 0 0 1
    outer loop
      vertex -7.91968 -6.10547 7.2
      vertex -4.05994 -3.40674 7.2
      vertex -4.58984 -2.6499 7.2
    endloop
  endfacet
  facet normal 0 0 1
    outer loop
      vertex -8.85962 -4.63745 7.2
      vertex -4.58984 -2.6499 7.2
      vertex -4.98035 -1.81262 7.2
    endloop
  endfacet
  facet normal 0 0 1
    outer loop
      vertex -9.53027 -3.02856 7.2
      vertex -4.98035 -1.81262 7.2
      vertex -5.21936 -0.920288 7.2
    endloop
  endfacet
  facet normal -0 0 1
    outer loop
      vertex -9.76782 2.14233 7.2
      vertex -4.98035 1.81262 7.2
      vertex -9.24744 3.80591 7.2
    endloop
  endfacet
  facet normal 0 0 1
    outer loop
      vertex -4.98035 1.81262 7.2
      vertex -9.76782 2.14233 7.2
      vertex -5.21936 0.920288 7.2
    endloop
  endfacet
  facet normal 0 0 1
    outer loop
      vertex -4.05994 -3.40674 7.2
      vertex -7.91968 -6.10547 7.2
      vertex -6.73914 -7.38794 7.2
    endloop
  endfacet
  facet normal 0 0 1
    outer loop
      vertex -9.99133 0.413574 7.2
      vertex -5.21936 0.920288 7.2
      vertex -9.76782 2.14233 7.2
    endloop
  endfacet
  facet normal 0 0 1
    outer loop
      vertex -4.58984 -2.6499 7.2
      vertex -8.85962 -4.63745 7.2
      vertex -7.91968 -6.10547 7.2
    endloop
  endfacet
  facet normal 0 0 1
    outer loop
      vertex -5.21936 0.920288 7.2
      vertex -9.99133 0.413574 7.2
      vertex -5.29993 0 7.2
    endloop
  endfacet
  facet normal 0 0 1
    outer loop
      vertex -4.98035 -1.81262 7.2
      vertex -9.53027 -3.02856 7.2
      vertex -8.85962 -4.63745 7.2
    endloop
  endfacet
  facet normal 0 -0 1
    outer loop
      vertex -9.91138 -1.32764 7.2
      vertex -5.29993 0 7.2
      vertex -9.99133 0.413574 7.2
    endloop
  endfacet
  facet normal 0 0 1
    outer loop
      vertex -5.21936 -0.920288 7.2
      vertex -9.91138 -1.32764 7.2
      vertex -9.53027 -3.02856 7.2
    endloop
  endfacet
  facet normal 0 0 1
    outer loop
      vertex -5.29993 0 7.2
      vertex -9.91138 -1.32764 7.2
      vertex -5.21936 -0.920288 7.2
    endloop
  endfacet
  facet normal 0 0 1
    outer loop
      vertex 50.2166 -41.1775 7.2
      vertex 45.5591 -40.0215 7.2
      vertex 49.4152 -42.7256 7.2
    endloop
  endfacet
  facet normal -0 0 1
    outer loop
      vertex 45.0292 -40.7783 7.2
      vertex 49.4152 -42.7256 7.2
      vertex 45.5591 -40.0215 7.2
    endloop
  endfacet
  facet normal 0 0 1
    outer loop
      vertex 49.4152 -42.7256 7.2
      vertex 45.0292 -40.7783 7.2
      vertex 48.3572 -44.1108 7.2
    endloop
  endfacet
  facet normal -0 0 1
    outer loop
      vertex 44.376 -41.4316 7.2
      vertex 48.3572 -44.1108 7.2
      vertex 45.0292 -40.7783 7.2
    endloop
  endfacet
  facet normal 0 0 1
    outer loop
      vertex 48.3572 -44.1108 7.2
      vertex 44.376 -41.4316 7.2
      vertex 47.0747 -45.2914 7.2
    endloop
  endfacet
  facet normal -0 0 1
    outer loop
      vertex 43.6193 -41.9615 7.2
      vertex 47.0747 -45.2914 7.2
      vertex 44.376 -41.4316 7.2
    endloop
  endfacet
  facet normal 0 0 1
    outer loop
      vertex 47.0747 -45.2914 7.2
      vertex 43.6193 -41.9615 7.2
      vertex 45.6067 -46.2312 7.2
    endloop
  endfacet
  facet normal -0 0 1
    outer loop
      vertex 42.782 -42.3519 7.2
      vertex 45.6067 -46.2312 7.2
      vertex 43.6193 -41.9615 7.2
    endloop
  endfacet
  facet normal 0 0 1
    outer loop
      vertex 45.6067 -46.2312 7.2
      vertex 42.782 -42.3519 7.2
      vertex 43.9978 -46.902 7.2
    endloop
  endfacet
  facet normal -0 0 1
    outer loop
      vertex 41.8895 -42.5911 7.2
      vertex 43.9978 -46.902 7.2
      vertex 42.782 -42.3519 7.2
    endloop
  endfacet
  facet normal 0 0 1
    outer loop
      vertex 43.9978 -46.902 7.2
      vertex 41.8895 -42.5911 7.2
      vertex 42.2969 -47.2831 7.2
    endloop
  endfacet
  facet normal -0 0 1
    outer loop
      vertex 40.9692 -42.6715 7.2
      vertex 42.2969 -47.2831 7.2
      vertex 41.8895 -42.5911 7.2
    endloop
  endfacet
  facet normal 0 0 1
    outer loop
      vertex 40.9692 -42.6715 7.2
      vertex 40.5555 -47.363 7.2
      vertex 42.2969 -47.2831 7.2
    endloop
  endfacet
  facet normal 0 0 1
    outer loop
      vertex 40.049 -42.5911 7.2
      vertex 40.5555 -47.363 7.2
      vertex 40.9692 -42.6715 7.2
    endloop
  endfacet
  facet normal 0 0 1
    outer loop
      vertex 38.8268 -47.1394 7.2
      vertex 40.049 -42.5911 7.2
      vertex 39.1565 -42.3519 7.2
    endloop
  endfacet
  facet normal 0 0 1
    outer loop
      vertex 40.049 -42.5911 7.2
      vertex 38.8268 -47.1394 7.2
      vertex 40.5555 -47.363 7.2
    endloop
  endfacet
  facet normal 0 0 1
    outer loop
      vertex 37.1632 -46.619 7.2
      vertex 39.1565 -42.3519 7.2
      vertex 38.3192 -41.9615 7.2
    endloop
  endfacet
  facet normal 0 0 1
    outer loop
      vertex 35.6152 -45.8176 7.2
      vertex 38.3192 -41.9615 7.2
      vertex 37.5624 -41.4316 7.2
    endloop
  endfacet
  facet normal 0 0 1
    outer loop
      vertex 39.1565 -42.3519 7.2
      vertex 37.1632 -46.619 7.2
      vertex 38.8268 -47.1394 7.2
    endloop
  endfacet
  facet normal 0 0 1
    outer loop
      vertex 34.23 -44.7595 7.2
      vertex 37.5624 -41.4316 7.2
      vertex 36.9092 -40.7783 7.2
    endloop
  endfacet
  facet normal 0 0 1
    outer loop
      vertex 34.23 -44.7595 7.2
      vertex 36.9092 -40.7783 7.2
      vertex 36.3793 -40.0215 7.2
    endloop
  endfacet
  facet normal 0 0 1
    outer loop
      vertex 34.23 -44.7595 7.2
      vertex 36.3793 -40.0215 7.2
      vertex 35.9888 -39.1842 7.2
    endloop
  endfacet
  facet normal 0 0 1
    outer loop
      vertex 34.23 -44.7595 7.2
      vertex 35.9888 -39.1842 7.2
      vertex 35.7498 -38.292 7.2
    endloop
  endfacet
  facet normal 0 0 1
    outer loop
      vertex 38.3192 -41.9615 7.2
      vertex 35.6152 -45.8176 7.2
      vertex 37.1632 -46.619 7.2
    endloop
  endfacet
  facet normal 0 0 1
    outer loop
      vertex 34.23 -44.7595 7.2
      vertex 35.7498 -38.292 7.2
      vertex 35.6692 -37.3716 7.2
    endloop
  endfacet
  facet normal -0.459747 -0.88805 0
    outer loop
      vertex 35.6152 -45.8176 0
      vertex 37.1632 -46.619 7.2
      vertex 35.6152 -45.8176 7.2
    endloop
  endfacet
  facet normal -0.459747 -0.88805 -0
    outer loop
      vertex 37.1632 -46.619 7.2
      vertex 35.6152 -45.8176 0
      vertex 37.1632 -46.619 0
    endloop
  endfacet
  facet normal -0.298546 -0.954395 0
    outer loop
      vertex 37.1632 -46.619 0
      vertex 38.8268 -47.1394 7.2
      vertex 37.1632 -46.619 7.2
    endloop
  endfacet
  facet normal -0.298546 -0.954395 -0
    outer loop
      vertex 38.8268 -47.1394 7.2
      vertex 37.1632 -46.619 0
      vertex 38.8268 -47.1394 0
    endloop
  endfacet
  facet normal 0.459802 0.888021 -0
    outer loop
      vertex 5.35388 8.44592 0
      vertex 3.80591 9.24744 7.2
      vertex 5.35388 8.44592 7.2
    endloop
  endfacet
  facet normal 0.459802 0.888021 0
    outer loop
      vertex 3.80591 9.24744 7.2
      vertex 5.35388 8.44592 0
      vertex 3.80591 9.24744 0
    endloop
  endfacet
  facet normal 0.606969 0.794725 -0
    outer loop
      vertex 6.73914 7.38794 0
      vertex 5.35388 8.44592 7.2
      vertex 6.73914 7.38794 7.2
    endloop
  endfacet
  facet normal 0.606969 0.794725 0
    outer loop
      vertex 5.35388 8.44592 7.2
      vertex 6.73914 7.38794 0
      vertex 5.35388 8.44592 0
    endloop
  endfacet
  facet normal 0.128222 0.991745 -0
    outer loop
      vertex 2.14233 9.76782 0
      vertex 0.413574 9.99133 7.2
      vertex 2.14233 9.76782 7.2
    endloop
  endfacet
  facet normal 0.128222 0.991745 0
    outer loop
      vertex 0.413574 9.99133 7.2
      vertex 2.14233 9.76782 0
      vertex 0.413574 9.99133 0
    endloop
  endfacet
  facet normal -0.0458715 0.998947 0
    outer loop
      vertex 0.413574 9.99133 0
      vertex -1.32764 9.91138 7.2
      vertex 0.413574 9.99133 7.2
    endloop
  endfacet
  facet normal -0.0458715 0.998947 0
    outer loop
      vertex -1.32764 9.91138 7.2
      vertex 0.413574 9.99133 0
      vertex -1.32764 9.91138 0
    endloop
  endfacet
  facet normal 0.923019 0.384755 0
    outer loop
      vertex 50.4995 -34.343 7.2
      vertex 49.8289 -32.7341 0
      vertex 49.8289 -32.7341 7.2
    endloop
  endfacet
  facet normal 0.923019 0.384755 0
    outer loop
      vertex 49.8289 -32.7341 0
      vertex 50.4995 -34.343 7.2
      vertex 50.4995 -34.343 0
    endloop
  endfacet
  facet normal 0.677264 -0.73574 0
    outer loop
      vertex 47.0747 -45.2914 0
      vertex 48.3572 -44.1108 7.2
      vertex 47.0747 -45.2914 7.2
    endloop
  endfacet
  facet normal 0.677264 -0.73574 0
    outer loop
      vertex 48.3572 -44.1108 7.2
      vertex 47.0747 -45.2914 0
      vertex 48.3572 -44.1108 0
    endloop
  endfacet
  facet normal -0.923019 -0.384755 0
    outer loop
      vertex -8.85962 -4.63745 0
      vertex -9.53027 -3.02856 7.2
      vertex -9.53027 -3.02856 0
    endloop
  endfacet
  facet normal -0.923019 -0.384755 0
    outer loop
      vertex -9.53027 -3.02856 7.2
      vertex -8.85962 -4.63745 0
      vertex -8.85962 -4.63745 7.2
    endloop
  endfacet
  facet normal -0.128291 -0.991737 0
    outer loop
      vertex 38.8268 -47.1394 0
      vertex 40.5555 -47.363 7.2
      vertex 38.8268 -47.1394 7.2
    endloop
  endfacet
  facet normal -0.128291 -0.991737 -0
    outer loop
      vertex 40.5555 -47.363 7.2
      vertex 38.8268 -47.1394 0
      vertex 40.5555 -47.363 0
    endloop
  endfacet
  facet normal -0.422683 0.906278 0
    outer loop
      vertex 2.6499 -4.58984 0
      vertex 1.81262 -4.98035 7.2
      vertex 2.6499 -4.58984 7.2
    endloop
  endfacet
  facet normal -0.422683 0.906278 0
    outer loop
      vertex 1.81262 -4.98035 7.2
      vertex 2.6499 -4.58984 0
      vertex 1.81262 -4.98035 0
    endloop
  endfacet
  facet normal -0.0872112 0.99619 0
    outer loop
      vertex 0.920288 -5.21936 0
      vertex 0 -5.29993 7.2
      vertex 0.920288 -5.21936 7.2
    endloop
  endfacet
  facet normal -0.0872112 0.99619 0
    outer loop
      vertex 0 -5.29993 7.2
      vertex 0.920288 -5.21936 0
      vertex 0 -5.29993 0
    endloop
  endfacet
  facet normal 0.258732 -0.965949 0
    outer loop
      vertex -1.81262 4.98035 0
      vertex -0.920288 5.21936 7.2
      vertex -1.81262 4.98035 7.2
    endloop
  endfacet
  facet normal 0.258732 -0.965949 0
    outer loop
      vertex -0.920288 5.21936 7.2
      vertex -1.81262 4.98035 0
      vertex -0.920288 5.21936 0
    endloop
  endfacet
  facet normal -0.258732 0.965949 0
    outer loop
      vertex 1.81262 -4.98035 0
      vertex 0.920288 -5.21936 7.2
      vertex 1.81262 -4.98035 7.2
    endloop
  endfacet
  facet normal -0.258732 0.965949 0
    outer loop
      vertex 0.920288 -5.21936 7.2
      vertex 1.81262 -4.98035 0
      vertex 0.920288 -5.21936 0
    endloop
  endfacet
  facet normal -0.965949 -0.258732 0
    outer loop
      vertex 5.21936 0.920288 0
      vertex 4.98035 1.81262 7.2
      vertex 4.98035 1.81262 0
    endloop
  endfacet
  facet normal -0.965949 -0.258732 0
    outer loop
      vertex 4.98035 1.81262 7.2
      vertex 5.21936 0.920288 0
      vertex 5.21936 0.920288 7.2
    endloop
  endfacet
  facet normal 0.573551 -0.81917 0
    outer loop
      vertex -3.40674 4.05994 0
      vertex -2.6499 4.58984 7.2
      vertex -3.40674 4.05994 7.2
    endloop
  endfacet
  facet normal 0.573551 -0.81917 0
    outer loop
      vertex -2.6499 4.58984 7.2
      vertex -3.40674 4.05994 0
      vertex -2.6499 4.58984 0
    endloop
  endfacet
  facet normal 0.906278 -0.422683 0
    outer loop
      vertex -4.98035 1.81262 7.2
      vertex -4.58984 2.6499 0
      vertex -4.58984 2.6499 7.2
    endloop
  endfacet
  facet normal 0.906278 -0.422683 0
    outer loop
      vertex -4.58984 2.6499 0
      vertex -4.98035 1.81262 7.2
      vertex -4.98035 1.81262 0
    endloop
  endfacet
  facet normal -0.422683 -0.906278 0
    outer loop
      vertex 1.81262 4.98035 0
      vertex 2.6499 4.58984 7.2
      vertex 1.81262 4.98035 7.2
    endloop
  endfacet
  facet normal -0.422683 -0.906278 -0
    outer loop
      vertex 2.6499 4.58984 7.2
      vertex 1.81262 4.98035 0
      vertex 2.6499 4.58984 0
    endloop
  endfacet
  facet normal -0.81917 -0.573551 0
    outer loop
      vertex 4.58984 2.6499 0
      vertex 4.05994 3.40674 7.2
      vertex 4.05994 3.40674 0
    endloop
  endfacet
  facet normal -0.81917 -0.573551 0
    outer loop
      vertex 4.05994 3.40674 7.2
      vertex 4.58984 2.6499 0
      vertex 4.58984 2.6499 7.2
    endloop
  endfacet
  facet normal 0.81917 -0.573551 0
    outer loop
      vertex -4.58984 2.6499 7.2
      vertex -4.05994 3.40674 0
      vertex -4.05994 3.40674 7.2
    endloop
  endfacet
  facet normal 0.81917 -0.573551 0
    outer loop
      vertex -4.05994 3.40674 0
      vertex -4.58984 2.6499 7.2
      vertex -4.58984 2.6499 0
    endloop
  endfacet
  facet normal 0.99619 -0.0872112 0
    outer loop
      vertex -5.29993 0 7.2
      vertex -5.21936 0.920288 0
      vertex -5.21936 0.920288 7.2
    endloop
  endfacet
  facet normal 0.99619 -0.0872112 0
    outer loop
      vertex -5.21936 0.920288 0
      vertex -5.29993 0 7.2
      vertex -5.29993 0 0
    endloop
  endfacet
  facet normal 0.99619 0.0872112 0
    outer loop
      vertex -5.21936 -0.920288 7.2
      vertex -5.29993 0 0
      vertex -5.29993 0 7.2
    endloop
  endfacet
  facet normal 0.99619 0.0872112 0
    outer loop
      vertex -5.29993 0 0
      vertex -5.21936 -0.920288 7.2
      vertex -5.21936 -0.920288 0
    endloop
  endfacet
  facet normal 0.965949 -0.258732 0
    outer loop
      vertex -5.21936 0.920288 7.2
      vertex -4.98035 1.81262 0
      vertex -4.98035 1.81262 7.2
    endloop
  endfacet
  facet normal 0.965949 -0.258732 0
    outer loop
      vertex -4.98035 1.81262 0
      vertex -5.21936 0.920288 7.2
      vertex -5.21936 0.920288 0
    endloop
  endfacet
  facet normal 0.906278 0.422683 0
    outer loop
      vertex -4.58984 -2.6499 7.2
      vertex -4.98035 -1.81262 0
      vertex -4.98035 -1.81262 7.2
    endloop
  endfacet
  facet normal 0.906278 0.422683 0
    outer loop
      vertex -4.98035 -1.81262 0
      vertex -4.58984 -2.6499 7.2
      vertex -4.58984 -2.6499 0
    endloop
  endfacet
  facet normal 0.707107 0.707107 0
    outer loop
      vertex -3.40674 -4.05994 7.2
      vertex -4.05994 -3.40674 0
      vertex -4.05994 -3.40674 7.2
    endloop
  endfacet
  facet normal 0.707107 0.707107 0
    outer loop
      vertex -4.05994 -3.40674 0
      vertex -3.40674 -4.05994 7.2
      vertex -3.40674 -4.05994 0
    endloop
  endfacet
  facet normal 0.422683 0.906278 -0
    outer loop
      vertex -1.81262 -4.98035 0
      vertex -2.6499 -4.58984 7.2
      vertex -1.81262 -4.98035 7.2
    endloop
  endfacet
  facet normal 0.422683 0.906278 0
    outer loop
      vertex -2.6499 -4.58984 7.2
      vertex -1.81262 -4.98035 0
      vertex -2.6499 -4.58984 0
    endloop
  endfacet
  facet normal 0.0872112 0.99619 -0
    outer loop
      vertex 0 -5.29993 0
      vertex -0.920288 -5.21936 7.2
      vertex 0 -5.29993 7.2
    endloop
  endfacet
  facet normal 0.0872112 0.99619 0
    outer loop
      vertex -0.920288 -5.21936 7.2
      vertex 0 -5.29993 0
      vertex -0.920288 -5.21936 0
    endloop
  endfacet
  facet normal -0.0872112 -0.99619 0
    outer loop
      vertex 0 5.29993 0
      vertex 0.920288 5.21936 7.2
      vertex 0 5.29993 7.2
    endloop
  endfacet
  facet normal -0.0872112 -0.99619 -0
    outer loop
      vertex 0.920288 5.21936 7.2
      vertex 0 5.29993 0
      vertex 0.920288 5.21936 0
    endloop
  endfacet
  facet normal -0.707107 -0.707107 0
    outer loop
      vertex 4.05994 3.40674 0
      vertex 3.40674 4.05994 7.2
      vertex 3.40674 4.05994 0
    endloop
  endfacet
  facet normal -0.707107 -0.707107 0
    outer loop
      vertex 3.40674 4.05994 7.2
      vertex 4.05994 3.40674 0
      vertex 4.05994 3.40674 7.2
    endloop
  endfacet
  facet normal -0.573551 -0.81917 0
    outer loop
      vertex 2.6499 4.58984 0
      vertex 3.40674 4.05994 7.2
      vertex 2.6499 4.58984 7.2
    endloop
  endfacet
  facet normal -0.573551 -0.81917 -0
    outer loop
      vertex 3.40674 4.05994 7.2
      vertex 2.6499 4.58984 0
      vertex 3.40674 4.05994 0
    endloop
  endfacet
  facet normal 0.0872112 -0.99619 0
    outer loop
      vertex -0.920288 5.21936 0
      vertex 0 5.29993 7.2
      vertex -0.920288 5.21936 7.2
    endloop
  endfacet
  facet normal 0.0872112 -0.99619 0
    outer loop
      vertex 0 5.29993 7.2
      vertex -0.920288 5.21936 0
      vertex 0 5.29993 0
    endloop
  endfacet
  facet normal -0.99619 0.0872112 0
    outer loop
      vertex 5.21936 -0.920288 0
      vertex 5.29993 0 7.2
      vertex 5.29993 0 0
    endloop
  endfacet
  facet normal -0.99619 0.0872112 0
    outer loop
      vertex 5.29993 0 7.2
      vertex 5.21936 -0.920288 0
      vertex 5.21936 -0.920288 7.2
    endloop
  endfacet
  facet normal -0.965949 0.258732 0
    outer loop
      vertex 4.98035 -1.81262 0
      vertex 5.21936 -0.920288 7.2
      vertex 5.21936 -0.920288 0
    endloop
  endfacet
  facet normal -0.965949 0.258732 0
    outer loop
      vertex 5.21936 -0.920288 7.2
      vertex 4.98035 -1.81262 0
      vertex 4.98035 -1.81262 7.2
    endloop
  endfacet
  facet normal -0.81917 0.573551 0
    outer loop
      vertex 4.05994 -3.40674 0
      vertex 4.58984 -2.6499 7.2
      vertex 4.58984 -2.6499 0
    endloop
  endfacet
  facet normal -0.81917 0.573551 0
    outer loop
      vertex 4.58984 -2.6499 7.2
      vertex 4.05994 -3.40674 0
      vertex 4.05994 -3.40674 7.2
    endloop
  endfacet
  facet normal -0.906278 0.422683 0
    outer loop
      vertex 4.58984 -2.6499 0
      vertex 4.98035 -1.81262 7.2
      vertex 4.98035 -1.81262 0
    endloop
  endfacet
  facet normal -0.906278 0.422683 0
    outer loop
      vertex 4.98035 -1.81262 7.2
      vertex 4.58984 -2.6499 0
      vertex 4.58984 -2.6499 7.2
    endloop
  endfacet
  facet normal -0.573551 0.81917 0
    outer loop
      vertex 3.40674 -4.05994 0
      vertex 2.6499 -4.58984 7.2
      vertex 3.40674 -4.05994 7.2
    endloop
  endfacet
  facet normal -0.573551 0.81917 0
    outer loop
      vertex 2.6499 -4.58984 7.2
      vertex 3.40674 -4.05994 0
      vertex 2.6499 -4.58984 0
    endloop
  endfacet
  facet normal 0.422683 -0.906278 0
    outer loop
      vertex -2.6499 4.58984 0
      vertex -1.81262 4.98035 7.2
      vertex -2.6499 4.58984 7.2
    endloop
  endfacet
  facet normal 0.422683 -0.906278 0
    outer loop
      vertex -1.81262 4.98035 7.2
      vertex -2.6499 4.58984 0
      vertex -1.81262 4.98035 0
    endloop
  endfacet
  facet normal 0.707107 -0.707107 0
    outer loop
      vertex -4.05994 3.40674 7.2
      vertex -3.40674 4.05994 0
      vertex -3.40674 4.05994 7.2
    endloop
  endfacet
  facet normal 0.707107 -0.707107 0
    outer loop
      vertex -3.40674 4.05994 0
      vertex -4.05994 3.40674 7.2
      vertex -4.05994 3.40674 0
    endloop
  endfacet
  facet normal 0.965949 0.258732 0
    outer loop
      vertex -4.98035 -1.81262 7.2
      vertex -5.21936 -0.920288 0
      vertex -5.21936 -0.920288 7.2
    endloop
  endfacet
  facet normal 0.965949 0.258732 0
    outer loop
      vertex -5.21936 -0.920288 0
      vertex -4.98035 -1.81262 7.2
      vertex -4.98035 -1.81262 0
    endloop
  endfacet
  facet normal 0.81917 0.573551 0
    outer loop
      vertex -4.05994 -3.40674 7.2
      vertex -4.58984 -2.6499 0
      vertex -4.58984 -2.6499 7.2
    endloop
  endfacet
  facet normal 0.81917 0.573551 0
    outer loop
      vertex -4.58984 -2.6499 0
      vertex -4.05994 -3.40674 7.2
      vertex -4.05994 -3.40674 0
    endloop
  endfacet
  facet normal 0.573551 0.81917 -0
    outer loop
      vertex -2.6499 -4.58984 0
      vertex -3.40674 -4.05994 7.2
      vertex -2.6499 -4.58984 7.2
    endloop
  endfacet
  facet normal 0.573551 0.81917 0
    outer loop
      vertex -3.40674 -4.05994 7.2
      vertex -2.6499 -4.58984 0
      vertex -3.40674 -4.05994 0
    endloop
  endfacet
  facet normal 0.258732 0.965949 -0
    outer loop
      vertex -0.920288 -5.21936 0
      vertex -1.81262 -4.98035 7.2
      vertex -0.920288 -5.21936 7.2
    endloop
  endfacet
  facet normal 0.258732 0.965949 0
    outer loop
      vertex -1.81262 -4.98035 7.2
      vertex -0.920288 -5.21936 0
      vertex -1.81262 -4.98035 0
    endloop
  endfacet
  facet normal -0.258732 -0.965949 0
    outer loop
      vertex 0.920288 5.21936 0
      vertex 1.81262 4.98035 7.2
      vertex 0.920288 5.21936 7.2
    endloop
  endfacet
  facet normal -0.258732 -0.965949 -0
    outer loop
      vertex 1.81262 4.98035 7.2
      vertex 0.920288 5.21936 0
      vertex 1.81262 4.98035 0
    endloop
  endfacet
  facet normal -0.99619 -0.0872112 0
    outer loop
      vertex 5.29993 0 0
      vertex 5.21936 0.920288 7.2
      vertex 5.21936 0.920288 0
    endloop
  endfacet
  facet normal -0.99619 -0.0872112 0
    outer loop
      vertex 5.21936 0.920288 7.2
      vertex 5.29993 0 0
      vertex 5.29993 0 7.2
    endloop
  endfacet
  facet normal -0.707107 0.707107 0
    outer loop
      vertex 3.40674 -4.05994 0
      vertex 4.05994 -3.40674 7.2
      vertex 4.05994 -3.40674 0
    endloop
  endfacet
  facet normal -0.707107 0.707107 0
    outer loop
      vertex 4.05994 -3.40674 7.2
      vertex 3.40674 -4.05994 0
      vertex 3.40674 -4.05994 7.2
    endloop
  endfacet
  facet normal -0.906278 -0.422683 0
    outer loop
      vertex 4.98035 1.81262 0
      vertex 4.58984 2.6499 7.2
      vertex 4.58984 2.6499 0
    endloop
  endfacet
  facet normal -0.906278 -0.422683 0
    outer loop
      vertex 4.58984 2.6499 7.2
      vertex 4.98035 1.81262 0
      vertex 4.98035 1.81262 7.2
    endloop
  endfacet
  facet normal -0.0870801 0.996201 0
    outer loop
      vertex 41.8895 -42.5911 0
      vertex 40.9692 -42.6715 7.2
      vertex 41.8895 -42.5911 7.2
    endloop
  endfacet
  facet normal -0.0870801 0.996201 0
    outer loop
      vertex 40.9692 -42.6715 7.2
      vertex 41.8895 -42.5911 0
      vertex 40.9692 -42.6715 0
    endloop
  endfacet
  facet normal -0.258822 0.965925 0
    outer loop
      vertex 42.782 -42.3519 0
      vertex 41.8895 -42.5911 7.2
      vertex 42.782 -42.3519 7.2
    endloop
  endfacet
  facet normal -0.258822 0.965925 0
    outer loop
      vertex 41.8895 -42.5911 7.2
      vertex 42.782 -42.3519 0
      vertex 41.8895 -42.5911 0
    endloop
  endfacet
  facet normal 0.996191 0.0871997 0
    outer loop
      vertex 35.7498 -38.292 7.2
      vertex 35.6692 -37.3716 0
      vertex 35.6692 -37.3716 7.2
    endloop
  endfacet
  facet normal 0.996191 0.0871997 0
    outer loop
      vertex 35.6692 -37.3716 0
      vertex 35.7498 -38.292 7.2
      vertex 35.7498 -38.292 0
    endloop
  endfacet
  facet normal 0.0872112 -0.99619 0
    outer loop
      vertex 40.049 -32.1521 0
      vertex 40.9692 -32.0715 7.2
      vertex 40.049 -32.1521 7.2
    endloop
  endfacet
  facet normal 0.0872112 -0.99619 0
    outer loop
      vertex 40.9692 -32.0715 7.2
      vertex 40.049 -32.1521 0
      vertex 40.9692 -32.0715 0
    endloop
  endfacet
  facet normal -0.96594 -0.258765 0
    outer loop
      vertex 46.1886 -36.4512 0
      vertex 45.9496 -35.559 7.2
      vertex 45.9496 -35.559 0
    endloop
  endfacet
  facet normal -0.96594 -0.258765 0
    outer loop
      vertex 45.9496 -35.559 7.2
      vertex 46.1886 -36.4512 0
      vertex 46.1886 -36.4512 7.2
    endloop
  endfacet
  facet normal 0.573551 -0.81917 0
    outer loop
      vertex 37.5624 -33.3115 0
      vertex 38.3192 -32.7816 7.2
      vertex 37.5624 -33.3115 7.2
    endloop
  endfacet
  facet normal 0.573551 -0.81917 0
    outer loop
      vertex 38.3192 -32.7816 7.2
      vertex 37.5624 -33.3115 0
      vertex 38.3192 -32.7816 0
    endloop
  endfacet
  facet normal 0.707173 -0.707041 0
    outer loop
      vertex 36.9092 -33.9648 7.2
      vertex 37.5624 -33.3115 0
      vertex 37.5624 -33.3115 7.2
    endloop
  endfacet
  facet normal 0.707173 -0.707041 0
    outer loop
      vertex 37.5624 -33.3115 0
      vertex 36.9092 -33.9648 7.2
      vertex 36.9092 -33.9648 0
    endloop
  endfacet
  facet normal 0.573551 0.81917 -0
    outer loop
      vertex 38.3192 -41.9615 0
      vertex 37.5624 -41.4316 7.2
      vertex 38.3192 -41.9615 7.2
    endloop
  endfacet
  facet normal 0.573551 0.81917 0
    outer loop
      vertex 37.5624 -41.4316 7.2
      vertex 38.3192 -41.9615 0
      vertex 37.5624 -41.4316 0
    endloop
  endfacet
  facet normal -0.258822 -0.965925 0
    outer loop
      vertex 41.8895 -32.1521 0
      vertex 42.782 -32.3912 7.2
      vertex 41.8895 -32.1521 7.2
    endloop
  endfacet
  facet normal -0.258822 -0.965925 -0
    outer loop
      vertex 42.782 -32.3912 7.2
      vertex 41.8895 -32.1521 0
      vertex 42.782 -32.3912 0
    endloop
  endfacet
  facet normal 0.819126 -0.573613 0
    outer loop
      vertex 36.3793 -34.7216 7.2
      vertex 36.9092 -33.9648 0
      vertex 36.9092 -33.9648 7.2
    endloop
  endfacet
  facet normal 0.819126 -0.573613 0
    outer loop
      vertex 36.9092 -33.9648 0
      vertex 36.3793 -34.7216 7.2
      vertex 36.3793 -34.7216 0
    endloop
  endfacet
  facet normal 0.906278 0.422683 0
    outer loop
      vertex 36.3793 -40.0215 7.2
      vertex 35.9888 -39.1842 0
      vertex 35.9888 -39.1842 7.2
    endloop
  endfacet
  facet normal 0.906278 0.422683 0
    outer loop
      vertex 35.9888 -39.1842 0
      vertex 36.3793 -40.0215 7.2
      vertex 36.3793 -40.0215 0
    endloop
  endfacet
  facet normal 0.707173 0.707041 0
    outer loop
      vertex 37.5624 -41.4316 7.2
      vertex 36.9092 -40.7783 0
      vertex 36.9092 -40.7783 7.2
    endloop
  endfacet
  facet normal 0.707173 0.707041 0
    outer loop
      vertex 36.9092 -40.7783 0
      vertex 37.5624 -41.4316 7.2
      vertex 37.5624 -41.4316 0
    endloop
  endfacet
  facet normal 0.422574 0.906328 -0
    outer loop
      vertex 39.1565 -42.3519 0
      vertex 38.3192 -41.9615 7.2
      vertex 39.1565 -42.3519 7.2
    endloop
  endfacet
  facet normal 0.422574 0.906328 0
    outer loop
      vertex 38.3192 -41.9615 7.2
      vertex 39.1565 -42.3519 0
      vertex 38.3192 -41.9615 0
    endloop
  endfacet
  facet normal 0.258822 0.965925 -0
    outer loop
      vertex 40.049 -42.5911 0
      vertex 39.1565 -42.3519 7.2
      vertex 40.049 -42.5911 7.2
    endloop
  endfacet
  facet normal 0.258822 0.965925 0
    outer loop
      vertex 39.1565 -42.3519 7.2
      vertex 40.049 -42.5911 0
      vertex 39.1565 -42.3519 0
    endloop
  endfacet
  facet normal -0.0872112 -0.99619 0
    outer loop
      vertex 40.9692 -32.0715 0
      vertex 41.8895 -32.1521 7.2
      vertex 40.9692 -32.0715 7.2
    endloop
  endfacet
  facet normal -0.0872112 -0.99619 -0
    outer loop
      vertex 41.8895 -32.1521 7.2
      vertex 40.9692 -32.0715 0
      vertex 41.8895 -32.1521 0
    endloop
  endfacet
  facet normal -0.573613 -0.819126 0
    outer loop
      vertex 43.6193 -32.7816 0
      vertex 44.376 -33.3115 7.2
      vertex 43.6193 -32.7816 7.2
    endloop
  endfacet
  facet normal -0.573613 -0.819126 -0
    outer loop
      vertex 44.376 -33.3115 7.2
      vertex 43.6193 -32.7816 0
      vertex 44.376 -33.3115 0
    endloop
  endfacet
  facet normal 0.996191 -0.0871997 0
    outer loop
      vertex 35.6692 -37.3716 7.2
      vertex 35.7498 -36.4512 0
      vertex 35.7498 -36.4512 7.2
    endloop
  endfacet
  facet normal 0.996191 -0.0871997 0
    outer loop
      vertex 35.7498 -36.4512 0
      vertex 35.6692 -37.3716 7.2
      vertex 35.6692 -37.3716 0
    endloop
  endfacet
  facet normal 0.906301 -0.422632 0
    outer loop
      vertex 35.9888 -35.559 7.2
      vertex 36.3793 -34.7216 0
      vertex 36.3793 -34.7216 7.2
    endloop
  endfacet
  facet normal 0.906301 -0.422632 0
    outer loop
      vertex 36.3793 -34.7216 0
      vertex 35.9888 -35.559 7.2
      vertex 35.9888 -35.559 0
    endloop
  endfacet
  facet normal 0.0870801 0.996201 -0
    outer loop
      vertex 40.9692 -42.6715 0
      vertex 40.049 -42.5911 7.2
      vertex 40.9692 -42.6715 7.2
    endloop
  endfacet
  facet normal 0.0870801 0.996201 0
    outer loop
      vertex 40.049 -42.5911 7.2
      vertex 40.9692 -42.6715 0
      vertex 40.049 -42.5911 0
    endloop
  endfacet
  facet normal -0.422574 -0.906328 0
    outer loop
      vertex 42.782 -32.3912 0
      vertex 43.6193 -32.7816 7.2
      vertex 42.782 -32.3912 7.2
    endloop
  endfacet
  facet normal -0.422574 -0.906328 -0
    outer loop
      vertex 43.6193 -32.7816 7.2
      vertex 42.782 -32.3912 0
      vertex 43.6193 -32.7816 0
    endloop
  endfacet
  facet normal -0.996191 -0.0871997 0
    outer loop
      vertex 46.2692 -37.3716 0
      vertex 46.1886 -36.4512 7.2
      vertex 46.1886 -36.4512 0
    endloop
  endfacet
  facet normal -0.996191 -0.0871997 0
    outer loop
      vertex 46.1886 -36.4512 7.2
      vertex 46.2692 -37.3716 0
      vertex 46.2692 -37.3716 7.2
    endloop
  endfacet
  facet normal -0.96594 0.258765 0
    outer loop
      vertex 45.9496 -39.1842 0
      vertex 46.1886 -38.292 7.2
      vertex 46.1886 -38.292 0
    endloop
  endfacet
  facet normal -0.96594 0.258765 0
    outer loop
      vertex 46.1886 -38.292 7.2
      vertex 45.9496 -39.1842 0
      vertex 45.9496 -39.1842 7.2
    endloop
  endfacet
  facet normal -0.707173 -0.707041 0
    outer loop
      vertex 45.0292 -33.9648 0
      vertex 44.376 -33.3115 7.2
      vertex 44.376 -33.3115 0
    endloop
  endfacet
  facet normal -0.707173 -0.707041 0
    outer loop
      vertex 44.376 -33.3115 7.2
      vertex 45.0292 -33.9648 0
      vertex 45.0292 -33.9648 7.2
    endloop
  endfacet
  facet normal 0.96594 -0.258765 0
    outer loop
      vertex 35.7498 -36.4512 7.2
      vertex 35.9888 -35.559 0
      vertex 35.9888 -35.559 7.2
    endloop
  endfacet
  facet normal 0.96594 -0.258765 0
    outer loop
      vertex 35.9888 -35.559 0
      vertex 35.7498 -36.4512 7.2
      vertex 35.7498 -36.4512 0
    endloop
  endfacet
  facet normal 0.422574 -0.906328 0
    outer loop
      vertex 38.3192 -32.7816 0
      vertex 39.1565 -32.3912 7.2
      vertex 38.3192 -32.7816 7.2
    endloop
  endfacet
  facet normal 0.422574 -0.906328 0
    outer loop
      vertex 39.1565 -32.3912 7.2
      vertex 38.3192 -32.7816 0
      vertex 39.1565 -32.3912 0
    endloop
  endfacet
  facet normal 0.258822 -0.965925 0
    outer loop
      vertex 39.1565 -32.3912 0
      vertex 40.049 -32.1521 7.2
      vertex 39.1565 -32.3912 7.2
    endloop
  endfacet
  facet normal 0.258822 -0.965925 0
    outer loop
      vertex 40.049 -32.1521 7.2
      vertex 39.1565 -32.3912 0
      vertex 40.049 -32.1521 0
    endloop
  endfacet
  facet normal 0.81917 0.573551 0
    outer loop
      vertex 36.9092 -40.7783 7.2
      vertex 36.3793 -40.0215 0
      vertex 36.3793 -40.0215 7.2
    endloop
  endfacet
  facet normal 0.81917 0.573551 0
    outer loop
      vertex 36.3793 -40.0215 0
      vertex 36.9092 -40.7783 7.2
      vertex 36.9092 -40.7783 0
    endloop
  endfacet
  facet normal -0.707173 0.707041 0
    outer loop
      vertex 44.376 -41.4316 0
      vertex 45.0292 -40.7783 7.2
      vertex 45.0292 -40.7783 0
    endloop
  endfacet
  facet normal -0.707173 0.707041 0
    outer loop
      vertex 45.0292 -40.7783 7.2
      vertex 44.376 -41.4316 0
      vertex 44.376 -41.4316 7.2
    endloop
  endfacet
  facet normal -0.422574 0.906328 0
    outer loop
      vertex 43.6193 -41.9615 0
      vertex 42.782 -42.3519 7.2
      vertex 43.6193 -41.9615 7.2
    endloop
  endfacet
  facet normal -0.422574 0.906328 0
    outer loop
      vertex 42.782 -42.3519 7.2
      vertex 43.6193 -41.9615 0
      vertex 42.782 -42.3519 0
    endloop
  endfacet
  facet normal -0.81917 0.573551 0
    outer loop
      vertex 45.0292 -40.7783 0
      vertex 45.5591 -40.0215 7.2
      vertex 45.5591 -40.0215 0
    endloop
  endfacet
  facet normal -0.81917 0.573551 0
    outer loop
      vertex 45.5591 -40.0215 7.2
      vertex 45.0292 -40.7783 0
      vertex 45.0292 -40.7783 7.2
    endloop
  endfacet
  facet normal -0.906278 0.422683 0
    outer loop
      vertex 45.5591 -40.0215 0
      vertex 45.9496 -39.1842 7.2
      vertex 45.9496 -39.1842 0
    endloop
  endfacet
  facet normal -0.906278 0.422683 0
    outer loop
      vertex 45.9496 -39.1842 7.2
      vertex 45.5591 -40.0215 0
      vertex 45.5591 -40.0215 7.2
    endloop
  endfacet
  facet normal -0.996191 0.0871997 0
    outer loop
      vertex 46.1886 -38.292 0
      vertex 46.2692 -37.3716 7.2
      vertex 46.2692 -37.3716 0
    endloop
  endfacet
  facet normal -0.996191 0.0871997 0
    outer loop
      vertex 46.2692 -37.3716 7.2
      vertex 46.1886 -38.292 0
      vertex 46.1886 -38.292 7.2
    endloop
  endfacet
  facet normal -0.819126 -0.573613 0
    outer loop
      vertex 45.5591 -34.7216 0
      vertex 45.0292 -33.9648 7.2
      vertex 45.0292 -33.9648 0
    endloop
  endfacet
  facet normal -0.819126 -0.573613 0
    outer loop
      vertex 45.0292 -33.9648 7.2
      vertex 45.5591 -34.7216 0
      vertex 45.5591 -34.7216 7.2
    endloop
  endfacet
  facet normal -0.906301 -0.422632 0
    outer loop
      vertex 45.9496 -35.559 0
      vertex 45.5591 -34.7216 7.2
      vertex 45.5591 -34.7216 0
    endloop
  endfacet
  facet normal -0.906301 -0.422632 0
    outer loop
      vertex 45.5591 -34.7216 7.2
      vertex 45.9496 -35.559 0
      vertex 45.9496 -35.559 7.2
    endloop
  endfacet
  facet normal 0.96594 0.258765 0
    outer loop
      vertex 35.9888 -39.1842 7.2
      vertex 35.7498 -38.292 0
      vertex 35.7498 -38.292 7.2
    endloop
  endfacet
  facet normal 0.96594 0.258765 0
    outer loop
      vertex 35.7498 -38.292 0
      vertex 35.9888 -39.1842 7.2
      vertex 35.9888 -39.1842 0
    endloop
  endfacet
  facet normal -0.573613 0.819126 0
    outer loop
      vertex 44.376 -41.4316 0
      vertex 43.6193 -41.9615 7.2
      vertex 44.376 -41.4316 7.2
    endloop
  endfacet
  facet normal -0.573613 0.819126 0
    outer loop
      vertex 43.6193 -41.9615 7.2
      vertex 44.376 -41.4316 0
      vertex 43.6193 -41.9615 0
    endloop
  endfacet
endsolid OpenSCAD_Model
