solid OpenSCAD_Model
  facet normal -0.0482539 -0.998835 0
    outer loop
      vertex 25.8013 -24.203 0
      vertex 27.5422 -24.2871 7.2
      vertex 25.8013 -24.203 7.2
    endloop
  endfacet
  facet normal -0.0482539 -0.998835 -0
    outer loop
      vertex 27.5422 -24.2871 7.2
      vertex 25.8013 -24.203 0
      vertex 27.5422 -24.2871 0
    endloop
  endfacet
  facet normal 0.125913 -0.992041 0
    outer loop
      vertex 27.5422 -24.2871 0
      vertex 29.2715 -24.0676 7.2
      vertex 27.5422 -24.2871 7.2
    endloop
  endfacet
  facet normal 0.125913 -0.992041 0
    outer loop
      vertex 29.2715 -24.0676 7.2
      vertex 27.5422 -24.2871 0
      vertex 29.2715 -24.0676 0
    endloop
  endfacet
  facet normal 0.296304 -0.955094 0
    outer loop
      vertex 29.2715 -24.0676 0
      vertex 30.9363 -23.5511 7.2
      vertex 29.2715 -24.0676 7.2
    endloop
  endfacet
  facet normal 0.296304 -0.955094 0
    outer loop
      vertex 30.9363 -23.5511 7.2
      vertex 29.2715 -24.0676 0
      vertex 30.9363 -23.5511 0
    endloop
  endfacet
  facet normal -0.125913 0.992041 0
    outer loop
      vertex -0.389893 9.99231 0
      vertex -2.11914 9.77283 7.2
      vertex -0.389893 9.99231 7.2
    endloop
  endfacet
  facet normal -0.125913 0.992041 0
    outer loop
      vertex -2.11914 9.77283 7.2
      vertex -0.389893 9.99231 0
      vertex -2.11914 9.77283 0
    endloop
  endfacet
  facet normal -0.541232 -0.840873 0
    outer loop
      vertex -6.12427 -7.90515 0
      vertex -4.65845 -8.84863 7.2
      vertex -6.12427 -7.90515 7.2
    endloop
  endfacet
  facet normal -0.541232 -0.840873 -0
    outer loop
      vertex -4.65845 -8.84863 7.2
      vertex -6.12427 -7.90515 0
      vertex -4.65845 -8.84863 0
    endloop
  endfacet
  facet normal 0.465848 0.884865 -0
    outer loop
      vertex 31.8108 -5.44604 0
      vertex 4.65845 8.84863 7.2
      vertex 31.8108 -5.44604 7.2
    endloop
  endfacet
  facet normal 0.465848 0.884865 0
    outer loop
      vertex 4.65845 8.84863 7.2
      vertex 31.8108 -5.44604 0
      vertex 4.65845 8.84863 0
    endloop
  endfacet
  facet normal -0.840873 0.541232 0
    outer loop
      vertex -8.84863 4.65845 0
      vertex -7.90515 6.12427 7.2
      vertex -7.90515 6.12427 0
    endloop
  endfacet
  facet normal -0.840873 0.541232 0
    outer loop
      vertex -7.90515 6.12427 7.2
      vertex -8.84863 4.65845 0
      vertex -8.84863 4.65845 7.2
    endloop
  endfacet
  facet normal -0.922111 0.386926 0
    outer loop
      vertex -9.52307 3.05115 0
      vertex -8.84863 4.65845 7.2
      vertex -8.84863 4.65845 0
    endloop
  endfacet
  facet normal -0.922111 0.386926 0
    outer loop
      vertex -8.84863 4.65845 7.2
      vertex -9.52307 3.05115 0
      vertex -9.52307 3.05115 7.2
    endloop
  endfacet
  facet normal -0.386926 -0.922111 0
    outer loop
      vertex 22.4939 -23.1434 0
      vertex 24.1012 -23.8179 7.2
      vertex 22.4939 -23.1434 7.2
    endloop
  endfacet
  facet normal -0.386926 -0.922111 -0
    outer loop
      vertex 24.1012 -23.8179 7.2
      vertex 22.4939 -23.1434 0
      vertex 24.1012 -23.8179 0
    endloop
  endfacet
  facet normal -0.22094 -0.975287 0
    outer loop
      vertex 24.1012 -23.8179 0
      vertex 25.8013 -24.203 7.2
      vertex 24.1012 -23.8179 7.2
    endloop
  endfacet
  facet normal -0.22094 -0.975287 -0
    outer loop
      vertex 25.8013 -24.203 7.2
      vertex 24.1012 -23.8179 0
      vertex 25.8013 -24.203 0
    endloop
  endfacet
  facet normal -0.465851 -0.884863 0
    outer loop
      vertex -4.65845 -8.84863 0
      vertex 22.4939 -23.1434 7.2
      vertex -4.65845 -8.84863 7.2
    endloop
  endfacet
  facet normal -0.465851 -0.884863 -0
    outer loop
      vertex 22.4939 -23.1434 7.2
      vertex -4.65845 -8.84863 0
      vertex 22.4939 -23.1434 0
    endloop
  endfacet
  facet normal 0.22094 0.975287 -0
    outer loop
      vertex 3.05115 9.52307 0
      vertex 1.35107 9.9082 7.2
      vertex 3.05115 9.52307 7.2
    endloop
  endfacet
  facet normal 0.22094 0.975287 0
    outer loop
      vertex 1.35107 9.9082 7.2
      vertex 3.05115 9.52307 0
      vertex 1.35107 9.9082 0
    endloop
  endfacet
  facet normal -0 0 1
    outer loop
      vertex 32.3718 -13.3744 7.2
      vertex 37.1448 -13.9048 7.2
      vertex 36.9252 -12.1755 7.2
    endloop
  endfacet
  facet normal 0 0 1
    outer loop
      vertex 37.1448 -13.9048 7.2
      vertex 32.4524 -14.2948 7.2
      vertex 37.0607 -15.6459 7.2
    endloop
  endfacet
  facet normal 0 0 1
    outer loop
      vertex 32.1327 -12.4821 7.2
      vertex 36.9252 -12.1755 7.2
      vertex 36.4087 -10.5106 7.2
    endloop
  endfacet
  facet normal -0 0 1
    outer loop
      vertex 32.3718 -15.2151 7.2
      vertex 37.0607 -15.6459 7.2
      vertex 32.4524 -14.2948 7.2
    endloop
  endfacet
  facet normal 0 0 1
    outer loop
      vertex 31.7423 -11.6448 7.2
      vertex 36.4087 -10.5106 7.2
      vertex 35.6111 -8.96082 7.2
    endloop
  endfacet
  facet normal 0 0 1
    outer loop
      vertex 37.0607 -15.6459 7.2
      vertex 32.3718 -15.2151 7.2
      vertex 36.6754 -17.3458 7.2
    endloop
  endfacet
  facet normal 0 0 1
    outer loop
      vertex 31.2124 -10.8879 7.2
      vertex 35.6111 -8.96082 7.2
      vertex 34.5564 -7.573 7.2
    endloop
  endfacet
  facet normal -0 0 1
    outer loop
      vertex 32.1327 -16.1074 7.2
      vertex 36.6754 -17.3458 7.2
      vertex 32.3718 -15.2151 7.2
    endloop
  endfacet
  facet normal 0 0 1
    outer loop
      vertex 30.5591 -10.2346 7.2
      vertex 34.5564 -7.573 7.2
      vertex 33.2766 -6.3894 7.2
    endloop
  endfacet
  facet normal 0 0 1
    outer loop
      vertex 36.6754 -17.3458 7.2
      vertex 32.1327 -16.1074 7.2
      vertex 36.001 -18.9532 7.2
    endloop
  endfacet
  facet normal -0 0 1
    outer loop
      vertex 31.7423 -16.9447 7.2
      vertex 36.001 -18.9532 7.2
      vertex 32.1327 -16.1074 7.2
    endloop
  endfacet
  facet normal 0 0 1
    outer loop
      vertex 37.1448 -13.9048 7.2
      vertex 32.3718 -13.3744 7.2
      vertex 32.4524 -14.2948 7.2
    endloop
  endfacet
  facet normal 0 0 1
    outer loop
      vertex 36.9252 -12.1755 7.2
      vertex 32.1327 -12.4821 7.2
      vertex 32.3718 -13.3744 7.2
    endloop
  endfacet
  facet normal 0 0 1
    outer loop
      vertex 29.8024 -9.70471 7.2
      vertex 33.2766 -6.3894 7.2
      vertex 31.8108 -5.44604 7.2
    endloop
  endfacet
  facet normal 0 0 1
    outer loop
      vertex 36.4087 -10.5106 7.2
      vertex 31.7423 -11.6448 7.2
      vertex 32.1327 -12.4821 7.2
    endloop
  endfacet
  facet normal 0 0 1
    outer loop
      vertex 35.6111 -8.96082 7.2
      vertex 31.2124 -10.8879 7.2
      vertex 31.7423 -11.6448 7.2
    endloop
  endfacet
  facet normal 0 0 1
    outer loop
      vertex 34.5564 -7.573 7.2
      vertex 30.5591 -10.2346 7.2
      vertex 31.2124 -10.8879 7.2
    endloop
  endfacet
  facet normal 0 0 1
    outer loop
      vertex 33.2766 -6.3894 7.2
      vertex 29.8024 -9.70471 7.2
      vertex 30.5591 -10.2346 7.2
    endloop
  endfacet
  facet normal 0 0 1
    outer loop
      vertex 31.8108 -5.44604 7.2
      vertex 28.9651 -9.31433 7.2
      vertex 29.8024 -9.70471 7.2
    endloop
  endfacet
  facet normal 0 0 1
    outer loop
      vertex 31.8108 -5.44604 7.2
      vertex 28.0726 -9.0752 7.2
      vertex 28.9651 -9.31433 7.2
    endloop
  endfacet
  facet normal 0 0 1
    outer loop
      vertex 31.8108 -5.44604 7.2
      vertex 27.1523 -8.99475 7.2
      vertex 28.0726 -9.0752 7.2
    endloop
  endfacet
  facet normal 0 0 1
    outer loop
      vertex 31.8108 -5.44604 7.2
      vertex 26.2321 -9.0752 7.2
      vertex 27.1523 -8.99475 7.2
    endloop
  endfacet
  facet normal 0 0 1
    outer loop
      vertex 31.8108 -5.44604 7.2
      vertex 25.3396 -9.31433 7.2
      vertex 26.2321 -9.0752 7.2
    endloop
  endfacet
  facet normal 0 0 1
    outer loop
      vertex 4.98035 1.81262 7.2
      vertex 25.3396 -9.31433 7.2
      vertex 31.8108 -5.44604 7.2
    endloop
  endfacet
  facet normal -0 0 1
    outer loop
      vertex 4.58984 -2.6499 7.2
      vertex 22.5624 -11.6448 7.2
      vertex 4.98035 -1.81262 7.2
    endloop
  endfacet
  facet normal 0 0 1
    outer loop
      vertex 23.0923 -10.8879 7.2
      vertex 4.98035 -1.81262 7.2
      vertex 22.5624 -11.6448 7.2
    endloop
  endfacet
  facet normal -0 0 1
    outer loop
      vertex 4.98035 -1.81262 7.2
      vertex 23.0923 -10.8879 7.2
      vertex 5.21936 -0.920288 7.2
    endloop
  endfacet
  facet normal 0 0 1
    outer loop
      vertex 23.7455 -10.2346 7.2
      vertex 5.21936 -0.920288 7.2
      vertex 23.0923 -10.8879 7.2
    endloop
  endfacet
  facet normal -0 0 1
    outer loop
      vertex 5.21936 -0.920288 7.2
      vertex 23.7455 -10.2346 7.2
      vertex 5.29993 0 7.2
    endloop
  endfacet
  facet normal 0 0 1
    outer loop
      vertex 24.5023 -9.70471 7.2
      vertex 5.29993 0 7.2
      vertex 23.7455 -10.2346 7.2
    endloop
  endfacet
  facet normal -0 -0 1
    outer loop
      vertex 5.21936 0.920288 7.2
      vertex 25.3396 -9.31433 7.2
      vertex 4.98035 1.81262 7.2
    endloop
  endfacet
  facet normal 0 0 1
    outer loop
      vertex 24.5023 -9.70471 7.2
      vertex 5.21936 0.920288 7.2
      vertex 5.29993 0 7.2
    endloop
  endfacet
  facet normal 0 0 1
    outer loop
      vertex 25.3396 -9.31433 7.2
      vertex 5.21936 0.920288 7.2
      vertex 24.5023 -9.70471 7.2
    endloop
  endfacet
  facet normal 0 0 1
    outer loop
      vertex 4.65845 8.84863 7.2
      vertex 4.98035 1.81262 7.2
      vertex 31.8108 -5.44604 7.2
    endloop
  endfacet
  facet normal 0 0 1
    outer loop
      vertex 4.65845 8.84863 7.2
      vertex 4.58984 2.6499 7.2
      vertex 4.98035 1.81262 7.2
    endloop
  endfacet
  facet normal 0 0 1
    outer loop
      vertex 4.65845 8.84863 7.2
      vertex 4.05994 3.40674 7.2
      vertex 4.58984 2.6499 7.2
    endloop
  endfacet
  facet normal 0 0 1
    outer loop
      vertex 4.65845 8.84863 7.2
      vertex 3.40674 4.05994 7.2
      vertex 4.05994 3.40674 7.2
    endloop
  endfacet
  facet normal 0 0 1
    outer loop
      vertex 1.81262 4.98035 7.2
      vertex 4.65845 8.84863 7.2
      vertex 3.05115 9.52307 7.2
    endloop
  endfacet
  facet normal 0 0 1
    outer loop
      vertex 4.65845 8.84863 7.2
      vertex 2.6499 4.58984 7.2
      vertex 3.40674 4.05994 7.2
    endloop
  endfacet
  facet normal 0 0 1
    outer loop
      vertex 4.65845 8.84863 7.2
      vertex 1.81262 4.98035 7.2
      vertex 2.6499 4.58984 7.2
    endloop
  endfacet
  facet normal 0 0 1
    outer loop
      vertex 0.920288 5.21936 7.2
      vertex 3.05115 9.52307 7.2
      vertex 1.35107 9.9082 7.2
    endloop
  endfacet
  facet normal 0 0 1
    outer loop
      vertex 3.05115 9.52307 7.2
      vertex 0.920288 5.21936 7.2
      vertex 1.81262 4.98035 7.2
    endloop
  endfacet
  facet normal 0 0 1
    outer loop
      vertex 1.35107 9.9082 7.2
      vertex 0 5.29993 7.2
      vertex 0.920288 5.21936 7.2
    endloop
  endfacet
  facet normal 0 0 1
    outer loop
      vertex -0.389893 9.99231 7.2
      vertex 0 5.29993 7.2
      vertex 1.35107 9.9082 7.2
    endloop
  endfacet
  facet normal 0 0 1
    outer loop
      vertex -0.389893 9.99231 7.2
      vertex -0.920288 5.21936 7.2
      vertex 0 5.29993 7.2
    endloop
  endfacet
  facet normal -0 0 1
    outer loop
      vertex -2.11914 9.77283 7.2
      vertex -0.920288 5.21936 7.2
      vertex -0.389893 9.99231 7.2
    endloop
  endfacet
  facet normal 0 0 1
    outer loop
      vertex -0.920288 5.21936 7.2
      vertex -2.11914 9.77283 7.2
      vertex -1.81262 4.98035 7.2
    endloop
  endfacet
  facet normal -0 0 1
    outer loop
      vertex -3.78394 9.25635 7.2
      vertex -1.81262 4.98035 7.2
      vertex -2.11914 9.77283 7.2
    endloop
  endfacet
  facet normal 0 0 1
    outer loop
      vertex -1.81262 4.98035 7.2
      vertex -3.78394 9.25635 7.2
      vertex -2.6499 4.58984 7.2
    endloop
  endfacet
  facet normal -0 0 1
    outer loop
      vertex -5.33386 8.45862 7.2
      vertex -2.6499 4.58984 7.2
      vertex -3.78394 9.25635 7.2
    endloop
  endfacet
  facet normal 0 0 1
    outer loop
      vertex -2.6499 4.58984 7.2
      vertex -5.33386 8.45862 7.2
      vertex -3.40674 4.05994 7.2
    endloop
  endfacet
  facet normal -0 0 1
    outer loop
      vertex -6.72168 7.40393 7.2
      vertex -3.40674 4.05994 7.2
      vertex -5.33386 8.45862 7.2
    endloop
  endfacet
  facet normal 0 0 1
    outer loop
      vertex -3.40674 4.05994 7.2
      vertex -6.72168 7.40393 7.2
      vertex -4.05994 3.40674 7.2
    endloop
  endfacet
  facet normal -0 0 1
    outer loop
      vertex -7.90515 6.12427 7.2
      vertex -4.05994 3.40674 7.2
      vertex -6.72168 7.40393 7.2
    endloop
  endfacet
  facet normal -0 0 1
    outer loop
      vertex -8.84863 4.65845 7.2
      vertex -4.58984 2.6499 7.2
      vertex -7.90515 6.12427 7.2
    endloop
  endfacet
  facet normal 0 0 1
    outer loop
      vertex -4.05994 3.40674 7.2
      vertex -7.90515 6.12427 7.2
      vertex -4.58984 2.6499 7.2
    endloop
  endfacet
  facet normal 0 0 1
    outer loop
      vertex 36.001 -18.9532 7.2
      vertex 31.7423 -16.9447 7.2
      vertex 35.0576 -20.4189 7.2
    endloop
  endfacet
  facet normal -0 0 1
    outer loop
      vertex 31.2124 -17.7014 7.2
      vertex 35.0576 -20.4189 7.2
      vertex 31.7423 -16.9447 7.2
    endloop
  endfacet
  facet normal 0 0 1
    outer loop
      vertex 35.0576 -20.4189 7.2
      vertex 31.2124 -17.7014 7.2
      vertex 33.874 -21.6986 7.2
    endloop
  endfacet
  facet normal -0 0 1
    outer loop
      vertex 30.5591 -18.3547 7.2
      vertex 33.874 -21.6986 7.2
      vertex 31.2124 -17.7014 7.2
    endloop
  endfacet
  facet normal 0 0 1
    outer loop
      vertex 33.874 -21.6986 7.2
      vertex 30.5591 -18.3547 7.2
      vertex 32.4862 -22.7534 7.2
    endloop
  endfacet
  facet normal -0 0 1
    outer loop
      vertex 29.8024 -18.8846 7.2
      vertex 32.4862 -22.7534 7.2
      vertex 30.5591 -18.3547 7.2
    endloop
  endfacet
  facet normal 0 0 1
    outer loop
      vertex 32.4862 -22.7534 7.2
      vertex 29.8024 -18.8846 7.2
      vertex 30.9363 -23.5511 7.2
    endloop
  endfacet
  facet normal -0 0 1
    outer loop
      vertex 28.9651 -19.275 7.2
      vertex 30.9363 -23.5511 7.2
      vertex 29.8024 -18.8846 7.2
    endloop
  endfacet
  facet normal 0 0 1
    outer loop
      vertex 30.9363 -23.5511 7.2
      vertex 28.9651 -19.275 7.2
      vertex 29.2715 -24.0676 7.2
    endloop
  endfacet
  facet normal -0 0 1
    outer loop
      vertex 28.0726 -19.5142 7.2
      vertex 29.2715 -24.0676 7.2
      vertex 28.9651 -19.275 7.2
    endloop
  endfacet
  facet normal 0 0 1
    outer loop
      vertex 28.0726 -19.5142 7.2
      vertex 27.5422 -24.2871 7.2
      vertex 29.2715 -24.0676 7.2
    endloop
  endfacet
  facet normal -0 0 1
    outer loop
      vertex 27.1523 -19.5947 7.2
      vertex 27.5422 -24.2871 7.2
      vertex 28.0726 -19.5142 7.2
    endloop
  endfacet
  facet normal 0 0 1
    outer loop
      vertex 25.8013 -24.203 7.2
      vertex 27.1523 -19.5947 7.2
      vertex 26.2321 -19.5142 7.2
    endloop
  endfacet
  facet normal 0 0 1
    outer loop
      vertex 27.1523 -19.5947 7.2
      vertex 25.8013 -24.203 7.2
      vertex 27.5422 -24.2871 7.2
    endloop
  endfacet
  facet normal 0 0 1
    outer loop
      vertex 24.1012 -23.8179 7.2
      vertex 26.2321 -19.5142 7.2
      vertex 25.3396 -19.275 7.2
    endloop
  endfacet
  facet normal 0 0 1
    outer loop
      vertex 22.4939 -23.1434 7.2
      vertex 25.3396 -19.275 7.2
      vertex 24.5023 -18.8846 7.2
    endloop
  endfacet
  facet normal 0 0 1
    outer loop
      vertex 26.2321 -19.5142 7.2
      vertex 24.1012 -23.8179 7.2
      vertex 25.8013 -24.203 7.2
    endloop
  endfacet
  facet normal 0 0 1
    outer loop
      vertex 22.4939 -23.1434 7.2
      vertex 24.5023 -18.8846 7.2
      vertex 23.7455 -18.3547 7.2
    endloop
  endfacet
  facet normal 0 0 1
    outer loop
      vertex 22.4939 -23.1434 7.2
      vertex 23.7455 -18.3547 7.2
      vertex 23.0923 -17.7014 7.2
    endloop
  endfacet
  facet normal 0 0 1
    outer loop
      vertex 22.4939 -23.1434 7.2
      vertex 23.0923 -17.7014 7.2
      vertex 22.5624 -16.9447 7.2
    endloop
  endfacet
  facet normal 0 0 1
    outer loop
      vertex 25.3396 -19.275 7.2
      vertex 22.4939 -23.1434 7.2
      vertex 24.1012 -23.8179 7.2
    endloop
  endfacet
  facet normal 0 0 1
    outer loop
      vertex 22.172 -16.1074 7.2
      vertex 22.4939 -23.1434 7.2
      vertex 22.5624 -16.9447 7.2
    endloop
  endfacet
  facet normal 0 0 1
    outer loop
      vertex 1.81262 -4.98035 7.2
      vertex 22.172 -16.1074 7.2
      vertex 21.9329 -15.2151 7.2
    endloop
  endfacet
  facet normal 0 0 1
    outer loop
      vertex 2.6499 -4.58984 7.2
      vertex 21.9329 -15.2151 7.2
      vertex 21.8523 -14.2948 7.2
    endloop
  endfacet
  facet normal 0 0 1
    outer loop
      vertex 22.5624 -11.6448 7.2
      vertex 4.58984 -2.6499 7.2
      vertex 22.172 -12.4821 7.2
    endloop
  endfacet
  facet normal -0 0 1
    outer loop
      vertex 4.05994 -3.40674 7.2
      vertex 22.172 -12.4821 7.2
      vertex 4.58984 -2.6499 7.2
    endloop
  endfacet
  facet normal 0 0 1
    outer loop
      vertex 22.172 -12.4821 7.2
      vertex 4.05994 -3.40674 7.2
      vertex 21.9329 -13.3744 7.2
    endloop
  endfacet
  facet normal -0 0 1
    outer loop
      vertex 3.40674 -4.05994 7.2
      vertex 21.9329 -13.3744 7.2
      vertex 4.05994 -3.40674 7.2
    endloop
  endfacet
  facet normal 0 0 1
    outer loop
      vertex 21.9329 -13.3744 7.2
      vertex 3.40674 -4.05994 7.2
      vertex 21.8523 -14.2948 7.2
    endloop
  endfacet
  facet normal -0 0 1
    outer loop
      vertex 2.6499 -4.58984 7.2
      vertex 21.8523 -14.2948 7.2
      vertex 3.40674 -4.05994 7.2
    endloop
  endfacet
  facet normal 0 0 1
    outer loop
      vertex 21.9329 -15.2151 7.2
      vertex 2.6499 -4.58984 7.2
      vertex 1.81262 -4.98035 7.2
    endloop
  endfacet
  facet normal 0 0 1
    outer loop
      vertex 22.172 -16.1074 7.2
      vertex 1.81262 -4.98035 7.2
      vertex 22.4939 -23.1434 7.2
    endloop
  endfacet
  facet normal 0 0 1
    outer loop
      vertex -4.65845 -8.84863 7.2
      vertex 1.81262 -4.98035 7.2
      vertex 0.920288 -5.21936 7.2
    endloop
  endfacet
  facet normal 0 0 1
    outer loop
      vertex -4.65845 -8.84863 7.2
      vertex 0.920288 -5.21936 7.2
      vertex 0 -5.29993 7.2
    endloop
  endfacet
  facet normal 0 0 1
    outer loop
      vertex -4.65845 -8.84863 7.2
      vertex 0 -5.29993 7.2
      vertex -0.920288 -5.21936 7.2
    endloop
  endfacet
  facet normal 0 0 1
    outer loop
      vertex -4.65845 -8.84863 7.2
      vertex -0.920288 -5.21936 7.2
      vertex -1.81262 -4.98035 7.2
    endloop
  endfacet
  facet normal 0 0 1
    outer loop
      vertex -4.65845 -8.84863 7.2
      vertex -1.81262 -4.98035 7.2
      vertex -2.6499 -4.58984 7.2
    endloop
  endfacet
  facet normal 0 0 1
    outer loop
      vertex -6.12427 -7.90515 7.2
      vertex -2.6499 -4.58984 7.2
      vertex -3.40674 -4.05994 7.2
    endloop
  endfacet
  facet normal 0 0 1
    outer loop
      vertex 1.81262 -4.98035 7.2
      vertex -4.65845 -8.84863 7.2
      vertex 22.4939 -23.1434 7.2
    endloop
  endfacet
  facet normal 0 0 1
    outer loop
      vertex -7.40393 -6.72168 7.2
      vertex -3.40674 -4.05994 7.2
      vertex -4.05994 -3.40674 7.2
    endloop
  endfacet
  facet normal 0 0 1
    outer loop
      vertex -8.45862 -5.33386 7.2
      vertex -4.05994 -3.40674 7.2
      vertex -4.58984 -2.6499 7.2
    endloop
  endfacet
  facet normal 0 0 1
    outer loop
      vertex -9.25635 -3.78394 7.2
      vertex -4.58984 -2.6499 7.2
      vertex -4.98035 -1.81262 7.2
    endloop
  endfacet
  facet normal 0 0 1
    outer loop
      vertex -9.77283 -2.11914 7.2
      vertex -4.98035 -1.81262 7.2
      vertex -5.21936 -0.920288 7.2
    endloop
  endfacet
  facet normal -0 0 1
    outer loop
      vertex -9.99231 -0.389893 7.2
      vertex -5.21936 -0.920288 7.2
      vertex -5.29993 0 7.2
    endloop
  endfacet
  facet normal 0 0 1
    outer loop
      vertex -2.6499 -4.58984 7.2
      vertex -6.12427 -7.90515 7.2
      vertex -4.65845 -8.84863 7.2
    endloop
  endfacet
  facet normal 0 0 1
    outer loop
      vertex -4.58984 2.6499 7.2
      vertex -8.84863 4.65845 7.2
      vertex -4.98035 1.81262 7.2
    endloop
  endfacet
  facet normal -0 0 1
    outer loop
      vertex -9.52307 3.05115 7.2
      vertex -4.98035 1.81262 7.2
      vertex -8.84863 4.65845 7.2
    endloop
  endfacet
  facet normal 0 0 1
    outer loop
      vertex -3.40674 -4.05994 7.2
      vertex -7.40393 -6.72168 7.2
      vertex -6.12427 -7.90515 7.2
    endloop
  endfacet
  facet normal 0 0 1
    outer loop
      vertex -4.98035 1.81262 7.2
      vertex -9.52307 3.05115 7.2
      vertex -5.21936 0.920288 7.2
    endloop
  endfacet
  facet normal 0 0 1
    outer loop
      vertex -4.05994 -3.40674 7.2
      vertex -8.45862 -5.33386 7.2
      vertex -7.40393 -6.72168 7.2
    endloop
  endfacet
  facet normal -0 0 1
    outer loop
      vertex -9.9082 1.35107 7.2
      vertex -5.21936 0.920288 7.2
      vertex -9.52307 3.05115 7.2
    endloop
  endfacet
  facet normal 0 0 1
    outer loop
      vertex -4.58984 -2.6499 7.2
      vertex -9.25635 -3.78394 7.2
      vertex -8.45862 -5.33386 7.2
    endloop
  endfacet
  facet normal 0 0 1
    outer loop
      vertex -5.21936 0.920288 7.2
      vertex -9.9082 1.35107 7.2
      vertex -5.29993 0 7.2
    endloop
  endfacet
  facet normal 0 0 1
    outer loop
      vertex -4.98035 -1.81262 7.2
      vertex -9.77283 -2.11914 7.2
      vertex -9.25635 -3.78394 7.2
    endloop
  endfacet
  facet normal 0 0 1
    outer loop
      vertex -9.99231 -0.389893 7.2
      vertex -5.29993 0 7.2
      vertex -9.9082 1.35107 7.2
    endloop
  endfacet
  facet normal 0 0 1
    outer loop
      vertex -5.21936 -0.920288 7.2
      vertex -9.99231 -0.389893 7.2
      vertex -9.77283 -2.11914 7.2
    endloop
  endfacet
  facet normal 0 0 -1
    outer loop
      vertex 37.0607 -15.6459 0
      vertex 32.3718 -15.2151 0
      vertex 32.4524 -14.2948 0
    endloop
  endfacet
  facet normal 0 0 -1
    outer loop
      vertex 33.874 -21.6986 0
      vertex 32.1327 -16.1074 0
      vertex 32.3718 -15.2151 0
    endloop
  endfacet
  facet normal 0 0 -1
    outer loop
      vertex 33.874 -21.6986 0
      vertex 31.7423 -16.9447 0
      vertex 32.1327 -16.1074 0
    endloop
  endfacet
  facet normal 0 0 -1
    outer loop
      vertex 33.874 -21.6986 0
      vertex 31.2124 -17.7014 0
      vertex 31.7423 -16.9447 0
    endloop
  endfacet
  facet normal 0 0 -1
    outer loop
      vertex 29.8024 -18.8846 0
      vertex 32.4862 -22.7534 0
      vertex 30.9363 -23.5511 0
    endloop
  endfacet
  facet normal 0 0 -1
    outer loop
      vertex 33.874 -21.6986 0
      vertex 30.5591 -18.3547 0
      vertex 31.2124 -17.7014 0
    endloop
  endfacet
  facet normal 0 0 -1
    outer loop
      vertex 32.4862 -22.7534 0
      vertex 29.8024 -18.8846 0
      vertex 30.5591 -18.3547 0
    endloop
  endfacet
  facet normal 0 0 -1
    outer loop
      vertex 28.9651 -19.275 0
      vertex 30.9363 -23.5511 0
      vertex 29.2715 -24.0676 0
    endloop
  endfacet
  facet normal 0 0 -1
    outer loop
      vertex 30.9363 -23.5511 0
      vertex 28.9651 -19.275 0
      vertex 29.8024 -18.8846 0
    endloop
  endfacet
  facet normal 0 0 -1
    outer loop
      vertex 29.2715 -24.0676 0
      vertex 28.0726 -19.5142 0
      vertex 28.9651 -19.275 0
    endloop
  endfacet
  facet normal 0 0 -1
    outer loop
      vertex 27.5422 -24.2871 0
      vertex 28.0726 -19.5142 0
      vertex 29.2715 -24.0676 0
    endloop
  endfacet
  facet normal 0 0 -1
    outer loop
      vertex 27.5422 -24.2871 0
      vertex 27.1523 -19.5947 0
      vertex 28.0726 -19.5142 0
    endloop
  endfacet
  facet normal 0 0 -1
    outer loop
      vertex 25.8013 -24.203 0
      vertex 27.1523 -19.5947 0
      vertex 27.5422 -24.2871 0
    endloop
  endfacet
  facet normal -0 0 -1
    outer loop
      vertex 27.1523 -19.5947 0
      vertex 25.8013 -24.203 0
      vertex 26.2321 -19.5142 0
    endloop
  endfacet
  facet normal 0 0 -1
    outer loop
      vertex 24.1012 -23.8179 0
      vertex 26.2321 -19.5142 0
      vertex 25.8013 -24.203 0
    endloop
  endfacet
  facet normal -0 0 -1
    outer loop
      vertex 26.2321 -19.5142 0
      vertex 24.1012 -23.8179 0
      vertex 25.3396 -19.275 0
    endloop
  endfacet
  facet normal 0 0 -1
    outer loop
      vertex 22.4939 -23.1434 0
      vertex 25.3396 -19.275 0
      vertex 24.1012 -23.8179 0
    endloop
  endfacet
  facet normal -0 0 -1
    outer loop
      vertex 25.3396 -19.275 0
      vertex 22.4939 -23.1434 0
      vertex 24.5023 -18.8846 0
    endloop
  endfacet
  facet normal -0 0 -1
    outer loop
      vertex 24.5023 -18.8846 0
      vertex 22.4939 -23.1434 0
      vertex 23.7455 -18.3547 0
    endloop
  endfacet
  facet normal -0 0 -1
    outer loop
      vertex 23.7455 -18.3547 0
      vertex 22.4939 -23.1434 0
      vertex 23.0923 -17.7014 0
    endloop
  endfacet
  facet normal -0 0 -1
    outer loop
      vertex 23.0923 -17.7014 0
      vertex 22.4939 -23.1434 0
      vertex 22.5624 -16.9447 0
    endloop
  endfacet
  facet normal 0 0 -1
    outer loop
      vertex 22.4939 -23.1434 0
      vertex 22.172 -16.1074 0
      vertex 22.5624 -16.9447 0
    endloop
  endfacet
  facet normal 0 0 -1
    outer loop
      vertex 1.81262 -4.98035 0
      vertex 22.172 -16.1074 0
      vertex 22.4939 -23.1434 0
    endloop
  endfacet
  facet normal 0 0 -1
    outer loop
      vertex 22.172 -16.1074 0
      vertex 1.81262 -4.98035 0
      vertex 21.9329 -15.2151 0
    endloop
  endfacet
  facet normal 0 -0 -1
    outer loop
      vertex 2.6499 -4.58984 0
      vertex 21.9329 -15.2151 0
      vertex 1.81262 -4.98035 0
    endloop
  endfacet
  facet normal 0 0 -1
    outer loop
      vertex 21.8523 -14.2948 0
      vertex 5.21936 -0.920288 0
      vertex 5.29993 0 0
    endloop
  endfacet
  facet normal 0 0 -1
    outer loop
      vertex 21.8523 -14.2948 0
      vertex 4.98035 -1.81262 0
      vertex 5.21936 -0.920288 0
    endloop
  endfacet
  facet normal 0 0 -1
    outer loop
      vertex 21.8523 -14.2948 0
      vertex 4.58984 -2.6499 0
      vertex 4.98035 -1.81262 0
    endloop
  endfacet
  facet normal 0 0 -1
    outer loop
      vertex 21.8523 -14.2948 0
      vertex 4.05994 -3.40674 0
      vertex 4.58984 -2.6499 0
    endloop
  endfacet
  facet normal 0 0 -1
    outer loop
      vertex 21.8523 -14.2948 0
      vertex 3.40674 -4.05994 0
      vertex 4.05994 -3.40674 0
    endloop
  endfacet
  facet normal 0 0 -1
    outer loop
      vertex 21.8523 -14.2948 0
      vertex 2.6499 -4.58984 0
      vertex 3.40674 -4.05994 0
    endloop
  endfacet
  facet normal 0 0 -1
    outer loop
      vertex 21.9329 -15.2151 0
      vertex 2.6499 -4.58984 0
      vertex 21.8523 -14.2948 0
    endloop
  endfacet
  facet normal 0 0 -1
    outer loop
      vertex -4.65845 -8.84863 0
      vertex 1.81262 -4.98035 0
      vertex 22.4939 -23.1434 0
    endloop
  endfacet
  facet normal 0 0 -1
    outer loop
      vertex 1.81262 -4.98035 0
      vertex -4.65845 -8.84863 0
      vertex 0.920288 -5.21936 0
    endloop
  endfacet
  facet normal 0 0 -1
    outer loop
      vertex 0.920288 -5.21936 0
      vertex -4.65845 -8.84863 0
      vertex 0 -5.29993 0
    endloop
  endfacet
  facet normal -0 0 -1
    outer loop
      vertex 0 -5.29993 0
      vertex -4.65845 -8.84863 0
      vertex -0.920288 -5.21936 0
    endloop
  endfacet
  facet normal -0 0 -1
    outer loop
      vertex -0.920288 -5.21936 0
      vertex -4.65845 -8.84863 0
      vertex -1.81262 -4.98035 0
    endloop
  endfacet
  facet normal -0 0 -1
    outer loop
      vertex -1.81262 -4.98035 0
      vertex -4.65845 -8.84863 0
      vertex -2.6499 -4.58984 0
    endloop
  endfacet
  facet normal 0 0 -1
    outer loop
      vertex -6.12427 -7.90515 0
      vertex -2.6499 -4.58984 0
      vertex -4.65845 -8.84863 0
    endloop
  endfacet
  facet normal -0 0 -1
    outer loop
      vertex -2.6499 -4.58984 0
      vertex -6.12427 -7.90515 0
      vertex -3.40674 -4.05994 0
    endloop
  endfacet
  facet normal 0 0 -1
    outer loop
      vertex -7.40393 -6.72168 0
      vertex -3.40674 -4.05994 0
      vertex -6.12427 -7.90515 0
    endloop
  endfacet
  facet normal -0 0 -1
    outer loop
      vertex -3.40674 -4.05994 0
      vertex -7.40393 -6.72168 0
      vertex -4.05994 -3.40674 0
    endloop
  endfacet
  facet normal 0 0 -1
    outer loop
      vertex -8.45862 -5.33386 0
      vertex -4.05994 -3.40674 0
      vertex -7.40393 -6.72168 0
    endloop
  endfacet
  facet normal -0 0 -1
    outer loop
      vertex -4.05994 -3.40674 0
      vertex -8.45862 -5.33386 0
      vertex -4.58984 -2.6499 0
    endloop
  endfacet
  facet normal 0 0 -1
    outer loop
      vertex -9.25635 -3.78394 0
      vertex -4.58984 -2.6499 0
      vertex -8.45862 -5.33386 0
    endloop
  endfacet
  facet normal -0 0 -1
    outer loop
      vertex -4.58984 -2.6499 0
      vertex -9.25635 -3.78394 0
      vertex -4.98035 -1.81262 0
    endloop
  endfacet
  facet normal 0 0 -1
    outer loop
      vertex -5.29993 0 0
      vertex -6.72168 7.40393 0
      vertex -5.33386 8.45862 0
    endloop
  endfacet
  facet normal 0 0 -1
    outer loop
      vertex -9.77283 -2.11914 0
      vertex -4.98035 -1.81262 0
      vertex -9.25635 -3.78394 0
    endloop
  endfacet
  facet normal 0 0 -1
    outer loop
      vertex -5.29993 0 0
      vertex -7.90515 6.12427 0
      vertex -6.72168 7.40393 0
    endloop
  endfacet
  facet normal -0 0 -1
    outer loop
      vertex -4.98035 -1.81262 0
      vertex -9.77283 -2.11914 0
      vertex -5.21936 -0.920288 0
    endloop
  endfacet
  facet normal 0 0 -1
    outer loop
      vertex -5.29993 0 0
      vertex -8.84863 4.65845 0
      vertex -7.90515 6.12427 0
    endloop
  endfacet
  facet normal 0 0 -1
    outer loop
      vertex -9.99231 -0.389893 0
      vertex -5.21936 -0.920288 0
      vertex -9.77283 -2.11914 0
    endloop
  endfacet
  facet normal 0 0 -1
    outer loop
      vertex -5.29993 0 0
      vertex -9.52307 3.05115 0
      vertex -8.84863 4.65845 0
    endloop
  endfacet
  facet normal 0 0 -1
    outer loop
      vertex -5.21936 -0.920288 0
      vertex -9.99231 -0.389893 0
      vertex -5.29993 0 0
    endloop
  endfacet
  facet normal 0 0 -1
    outer loop
      vertex -5.29993 0 0
      vertex -9.9082 1.35107 0
      vertex -9.52307 3.05115 0
    endloop
  endfacet
  facet normal -0 0 -1
    outer loop
      vertex -5.29993 0 0
      vertex -9.99231 -0.389893 0
      vertex -9.9082 1.35107 0
    endloop
  endfacet
  facet normal 0 0 -1
    outer loop
      vertex 32.4524 -14.2948 0
      vertex 37.1448 -13.9048 0
      vertex 37.0607 -15.6459 0
    endloop
  endfacet
  facet normal 0 0 -1
    outer loop
      vertex 32.3718 -15.2151 0
      vertex 37.0607 -15.6459 0
      vertex 36.6754 -17.3458 0
    endloop
  endfacet
  facet normal 0 0 -1
    outer loop
      vertex 32.3718 -13.3744 0
      vertex 37.1448 -13.9048 0
      vertex 32.4524 -14.2948 0
    endloop
  endfacet
  facet normal 0 0 -1
    outer loop
      vertex 32.3718 -15.2151 0
      vertex 36.6754 -17.3458 0
      vertex 36.001 -18.9532 0
    endloop
  endfacet
  facet normal 0 0 -1
    outer loop
      vertex 37.1448 -13.9048 0
      vertex 32.3718 -13.3744 0
      vertex 36.9252 -12.1755 0
    endloop
  endfacet
  facet normal 0 0 -1
    outer loop
      vertex 32.3718 -15.2151 0
      vertex 36.001 -18.9532 0
      vertex 35.0576 -20.4189 0
    endloop
  endfacet
  facet normal 0 0 -1
    outer loop
      vertex 32.1327 -12.4821 0
      vertex 36.9252 -12.1755 0
      vertex 32.3718 -13.3744 0
    endloop
  endfacet
  facet normal 0 0 -1
    outer loop
      vertex 32.3718 -15.2151 0
      vertex 35.0576 -20.4189 0
      vertex 33.874 -21.6986 0
    endloop
  endfacet
  facet normal -0 0 -1
    outer loop
      vertex 36.9252 -12.1755 0
      vertex 32.1327 -12.4821 0
      vertex 36.4087 -10.5106 0
    endloop
  endfacet
  facet normal 0 0 -1
    outer loop
      vertex 30.5591 -18.3547 0
      vertex 33.874 -21.6986 0
      vertex 32.4862 -22.7534 0
    endloop
  endfacet
  facet normal 0 0 -1
    outer loop
      vertex 31.7423 -11.6448 0
      vertex 36.4087 -10.5106 0
      vertex 32.1327 -12.4821 0
    endloop
  endfacet
  facet normal -0 0 -1
    outer loop
      vertex 36.4087 -10.5106 0
      vertex 31.7423 -11.6448 0
      vertex 35.6111 -8.96082 0
    endloop
  endfacet
  facet normal 0 0 -1
    outer loop
      vertex 31.2124 -10.8879 0
      vertex 35.6111 -8.96082 0
      vertex 31.7423 -11.6448 0
    endloop
  endfacet
  facet normal -0 0 -1
    outer loop
      vertex 35.6111 -8.96082 0
      vertex 31.2124 -10.8879 0
      vertex 34.5564 -7.573 0
    endloop
  endfacet
  facet normal 0 0 -1
    outer loop
      vertex 30.5591 -10.2346 0
      vertex 34.5564 -7.573 0
      vertex 31.2124 -10.8879 0
    endloop
  endfacet
  facet normal -0 0 -1
    outer loop
      vertex 34.5564 -7.573 0
      vertex 30.5591 -10.2346 0
      vertex 33.2766 -6.3894 0
    endloop
  endfacet
  facet normal 0 0 -1
    outer loop
      vertex 29.8024 -9.70471 0
      vertex 33.2766 -6.3894 0
      vertex 30.5591 -10.2346 0
    endloop
  endfacet
  facet normal -0 0 -1
    outer loop
      vertex 33.2766 -6.3894 0
      vertex 29.8024 -9.70471 0
      vertex 31.8108 -5.44604 0
    endloop
  endfacet
  facet normal 0 0 -1
    outer loop
      vertex 28.9651 -9.31433 0
      vertex 31.8108 -5.44604 0
      vertex 29.8024 -9.70471 0
    endloop
  endfacet
  facet normal 0 0 -1
    outer loop
      vertex 28.0726 -9.0752 0
      vertex 31.8108 -5.44604 0
      vertex 28.9651 -9.31433 0
    endloop
  endfacet
  facet normal 0 0 -1
    outer loop
      vertex 27.1523 -8.99475 0
      vertex 31.8108 -5.44604 0
      vertex 28.0726 -9.0752 0
    endloop
  endfacet
  facet normal 0 0 -1
    outer loop
      vertex 26.2321 -9.0752 0
      vertex 31.8108 -5.44604 0
      vertex 27.1523 -8.99475 0
    endloop
  endfacet
  facet normal 0 0 -1
    outer loop
      vertex 25.3396 -9.31433 0
      vertex 31.8108 -5.44604 0
      vertex 26.2321 -9.0752 0
    endloop
  endfacet
  facet normal 0 0 -1
    outer loop
      vertex 5.21936 0.920288 0
      vertex 25.3396 -9.31433 0
      vertex 24.5023 -9.70471 0
    endloop
  endfacet
  facet normal 0 0 -1
    outer loop
      vertex 5.29993 0 0
      vertex 21.9329 -13.3744 0
      vertex 21.8523 -14.2948 0
    endloop
  endfacet
  facet normal 0 0 -1
    outer loop
      vertex 5.29993 0 0
      vertex 22.172 -12.4821 0
      vertex 21.9329 -13.3744 0
    endloop
  endfacet
  facet normal 0 0 -1
    outer loop
      vertex 5.29993 0 0
      vertex 22.5624 -11.6448 0
      vertex 22.172 -12.4821 0
    endloop
  endfacet
  facet normal 0 0 -1
    outer loop
      vertex 5.29993 0 0
      vertex 23.0923 -10.8879 0
      vertex 22.5624 -11.6448 0
    endloop
  endfacet
  facet normal 0 0 -1
    outer loop
      vertex 5.29993 0 0
      vertex 23.7455 -10.2346 0
      vertex 23.0923 -10.8879 0
    endloop
  endfacet
  facet normal 0 0 -1
    outer loop
      vertex 5.29993 0 0
      vertex 24.5023 -9.70471 0
      vertex 23.7455 -10.2346 0
    endloop
  endfacet
  facet normal 0 0 -1
    outer loop
      vertex 5.21936 0.920288 0
      vertex 24.5023 -9.70471 0
      vertex 5.29993 0 0
    endloop
  endfacet
  facet normal 0 0 -1
    outer loop
      vertex 25.3396 -9.31433 0
      vertex 5.21936 0.920288 0
      vertex 4.98035 1.81262 0
    endloop
  endfacet
  facet normal 0 0 -1
    outer loop
      vertex 25.3396 -9.31433 0
      vertex 4.98035 1.81262 0
      vertex 31.8108 -5.44604 0
    endloop
  endfacet
  facet normal 0 0 -1
    outer loop
      vertex 4.98035 1.81262 0
      vertex 4.65845 8.84863 0
      vertex 31.8108 -5.44604 0
    endloop
  endfacet
  facet normal 0 0 -1
    outer loop
      vertex 4.58984 2.6499 0
      vertex 4.65845 8.84863 0
      vertex 4.98035 1.81262 0
    endloop
  endfacet
  facet normal 0 0 -1
    outer loop
      vertex 4.05994 3.40674 0
      vertex 4.65845 8.84863 0
      vertex 4.58984 2.6499 0
    endloop
  endfacet
  facet normal 0 0 -1
    outer loop
      vertex 3.40674 4.05994 0
      vertex 4.65845 8.84863 0
      vertex 4.05994 3.40674 0
    endloop
  endfacet
  facet normal 0 0 -1
    outer loop
      vertex 2.6499 4.58984 0
      vertex 4.65845 8.84863 0
      vertex 3.40674 4.05994 0
    endloop
  endfacet
  facet normal 0 0 -1
    outer loop
      vertex 1.81262 4.98035 0
      vertex 4.65845 8.84863 0
      vertex 2.6499 4.58984 0
    endloop
  endfacet
  facet normal -0 0 -1
    outer loop
      vertex 4.65845 8.84863 0
      vertex 1.81262 4.98035 0
      vertex 3.05115 9.52307 0
    endloop
  endfacet
  facet normal 0 0 -1
    outer loop
      vertex 0.920288 5.21936 0
      vertex 3.05115 9.52307 0
      vertex 1.81262 4.98035 0
    endloop
  endfacet
  facet normal -0 0 -1
    outer loop
      vertex 3.05115 9.52307 0
      vertex 0.920288 5.21936 0
      vertex 1.35107 9.9082 0
    endloop
  endfacet
  facet normal 0 0 -1
    outer loop
      vertex 0 5.29993 0
      vertex 1.35107 9.9082 0
      vertex 0.920288 5.21936 0
    endloop
  endfacet
  facet normal 0 0 -1
    outer loop
      vertex 0 5.29993 0
      vertex -0.389893 9.99231 0
      vertex 1.35107 9.9082 0
    endloop
  endfacet
  facet normal 0 0 -1
    outer loop
      vertex -0.920288 5.21936 0
      vertex -0.389893 9.99231 0
      vertex 0 5.29993 0
    endloop
  endfacet
  facet normal 0 0 -1
    outer loop
      vertex -2.11914 9.77283 0
      vertex -0.920288 5.21936 0
      vertex -1.81262 4.98035 0
    endloop
  endfacet
  facet normal 0 0 -1
    outer loop
      vertex -0.920288 5.21936 0
      vertex -2.11914 9.77283 0
      vertex -0.389893 9.99231 0
    endloop
  endfacet
  facet normal 0 0 -1
    outer loop
      vertex -3.78394 9.25635 0
      vertex -1.81262 4.98035 0
      vertex -2.6499 4.58984 0
    endloop
  endfacet
  facet normal 0 0 -1
    outer loop
      vertex -5.33386 8.45862 0
      vertex -2.6499 4.58984 0
      vertex -3.40674 4.05994 0
    endloop
  endfacet
  facet normal 0 0 -1
    outer loop
      vertex -1.81262 4.98035 0
      vertex -3.78394 9.25635 0
      vertex -2.11914 9.77283 0
    endloop
  endfacet
  facet normal 0 0 -1
    outer loop
      vertex -5.33386 8.45862 0
      vertex -3.40674 4.05994 0
      vertex -4.05994 3.40674 0
    endloop
  endfacet
  facet normal 0 0 -1
    outer loop
      vertex -5.33386 8.45862 0
      vertex -4.05994 3.40674 0
      vertex -4.58984 2.6499 0
    endloop
  endfacet
  facet normal 0 0 -1
    outer loop
      vertex -5.33386 8.45862 0
      vertex -4.58984 2.6499 0
      vertex -4.98035 1.81262 0
    endloop
  endfacet
  facet normal 0 0 -1
    outer loop
      vertex -5.33386 8.45862 0
      vertex -4.98035 1.81262 0
      vertex -5.21936 0.920288 0
    endloop
  endfacet
  facet normal 0 0 -1
    outer loop
      vertex -2.6499 4.58984 0
      vertex -5.33386 8.45862 0
      vertex -3.78394 9.25635 0
    endloop
  endfacet
  facet normal 0 0 -1
    outer loop
      vertex -5.33386 8.45862 0
      vertex -5.21936 0.920288 0
      vertex -5.29993 0 0
    endloop
  endfacet
  facet normal -0.678975 -0.734161 0
    outer loop
      vertex -7.40393 -6.72168 0
      vertex -6.12427 -7.90515 7.2
      vertex -7.40393 -6.72168 7.2
    endloop
  endfacet
  facet normal -0.678975 -0.734161 -0
    outer loop
      vertex -6.12427 -7.90515 7.2
      vertex -7.40393 -6.72168 0
      vertex -6.12427 -7.90515 0
    endloop
  endfacet
  facet normal 0.0482539 0.998835 -0
    outer loop
      vertex 1.35107 9.9082 0
      vertex -0.389893 9.99231 7.2
      vertex 1.35107 9.9082 7.2
    endloop
  endfacet
  facet normal 0.0482539 0.998835 0
    outer loop
      vertex -0.389893 9.99231 7.2
      vertex 1.35107 9.9082 0
      vertex -0.389893 9.99231 0
    endloop
  endfacet
  facet normal 0.998835 -0.0482505 0
    outer loop
      vertex 37.0607 -15.6459 7.2
      vertex 37.1448 -13.9048 0
      vertex 37.1448 -13.9048 7.2
    endloop
  endfacet
  facet normal 0.998835 -0.0482505 0
    outer loop
      vertex 37.1448 -13.9048 0
      vertex 37.0607 -15.6459 7.2
      vertex 37.0607 -15.6459 0
    endloop
  endfacet
  facet normal 0.796177 0.605064 0
    outer loop
      vertex 35.6111 -8.96082 7.2
      vertex 34.5564 -7.573 0
      vertex 34.5564 -7.573 7.2
    endloop
  endfacet
  facet normal 0.796177 0.605064 0
    outer loop
      vertex 34.5564 -7.573 0
      vertex 35.6111 -8.96082 7.2
      vertex 35.6111 -8.96082 0
    endloop
  endfacet
  facet normal -0.605064 0.796177 0
    outer loop
      vertex -5.33386 8.45862 0
      vertex -6.72168 7.40393 7.2
      vertex -5.33386 8.45862 7.2
    endloop
  endfacet
  facet normal -0.605064 0.796177 0
    outer loop
      vertex -6.72168 7.40393 7.2
      vertex -5.33386 8.45862 0
      vertex -6.72168 7.40393 0
    endloop
  endfacet
  facet normal -0.889142 -0.457631 0
    outer loop
      vertex -8.45862 -5.33386 0
      vertex -9.25635 -3.78394 7.2
      vertex -9.25635 -3.78394 0
    endloop
  endfacet
  facet normal -0.889142 -0.457631 0
    outer loop
      vertex -9.25635 -3.78394 7.2
      vertex -8.45862 -5.33386 0
      vertex -8.45862 -5.33386 7.2
    endloop
  endfacet
  facet normal -0.796177 -0.605064 0
    outer loop
      vertex -7.40393 -6.72168 0
      vertex -8.45862 -5.33386 7.2
      vertex -8.45862 -5.33386 0
    endloop
  endfacet
  facet normal -0.796177 -0.605064 0
    outer loop
      vertex -8.45862 -5.33386 7.2
      vertex -7.40393 -6.72168 0
      vertex -7.40393 -6.72168 7.2
    endloop
  endfacet
  facet normal -0.992041 -0.125913 0
    outer loop
      vertex -9.77283 -2.11914 0
      vertex -9.99231 -0.389893 7.2
      vertex -9.99231 -0.389893 0
    endloop
  endfacet
  facet normal -0.992041 -0.125913 0
    outer loop
      vertex -9.99231 -0.389893 7.2
      vertex -9.77283 -2.11914 0
      vertex -9.77283 -2.11914 7.2
    endloop
  endfacet
  facet normal -0.955094 -0.296304 0
    outer loop
      vertex -9.25635 -3.78394 0
      vertex -9.77283 -2.11914 7.2
      vertex -9.77283 -2.11914 0
    endloop
  endfacet
  facet normal -0.955094 -0.296304 0
    outer loop
      vertex -9.77283 -2.11914 7.2
      vertex -9.25635 -3.78394 0
      vertex -9.25635 -3.78394 7.2
    endloop
  endfacet
  facet normal 0.386926 0.922111 -0
    outer loop
      vertex 4.65845 8.84863 0
      vertex 3.05115 9.52307 7.2
      vertex 4.65845 8.84863 7.2
    endloop
  endfacet
  facet normal 0.386926 0.922111 0
    outer loop
      vertex 3.05115 9.52307 7.2
      vertex 4.65845 8.84863 0
      vertex 3.05115 9.52307 0
    endloop
  endfacet
  facet normal 0.840885 -0.541214 0
    outer loop
      vertex 35.0576 -20.4189 7.2
      vertex 36.001 -18.9532 0
      vertex 36.001 -18.9532 7.2
    endloop
  endfacet
  facet normal 0.840885 -0.541214 0
    outer loop
      vertex 36.001 -18.9532 0
      vertex 35.0576 -20.4189 7.2
      vertex 35.0576 -20.4189 0
    endloop
  endfacet
  facet normal 0.922121 -0.386901 0
    outer loop
      vertex 36.001 -18.9532 7.2
      vertex 36.6754 -17.3458 0
      vertex 36.6754 -17.3458 7.2
    endloop
  endfacet
  facet normal 0.922121 -0.386901 0
    outer loop
      vertex 36.6754 -17.3458 0
      vertex 36.001 -18.9532 7.2
      vertex 36.001 -18.9532 0
    endloop
  endfacet
  facet normal 0.457631 -0.889142 0
    outer loop
      vertex 30.9363 -23.5511 0
      vertex 32.4862 -22.7534 7.2
      vertex 30.9363 -23.5511 7.2
    endloop
  endfacet
  facet normal 0.457631 -0.889142 0
    outer loop
      vertex 32.4862 -22.7534 7.2
      vertex 30.9363 -23.5511 0
      vertex 32.4862 -22.7534 0
    endloop
  endfacet
  facet normal 0.541182 0.840905 -0
    outer loop
      vertex 33.2766 -6.3894 0
      vertex 31.8108 -5.44604 7.2
      vertex 33.2766 -6.3894 7.2
    endloop
  endfacet
  facet normal 0.541182 0.840905 0
    outer loop
      vertex 31.8108 -5.44604 7.2
      vertex 33.2766 -6.3894 0
      vertex 31.8108 -5.44604 0
    endloop
  endfacet
  facet normal 0.678978 0.734159 -0
    outer loop
      vertex 34.5564 -7.573 0
      vertex 33.2766 -6.3894 7.2
      vertex 34.5564 -7.573 7.2
    endloop
  endfacet
  facet normal 0.678978 0.734159 0
    outer loop
      vertex 33.2766 -6.3894 7.2
      vertex 34.5564 -7.573 0
      vertex 33.2766 -6.3894 0
    endloop
  endfacet
  facet normal -0.998835 0.0482539 0
    outer loop
      vertex -9.99231 -0.389893 0
      vertex -9.9082 1.35107 7.2
      vertex -9.9082 1.35107 0
    endloop
  endfacet
  facet normal -0.998835 0.0482539 0
    outer loop
      vertex -9.9082 1.35107 7.2
      vertex -9.99231 -0.389893 0
      vertex -9.99231 -0.389893 7.2
    endloop
  endfacet
  facet normal -0.975287 0.22094 0
    outer loop
      vertex -9.9082 1.35107 0
      vertex -9.52307 3.05115 7.2
      vertex -9.52307 3.05115 0
    endloop
  endfacet
  facet normal -0.975287 0.22094 0
    outer loop
      vertex -9.52307 3.05115 7.2
      vertex -9.9082 1.35107 0
      vertex -9.9082 1.35107 7.2
    endloop
  endfacet
  facet normal 0.992032 0.125982 0
    outer loop
      vertex 37.1448 -13.9048 7.2
      vertex 36.9252 -12.1755 0
      vertex 36.9252 -12.1755 7.2
    endloop
  endfacet
  facet normal 0.992032 0.125982 0
    outer loop
      vertex 36.9252 -12.1755 0
      vertex 37.1448 -13.9048 7.2
      vertex 37.1448 -13.9048 0
    endloop
  endfacet
  facet normal 0.975269 -0.221022 0
    outer loop
      vertex 36.6754 -17.3458 7.2
      vertex 37.0607 -15.6459 0
      vertex 37.0607 -15.6459 7.2
    endloop
  endfacet
  facet normal 0.975269 -0.221022 0
    outer loop
      vertex 37.0607 -15.6459 0
      vertex 36.6754 -17.3458 7.2
      vertex 36.6754 -17.3458 0
    endloop
  endfacet
  facet normal 0.605108 -0.796143 0
    outer loop
      vertex 32.4862 -22.7534 0
      vertex 33.874 -21.6986 7.2
      vertex 32.4862 -22.7534 7.2
    endloop
  endfacet
  facet normal 0.605108 -0.796143 0
    outer loop
      vertex 33.874 -21.6986 7.2
      vertex 32.4862 -22.7534 0
      vertex 33.874 -21.6986 0
    endloop
  endfacet
  facet normal 0.734126 -0.679013 0
    outer loop
      vertex 33.874 -21.6986 7.2
      vertex 35.0576 -20.4189 0
      vertex 35.0576 -20.4189 7.2
    endloop
  endfacet
  facet normal 0.734126 -0.679013 0
    outer loop
      vertex 35.0576 -20.4189 0
      vertex 33.874 -21.6986 7.2
      vertex 33.874 -21.6986 0
    endloop
  endfacet
  facet normal -0.734161 0.678975 0
    outer loop
      vertex -7.90515 6.12427 0
      vertex -6.72168 7.40393 7.2
      vertex -6.72168 7.40393 0
    endloop
  endfacet
  facet normal -0.734161 0.678975 0
    outer loop
      vertex -6.72168 7.40393 7.2
      vertex -7.90515 6.12427 0
      vertex -7.90515 6.12427 7.2
    endloop
  endfacet
  facet normal -0.457631 0.889142 0
    outer loop
      vertex -3.78394 9.25635 0
      vertex -5.33386 8.45862 7.2
      vertex -3.78394 9.25635 7.2
    endloop
  endfacet
  facet normal -0.457631 0.889142 0
    outer loop
      vertex -5.33386 8.45862 7.2
      vertex -3.78394 9.25635 0
      vertex -5.33386 8.45862 0
    endloop
  endfacet
  facet normal -0.296304 0.955094 0
    outer loop
      vertex -2.11914 9.77283 0
      vertex -3.78394 9.25635 7.2
      vertex -2.11914 9.77283 7.2
    endloop
  endfacet
  facet normal -0.296304 0.955094 0
    outer loop
      vertex -3.78394 9.25635 7.2
      vertex -2.11914 9.77283 0
      vertex -3.78394 9.25635 0
    endloop
  endfacet
  facet normal 0.889156 0.457604 0
    outer loop
      vertex 36.4087 -10.5106 7.2
      vertex 35.6111 -8.96082 0
      vertex 35.6111 -8.96082 7.2
    endloop
  endfacet
  facet normal 0.889156 0.457604 0
    outer loop
      vertex 35.6111 -8.96082 0
      vertex 36.4087 -10.5106 7.2
      vertex 36.4087 -10.5106 0
    endloop
  endfacet
  facet normal 0.9551 0.296285 0
    outer loop
      vertex 36.9252 -12.1755 7.2
      vertex 36.4087 -10.5106 0
      vertex 36.4087 -10.5106 7.2
    endloop
  endfacet
  facet normal 0.9551 0.296285 0
    outer loop
      vertex 36.4087 -10.5106 0
      vertex 36.9252 -12.1755 7.2
      vertex 36.9252 -12.1755 0
    endloop
  endfacet
  facet normal -0.422683 0.906278 0
    outer loop
      vertex 2.6499 -4.58984 0
      vertex 1.81262 -4.98035 7.2
      vertex 2.6499 -4.58984 7.2
    endloop
  endfacet
  facet normal -0.422683 0.906278 0
    outer loop
      vertex 1.81262 -4.98035 7.2
      vertex 2.6499 -4.58984 0
      vertex 1.81262 -4.98035 0
    endloop
  endfacet
  facet normal 0.258732 -0.965949 0
    outer loop
      vertex -1.81262 4.98035 0
      vertex -0.920288 5.21936 7.2
      vertex -1.81262 4.98035 7.2
    endloop
  endfacet
  facet normal 0.258732 -0.965949 0
    outer loop
      vertex -0.920288 5.21936 7.2
      vertex -1.81262 4.98035 0
      vertex -0.920288 5.21936 0
    endloop
  endfacet
  facet normal -0.258732 0.965949 0
    outer loop
      vertex 1.81262 -4.98035 0
      vertex 0.920288 -5.21936 7.2
      vertex 1.81262 -4.98035 7.2
    endloop
  endfacet
  facet normal -0.258732 0.965949 0
    outer loop
      vertex 0.920288 -5.21936 7.2
      vertex 1.81262 -4.98035 0
      vertex 0.920288 -5.21936 0
    endloop
  endfacet
  facet normal -0.965949 -0.258732 0
    outer loop
      vertex 5.21936 0.920288 0
      vertex 4.98035 1.81262 7.2
      vertex 4.98035 1.81262 0
    endloop
  endfacet
  facet normal -0.965949 -0.258732 0
    outer loop
      vertex 4.98035 1.81262 7.2
      vertex 5.21936 0.920288 0
      vertex 5.21936 0.920288 7.2
    endloop
  endfacet
  facet normal 0.573551 -0.81917 0
    outer loop
      vertex -3.40674 4.05994 0
      vertex -2.6499 4.58984 7.2
      vertex -3.40674 4.05994 7.2
    endloop
  endfacet
  facet normal 0.573551 -0.81917 0
    outer loop
      vertex -2.6499 4.58984 7.2
      vertex -3.40674 4.05994 0
      vertex -2.6499 4.58984 0
    endloop
  endfacet
  facet normal 0.906278 -0.422683 0
    outer loop
      vertex -4.98035 1.81262 7.2
      vertex -4.58984 2.6499 0
      vertex -4.58984 2.6499 7.2
    endloop
  endfacet
  facet normal 0.906278 -0.422683 0
    outer loop
      vertex -4.58984 2.6499 0
      vertex -4.98035 1.81262 7.2
      vertex -4.98035 1.81262 0
    endloop
  endfacet
  facet normal -0.422683 -0.906278 0
    outer loop
      vertex 1.81262 4.98035 0
      vertex 2.6499 4.58984 7.2
      vertex 1.81262 4.98035 7.2
    endloop
  endfacet
  facet normal -0.422683 -0.906278 -0
    outer loop
      vertex 2.6499 4.58984 7.2
      vertex 1.81262 4.98035 0
      vertex 2.6499 4.58984 0
    endloop
  endfacet
  facet normal -0.81917 -0.573551 0
    outer loop
      vertex 4.58984 2.6499 0
      vertex 4.05994 3.40674 7.2
      vertex 4.05994 3.40674 0
    endloop
  endfacet
  facet normal -0.81917 -0.573551 0
    outer loop
      vertex 4.05994 3.40674 7.2
      vertex 4.58984 2.6499 0
      vertex 4.58984 2.6499 7.2
    endloop
  endfacet
  facet normal 0.81917 -0.573551 0
    outer loop
      vertex -4.58984 2.6499 7.2
      vertex -4.05994 3.40674 0
      vertex -4.05994 3.40674 7.2
    endloop
  endfacet
  facet normal 0.81917 -0.573551 0
    outer loop
      vertex -4.05994 3.40674 0
      vertex -4.58984 2.6499 7.2
      vertex -4.58984 2.6499 0
    endloop
  endfacet
  facet normal 0.99619 -0.0872112 0
    outer loop
      vertex -5.29993 0 7.2
      vertex -5.21936 0.920288 0
      vertex -5.21936 0.920288 7.2
    endloop
  endfacet
  facet normal 0.99619 -0.0872112 0
    outer loop
      vertex -5.21936 0.920288 0
      vertex -5.29993 0 7.2
      vertex -5.29993 0 0
    endloop
  endfacet
  facet normal 0.99619 0.0872112 0
    outer loop
      vertex -5.21936 -0.920288 7.2
      vertex -5.29993 0 0
      vertex -5.29993 0 7.2
    endloop
  endfacet
  facet normal 0.99619 0.0872112 0
    outer loop
      vertex -5.29993 0 0
      vertex -5.21936 -0.920288 7.2
      vertex -5.21936 -0.920288 0
    endloop
  endfacet
  facet normal 0.965949 -0.258732 0
    outer loop
      vertex -5.21936 0.920288 7.2
      vertex -4.98035 1.81262 0
      vertex -4.98035 1.81262 7.2
    endloop
  endfacet
  facet normal 0.965949 -0.258732 0
    outer loop
      vertex -4.98035 1.81262 0
      vertex -5.21936 0.920288 7.2
      vertex -5.21936 0.920288 0
    endloop
  endfacet
  facet normal 0.906278 0.422683 0
    outer loop
      vertex -4.58984 -2.6499 7.2
      vertex -4.98035 -1.81262 0
      vertex -4.98035 -1.81262 7.2
    endloop
  endfacet
  facet normal 0.906278 0.422683 0
    outer loop
      vertex -4.98035 -1.81262 0
      vertex -4.58984 -2.6499 7.2
      vertex -4.58984 -2.6499 0
    endloop
  endfacet
  facet normal 0.707107 0.707107 0
    outer loop
      vertex -3.40674 -4.05994 7.2
      vertex -4.05994 -3.40674 0
      vertex -4.05994 -3.40674 7.2
    endloop
  endfacet
  facet normal 0.707107 0.707107 0
    outer loop
      vertex -4.05994 -3.40674 0
      vertex -3.40674 -4.05994 7.2
      vertex -3.40674 -4.05994 0
    endloop
  endfacet
  facet normal 0.422683 0.906278 -0
    outer loop
      vertex -1.81262 -4.98035 0
      vertex -2.6499 -4.58984 7.2
      vertex -1.81262 -4.98035 7.2
    endloop
  endfacet
  facet normal 0.422683 0.906278 0
    outer loop
      vertex -2.6499 -4.58984 7.2
      vertex -1.81262 -4.98035 0
      vertex -2.6499 -4.58984 0
    endloop
  endfacet
  facet normal 0.0872112 0.99619 -0
    outer loop
      vertex 0 -5.29993 0
      vertex -0.920288 -5.21936 7.2
      vertex 0 -5.29993 7.2
    endloop
  endfacet
  facet normal 0.0872112 0.99619 0
    outer loop
      vertex -0.920288 -5.21936 7.2
      vertex 0 -5.29993 0
      vertex -0.920288 -5.21936 0
    endloop
  endfacet
  facet normal -0.0872112 -0.99619 0
    outer loop
      vertex 0 5.29993 0
      vertex 0.920288 5.21936 7.2
      vertex 0 5.29993 7.2
    endloop
  endfacet
  facet normal -0.0872112 -0.99619 -0
    outer loop
      vertex 0.920288 5.21936 7.2
      vertex 0 5.29993 0
      vertex 0.920288 5.21936 0
    endloop
  endfacet
  facet normal -0.707107 -0.707107 0
    outer loop
      vertex 4.05994 3.40674 0
      vertex 3.40674 4.05994 7.2
      vertex 3.40674 4.05994 0
    endloop
  endfacet
  facet normal -0.707107 -0.707107 0
    outer loop
      vertex 3.40674 4.05994 7.2
      vertex 4.05994 3.40674 0
      vertex 4.05994 3.40674 7.2
    endloop
  endfacet
  facet normal -0.573551 -0.81917 0
    outer loop
      vertex 2.6499 4.58984 0
      vertex 3.40674 4.05994 7.2
      vertex 2.6499 4.58984 7.2
    endloop
  endfacet
  facet normal -0.573551 -0.81917 -0
    outer loop
      vertex 3.40674 4.05994 7.2
      vertex 2.6499 4.58984 0
      vertex 3.40674 4.05994 0
    endloop
  endfacet
  facet normal -0.258732 -0.965949 0
    outer loop
      vertex 0.920288 5.21936 0
      vertex 1.81262 4.98035 7.2
      vertex 0.920288 5.21936 7.2
    endloop
  endfacet
  facet normal -0.258732 -0.965949 -0
    outer loop
      vertex 1.81262 4.98035 7.2
      vertex 0.920288 5.21936 0
      vertex 1.81262 4.98035 0
    endloop
  endfacet
  facet normal 0.0872112 -0.99619 0
    outer loop
      vertex -0.920288 5.21936 0
      vertex 0 5.29993 7.2
      vertex -0.920288 5.21936 7.2
    endloop
  endfacet
  facet normal 0.0872112 -0.99619 0
    outer loop
      vertex 0 5.29993 7.2
      vertex -0.920288 5.21936 0
      vertex 0 5.29993 0
    endloop
  endfacet
  facet normal -0.965949 0.258732 0
    outer loop
      vertex 4.98035 -1.81262 0
      vertex 5.21936 -0.920288 7.2
      vertex 5.21936 -0.920288 0
    endloop
  endfacet
  facet normal -0.965949 0.258732 0
    outer loop
      vertex 5.21936 -0.920288 7.2
      vertex 4.98035 -1.81262 0
      vertex 4.98035 -1.81262 7.2
    endloop
  endfacet
  facet normal -0.99619 -0.0872112 0
    outer loop
      vertex 5.29993 0 0
      vertex 5.21936 0.920288 7.2
      vertex 5.21936 0.920288 0
    endloop
  endfacet
  facet normal -0.99619 -0.0872112 0
    outer loop
      vertex 5.21936 0.920288 7.2
      vertex 5.29993 0 0
      vertex 5.29993 0 7.2
    endloop
  endfacet
  facet normal -0.81917 0.573551 0
    outer loop
      vertex 4.05994 -3.40674 0
      vertex 4.58984 -2.6499 7.2
      vertex 4.58984 -2.6499 0
    endloop
  endfacet
  facet normal -0.81917 0.573551 0
    outer loop
      vertex 4.58984 -2.6499 7.2
      vertex 4.05994 -3.40674 0
      vertex 4.05994 -3.40674 7.2
    endloop
  endfacet
  facet normal -0.573551 0.81917 0
    outer loop
      vertex 3.40674 -4.05994 0
      vertex 2.6499 -4.58984 7.2
      vertex 3.40674 -4.05994 7.2
    endloop
  endfacet
  facet normal -0.573551 0.81917 0
    outer loop
      vertex 2.6499 -4.58984 7.2
      vertex 3.40674 -4.05994 0
      vertex 2.6499 -4.58984 0
    endloop
  endfacet
  facet normal 0.422683 -0.906278 0
    outer loop
      vertex -2.6499 4.58984 0
      vertex -1.81262 4.98035 7.2
      vertex -2.6499 4.58984 7.2
    endloop
  endfacet
  facet normal 0.422683 -0.906278 0
    outer loop
      vertex -1.81262 4.98035 7.2
      vertex -2.6499 4.58984 0
      vertex -1.81262 4.98035 0
    endloop
  endfacet
  facet normal 0.707107 -0.707107 0
    outer loop
      vertex -4.05994 3.40674 7.2
      vertex -3.40674 4.05994 0
      vertex -3.40674 4.05994 7.2
    endloop
  endfacet
  facet normal 0.707107 -0.707107 0
    outer loop
      vertex -3.40674 4.05994 0
      vertex -4.05994 3.40674 7.2
      vertex -4.05994 3.40674 0
    endloop
  endfacet
  facet normal 0.965949 0.258732 0
    outer loop
      vertex -4.98035 -1.81262 7.2
      vertex -5.21936 -0.920288 0
      vertex -5.21936 -0.920288 7.2
    endloop
  endfacet
  facet normal 0.965949 0.258732 0
    outer loop
      vertex -5.21936 -0.920288 0
      vertex -4.98035 -1.81262 7.2
      vertex -4.98035 -1.81262 0
    endloop
  endfacet
  facet normal 0.81917 0.573551 0
    outer loop
      vertex -4.05994 -3.40674 7.2
      vertex -4.58984 -2.6499 0
      vertex -4.58984 -2.6499 7.2
    endloop
  endfacet
  facet normal 0.81917 0.573551 0
    outer loop
      vertex -4.58984 -2.6499 0
      vertex -4.05994 -3.40674 7.2
      vertex -4.05994 -3.40674 0
    endloop
  endfacet
  facet normal 0.573551 0.81917 -0
    outer loop
      vertex -2.6499 -4.58984 0
      vertex -3.40674 -4.05994 7.2
      vertex -2.6499 -4.58984 7.2
    endloop
  endfacet
  facet normal 0.573551 0.81917 0
    outer loop
      vertex -3.40674 -4.05994 7.2
      vertex -2.6499 -4.58984 0
      vertex -3.40674 -4.05994 0
    endloop
  endfacet
  facet normal 0.258732 0.965949 -0
    outer loop
      vertex -0.920288 -5.21936 0
      vertex -1.81262 -4.98035 7.2
      vertex -0.920288 -5.21936 7.2
    endloop
  endfacet
  facet normal 0.258732 0.965949 0
    outer loop
      vertex -1.81262 -4.98035 7.2
      vertex -0.920288 -5.21936 0
      vertex -1.81262 -4.98035 0
    endloop
  endfacet
  facet normal -0.0872112 0.99619 0
    outer loop
      vertex 0.920288 -5.21936 0
      vertex 0 -5.29993 7.2
      vertex 0.920288 -5.21936 7.2
    endloop
  endfacet
  facet normal -0.0872112 0.99619 0
    outer loop
      vertex 0 -5.29993 7.2
      vertex 0.920288 -5.21936 0
      vertex 0 -5.29993 0
    endloop
  endfacet
  facet normal -0.906278 -0.422683 0
    outer loop
      vertex 4.98035 1.81262 0
      vertex 4.58984 2.6499 7.2
      vertex 4.58984 2.6499 0
    endloop
  endfacet
  facet normal -0.906278 -0.422683 0
    outer loop
      vertex 4.58984 2.6499 7.2
      vertex 4.98035 1.81262 0
      vertex 4.98035 1.81262 7.2
    endloop
  endfacet
  facet normal -0.99619 0.0872112 0
    outer loop
      vertex 5.21936 -0.920288 0
      vertex 5.29993 0 7.2
      vertex 5.29993 0 0
    endloop
  endfacet
  facet normal -0.99619 0.0872112 0
    outer loop
      vertex 5.29993 0 7.2
      vertex 5.21936 -0.920288 0
      vertex 5.21936 -0.920288 7.2
    endloop
  endfacet
  facet normal -0.906278 0.422683 0
    outer loop
      vertex 4.58984 -2.6499 0
      vertex 4.98035 -1.81262 7.2
      vertex 4.98035 -1.81262 0
    endloop
  endfacet
  facet normal -0.906278 0.422683 0
    outer loop
      vertex 4.98035 -1.81262 7.2
      vertex 4.58984 -2.6499 0
      vertex 4.58984 -2.6499 7.2
    endloop
  endfacet
  facet normal -0.707107 0.707107 0
    outer loop
      vertex 3.40674 -4.05994 0
      vertex 4.05994 -3.40674 7.2
      vertex 4.05994 -3.40674 0
    endloop
  endfacet
  facet normal -0.707107 0.707107 0
    outer loop
      vertex 4.05994 -3.40674 7.2
      vertex 3.40674 -4.05994 0
      vertex 3.40674 -4.05994 7.2
    endloop
  endfacet
  facet normal -0.422574 0.906328 0
    outer loop
      vertex 29.8024 -18.8846 0
      vertex 28.9651 -19.275 7.2
      vertex 29.8024 -18.8846 7.2
    endloop
  endfacet
  facet normal -0.422574 0.906328 0
    outer loop
      vertex 28.9651 -19.275 7.2
      vertex 29.8024 -18.8846 0
      vertex 28.9651 -19.275 0
    endloop
  endfacet
  facet normal -0.573613 0.819126 0
    outer loop
      vertex 30.5591 -18.3547 0
      vertex 29.8024 -18.8846 7.2
      vertex 30.5591 -18.3547 7.2
    endloop
  endfacet
  facet normal -0.573613 0.819126 0
    outer loop
      vertex 29.8024 -18.8846 7.2
      vertex 30.5591 -18.3547 0
      vertex 29.8024 -18.8846 0
    endloop
  endfacet
  facet normal 0.819126 0.573613 0
    outer loop
      vertex 23.0923 -17.7014 7.2
      vertex 22.5624 -16.9447 0
      vertex 22.5624 -16.9447 7.2
    endloop
  endfacet
  facet normal 0.819126 0.573613 0
    outer loop
      vertex 22.5624 -16.9447 0
      vertex 23.0923 -17.7014 7.2
      vertex 23.0923 -17.7014 0
    endloop
  endfacet
  facet normal -0.258822 0.965925 0
    outer loop
      vertex 28.9651 -19.275 0
      vertex 28.0726 -19.5142 7.2
      vertex 28.9651 -19.275 7.2
    endloop
  endfacet
  facet normal -0.258822 0.965925 0
    outer loop
      vertex 28.0726 -19.5142 7.2
      vertex 28.9651 -19.275 0
      vertex 28.0726 -19.5142 0
    endloop
  endfacet
  facet normal -0.906328 0.422574 0
    outer loop
      vertex 31.7423 -16.9447 0
      vertex 32.1327 -16.1074 7.2
      vertex 32.1327 -16.1074 0
    endloop
  endfacet
  facet normal -0.906328 0.422574 0
    outer loop
      vertex 32.1327 -16.1074 7.2
      vertex 31.7423 -16.9447 0
      vertex 31.7423 -16.9447 7.2
    endloop
  endfacet
  facet normal 0.965916 0.258855 0
    outer loop
      vertex 22.172 -16.1074 7.2
      vertex 21.9329 -15.2151 0
      vertex 21.9329 -15.2151 7.2
    endloop
  endfacet
  facet normal 0.965916 0.258855 0
    outer loop
      vertex 21.9329 -15.2151 0
      vertex 22.172 -16.1074 7.2
      vertex 22.172 -16.1074 0
    endloop
  endfacet
  facet normal 0.0870801 -0.996201 0
    outer loop
      vertex 26.2321 -9.0752 0
      vertex 27.1523 -8.99475 7.2
      vertex 26.2321 -9.0752 7.2
    endloop
  endfacet
  facet normal 0.0870801 -0.996201 0
    outer loop
      vertex 27.1523 -8.99475 7.2
      vertex 26.2321 -9.0752 0
      vertex 27.1523 -8.99475 0
    endloop
  endfacet
  facet normal 0.965916 -0.258855 0
    outer loop
      vertex 21.9329 -13.3744 7.2
      vertex 22.172 -12.4821 0
      vertex 22.172 -12.4821 7.2
    endloop
  endfacet
  facet normal 0.965916 -0.258855 0
    outer loop
      vertex 22.172 -12.4821 0
      vertex 21.9329 -13.3744 7.2
      vertex 21.9329 -13.3744 0
    endloop
  endfacet
  facet normal 0.906328 0.422574 0
    outer loop
      vertex 22.5624 -16.9447 7.2
      vertex 22.172 -16.1074 0
      vertex 22.172 -16.1074 7.2
    endloop
  endfacet
  facet normal 0.906328 0.422574 0
    outer loop
      vertex 22.172 -16.1074 0
      vertex 22.5624 -16.9447 7.2
      vertex 22.5624 -16.9447 0
    endloop
  endfacet
  facet normal 0.422574 -0.906328 0
    outer loop
      vertex 24.5023 -9.70471 0
      vertex 25.3396 -9.31433 7.2
      vertex 24.5023 -9.70471 7.2
    endloop
  endfacet
  facet normal 0.422574 -0.906328 0
    outer loop
      vertex 25.3396 -9.31433 7.2
      vertex 24.5023 -9.70471 0
      vertex 25.3396 -9.31433 0
    endloop
  endfacet
  facet normal -0.258822 -0.965925 0
    outer loop
      vertex 28.0726 -9.0752 0
      vertex 28.9651 -9.31433 7.2
      vertex 28.0726 -9.0752 7.2
    endloop
  endfacet
  facet normal -0.258822 -0.965925 -0
    outer loop
      vertex 28.9651 -9.31433 7.2
      vertex 28.0726 -9.0752 0
      vertex 28.9651 -9.31433 0
    endloop
  endfacet
  facet normal 0.258822 -0.965925 0
    outer loop
      vertex 25.3396 -9.31433 0
      vertex 26.2321 -9.0752 7.2
      vertex 25.3396 -9.31433 7.2
    endloop
  endfacet
  facet normal 0.258822 -0.965925 0
    outer loop
      vertex 26.2321 -9.0752 7.2
      vertex 25.3396 -9.31433 0
      vertex 26.2321 -9.0752 0
    endloop
  endfacet
  facet normal -0.0872112 0.99619 0
    outer loop
      vertex 28.0726 -19.5142 0
      vertex 27.1523 -19.5947 7.2
      vertex 28.0726 -19.5142 7.2
    endloop
  endfacet
  facet normal -0.0872112 0.99619 0
    outer loop
      vertex 27.1523 -19.5947 7.2
      vertex 28.0726 -19.5142 0
      vertex 27.1523 -19.5947 0
    endloop
  endfacet
  facet normal 0.0872112 0.99619 -0
    outer loop
      vertex 27.1523 -19.5947 0
      vertex 26.2321 -19.5142 7.2
      vertex 27.1523 -19.5947 7.2
    endloop
  endfacet
  facet normal 0.0872112 0.99619 0
    outer loop
      vertex 26.2321 -19.5142 7.2
      vertex 27.1523 -19.5947 0
      vertex 26.2321 -19.5142 0
    endloop
  endfacet
  facet normal -0.707107 0.707107 0
    outer loop
      vertex 30.5591 -18.3547 0
      vertex 31.2124 -17.7014 7.2
      vertex 31.2124 -17.7014 0
    endloop
  endfacet
  facet normal -0.707107 0.707107 0
    outer loop
      vertex 31.2124 -17.7014 7.2
      vertex 30.5591 -18.3547 0
      vertex 30.5591 -18.3547 7.2
    endloop
  endfacet
  facet normal 0.573551 0.81917 -0
    outer loop
      vertex 24.5023 -18.8846 0
      vertex 23.7455 -18.3547 7.2
      vertex 24.5023 -18.8846 7.2
    endloop
  endfacet
  facet normal 0.573551 0.81917 0
    outer loop
      vertex 23.7455 -18.3547 7.2
      vertex 24.5023 -18.8846 0
      vertex 23.7455 -18.3547 0
    endloop
  endfacet
  facet normal 0.422574 0.906328 -0
    outer loop
      vertex 25.3396 -19.275 0
      vertex 24.5023 -18.8846 7.2
      vertex 25.3396 -19.275 7.2
    endloop
  endfacet
  facet normal 0.422574 0.906328 0
    outer loop
      vertex 24.5023 -18.8846 7.2
      vertex 25.3396 -19.275 0
      vertex 24.5023 -18.8846 0
    endloop
  endfacet
  facet normal 0.81917 -0.573551 0
    outer loop
      vertex 22.5624 -11.6448 7.2
      vertex 23.0923 -10.8879 0
      vertex 23.0923 -10.8879 7.2
    endloop
  endfacet
  facet normal 0.81917 -0.573551 0
    outer loop
      vertex 23.0923 -10.8879 0
      vertex 22.5624 -11.6448 7.2
      vertex 22.5624 -11.6448 0
    endloop
  endfacet
  facet normal 0.707173 -0.707041 0
    outer loop
      vertex 23.0923 -10.8879 7.2
      vertex 23.7455 -10.2346 0
      vertex 23.7455 -10.2346 7.2
    endloop
  endfacet
  facet normal 0.707173 -0.707041 0
    outer loop
      vertex 23.7455 -10.2346 0
      vertex 23.0923 -10.8879 7.2
      vertex 23.0923 -10.8879 0
    endloop
  endfacet
  facet normal 0.573551 -0.81917 0
    outer loop
      vertex 23.7455 -10.2346 0
      vertex 24.5023 -9.70471 7.2
      vertex 23.7455 -10.2346 7.2
    endloop
  endfacet
  facet normal 0.573551 -0.81917 0
    outer loop
      vertex 24.5023 -9.70471 7.2
      vertex 23.7455 -10.2346 0
      vertex 24.5023 -9.70471 0
    endloop
  endfacet
  facet normal 0.99619 0.0872112 0
    outer loop
      vertex 21.9329 -15.2151 7.2
      vertex 21.8523 -14.2948 0
      vertex 21.8523 -14.2948 7.2
    endloop
  endfacet
  facet normal 0.99619 0.0872112 0
    outer loop
      vertex 21.8523 -14.2948 0
      vertex 21.9329 -15.2151 7.2
      vertex 21.9329 -15.2151 0
    endloop
  endfacet
  facet normal 0.996191 -0.0871997 0
    outer loop
      vertex 21.8523 -14.2948 7.2
      vertex 21.9329 -13.3744 0
      vertex 21.9329 -13.3744 7.2
    endloop
  endfacet
  facet normal 0.996191 -0.0871997 0
    outer loop
      vertex 21.9329 -13.3744 0
      vertex 21.8523 -14.2948 7.2
      vertex 21.8523 -14.2948 0
    endloop
  endfacet
  facet normal -0.422574 -0.906328 0
    outer loop
      vertex 28.9651 -9.31433 0
      vertex 29.8024 -9.70471 7.2
      vertex 28.9651 -9.31433 7.2
    endloop
  endfacet
  facet normal -0.422574 -0.906328 -0
    outer loop
      vertex 29.8024 -9.70471 7.2
      vertex 28.9651 -9.31433 0
      vertex 29.8024 -9.70471 0
    endloop
  endfacet
  facet normal -0.0870801 -0.996201 0
    outer loop
      vertex 27.1523 -8.99475 0
      vertex 28.0726 -9.0752 7.2
      vertex 27.1523 -8.99475 7.2
    endloop
  endfacet
  facet normal -0.0870801 -0.996201 -0
    outer loop
      vertex 28.0726 -9.0752 7.2
      vertex 27.1523 -8.99475 0
      vertex 28.0726 -9.0752 0
    endloop
  endfacet
  facet normal -0.965916 0.258855 0
    outer loop
      vertex 32.1327 -16.1074 0
      vertex 32.3718 -15.2151 7.2
      vertex 32.3718 -15.2151 0
    endloop
  endfacet
  facet normal -0.965916 0.258855 0
    outer loop
      vertex 32.3718 -15.2151 7.2
      vertex 32.1327 -16.1074 0
      vertex 32.1327 -16.1074 7.2
    endloop
  endfacet
  facet normal 0.707173 0.707041 0
    outer loop
      vertex 23.7455 -18.3547 7.2
      vertex 23.0923 -17.7014 0
      vertex 23.0923 -17.7014 7.2
    endloop
  endfacet
  facet normal 0.707173 0.707041 0
    outer loop
      vertex 23.0923 -17.7014 0
      vertex 23.7455 -18.3547 7.2
      vertex 23.7455 -18.3547 0
    endloop
  endfacet
  facet normal 0.258822 0.965925 -0
    outer loop
      vertex 26.2321 -19.5142 0
      vertex 25.3396 -19.275 7.2
      vertex 26.2321 -19.5142 7.2
    endloop
  endfacet
  facet normal 0.258822 0.965925 0
    outer loop
      vertex 25.3396 -19.275 7.2
      vertex 26.2321 -19.5142 0
      vertex 25.3396 -19.275 0
    endloop
  endfacet
  facet normal 0.906328 -0.422574 0
    outer loop
      vertex 22.172 -12.4821 7.2
      vertex 22.5624 -11.6448 0
      vertex 22.5624 -11.6448 7.2
    endloop
  endfacet
  facet normal 0.906328 -0.422574 0
    outer loop
      vertex 22.5624 -11.6448 0
      vertex 22.172 -12.4821 7.2
      vertex 22.172 -12.4821 0
    endloop
  endfacet
  facet normal -0.81917 -0.573551 0
    outer loop
      vertex 31.7423 -11.6448 0
      vertex 31.2124 -10.8879 7.2
      vertex 31.2124 -10.8879 0
    endloop
  endfacet
  facet normal -0.81917 -0.573551 0
    outer loop
      vertex 31.2124 -10.8879 7.2
      vertex 31.7423 -11.6448 0
      vertex 31.7423 -11.6448 7.2
    endloop
  endfacet
  facet normal -0.707107 -0.707107 0
    outer loop
      vertex 31.2124 -10.8879 0
      vertex 30.5591 -10.2346 7.2
      vertex 30.5591 -10.2346 0
    endloop
  endfacet
  facet normal -0.707107 -0.707107 0
    outer loop
      vertex 30.5591 -10.2346 7.2
      vertex 31.2124 -10.8879 0
      vertex 31.2124 -10.8879 7.2
    endloop
  endfacet
  facet normal -0.996191 -0.0871997 0
    outer loop
      vertex 32.4524 -14.2948 0
      vertex 32.3718 -13.3744 7.2
      vertex 32.3718 -13.3744 0
    endloop
  endfacet
  facet normal -0.996191 -0.0871997 0
    outer loop
      vertex 32.3718 -13.3744 7.2
      vertex 32.4524 -14.2948 0
      vertex 32.4524 -14.2948 7.2
    endloop
  endfacet
  facet normal -0.99619 0.0872112 0
    outer loop
      vertex 32.3718 -15.2151 0
      vertex 32.4524 -14.2948 7.2
      vertex 32.4524 -14.2948 0
    endloop
  endfacet
  facet normal -0.99619 0.0872112 0
    outer loop
      vertex 32.4524 -14.2948 7.2
      vertex 32.3718 -15.2151 0
      vertex 32.3718 -15.2151 7.2
    endloop
  endfacet
  facet normal -0.819126 0.573613 0
    outer loop
      vertex 31.2124 -17.7014 0
      vertex 31.7423 -16.9447 7.2
      vertex 31.7423 -16.9447 0
    endloop
  endfacet
  facet normal -0.819126 0.573613 0
    outer loop
      vertex 31.7423 -16.9447 7.2
      vertex 31.2124 -17.7014 0
      vertex 31.2124 -17.7014 7.2
    endloop
  endfacet
  facet normal -0.906328 -0.422574 0
    outer loop
      vertex 32.1327 -12.4821 0
      vertex 31.7423 -11.6448 7.2
      vertex 31.7423 -11.6448 0
    endloop
  endfacet
  facet normal -0.906328 -0.422574 0
    outer loop
      vertex 31.7423 -11.6448 7.2
      vertex 32.1327 -12.4821 0
      vertex 32.1327 -12.4821 7.2
    endloop
  endfacet
  facet normal -0.965916 -0.258855 0
    outer loop
      vertex 32.3718 -13.3744 0
      vertex 32.1327 -12.4821 7.2
      vertex 32.1327 -12.4821 0
    endloop
  endfacet
  facet normal -0.965916 -0.258855 0
    outer loop
      vertex 32.1327 -12.4821 7.2
      vertex 32.3718 -13.3744 0
      vertex 32.3718 -13.3744 7.2
    endloop
  endfacet
  facet normal -0.573613 -0.819126 0
    outer loop
      vertex 29.8024 -9.70471 0
      vertex 30.5591 -10.2346 7.2
      vertex 29.8024 -9.70471 7.2
    endloop
  endfacet
  facet normal -0.573613 -0.819126 -0
    outer loop
      vertex 30.5591 -10.2346 7.2
      vertex 29.8024 -9.70471 0
      vertex 30.5591 -10.2346 0
    endloop
  endfacet
endsolid OpenSCAD_Model
