solid OpenSCAD_Model
  facet normal 0.354559 -0.935034 0
    outer loop
      vertex 3.39584 -12.0299 0
      vertex 5.4332 -11.2573 9
      vertex 3.39584 -12.0299 9
    endloop
  endfacet
  facet normal 0.354559 -0.935034 0
    outer loop
      vertex 5.4332 -11.2573 9
      vertex 3.39584 -12.0299 0
      vertex 5.4332 -11.2573 0
    endloop
  endfacet
  facet normal 0.013376 -0.999911 0
    outer loop
      vertex -0.923309 -12.4658 0
      vertex 1.25534 -12.4367 9
      vertex -0.923309 -12.4658 9
    endloop
  endfacet
  facet normal 0.013376 -0.999911 0
    outer loop
      vertex 1.25534 -12.4367 9
      vertex -0.923309 -12.4658 0
      vertex 1.25534 -12.4367 0
    endloop
  endfacet
  facet normal -0.186774 0.982403 0
    outer loop
      vertex 54.9907 52.9489 0
      vertex 52.8502 52.542 9
      vertex 54.9907 52.9489 9
    endloop
  endfacet
  facet normal -0.186774 0.982403 0
    outer loop
      vertex 52.8502 52.542 9
      vertex 54.9907 52.9489 0
      vertex 52.8502 52.542 0
    endloop
  endfacet
  facet normal 0.186707 -0.982416 0
    outer loop
      vertex 1.25534 -12.4367 0
      vertex 3.39584 -12.0299 9
      vertex 1.25534 -12.4367 9
    endloop
  endfacet
  facet normal 0.186707 -0.982416 0
    outer loop
      vertex 3.39584 -12.0299 9
      vertex 1.25534 -12.4367 0
      vertex 3.39584 -12.0299 0
    endloop
  endfacet
  facet normal -0.774544 0.632521 0
    outer loop
      vertex -10.334 7.03247 0
      vertex -8.95584 8.72009 9
      vertex -8.95584 8.72009 0
    endloop
  endfacet
  facet normal -0.774544 0.632521 0
    outer loop
      vertex -8.95584 8.72009 9
      vertex -10.334 7.03247 0
      vertex -10.334 7.03247 9
    endloop
  endfacet
  facet normal -0.511506 0.85928 0
    outer loop
      vertex 50.8128 51.7696 0
      vertex 48.9406 50.6551 9
      vertex 50.8128 51.7696 9
    endloop
  endfacet
  facet normal -0.511506 0.85928 0
    outer loop
      vertex 48.9406 50.6551 9
      vertex 50.8128 51.7696 0
      vertex 48.9406 50.6551 0
    endloop
  endfacet
  facet normal -0.354498 0.935057 0
    outer loop
      vertex 52.8502 52.542 0
      vertex 50.8128 51.7696 9
      vertex 52.8502 52.542 9
    endloop
  endfacet
  facet normal -0.354498 0.935057 0
    outer loop
      vertex 50.8128 51.7696 9
      vertex 52.8502 52.542 0
      vertex 50.8128 51.7696 0
    endloop
  endfacet
  facet normal -0.584448 0.811431 0
    outer loop
      vertex 48.9406 50.6551 0
      vertex -7.30545 10.1428 9
      vertex 48.9406 50.6551 9
    endloop
  endfacet
  facet normal -0.584448 0.811431 0
    outer loop
      vertex -7.30545 10.1428 9
      vertex 48.9406 50.6551 0
      vertex -7.30545 10.1428 0
    endloop
  endfacet
  facet normal 0.85928 0.511506 0
    outer loop
      vertex 67.5035 45.9454 9
      vertex 66.389 47.8177 0
      vertex 66.389 47.8177 9
    endloop
  endfacet
  facet normal 0.85928 0.511506 0
    outer loop
      vertex 66.389 47.8177 0
      vertex 67.5035 45.9454 9
      vertex 67.5035 45.9454 0
    endloop
  endfacet
  facet normal 0.652969 -0.757385 0
    outer loop
      vertex 63.5518 30.3693 0
      vertex 65.202 31.792 9
      vertex 63.5518 30.3693 9
    endloop
  endfacet
  facet normal 0.652969 -0.757385 0
    outer loop
      vertex 65.202 31.792 9
      vertex 63.5518 30.3693 0
      vertex 65.202 31.792 0
    endloop
  endfacet
  facet normal 0.511506 -0.85928 0
    outer loop
      vertex 5.4332 -11.2573 0
      vertex 7.30545 -10.1428 9
      vertex 5.4332 -11.2573 9
    endloop
  endfacet
  facet normal 0.511506 -0.85928 0
    outer loop
      vertex 7.30545 -10.1428 9
      vertex 5.4332 -11.2573 0
      vertex 7.30545 -10.1428 0
    endloop
  endfacet
  facet normal -0.652934 0.757415 0
    outer loop
      vertex -7.30545 10.1428 0
      vertex -8.95584 8.72009 9
      vertex -7.30545 10.1428 9
    endloop
  endfacet
  facet normal -0.652934 0.757415 0
    outer loop
      vertex -8.95584 8.72009 9
      vertex -7.30545 10.1428 0
      vertex -8.95584 8.72009 0
    endloop
  endfacet
  facet normal -0.987034 0.160514 0
    outer loop
      vertex -12.4658 0.923309 0
      vertex -12.1161 3.07388 9
      vertex -12.1161 3.07388 0
    endloop
  endfacet
  facet normal -0.987034 0.160514 0
    outer loop
      vertex -12.1161 3.07388 9
      vertex -12.4658 0.923309 0
      vertex -12.4658 0.923309 9
    endloop
  endfacet
  facet normal 0.488382 0.87263 -0
    outer loop
      vertex 63.2787 50.8463 0
      vertex 61.3773 51.9104 9
      vertex 63.2787 50.8463 9
    endloop
  endfacet
  facet normal 0.488382 0.87263 0
    outer loop
      vertex 61.3773 51.9104 9
      vertex 63.2787 50.8463 0
      vertex 61.3773 51.9104 0
    endloop
  endfacet
  facet normal 0.987046 -0.160434 0
    outer loop
      vertex 68.3623 37.438 9
      vertex 68.7119 39.5888 0
      vertex 68.7119 39.5888 9
    endloop
  endfacet
  facet normal 0.987046 -0.160434 0
    outer loop
      vertex 68.7119 39.5888 0
      vertex 68.3623 37.438 9
      vertex 68.3623 37.438 0
    endloop
  endfacet
  facet normal 0.982416 0.186707 0
    outer loop
      vertex 68.6829 41.7676 9
      vertex 68.2761 43.9081 0
      vertex 68.2761 43.9081 9
    endloop
  endfacet
  facet normal 0.982416 0.186707 0
    outer loop
      vertex 68.2761 43.9081 0
      vertex 68.6829 41.7676 9
      vertex 68.6829 41.7676 0
    endloop
  endfacet
  facet normal 0.632521 0.774544 -0
    outer loop
      vertex 64.9663 49.4681 0
      vertex 63.2787 50.8463 9
      vertex 64.9663 49.4681 9
    endloop
  endfacet
  facet normal 0.632521 0.774544 0
    outer loop
      vertex 63.2787 50.8463 9
      vertex 64.9663 49.4681 0
      vertex 63.2787 50.8463 0
    endloop
  endfacet
  facet normal 0.774544 -0.632521 0
    outer loop
      vertex 65.202 31.792 9
      vertex 66.5802 33.4796 0
      vertex 66.5802 33.4796 9
    endloop
  endfacet
  facet normal 0.774544 -0.632521 0
    outer loop
      vertex 66.5802 33.4796 0
      vertex 65.202 31.792 9
      vertex 65.202 31.792 0
    endloop
  endfacet
  facet normal 0.584445 -0.811434 0
    outer loop
      vertex 7.30545 -10.1428 0
      vertex 63.5518 30.3693 9
      vertex 7.30545 -10.1428 9
    endloop
  endfacet
  facet normal 0.584445 -0.811434 0
    outer loop
      vertex 63.5518 30.3693 9
      vertex 7.30545 -10.1428 0
      vertex 63.5518 30.3693 0
    endloop
  endfacet
  facet normal -0.944157 0.329496 0
    outer loop
      vertex -12.1161 3.07388 0
      vertex -11.3982 5.13107 9
      vertex -11.3982 5.13107 0
    endloop
  endfacet
  facet normal -0.944157 0.329496 0
    outer loop
      vertex -11.3982 5.13107 9
      vertex -12.1161 3.07388 0
      vertex -12.1161 3.07388 9
    endloop
  endfacet
  facet normal -0.87263 0.488382 0
    outer loop
      vertex -11.3982 5.13107 0
      vertex -10.334 7.03247 9
      vertex -10.334 7.03247 0
    endloop
  endfacet
  facet normal -0.87263 0.488382 0
    outer loop
      vertex -10.334 7.03247 9
      vertex -11.3982 5.13107 0
      vertex -11.3982 5.13107 9
    endloop
  endfacet
  facet normal -0 0 1
    outer loop
      vertex 6.5242 -1.15036 9
      vertex 7.30545 -10.1428 9
      vertex 6.62491 0 9
    endloop
  endfacet
  facet normal -0 0 1
    outer loop
      vertex 6.22543 -2.26578 9
      vertex 7.30545 -10.1428 9
      vertex 6.5242 -1.15036 9
    endloop
  endfacet
  facet normal -0 0 1
    outer loop
      vertex 5.7373 -3.31238 9
      vertex 7.30545 -10.1428 9
      vertex 6.22543 -2.26578 9
    endloop
  endfacet
  facet normal -0 0 1
    outer loop
      vertex 5.07492 -4.25842 9
      vertex 7.30545 -10.1428 9
      vertex 5.7373 -3.31238 9
    endloop
  endfacet
  facet normal -0 0 1
    outer loop
      vertex 4.25842 -5.07492 9
      vertex 7.30545 -10.1428 9
      vertex 5.07492 -4.25842 9
    endloop
  endfacet
  facet normal -0 0 1
    outer loop
      vertex 3.31238 -5.7373 9
      vertex 7.30545 -10.1428 9
      vertex 4.25842 -5.07492 9
    endloop
  endfacet
  facet normal 0 0 1
    outer loop
      vertex 7.30545 -10.1428 9
      vertex 3.31238 -5.7373 9
      vertex 5.4332 -11.2573 9
    endloop
  endfacet
  facet normal -0 0 1
    outer loop
      vertex 2.26578 -6.22543 9
      vertex 5.4332 -11.2573 9
      vertex 3.31238 -5.7373 9
    endloop
  endfacet
  facet normal 0 0 1
    outer loop
      vertex 5.4332 -11.2573 9
      vertex 2.26578 -6.22543 9
      vertex 3.39584 -12.0299 9
    endloop
  endfacet
  facet normal -0 0 1
    outer loop
      vertex 1.15036 -6.5242 9
      vertex 3.39584 -12.0299 9
      vertex 2.26578 -6.22543 9
    endloop
  endfacet
  facet normal 0 0 1
    outer loop
      vertex 3.39584 -12.0299 9
      vertex 1.15036 -6.5242 9
      vertex 1.25534 -12.4367 9
    endloop
  endfacet
  facet normal -0 0 1
    outer loop
      vertex 0 -6.62491 9
      vertex 1.25534 -12.4367 9
      vertex 1.15036 -6.5242 9
    endloop
  endfacet
  facet normal 0 0 1
    outer loop
      vertex 0 -6.62491 9
      vertex -0.923309 -12.4658 9
      vertex 1.25534 -12.4367 9
    endloop
  endfacet
  facet normal 0 0 1
    outer loop
      vertex -1.15036 -6.5242 9
      vertex -0.923309 -12.4658 9
      vertex 0 -6.62491 9
    endloop
  endfacet
  facet normal 0 0 1
    outer loop
      vertex -3.07388 -12.1161 9
      vertex -1.15036 -6.5242 9
      vertex -2.26578 -6.22543 9
    endloop
  endfacet
  facet normal 0 0 1
    outer loop
      vertex -1.15036 -6.5242 9
      vertex -3.07388 -12.1161 9
      vertex -0.923309 -12.4658 9
    endloop
  endfacet
  facet normal 0 0 1
    outer loop
      vertex -5.13107 -11.3982 9
      vertex -2.26578 -6.22543 9
      vertex -3.31238 -5.7373 9
    endloop
  endfacet
  facet normal 0 0 1
    outer loop
      vertex -7.03247 -10.334 9
      vertex -3.31238 -5.7373 9
      vertex -4.25842 -5.07492 9
    endloop
  endfacet
  facet normal 0 0 1
    outer loop
      vertex -8.72009 -8.95584 9
      vertex -4.25842 -5.07492 9
      vertex -5.07492 -4.25842 9
    endloop
  endfacet
  facet normal 0 0 1
    outer loop
      vertex -2.26578 -6.22543 9
      vertex -5.13107 -11.3982 9
      vertex -3.07388 -12.1161 9
    endloop
  endfacet
  facet normal 0 0 1
    outer loop
      vertex -10.1428 -7.30545 9
      vertex -5.07492 -4.25842 9
      vertex -5.7373 -3.31238 9
    endloop
  endfacet
  facet normal 0 0 1
    outer loop
      vertex -11.2573 -5.4332 9
      vertex -5.7373 -3.31238 9
      vertex -6.22543 -2.26578 9
    endloop
  endfacet
  facet normal 0 0 1
    outer loop
      vertex -12.0299 -3.39584 9
      vertex -6.22543 -2.26578 9
      vertex -6.5242 -1.15036 9
    endloop
  endfacet
  facet normal 0 0 1
    outer loop
      vertex -3.31238 -5.7373 9
      vertex -7.03247 -10.334 9
      vertex -5.13107 -11.3982 9
    endloop
  endfacet
  facet normal 0 0 1
    outer loop
      vertex -12.4367 -1.25534 9
      vertex -6.5242 -1.15036 9
      vertex -6.62491 0 9
    endloop
  endfacet
  facet normal 0 0 1
    outer loop
      vertex 68.6829 41.7676 9
      vertex 62.7704 41.6626 9
      vertex 62.8711 40.5121 9
    endloop
  endfacet
  facet normal 0 0 1
    outer loop
      vertex 64.9663 49.4681 9
      vertex 62.4716 42.778 9
      vertex 62.7704 41.6626 9
    endloop
  endfacet
  facet normal 0 0 1
    outer loop
      vertex 64.9663 49.4681 9
      vertex 61.9835 43.8246 9
      vertex 62.4716 42.778 9
    endloop
  endfacet
  facet normal 0 0 1
    outer loop
      vertex 59.5586 46.2495 9
      vertex 63.2787 50.8463 9
      vertex 61.3773 51.9104 9
    endloop
  endfacet
  facet normal 0 0 1
    outer loop
      vertex 64.9663 49.4681 9
      vertex 61.3211 44.7707 9
      vertex 61.9835 43.8246 9
    endloop
  endfacet
  facet normal 0 0 1
    outer loop
      vertex 64.9663 49.4681 9
      vertex 60.5046 45.5872 9
      vertex 61.3211 44.7707 9
    endloop
  endfacet
  facet normal 0 0 1
    outer loop
      vertex 63.2787 50.8463 9
      vertex 59.5586 46.2495 9
      vertex 60.5046 45.5872 9
    endloop
  endfacet
  facet normal 0 0 1
    outer loop
      vertex 58.512 46.7377 9
      vertex 61.3773 51.9104 9
      vertex 59.3201 52.6282 9
    endloop
  endfacet
  facet normal 0 0 1
    outer loop
      vertex 61.3773 51.9104 9
      vertex 58.512 46.7377 9
      vertex 59.5586 46.2495 9
    endloop
  endfacet
  facet normal 0 0 1
    outer loop
      vertex 59.3201 52.6282 9
      vertex 57.3965 47.0366 9
      vertex 58.512 46.7377 9
    endloop
  endfacet
  facet normal 0 0 1
    outer loop
      vertex 57.1695 52.9781 9
      vertex 57.3965 47.0366 9
      vertex 59.3201 52.6282 9
    endloop
  endfacet
  facet normal 0 0 1
    outer loop
      vertex 57.1695 52.9781 9
      vertex 56.2462 47.1371 9
      vertex 57.3965 47.0366 9
    endloop
  endfacet
  facet normal -0 0 1
    outer loop
      vertex 54.9907 52.9489 9
      vertex 56.2462 47.1371 9
      vertex 57.1695 52.9781 9
    endloop
  endfacet
  facet normal 0 0 1
    outer loop
      vertex 56.2462 47.1371 9
      vertex 54.9907 52.9489 9
      vertex 55.0957 47.0366 9
    endloop
  endfacet
  facet normal -0 0 1
    outer loop
      vertex 52.8502 52.542 9
      vertex 55.0957 47.0366 9
      vertex 54.9907 52.9489 9
    endloop
  endfacet
  facet normal 0 0 1
    outer loop
      vertex 55.0957 47.0366 9
      vertex 52.8502 52.542 9
      vertex 53.9803 46.7377 9
    endloop
  endfacet
  facet normal -0 0 1
    outer loop
      vertex 50.8128 51.7696 9
      vertex 53.9803 46.7377 9
      vertex 52.8502 52.542 9
    endloop
  endfacet
  facet normal 0 0 1
    outer loop
      vertex 53.9803 46.7377 9
      vertex 50.8128 51.7696 9
      vertex 52.9337 46.2495 9
    endloop
  endfacet
  facet normal -0 0 1
    outer loop
      vertex 48.9406 50.6551 9
      vertex 52.9337 46.2495 9
      vertex 50.8128 51.7696 9
    endloop
  endfacet
  facet normal 0 0 1
    outer loop
      vertex 52.9337 46.2495 9
      vertex 48.9406 50.6551 9
      vertex 51.9876 45.5872 9
    endloop
  endfacet
  facet normal 0 0 1
    outer loop
      vertex 51.9876 45.5872 9
      vertex 48.9406 50.6551 9
      vertex 51.171 44.7707 9
    endloop
  endfacet
  facet normal 0 0 1
    outer loop
      vertex 51.171 44.7707 9
      vertex 48.9406 50.6551 9
      vertex 50.5087 43.8246 9
    endloop
  endfacet
  facet normal 0 0 1
    outer loop
      vertex 50.5087 43.8246 9
      vertex 48.9406 50.6551 9
      vertex 50.0206 42.778 9
    endloop
  endfacet
  facet normal 0 0 1
    outer loop
      vertex 49.7217 41.6626 9
      vertex 48.9406 50.6551 9
      vertex 49.6211 40.5121 9
    endloop
  endfacet
  facet normal 0 0 1
    outer loop
      vertex 50.0206 42.778 9
      vertex 48.9406 50.6551 9
      vertex 49.7217 41.6626 9
    endloop
  endfacet
  facet normal -0 0 1
    outer loop
      vertex 62.8711 40.5121 9
      vertex 68.7119 39.5888 9
      vertex 68.6829 41.7676 9
    endloop
  endfacet
  facet normal 0 0 1
    outer loop
      vertex 62.7704 41.6626 9
      vertex 68.6829 41.7676 9
      vertex 68.2761 43.9081 9
    endloop
  endfacet
  facet normal 0 0 1
    outer loop
      vertex 62.7704 39.3617 9
      vertex 68.7119 39.5888 9
      vertex 62.8711 40.5121 9
    endloop
  endfacet
  facet normal 0 0 1
    outer loop
      vertex 62.7704 41.6626 9
      vertex 68.2761 43.9081 9
      vertex 67.5035 45.9454 9
    endloop
  endfacet
  facet normal 0 0 1
    outer loop
      vertex 68.7119 39.5888 9
      vertex 62.7704 39.3617 9
      vertex 68.3623 37.438 9
    endloop
  endfacet
  facet normal 0 0 1
    outer loop
      vertex 62.7704 41.6626 9
      vertex 67.5035 45.9454 9
      vertex 66.389 47.8177 9
    endloop
  endfacet
  facet normal -0 0 1
    outer loop
      vertex 62.4716 38.2462 9
      vertex 68.3623 37.438 9
      vertex 62.7704 39.3617 9
    endloop
  endfacet
  facet normal 0 0 1
    outer loop
      vertex 62.7704 41.6626 9
      vertex 66.389 47.8177 9
      vertex 64.9663 49.4681 9
    endloop
  endfacet
  facet normal 0 0 1
    outer loop
      vertex 68.3623 37.438 9
      vertex 62.4716 38.2462 9
      vertex 67.6443 35.3809 9
    endloop
  endfacet
  facet normal 0 0 1
    outer loop
      vertex 60.5046 45.5872 9
      vertex 64.9663 49.4681 9
      vertex 63.2787 50.8463 9
    endloop
  endfacet
  facet normal -0 0 1
    outer loop
      vertex 61.9835 37.1996 9
      vertex 67.6443 35.3809 9
      vertex 62.4716 38.2462 9
    endloop
  endfacet
  facet normal 0 0 1
    outer loop
      vertex 67.6443 35.3809 9
      vertex 61.9835 37.1996 9
      vertex 66.5802 33.4796 9
    endloop
  endfacet
  facet normal -0 0 1
    outer loop
      vertex 61.3211 36.2537 9
      vertex 66.5802 33.4796 9
      vertex 61.9835 37.1996 9
    endloop
  endfacet
  facet normal 0 0 1
    outer loop
      vertex 66.5802 33.4796 9
      vertex 61.3211 36.2537 9
      vertex 65.202 31.792 9
    endloop
  endfacet
  facet normal -0 0 1
    outer loop
      vertex 60.5046 35.4372 9
      vertex 65.202 31.792 9
      vertex 61.3211 36.2537 9
    endloop
  endfacet
  facet normal 0 0 1
    outer loop
      vertex 65.202 31.792 9
      vertex 60.5046 35.4372 9
      vertex 63.5518 30.3693 9
    endloop
  endfacet
  facet normal -0 0 1
    outer loop
      vertex 59.5586 34.7748 9
      vertex 63.5518 30.3693 9
      vertex 60.5046 35.4372 9
    endloop
  endfacet
  facet normal -0 0 1
    outer loop
      vertex 58.512 34.2867 9
      vertex 63.5518 30.3693 9
      vertex 59.5586 34.7748 9
    endloop
  endfacet
  facet normal -0 0 1
    outer loop
      vertex 57.3965 33.9879 9
      vertex 63.5518 30.3693 9
      vertex 58.512 34.2867 9
    endloop
  endfacet
  facet normal -0 0 1
    outer loop
      vertex 56.2462 33.8872 9
      vertex 63.5518 30.3693 9
      vertex 57.3965 33.9879 9
    endloop
  endfacet
  facet normal 0 0 1
    outer loop
      vertex 55.0957 33.9879 9
      vertex 63.5518 30.3693 9
      vertex 56.2462 33.8872 9
    endloop
  endfacet
  facet normal 0 0 1
    outer loop
      vertex 53.9803 34.2867 9
      vertex 63.5518 30.3693 9
      vertex 55.0957 33.9879 9
    endloop
  endfacet
  facet normal 0 0 1
    outer loop
      vertex 53.9803 34.2867 9
      vertex 7.30545 -10.1428 9
      vertex 63.5518 30.3693 9
    endloop
  endfacet
  facet normal 0 0 1
    outer loop
      vertex 6.5242 1.15036 9
      vertex 53.9803 34.2867 9
      vertex 52.9337 34.7748 9
    endloop
  endfacet
  facet normal 0 0 1
    outer loop
      vertex 6.22543 2.26578 9
      vertex 52.9337 34.7748 9
      vertex 51.9876 35.4372 9
    endloop
  endfacet
  facet normal 0 0 1
    outer loop
      vertex 5.7373 3.31238 9
      vertex 51.9876 35.4372 9
      vertex 51.171 36.2537 9
    endloop
  endfacet
  facet normal 0 0 1
    outer loop
      vertex 5.07492 4.25842 9
      vertex 51.171 36.2537 9
      vertex 50.5087 37.1996 9
    endloop
  endfacet
  facet normal 0 0 1
    outer loop
      vertex 4.25842 5.07492 9
      vertex 50.5087 37.1996 9
      vertex 50.0206 38.2462 9
    endloop
  endfacet
  facet normal 0 0 1
    outer loop
      vertex 3.31238 5.7373 9
      vertex 50.0206 38.2462 9
      vertex 49.7217 39.3617 9
    endloop
  endfacet
  facet normal 0 0 1
    outer loop
      vertex 2.26578 6.22543 9
      vertex 49.7217 39.3617 9
      vertex 49.6211 40.5121 9
    endloop
  endfacet
  facet normal 0 0 1
    outer loop
      vertex 2.26578 6.22543 9
      vertex 49.6211 40.5121 9
      vertex 48.9406 50.6551 9
    endloop
  endfacet
  facet normal 0 0 1
    outer loop
      vertex 53.9803 34.2867 9
      vertex 6.62491 0 9
      vertex 7.30545 -10.1428 9
    endloop
  endfacet
  facet normal 0 0 1
    outer loop
      vertex 53.9803 34.2867 9
      vertex 6.5242 1.15036 9
      vertex 6.62491 0 9
    endloop
  endfacet
  facet normal 0 0 1
    outer loop
      vertex 52.9337 34.7748 9
      vertex 6.22543 2.26578 9
      vertex 6.5242 1.15036 9
    endloop
  endfacet
  facet normal 0 0 1
    outer loop
      vertex 51.9876 35.4372 9
      vertex 5.7373 3.31238 9
      vertex 6.22543 2.26578 9
    endloop
  endfacet
  facet normal 0 0 1
    outer loop
      vertex 51.171 36.2537 9
      vertex 5.07492 4.25842 9
      vertex 5.7373 3.31238 9
    endloop
  endfacet
  facet normal 0 0 1
    outer loop
      vertex 50.5087 37.1996 9
      vertex 4.25842 5.07492 9
      vertex 5.07492 4.25842 9
    endloop
  endfacet
  facet normal 0 0 1
    outer loop
      vertex 50.0206 38.2462 9
      vertex 3.31238 5.7373 9
      vertex 4.25842 5.07492 9
    endloop
  endfacet
  facet normal 0 0 1
    outer loop
      vertex 49.7217 39.3617 9
      vertex 2.26578 6.22543 9
      vertex 3.31238 5.7373 9
    endloop
  endfacet
  facet normal 0 0 1
    outer loop
      vertex 48.9406 50.6551 9
      vertex 1.15036 6.5242 9
      vertex 2.26578 6.22543 9
    endloop
  endfacet
  facet normal -0 0 1
    outer loop
      vertex -7.30545 10.1428 9
      vertex 1.15036 6.5242 9
      vertex 48.9406 50.6551 9
    endloop
  endfacet
  facet normal 0 0 1
    outer loop
      vertex 1.15036 6.5242 9
      vertex -7.30545 10.1428 9
      vertex 0 6.62491 9
    endloop
  endfacet
  facet normal 0 0 1
    outer loop
      vertex 0 6.62491 9
      vertex -7.30545 10.1428 9
      vertex -1.15036 6.5242 9
    endloop
  endfacet
  facet normal 0 0 1
    outer loop
      vertex -1.15036 6.5242 9
      vertex -7.30545 10.1428 9
      vertex -2.26578 6.22543 9
    endloop
  endfacet
  facet normal 0 0 1
    outer loop
      vertex -2.26578 6.22543 9
      vertex -7.30545 10.1428 9
      vertex -3.31238 5.7373 9
    endloop
  endfacet
  facet normal 0 0 1
    outer loop
      vertex -3.31238 5.7373 9
      vertex -7.30545 10.1428 9
      vertex -4.25842 5.07492 9
    endloop
  endfacet
  facet normal -0 0 1
    outer loop
      vertex -8.95584 8.72009 9
      vertex -4.25842 5.07492 9
      vertex -7.30545 10.1428 9
    endloop
  endfacet
  facet normal 0 0 1
    outer loop
      vertex -4.25842 5.07492 9
      vertex -8.95584 8.72009 9
      vertex -5.07492 4.25842 9
    endloop
  endfacet
  facet normal -0 0 1
    outer loop
      vertex -10.334 7.03247 9
      vertex -5.07492 4.25842 9
      vertex -8.95584 8.72009 9
    endloop
  endfacet
  facet normal 0 0 1
    outer loop
      vertex -5.07492 4.25842 9
      vertex -10.334 7.03247 9
      vertex -5.7373 3.31238 9
    endloop
  endfacet
  facet normal -0 0 1
    outer loop
      vertex -11.3982 5.13107 9
      vertex -5.7373 3.31238 9
      vertex -10.334 7.03247 9
    endloop
  endfacet
  facet normal 0 0 1
    outer loop
      vertex -5.7373 3.31238 9
      vertex -11.3982 5.13107 9
      vertex -6.22543 2.26578 9
    endloop
  endfacet
  facet normal 0 0 1
    outer loop
      vertex -4.25842 -5.07492 9
      vertex -8.72009 -8.95584 9
      vertex -7.03247 -10.334 9
    endloop
  endfacet
  facet normal -0 0 1
    outer loop
      vertex -12.1161 3.07388 9
      vertex -6.22543 2.26578 9
      vertex -11.3982 5.13107 9
    endloop
  endfacet
  facet normal 0 0 1
    outer loop
      vertex -5.07492 -4.25842 9
      vertex -10.1428 -7.30545 9
      vertex -8.72009 -8.95584 9
    endloop
  endfacet
  facet normal 0 0 1
    outer loop
      vertex -6.22543 2.26578 9
      vertex -12.1161 3.07388 9
      vertex -6.5242 1.15036 9
    endloop
  endfacet
  facet normal 0 0 1
    outer loop
      vertex -5.7373 -3.31238 9
      vertex -11.2573 -5.4332 9
      vertex -10.1428 -7.30545 9
    endloop
  endfacet
  facet normal 0 0 1
    outer loop
      vertex -12.4658 0.923309 9
      vertex -6.5242 1.15036 9
      vertex -12.1161 3.07388 9
    endloop
  endfacet
  facet normal 0 0 1
    outer loop
      vertex -6.22543 -2.26578 9
      vertex -12.0299 -3.39584 9
      vertex -11.2573 -5.4332 9
    endloop
  endfacet
  facet normal 0 0 1
    outer loop
      vertex -6.5242 1.15036 9
      vertex -12.4658 0.923309 9
      vertex -6.62491 0 9
    endloop
  endfacet
  facet normal 0 0 1
    outer loop
      vertex -6.5242 -1.15036 9
      vertex -12.4367 -1.25534 9
      vertex -12.0299 -3.39584 9
    endloop
  endfacet
  facet normal 0 0 1
    outer loop
      vertex -6.62491 0 9
      vertex -12.4658 0.923309 9
      vertex -12.4367 -1.25534 9
    endloop
  endfacet
  facet normal -0.999911 -0.013376 0
    outer loop
      vertex -12.4367 -1.25534 0
      vertex -12.4658 0.923309 9
      vertex -12.4658 0.923309 0
    endloop
  endfacet
  facet normal -0.999911 -0.013376 0
    outer loop
      vertex -12.4658 0.923309 9
      vertex -12.4367 -1.25534 0
      vertex -12.4367 -1.25534 9
    endloop
  endfacet
  facet normal -0.935034 -0.354559 0
    outer loop
      vertex -11.2573 -5.4332 0
      vertex -12.0299 -3.39584 9
      vertex -12.0299 -3.39584 0
    endloop
  endfacet
  facet normal -0.935034 -0.354559 0
    outer loop
      vertex -12.0299 -3.39584 9
      vertex -11.2573 -5.4332 0
      vertex -11.2573 -5.4332 9
    endloop
  endfacet
  facet normal 0 0 -1
    outer loop
      vertex 7.30545 -10.1428 0
      vertex 6.5242 -1.15036 0
      vertex 6.62491 0 0
    endloop
  endfacet
  facet normal 0 0 -1
    outer loop
      vertex 7.30545 -10.1428 0
      vertex 6.22543 -2.26578 0
      vertex 6.5242 -1.15036 0
    endloop
  endfacet
  facet normal 0 0 -1
    outer loop
      vertex 7.30545 -10.1428 0
      vertex 5.7373 -3.31238 0
      vertex 6.22543 -2.26578 0
    endloop
  endfacet
  facet normal 0 0 -1
    outer loop
      vertex 3.31238 -5.7373 0
      vertex 7.30545 -10.1428 0
      vertex 5.4332 -11.2573 0
    endloop
  endfacet
  facet normal 0 0 -1
    outer loop
      vertex 7.30545 -10.1428 0
      vertex 5.07492 -4.25842 0
      vertex 5.7373 -3.31238 0
    endloop
  endfacet
  facet normal 0 0 -1
    outer loop
      vertex 7.30545 -10.1428 0
      vertex 4.25842 -5.07492 0
      vertex 5.07492 -4.25842 0
    endloop
  endfacet
  facet normal 0 0 -1
    outer loop
      vertex 2.26578 -6.22543 0
      vertex 5.4332 -11.2573 0
      vertex 3.39584 -12.0299 0
    endloop
  endfacet
  facet normal 0 0 -1
    outer loop
      vertex 7.30545 -10.1428 0
      vertex 3.31238 -5.7373 0
      vertex 4.25842 -5.07492 0
    endloop
  endfacet
  facet normal 0 0 -1
    outer loop
      vertex 5.4332 -11.2573 0
      vertex 2.26578 -6.22543 0
      vertex 3.31238 -5.7373 0
    endloop
  endfacet
  facet normal 0 0 -1
    outer loop
      vertex 1.15036 -6.5242 0
      vertex 3.39584 -12.0299 0
      vertex 1.25534 -12.4367 0
    endloop
  endfacet
  facet normal 0 0 -1
    outer loop
      vertex 3.39584 -12.0299 0
      vertex 1.15036 -6.5242 0
      vertex 2.26578 -6.22543 0
    endloop
  endfacet
  facet normal 0 0 -1
    outer loop
      vertex 1.25534 -12.4367 0
      vertex 0 -6.62491 0
      vertex 1.15036 -6.5242 0
    endloop
  endfacet
  facet normal 0 0 -1
    outer loop
      vertex -0.923309 -12.4658 0
      vertex 0 -6.62491 0
      vertex 1.25534 -12.4367 0
    endloop
  endfacet
  facet normal 0 0 -1
    outer loop
      vertex -0.923309 -12.4658 0
      vertex -1.15036 -6.5242 0
      vertex 0 -6.62491 0
    endloop
  endfacet
  facet normal 0 0 -1
    outer loop
      vertex -3.07388 -12.1161 0
      vertex -1.15036 -6.5242 0
      vertex -0.923309 -12.4658 0
    endloop
  endfacet
  facet normal -0 0 -1
    outer loop
      vertex -1.15036 -6.5242 0
      vertex -3.07388 -12.1161 0
      vertex -2.26578 -6.22543 0
    endloop
  endfacet
  facet normal 0 0 -1
    outer loop
      vertex -5.13107 -11.3982 0
      vertex -2.26578 -6.22543 0
      vertex -3.07388 -12.1161 0
    endloop
  endfacet
  facet normal -0 0 -1
    outer loop
      vertex -2.26578 -6.22543 0
      vertex -5.13107 -11.3982 0
      vertex -3.31238 -5.7373 0
    endloop
  endfacet
  facet normal 0 0 -1
    outer loop
      vertex -7.03247 -10.334 0
      vertex -3.31238 -5.7373 0
      vertex -5.13107 -11.3982 0
    endloop
  endfacet
  facet normal -0 0 -1
    outer loop
      vertex -3.31238 -5.7373 0
      vertex -7.03247 -10.334 0
      vertex -4.25842 -5.07492 0
    endloop
  endfacet
  facet normal 0 0 -1
    outer loop
      vertex -8.72009 -8.95584 0
      vertex -4.25842 -5.07492 0
      vertex -7.03247 -10.334 0
    endloop
  endfacet
  facet normal -0 0 -1
    outer loop
      vertex -4.25842 -5.07492 0
      vertex -8.72009 -8.95584 0
      vertex -5.07492 -4.25842 0
    endloop
  endfacet
  facet normal 0 0 -1
    outer loop
      vertex -10.1428 -7.30545 0
      vertex -5.07492 -4.25842 0
      vertex -8.72009 -8.95584 0
    endloop
  endfacet
  facet normal 0 0 -1
    outer loop
      vertex -11.2573 -5.4332 0
      vertex -5.7373 -3.31238 0
      vertex -10.1428 -7.30545 0
    endloop
  endfacet
  facet normal -0 0 -1
    outer loop
      vertex -5.07492 -4.25842 0
      vertex -10.1428 -7.30545 0
      vertex -5.7373 -3.31238 0
    endloop
  endfacet
  facet normal 0 0 -1
    outer loop
      vertex 62.7704 39.3617 0
      vertex 68.7119 39.5888 0
      vertex 68.3623 37.438 0
    endloop
  endfacet
  facet normal 0 0 -1
    outer loop
      vertex 68.7119 39.5888 0
      vertex 62.8711 40.5121 0
      vertex 68.6829 41.7676 0
    endloop
  endfacet
  facet normal 0 0 -1
    outer loop
      vertex 62.4716 38.2462 0
      vertex 68.3623 37.438 0
      vertex 67.6443 35.3809 0
    endloop
  endfacet
  facet normal 0 0 -1
    outer loop
      vertex 62.7704 41.6626 0
      vertex 68.6829 41.7676 0
      vertex 62.8711 40.5121 0
    endloop
  endfacet
  facet normal 0 0 -1
    outer loop
      vertex 61.9835 37.1996 0
      vertex 67.6443 35.3809 0
      vertex 66.5802 33.4796 0
    endloop
  endfacet
  facet normal -0 0 -1
    outer loop
      vertex 68.6829 41.7676 0
      vertex 62.7704 41.6626 0
      vertex 68.2761 43.9081 0
    endloop
  endfacet
  facet normal 0 0 -1
    outer loop
      vertex 61.3211 36.2537 0
      vertex 66.5802 33.4796 0
      vertex 65.202 31.792 0
    endloop
  endfacet
  facet normal 0 0 -1
    outer loop
      vertex 62.4716 42.778 0
      vertex 68.2761 43.9081 0
      vertex 62.7704 41.6626 0
    endloop
  endfacet
  facet normal 0 0 -1
    outer loop
      vertex 60.5046 35.4372 0
      vertex 65.202 31.792 0
      vertex 63.5518 30.3693 0
    endloop
  endfacet
  facet normal -0 0 -1
    outer loop
      vertex 68.2761 43.9081 0
      vertex 62.4716 42.778 0
      vertex 67.5035 45.9454 0
    endloop
  endfacet
  facet normal 0 0 -1
    outer loop
      vertex 61.9835 43.8246 0
      vertex 67.5035 45.9454 0
      vertex 62.4716 42.778 0
    endloop
  endfacet
  facet normal -0 0 -1
    outer loop
      vertex 68.7119 39.5888 0
      vertex 62.7704 39.3617 0
      vertex 62.8711 40.5121 0
    endloop
  endfacet
  facet normal 0 0 -1
    outer loop
      vertex 68.3623 37.438 0
      vertex 62.4716 38.2462 0
      vertex 62.7704 39.3617 0
    endloop
  endfacet
  facet normal 0 0 -1
    outer loop
      vertex 67.6443 35.3809 0
      vertex 61.9835 37.1996 0
      vertex 62.4716 38.2462 0
    endloop
  endfacet
  facet normal 0 0 -1
    outer loop
      vertex 66.5802 33.4796 0
      vertex 61.3211 36.2537 0
      vertex 61.9835 37.1996 0
    endloop
  endfacet
  facet normal 0 0 -1
    outer loop
      vertex 65.202 31.792 0
      vertex 60.5046 35.4372 0
      vertex 61.3211 36.2537 0
    endloop
  endfacet
  facet normal 0 0 -1
    outer loop
      vertex 63.5518 30.3693 0
      vertex 59.5586 34.7748 0
      vertex 60.5046 35.4372 0
    endloop
  endfacet
  facet normal 0 0 -1
    outer loop
      vertex 63.5518 30.3693 0
      vertex 58.512 34.2867 0
      vertex 59.5586 34.7748 0
    endloop
  endfacet
  facet normal 0 0 -1
    outer loop
      vertex 63.5518 30.3693 0
      vertex 57.3965 33.9879 0
      vertex 58.512 34.2867 0
    endloop
  endfacet
  facet normal 0 0 -1
    outer loop
      vertex 63.5518 30.3693 0
      vertex 56.2462 33.8872 0
      vertex 57.3965 33.9879 0
    endloop
  endfacet
  facet normal 0 0 -1
    outer loop
      vertex 63.5518 30.3693 0
      vertex 55.0957 33.9879 0
      vertex 56.2462 33.8872 0
    endloop
  endfacet
  facet normal 0 0 -1
    outer loop
      vertex 63.5518 30.3693 0
      vertex 53.9803 34.2867 0
      vertex 55.0957 33.9879 0
    endloop
  endfacet
  facet normal 0 0 -1
    outer loop
      vertex 7.30545 -10.1428 0
      vertex 53.9803 34.2867 0
      vertex 63.5518 30.3693 0
    endloop
  endfacet
  facet normal 0 0 -1
    outer loop
      vertex 6.62491 0 0
      vertex 53.9803 34.2867 0
      vertex 7.30545 -10.1428 0
    endloop
  endfacet
  facet normal 0 0 -1
    outer loop
      vertex 6.5242 1.15036 0
      vertex 53.9803 34.2867 0
      vertex 6.62491 0 0
    endloop
  endfacet
  facet normal -0 0 -1
    outer loop
      vertex 53.9803 34.2867 0
      vertex 6.5242 1.15036 0
      vertex 52.9337 34.7748 0
    endloop
  endfacet
  facet normal 0 0 -1
    outer loop
      vertex 6.22543 2.26578 0
      vertex 52.9337 34.7748 0
      vertex 6.5242 1.15036 0
    endloop
  endfacet
  facet normal -0 0 -1
    outer loop
      vertex 52.9337 34.7748 0
      vertex 6.22543 2.26578 0
      vertex 51.9876 35.4372 0
    endloop
  endfacet
  facet normal 0 0 -1
    outer loop
      vertex 5.7373 3.31238 0
      vertex 51.9876 35.4372 0
      vertex 6.22543 2.26578 0
    endloop
  endfacet
  facet normal -0 0 -1
    outer loop
      vertex 51.9876 35.4372 0
      vertex 5.7373 3.31238 0
      vertex 51.171 36.2537 0
    endloop
  endfacet
  facet normal 0 0 -1
    outer loop
      vertex 5.07492 4.25842 0
      vertex 51.171 36.2537 0
      vertex 5.7373 3.31238 0
    endloop
  endfacet
  facet normal -0 0 -1
    outer loop
      vertex 51.171 36.2537 0
      vertex 5.07492 4.25842 0
      vertex 50.5087 37.1996 0
    endloop
  endfacet
  facet normal 0 0 -1
    outer loop
      vertex 4.25842 5.07492 0
      vertex 50.5087 37.1996 0
      vertex 5.07492 4.25842 0
    endloop
  endfacet
  facet normal -0 0 -1
    outer loop
      vertex 50.5087 37.1996 0
      vertex 4.25842 5.07492 0
      vertex 50.0206 38.2462 0
    endloop
  endfacet
  facet normal 0 0 -1
    outer loop
      vertex 3.31238 5.7373 0
      vertex 50.0206 38.2462 0
      vertex 4.25842 5.07492 0
    endloop
  endfacet
  facet normal -0 0 -1
    outer loop
      vertex 50.0206 38.2462 0
      vertex 3.31238 5.7373 0
      vertex 49.7217 39.3617 0
    endloop
  endfacet
  facet normal 0 0 -1
    outer loop
      vertex 2.26578 6.22543 0
      vertex 49.7217 39.3617 0
      vertex 3.31238 5.7373 0
    endloop
  endfacet
  facet normal -0 0 -1
    outer loop
      vertex 49.7217 39.3617 0
      vertex 2.26578 6.22543 0
      vertex 49.6211 40.5121 0
    endloop
  endfacet
  facet normal -0 0 -1
    outer loop
      vertex 49.6211 40.5121 0
      vertex 2.26578 6.22543 0
      vertex 48.9406 50.6551 0
    endloop
  endfacet
  facet normal 0 0 -1
    outer loop
      vertex 1.15036 6.5242 0
      vertex 48.9406 50.6551 0
      vertex 2.26578 6.22543 0
    endloop
  endfacet
  facet normal 0 0 -1
    outer loop
      vertex -7.30545 10.1428 0
      vertex 1.15036 6.5242 0
      vertex 0 6.62491 0
    endloop
  endfacet
  facet normal 0 0 -1
    outer loop
      vertex -7.30545 10.1428 0
      vertex 0 6.62491 0
      vertex -1.15036 6.5242 0
    endloop
  endfacet
  facet normal 0 0 -1
    outer loop
      vertex -7.30545 10.1428 0
      vertex -1.15036 6.5242 0
      vertex -2.26578 6.22543 0
    endloop
  endfacet
  facet normal 0 0 -1
    outer loop
      vertex -7.30545 10.1428 0
      vertex -2.26578 6.22543 0
      vertex -3.31238 5.7373 0
    endloop
  endfacet
  facet normal 0 0 -1
    outer loop
      vertex -7.30545 10.1428 0
      vertex -3.31238 5.7373 0
      vertex -4.25842 5.07492 0
    endloop
  endfacet
  facet normal 0 0 -1
    outer loop
      vertex 1.15036 6.5242 0
      vertex -7.30545 10.1428 0
      vertex 48.9406 50.6551 0
    endloop
  endfacet
  facet normal 0 0 -1
    outer loop
      vertex -8.95584 8.72009 0
      vertex -4.25842 5.07492 0
      vertex -5.07492 4.25842 0
    endloop
  endfacet
  facet normal 0 0 -1
    outer loop
      vertex -10.334 7.03247 0
      vertex -5.07492 4.25842 0
      vertex -5.7373 3.31238 0
    endloop
  endfacet
  facet normal 0 0 -1
    outer loop
      vertex -11.3982 5.13107 0
      vertex -5.7373 3.31238 0
      vertex -6.22543 2.26578 0
    endloop
  endfacet
  facet normal 0 0 -1
    outer loop
      vertex -12.1161 3.07388 0
      vertex -6.22543 2.26578 0
      vertex -6.5242 1.15036 0
    endloop
  endfacet
  facet normal 0 0 -1
    outer loop
      vertex -12.4658 0.923309 0
      vertex -6.5242 1.15036 0
      vertex -6.62491 0 0
    endloop
  endfacet
  facet normal -0 0 -1
    outer loop
      vertex -5.7373 -3.31238 0
      vertex -11.2573 -5.4332 0
      vertex -6.22543 -2.26578 0
    endloop
  endfacet
  facet normal 0 0 -1
    outer loop
      vertex -12.0299 -3.39584 0
      vertex -6.22543 -2.26578 0
      vertex -11.2573 -5.4332 0
    endloop
  endfacet
  facet normal 0 0 -1
    outer loop
      vertex -4.25842 5.07492 0
      vertex -8.95584 8.72009 0
      vertex -7.30545 10.1428 0
    endloop
  endfacet
  facet normal -0 0 -1
    outer loop
      vertex -6.22543 -2.26578 0
      vertex -12.0299 -3.39584 0
      vertex -6.5242 -1.15036 0
    endloop
  endfacet
  facet normal 0 0 -1
    outer loop
      vertex -5.07492 4.25842 0
      vertex -10.334 7.03247 0
      vertex -8.95584 8.72009 0
    endloop
  endfacet
  facet normal 0 0 -1
    outer loop
      vertex -12.4367 -1.25534 0
      vertex -6.5242 -1.15036 0
      vertex -12.0299 -3.39584 0
    endloop
  endfacet
  facet normal 0 0 -1
    outer loop
      vertex -5.7373 3.31238 0
      vertex -11.3982 5.13107 0
      vertex -10.334 7.03247 0
    endloop
  endfacet
  facet normal -0 0 -1
    outer loop
      vertex -6.5242 -1.15036 0
      vertex -12.4367 -1.25534 0
      vertex -6.62491 0 0
    endloop
  endfacet
  facet normal 0 0 -1
    outer loop
      vertex -6.22543 2.26578 0
      vertex -12.1161 3.07388 0
      vertex -11.3982 5.13107 0
    endloop
  endfacet
  facet normal 0 0 -1
    outer loop
      vertex -12.4658 0.923309 0
      vertex -6.62491 0 0
      vertex -12.4367 -1.25534 0
    endloop
  endfacet
  facet normal -0 0 -1
    outer loop
      vertex -6.5242 1.15036 0
      vertex -12.4658 0.923309 0
      vertex -12.1161 3.07388 0
    endloop
  endfacet
  facet normal -0 0 -1
    outer loop
      vertex 67.5035 45.9454 0
      vertex 61.9835 43.8246 0
      vertex 66.389 47.8177 0
    endloop
  endfacet
  facet normal 0 0 -1
    outer loop
      vertex 61.3211 44.7707 0
      vertex 66.389 47.8177 0
      vertex 61.9835 43.8246 0
    endloop
  endfacet
  facet normal -0 0 -1
    outer loop
      vertex 66.389 47.8177 0
      vertex 61.3211 44.7707 0
      vertex 64.9663 49.4681 0
    endloop
  endfacet
  facet normal 0 0 -1
    outer loop
      vertex 60.5046 45.5872 0
      vertex 64.9663 49.4681 0
      vertex 61.3211 44.7707 0
    endloop
  endfacet
  facet normal -0 0 -1
    outer loop
      vertex 64.9663 49.4681 0
      vertex 60.5046 45.5872 0
      vertex 63.2787 50.8463 0
    endloop
  endfacet
  facet normal 0 0 -1
    outer loop
      vertex 59.5586 46.2495 0
      vertex 63.2787 50.8463 0
      vertex 60.5046 45.5872 0
    endloop
  endfacet
  facet normal -0 0 -1
    outer loop
      vertex 63.2787 50.8463 0
      vertex 59.5586 46.2495 0
      vertex 61.3773 51.9104 0
    endloop
  endfacet
  facet normal 0 0 -1
    outer loop
      vertex 58.512 46.7377 0
      vertex 61.3773 51.9104 0
      vertex 59.5586 46.2495 0
    endloop
  endfacet
  facet normal -0 0 -1
    outer loop
      vertex 61.3773 51.9104 0
      vertex 58.512 46.7377 0
      vertex 59.3201 52.6282 0
    endloop
  endfacet
  facet normal 0 0 -1
    outer loop
      vertex 57.3965 47.0366 0
      vertex 59.3201 52.6282 0
      vertex 58.512 46.7377 0
    endloop
  endfacet
  facet normal 0 0 -1
    outer loop
      vertex 57.3965 47.0366 0
      vertex 57.1695 52.9781 0
      vertex 59.3201 52.6282 0
    endloop
  endfacet
  facet normal 0 0 -1
    outer loop
      vertex 56.2462 47.1371 0
      vertex 57.1695 52.9781 0
      vertex 57.3965 47.0366 0
    endloop
  endfacet
  facet normal 0 0 -1
    outer loop
      vertex 54.9907 52.9489 0
      vertex 56.2462 47.1371 0
      vertex 55.0957 47.0366 0
    endloop
  endfacet
  facet normal 0 0 -1
    outer loop
      vertex 56.2462 47.1371 0
      vertex 54.9907 52.9489 0
      vertex 57.1695 52.9781 0
    endloop
  endfacet
  facet normal 0 0 -1
    outer loop
      vertex 52.8502 52.542 0
      vertex 55.0957 47.0366 0
      vertex 53.9803 46.7377 0
    endloop
  endfacet
  facet normal 0 0 -1
    outer loop
      vertex 50.8128 51.7696 0
      vertex 53.9803 46.7377 0
      vertex 52.9337 46.2495 0
    endloop
  endfacet
  facet normal 0 0 -1
    outer loop
      vertex 55.0957 47.0366 0
      vertex 52.8502 52.542 0
      vertex 54.9907 52.9489 0
    endloop
  endfacet
  facet normal 0 0 -1
    outer loop
      vertex 48.9406 50.6551 0
      vertex 52.9337 46.2495 0
      vertex 51.9876 45.5872 0
    endloop
  endfacet
  facet normal 0 0 -1
    outer loop
      vertex 48.9406 50.6551 0
      vertex 51.9876 45.5872 0
      vertex 51.171 44.7707 0
    endloop
  endfacet
  facet normal 0 0 -1
    outer loop
      vertex 53.9803 46.7377 0
      vertex 50.8128 51.7696 0
      vertex 52.8502 52.542 0
    endloop
  endfacet
  facet normal 0 0 -1
    outer loop
      vertex 48.9406 50.6551 0
      vertex 51.171 44.7707 0
      vertex 50.5087 43.8246 0
    endloop
  endfacet
  facet normal 0 0 -1
    outer loop
      vertex 48.9406 50.6551 0
      vertex 50.5087 43.8246 0
      vertex 50.0206 42.778 0
    endloop
  endfacet
  facet normal 0 0 -1
    outer loop
      vertex 48.9406 50.6551 0
      vertex 50.0206 42.778 0
      vertex 49.7217 41.6626 0
    endloop
  endfacet
  facet normal 0 0 -1
    outer loop
      vertex 52.9337 46.2495 0
      vertex 48.9406 50.6551 0
      vertex 50.8128 51.7696 0
    endloop
  endfacet
  facet normal 0 0 -1
    outer loop
      vertex 48.9406 50.6551 0
      vertex 49.7217 41.6626 0
      vertex 49.6211 40.5121 0
    endloop
  endfacet
  facet normal -0.982416 -0.186707 0
    outer loop
      vertex -12.0299 -3.39584 0
      vertex -12.4367 -1.25534 9
      vertex -12.4367 -1.25534 0
    endloop
  endfacet
  facet normal -0.982416 -0.186707 0
    outer loop
      vertex -12.4367 -1.25534 9
      vertex -12.0299 -3.39584 0
      vertex -12.0299 -3.39584 9
    endloop
  endfacet
  facet normal -0.632521 -0.774544 0
    outer loop
      vertex -8.72009 -8.95584 0
      vertex -7.03247 -10.334 9
      vertex -8.72009 -8.95584 9
    endloop
  endfacet
  facet normal -0.632521 -0.774544 -0
    outer loop
      vertex -7.03247 -10.334 9
      vertex -8.72009 -8.95584 0
      vertex -7.03247 -10.334 0
    endloop
  endfacet
  facet normal -0.85928 -0.511506 0
    outer loop
      vertex -10.1428 -7.30545 0
      vertex -11.2573 -5.4332 9
      vertex -11.2573 -5.4332 0
    endloop
  endfacet
  facet normal -0.85928 -0.511506 0
    outer loop
      vertex -11.2573 -5.4332 9
      vertex -10.1428 -7.30545 0
      vertex -10.1428 -7.30545 9
    endloop
  endfacet
  facet normal -0.757415 -0.652934 0
    outer loop
      vertex -8.72009 -8.95584 0
      vertex -10.1428 -7.30545 9
      vertex -10.1428 -7.30545 0
    endloop
  endfacet
  facet normal -0.757415 -0.652934 0
    outer loop
      vertex -10.1428 -7.30545 9
      vertex -8.72009 -8.95584 0
      vertex -8.72009 -8.95584 9
    endloop
  endfacet
  facet normal -0.329496 -0.944157 0
    outer loop
      vertex -5.13107 -11.3982 0
      vertex -3.07388 -12.1161 9
      vertex -5.13107 -11.3982 9
    endloop
  endfacet
  facet normal -0.329496 -0.944157 -0
    outer loop
      vertex -3.07388 -12.1161 9
      vertex -5.13107 -11.3982 0
      vertex -3.07388 -12.1161 0
    endloop
  endfacet
  facet normal -0.488382 -0.87263 0
    outer loop
      vertex -7.03247 -10.334 0
      vertex -5.13107 -11.3982 9
      vertex -7.03247 -10.334 9
    endloop
  endfacet
  facet normal -0.488382 -0.87263 -0
    outer loop
      vertex -5.13107 -11.3982 9
      vertex -7.03247 -10.334 0
      vertex -5.13107 -11.3982 0
    endloop
  endfacet
  facet normal -0.160514 -0.987034 0
    outer loop
      vertex -3.07388 -12.1161 0
      vertex -0.923309 -12.4658 9
      vertex -3.07388 -12.1161 9
    endloop
  endfacet
  facet normal -0.160514 -0.987034 -0
    outer loop
      vertex -0.923309 -12.4658 9
      vertex -3.07388 -12.1161 0
      vertex -0.923309 -12.4658 0
    endloop
  endfacet
  facet normal 0.160582 0.987023 -0
    outer loop
      vertex 59.3201 52.6282 0
      vertex 57.1695 52.9781 9
      vertex 59.3201 52.6282 9
    endloop
  endfacet
  facet normal 0.160582 0.987023 0
    outer loop
      vertex 57.1695 52.9781 9
      vertex 59.3201 52.6282 0
      vertex 57.1695 52.9781 0
    endloop
  endfacet
  facet normal 0.872613 -0.488411 0
    outer loop
      vertex 66.5802 33.4796 9
      vertex 67.6443 35.3809 0
      vertex 67.6443 35.3809 9
    endloop
  endfacet
  facet normal 0.872613 -0.488411 0
    outer loop
      vertex 67.6443 35.3809 0
      vertex 66.5802 33.4796 9
      vertex 66.5802 33.4796 0
    endloop
  endfacet
  facet normal 0.944157 -0.329496 0
    outer loop
      vertex 67.6443 35.3809 9
      vertex 68.3623 37.438 0
      vertex 68.3623 37.438 9
    endloop
  endfacet
  facet normal 0.944157 -0.329496 0
    outer loop
      vertex 68.3623 37.438 0
      vertex 67.6443 35.3809 9
      vertex 67.6443 35.3809 0
    endloop
  endfacet
  facet normal 0.999911 0.0133051 0
    outer loop
      vertex 68.7119 39.5888 9
      vertex 68.6829 41.7676 0
      vertex 68.6829 41.7676 9
    endloop
  endfacet
  facet normal 0.999911 0.0133051 0
    outer loop
      vertex 68.6829 41.7676 0
      vertex 68.7119 39.5888 9
      vertex 68.7119 39.5888 0
    endloop
  endfacet
  facet normal 0.757415 0.652934 0
    outer loop
      vertex 66.389 47.8177 9
      vertex 64.9663 49.4681 0
      vertex 64.9663 49.4681 9
    endloop
  endfacet
  facet normal 0.757415 0.652934 0
    outer loop
      vertex 64.9663 49.4681 0
      vertex 66.389 47.8177 9
      vertex 66.389 47.8177 0
    endloop
  endfacet
  facet normal 0.329433 0.944179 -0
    outer loop
      vertex 61.3773 51.9104 0
      vertex 59.3201 52.6282 9
      vertex 61.3773 51.9104 9
    endloop
  endfacet
  facet normal 0.329433 0.944179 0
    outer loop
      vertex 59.3201 52.6282 9
      vertex 61.3773 51.9104 0
      vertex 59.3201 52.6282 0
    endloop
  endfacet
  facet normal -0.0133751 0.999911 0
    outer loop
      vertex 57.1695 52.9781 0
      vertex 54.9907 52.9489 9
      vertex 57.1695 52.9781 9
    endloop
  endfacet
  facet normal -0.0133751 0.999911 0
    outer loop
      vertex 54.9907 52.9489 9
      vertex 57.1695 52.9781 0
      vertex 54.9907 52.9489 0
    endloop
  endfacet
  facet normal 0.935034 0.354559 0
    outer loop
      vertex 68.2761 43.9081 9
      vertex 67.5035 45.9454 0
      vertex 67.5035 45.9454 9
    endloop
  endfacet
  facet normal 0.935034 0.354559 0
    outer loop
      vertex 67.5035 45.9454 0
      vertex 68.2761 43.9081 9
      vertex 68.2761 43.9081 0
    endloop
  endfacet
  facet normal -0.422683 0.906278 0
    outer loop
      vertex 3.31238 -5.7373 0
      vertex 2.26578 -6.22543 9
      vertex 3.31238 -5.7373 9
    endloop
  endfacet
  facet normal -0.422683 0.906278 0
    outer loop
      vertex 2.26578 -6.22543 9
      vertex 3.31238 -5.7373 0
      vertex 2.26578 -6.22543 0
    endloop
  endfacet
  facet normal 0.258732 -0.965949 0
    outer loop
      vertex -2.26578 6.22543 0
      vertex -1.15036 6.5242 9
      vertex -2.26578 6.22543 9
    endloop
  endfacet
  facet normal 0.258732 -0.965949 0
    outer loop
      vertex -1.15036 6.5242 9
      vertex -2.26578 6.22543 0
      vertex -1.15036 6.5242 0
    endloop
  endfacet
  facet normal -0.258732 0.965949 0
    outer loop
      vertex 2.26578 -6.22543 0
      vertex 1.15036 -6.5242 9
      vertex 2.26578 -6.22543 9
    endloop
  endfacet
  facet normal -0.258732 0.965949 0
    outer loop
      vertex 1.15036 -6.5242 9
      vertex 2.26578 -6.22543 0
      vertex 1.15036 -6.5242 0
    endloop
  endfacet
  facet normal -0.965949 -0.258732 0
    outer loop
      vertex 6.5242 1.15036 0
      vertex 6.22543 2.26578 9
      vertex 6.22543 2.26578 0
    endloop
  endfacet
  facet normal -0.965949 -0.258732 0
    outer loop
      vertex 6.22543 2.26578 9
      vertex 6.5242 1.15036 0
      vertex 6.5242 1.15036 9
    endloop
  endfacet
  facet normal 0.573551 -0.81917 0
    outer loop
      vertex -4.25842 5.07492 0
      vertex -3.31238 5.7373 9
      vertex -4.25842 5.07492 9
    endloop
  endfacet
  facet normal 0.573551 -0.81917 0
    outer loop
      vertex -3.31238 5.7373 9
      vertex -4.25842 5.07492 0
      vertex -3.31238 5.7373 0
    endloop
  endfacet
  facet normal -0.906278 0.422683 0
    outer loop
      vertex 5.7373 -3.31238 0
      vertex 6.22543 -2.26578 9
      vertex 6.22543 -2.26578 0
    endloop
  endfacet
  facet normal -0.906278 0.422683 0
    outer loop
      vertex 6.22543 -2.26578 9
      vertex 5.7373 -3.31238 0
      vertex 5.7373 -3.31238 9
    endloop
  endfacet
  facet normal 0.906278 -0.422683 0
    outer loop
      vertex -6.22543 2.26578 9
      vertex -5.7373 3.31238 0
      vertex -5.7373 3.31238 9
    endloop
  endfacet
  facet normal 0.906278 -0.422683 0
    outer loop
      vertex -5.7373 3.31238 0
      vertex -6.22543 2.26578 9
      vertex -6.22543 2.26578 0
    endloop
  endfacet
  facet normal -0.422683 -0.906278 0
    outer loop
      vertex 2.26578 6.22543 0
      vertex 3.31238 5.7373 9
      vertex 2.26578 6.22543 9
    endloop
  endfacet
  facet normal -0.422683 -0.906278 -0
    outer loop
      vertex 3.31238 5.7373 9
      vertex 2.26578 6.22543 0
      vertex 3.31238 5.7373 0
    endloop
  endfacet
  facet normal -0.81917 -0.573551 0
    outer loop
      vertex 5.7373 3.31238 0
      vertex 5.07492 4.25842 9
      vertex 5.07492 4.25842 0
    endloop
  endfacet
  facet normal -0.81917 -0.573551 0
    outer loop
      vertex 5.07492 4.25842 9
      vertex 5.7373 3.31238 0
      vertex 5.7373 3.31238 9
    endloop
  endfacet
  facet normal 0.81917 -0.573551 0
    outer loop
      vertex -5.7373 3.31238 9
      vertex -5.07492 4.25842 0
      vertex -5.07492 4.25842 9
    endloop
  endfacet
  facet normal 0.81917 -0.573551 0
    outer loop
      vertex -5.07492 4.25842 0
      vertex -5.7373 3.31238 9
      vertex -5.7373 3.31238 0
    endloop
  endfacet
  facet normal 0.99619 -0.0872112 0
    outer loop
      vertex -6.62491 0 9
      vertex -6.5242 1.15036 0
      vertex -6.5242 1.15036 9
    endloop
  endfacet
  facet normal 0.99619 -0.0872112 0
    outer loop
      vertex -6.5242 1.15036 0
      vertex -6.62491 0 9
      vertex -6.62491 0 0
    endloop
  endfacet
  facet normal 0.99619 0.0872112 0
    outer loop
      vertex -6.5242 -1.15036 9
      vertex -6.62491 0 0
      vertex -6.62491 0 9
    endloop
  endfacet
  facet normal 0.99619 0.0872112 0
    outer loop
      vertex -6.62491 0 0
      vertex -6.5242 -1.15036 9
      vertex -6.5242 -1.15036 0
    endloop
  endfacet
  facet normal 0.965949 -0.258732 0
    outer loop
      vertex -6.5242 1.15036 9
      vertex -6.22543 2.26578 0
      vertex -6.22543 2.26578 9
    endloop
  endfacet
  facet normal 0.965949 -0.258732 0
    outer loop
      vertex -6.22543 2.26578 0
      vertex -6.5242 1.15036 9
      vertex -6.5242 1.15036 0
    endloop
  endfacet
  facet normal 0.906278 0.422683 0
    outer loop
      vertex -5.7373 -3.31238 9
      vertex -6.22543 -2.26578 0
      vertex -6.22543 -2.26578 9
    endloop
  endfacet
  facet normal 0.906278 0.422683 0
    outer loop
      vertex -6.22543 -2.26578 0
      vertex -5.7373 -3.31238 9
      vertex -5.7373 -3.31238 0
    endloop
  endfacet
  facet normal 0.707107 0.707107 0
    outer loop
      vertex -4.25842 -5.07492 9
      vertex -5.07492 -4.25842 0
      vertex -5.07492 -4.25842 9
    endloop
  endfacet
  facet normal 0.707107 0.707107 0
    outer loop
      vertex -5.07492 -4.25842 0
      vertex -4.25842 -5.07492 9
      vertex -4.25842 -5.07492 0
    endloop
  endfacet
  facet normal 0.422683 0.906278 -0
    outer loop
      vertex -2.26578 -6.22543 0
      vertex -3.31238 -5.7373 9
      vertex -2.26578 -6.22543 9
    endloop
  endfacet
  facet normal 0.422683 0.906278 0
    outer loop
      vertex -3.31238 -5.7373 9
      vertex -2.26578 -6.22543 0
      vertex -3.31238 -5.7373 0
    endloop
  endfacet
  facet normal 0.0872112 0.99619 -0
    outer loop
      vertex 0 -6.62491 0
      vertex -1.15036 -6.5242 9
      vertex 0 -6.62491 9
    endloop
  endfacet
  facet normal 0.0872112 0.99619 0
    outer loop
      vertex -1.15036 -6.5242 9
      vertex 0 -6.62491 0
      vertex -1.15036 -6.5242 0
    endloop
  endfacet
  facet normal -0.0872112 -0.99619 0
    outer loop
      vertex 0 6.62491 0
      vertex 1.15036 6.5242 9
      vertex 0 6.62491 9
    endloop
  endfacet
  facet normal -0.0872112 -0.99619 -0
    outer loop
      vertex 1.15036 6.5242 9
      vertex 0 6.62491 0
      vertex 1.15036 6.5242 0
    endloop
  endfacet
  facet normal -0.707107 -0.707107 0
    outer loop
      vertex 5.07492 4.25842 0
      vertex 4.25842 5.07492 9
      vertex 4.25842 5.07492 0
    endloop
  endfacet
  facet normal -0.707107 -0.707107 0
    outer loop
      vertex 4.25842 5.07492 9
      vertex 5.07492 4.25842 0
      vertex 5.07492 4.25842 9
    endloop
  endfacet
  facet normal -0.573551 -0.81917 0
    outer loop
      vertex 3.31238 5.7373 0
      vertex 4.25842 5.07492 9
      vertex 3.31238 5.7373 9
    endloop
  endfacet
  facet normal -0.573551 -0.81917 -0
    outer loop
      vertex 4.25842 5.07492 9
      vertex 3.31238 5.7373 0
      vertex 4.25842 5.07492 0
    endloop
  endfacet
  facet normal -0.258732 -0.965949 0
    outer loop
      vertex 1.15036 6.5242 0
      vertex 2.26578 6.22543 9
      vertex 1.15036 6.5242 9
    endloop
  endfacet
  facet normal -0.258732 -0.965949 -0
    outer loop
      vertex 2.26578 6.22543 9
      vertex 1.15036 6.5242 0
      vertex 2.26578 6.22543 0
    endloop
  endfacet
  facet normal 0.0872112 -0.99619 0
    outer loop
      vertex -1.15036 6.5242 0
      vertex 0 6.62491 9
      vertex -1.15036 6.5242 9
    endloop
  endfacet
  facet normal 0.0872112 -0.99619 0
    outer loop
      vertex 0 6.62491 9
      vertex -1.15036 6.5242 0
      vertex 0 6.62491 0
    endloop
  endfacet
  facet normal -0.965949 0.258732 0
    outer loop
      vertex 6.22543 -2.26578 0
      vertex 6.5242 -1.15036 9
      vertex 6.5242 -1.15036 0
    endloop
  endfacet
  facet normal -0.965949 0.258732 0
    outer loop
      vertex 6.5242 -1.15036 9
      vertex 6.22543 -2.26578 0
      vertex 6.22543 -2.26578 9
    endloop
  endfacet
  facet normal -0.99619 -0.0872112 0
    outer loop
      vertex 6.62491 0 0
      vertex 6.5242 1.15036 9
      vertex 6.5242 1.15036 0
    endloop
  endfacet
  facet normal -0.99619 -0.0872112 0
    outer loop
      vertex 6.5242 1.15036 9
      vertex 6.62491 0 0
      vertex 6.62491 0 9
    endloop
  endfacet
  facet normal -0.81917 0.573551 0
    outer loop
      vertex 5.07492 -4.25842 0
      vertex 5.7373 -3.31238 9
      vertex 5.7373 -3.31238 0
    endloop
  endfacet
  facet normal -0.81917 0.573551 0
    outer loop
      vertex 5.7373 -3.31238 9
      vertex 5.07492 -4.25842 0
      vertex 5.07492 -4.25842 9
    endloop
  endfacet
  facet normal -0.573551 0.81917 0
    outer loop
      vertex 4.25842 -5.07492 0
      vertex 3.31238 -5.7373 9
      vertex 4.25842 -5.07492 9
    endloop
  endfacet
  facet normal -0.573551 0.81917 0
    outer loop
      vertex 3.31238 -5.7373 9
      vertex 4.25842 -5.07492 0
      vertex 3.31238 -5.7373 0
    endloop
  endfacet
  facet normal 0.422683 -0.906278 0
    outer loop
      vertex -3.31238 5.7373 0
      vertex -2.26578 6.22543 9
      vertex -3.31238 5.7373 9
    endloop
  endfacet
  facet normal 0.422683 -0.906278 0
    outer loop
      vertex -2.26578 6.22543 9
      vertex -3.31238 5.7373 0
      vertex -2.26578 6.22543 0
    endloop
  endfacet
  facet normal 0.707107 -0.707107 0
    outer loop
      vertex -5.07492 4.25842 9
      vertex -4.25842 5.07492 0
      vertex -4.25842 5.07492 9
    endloop
  endfacet
  facet normal 0.707107 -0.707107 0
    outer loop
      vertex -4.25842 5.07492 0
      vertex -5.07492 4.25842 9
      vertex -5.07492 4.25842 0
    endloop
  endfacet
  facet normal 0.965949 0.258732 0
    outer loop
      vertex -6.22543 -2.26578 9
      vertex -6.5242 -1.15036 0
      vertex -6.5242 -1.15036 9
    endloop
  endfacet
  facet normal 0.965949 0.258732 0
    outer loop
      vertex -6.5242 -1.15036 0
      vertex -6.22543 -2.26578 9
      vertex -6.22543 -2.26578 0
    endloop
  endfacet
  facet normal 0.81917 0.573551 0
    outer loop
      vertex -5.07492 -4.25842 9
      vertex -5.7373 -3.31238 0
      vertex -5.7373 -3.31238 9
    endloop
  endfacet
  facet normal 0.81917 0.573551 0
    outer loop
      vertex -5.7373 -3.31238 0
      vertex -5.07492 -4.25842 9
      vertex -5.07492 -4.25842 0
    endloop
  endfacet
  facet normal 0.573551 0.81917 -0
    outer loop
      vertex -3.31238 -5.7373 0
      vertex -4.25842 -5.07492 9
      vertex -3.31238 -5.7373 9
    endloop
  endfacet
  facet normal 0.573551 0.81917 0
    outer loop
      vertex -4.25842 -5.07492 9
      vertex -3.31238 -5.7373 0
      vertex -4.25842 -5.07492 0
    endloop
  endfacet
  facet normal 0.258732 0.965949 -0
    outer loop
      vertex -1.15036 -6.5242 0
      vertex -2.26578 -6.22543 9
      vertex -1.15036 -6.5242 9
    endloop
  endfacet
  facet normal 0.258732 0.965949 0
    outer loop
      vertex -2.26578 -6.22543 9
      vertex -1.15036 -6.5242 0
      vertex -2.26578 -6.22543 0
    endloop
  endfacet
  facet normal -0.0872112 0.99619 0
    outer loop
      vertex 1.15036 -6.5242 0
      vertex 0 -6.62491 9
      vertex 1.15036 -6.5242 9
    endloop
  endfacet
  facet normal -0.0872112 0.99619 0
    outer loop
      vertex 0 -6.62491 9
      vertex 1.15036 -6.5242 0
      vertex 0 -6.62491 0
    endloop
  endfacet
  facet normal -0.906278 -0.422683 0
    outer loop
      vertex 6.22543 2.26578 0
      vertex 5.7373 3.31238 9
      vertex 5.7373 3.31238 0
    endloop
  endfacet
  facet normal -0.906278 -0.422683 0
    outer loop
      vertex 5.7373 3.31238 9
      vertex 6.22543 2.26578 0
      vertex 6.22543 2.26578 9
    endloop
  endfacet
  facet normal -0.99619 0.0872112 0
    outer loop
      vertex 6.5242 -1.15036 0
      vertex 6.62491 0 9
      vertex 6.62491 0 0
    endloop
  endfacet
  facet normal -0.99619 0.0872112 0
    outer loop
      vertex 6.62491 0 9
      vertex 6.5242 -1.15036 0
      vertex 6.5242 -1.15036 9
    endloop
  endfacet
  facet normal -0.707107 0.707107 0
    outer loop
      vertex 4.25842 -5.07492 0
      vertex 5.07492 -4.25842 9
      vertex 5.07492 -4.25842 0
    endloop
  endfacet
  facet normal -0.707107 0.707107 0
    outer loop
      vertex 5.07492 -4.25842 9
      vertex 4.25842 -5.07492 0
      vertex 4.25842 -5.07492 9
    endloop
  endfacet
  facet normal -0.422683 0.906278 0
    outer loop
      vertex 59.5586 34.7748 0
      vertex 58.512 34.2867 9
      vertex 59.5586 34.7748 9
    endloop
  endfacet
  facet normal -0.422683 0.906278 0
    outer loop
      vertex 58.512 34.2867 9
      vertex 59.5586 34.7748 0
      vertex 58.512 34.2867 0
    endloop
  endfacet
  facet normal -0.0872112 0.99619 0
    outer loop
      vertex 57.3965 33.9879 0
      vertex 56.2462 33.8872 9
      vertex 57.3965 33.9879 9
    endloop
  endfacet
  facet normal -0.0872112 0.99619 0
    outer loop
      vertex 56.2462 33.8872 9
      vertex 57.3965 33.9879 0
      vertex 56.2462 33.8872 0
    endloop
  endfacet
  facet normal 0.258855 -0.965916 0
    outer loop
      vertex 53.9803 46.7377 0
      vertex 55.0957 47.0366 9
      vertex 53.9803 46.7377 9
    endloop
  endfacet
  facet normal 0.258855 -0.965916 0
    outer loop
      vertex 55.0957 47.0366 9
      vertex 53.9803 46.7377 0
      vertex 55.0957 47.0366 0
    endloop
  endfacet
  facet normal -0.258732 0.965949 0
    outer loop
      vertex 58.512 34.2867 0
      vertex 57.3965 33.9879 9
      vertex 58.512 34.2867 9
    endloop
  endfacet
  facet normal -0.258732 0.965949 0
    outer loop
      vertex 57.3965 33.9879 9
      vertex 58.512 34.2867 0
      vertex 57.3965 33.9879 0
    endloop
  endfacet
  facet normal -0.965949 -0.258732 0
    outer loop
      vertex 62.7704 41.6626 0
      vertex 62.4716 42.778 9
      vertex 62.4716 42.778 0
    endloop
  endfacet
  facet normal -0.965949 -0.258732 0
    outer loop
      vertex 62.4716 42.778 9
      vertex 62.7704 41.6626 0
      vertex 62.7704 41.6626 9
    endloop
  endfacet
  facet normal 0.819232 -0.573462 0
    outer loop
      vertex 50.5087 43.8246 9
      vertex 51.171 44.7707 0
      vertex 51.171 44.7707 9
    endloop
  endfacet
  facet normal 0.819232 -0.573462 0
    outer loop
      vertex 51.171 44.7707 0
      vertex 50.5087 43.8246 9
      vertex 50.5087 43.8246 0
    endloop
  endfacet
  facet normal -0.422683 -0.906278 0
    outer loop
      vertex 58.512 46.7377 0
      vertex 59.5586 46.2495 9
      vertex 58.512 46.7377 9
    endloop
  endfacet
  facet normal -0.422683 -0.906278 -0
    outer loop
      vertex 59.5586 46.2495 9
      vertex 58.512 46.7377 0
      vertex 59.5586 46.2495 0
    endloop
  endfacet
  facet normal -0.81917 -0.573551 0
    outer loop
      vertex 61.9835 43.8246 0
      vertex 61.3211 44.7707 9
      vertex 61.3211 44.7707 0
    endloop
  endfacet
  facet normal -0.81917 -0.573551 0
    outer loop
      vertex 61.3211 44.7707 9
      vertex 61.9835 43.8246 0
      vertex 61.9835 43.8246 9
    endloop
  endfacet
  facet normal 0.573551 -0.81917 0
    outer loop
      vertex 51.9876 45.5872 0
      vertex 52.9337 46.2495 9
      vertex 51.9876 45.5872 9
    endloop
  endfacet
  facet normal 0.573551 -0.81917 0
    outer loop
      vertex 52.9337 46.2495 9
      vertex 51.9876 45.5872 0
      vertex 52.9337 46.2495 0
    endloop
  endfacet
  facet normal 0.422683 -0.906278 0
    outer loop
      vertex 52.9337 46.2495 0
      vertex 53.9803 46.7377 9
      vertex 52.9337 46.2495 9
    endloop
  endfacet
  facet normal 0.422683 -0.906278 0
    outer loop
      vertex 53.9803 46.7377 9
      vertex 52.9337 46.2495 0
      vertex 53.9803 46.7377 0
    endloop
  endfacet
  facet normal 0.707041 -0.707173 0
    outer loop
      vertex 51.171 44.7707 0
      vertex 51.9876 45.5872 9
      vertex 51.171 44.7707 9
    endloop
  endfacet
  facet normal 0.707041 -0.707173 0
    outer loop
      vertex 51.9876 45.5872 9
      vertex 51.171 44.7707 0
      vertex 51.9876 45.5872 0
    endloop
  endfacet
  facet normal 0.965916 -0.258855 0
    outer loop
      vertex 49.7217 41.6626 9
      vertex 50.0206 42.778 0
      vertex 50.0206 42.778 9
    endloop
  endfacet
  facet normal 0.965916 -0.258855 0
    outer loop
      vertex 50.0206 42.778 0
      vertex 49.7217 41.6626 9
      vertex 49.7217 41.6626 0
    endloop
  endfacet
  facet normal 0.996202 -0.0870686 0
    outer loop
      vertex 49.6211 40.5121 9
      vertex 49.7217 41.6626 0
      vertex 49.7217 41.6626 9
    endloop
  endfacet
  facet normal 0.996202 -0.0870686 0
    outer loop
      vertex 49.7217 41.6626 0
      vertex 49.6211 40.5121 9
      vertex 49.6211 40.5121 0
    endloop
  endfacet
  facet normal 0.906278 -0.422683 0
    outer loop
      vertex 50.0206 42.778 9
      vertex 50.5087 43.8246 0
      vertex 50.5087 43.8246 9
    endloop
  endfacet
  facet normal 0.906278 -0.422683 0
    outer loop
      vertex 50.5087 43.8246 0
      vertex 50.0206 42.778 9
      vertex 50.0206 42.778 0
    endloop
  endfacet
  facet normal 0.965925 0.258822 0
    outer loop
      vertex 50.0206 38.2462 9
      vertex 49.7217 39.3617 0
      vertex 49.7217 39.3617 9
    endloop
  endfacet
  facet normal 0.965925 0.258822 0
    outer loop
      vertex 49.7217 39.3617 0
      vertex 50.0206 38.2462 9
      vertex 50.0206 38.2462 0
    endloop
  endfacet
  facet normal 0.819188 0.573524 0
    outer loop
      vertex 51.171 36.2537 9
      vertex 50.5087 37.1996 0
      vertex 50.5087 37.1996 9
    endloop
  endfacet
  facet normal 0.819188 0.573524 0
    outer loop
      vertex 50.5087 37.1996 0
      vertex 51.171 36.2537 9
      vertex 51.171 36.2537 0
    endloop
  endfacet
  facet normal 0.573551 0.81917 -0
    outer loop
      vertex 52.9337 34.7748 0
      vertex 51.9876 35.4372 9
      vertex 52.9337 34.7748 9
    endloop
  endfacet
  facet normal 0.573551 0.81917 0
    outer loop
      vertex 51.9876 35.4372 9
      vertex 52.9337 34.7748 0
      vertex 51.9876 35.4372 0
    endloop
  endfacet
  facet normal -0.0870801 -0.996201 0
    outer loop
      vertex 56.2462 47.1371 0
      vertex 57.3965 47.0366 9
      vertex 56.2462 47.1371 9
    endloop
  endfacet
  facet normal -0.0870801 -0.996201 -0
    outer loop
      vertex 57.3965 47.0366 9
      vertex 56.2462 47.1371 0
      vertex 57.3965 47.0366 0
    endloop
  endfacet
  facet normal -0.707107 -0.707107 0
    outer loop
      vertex 61.3211 44.7707 0
      vertex 60.5046 45.5872 9
      vertex 60.5046 45.5872 0
    endloop
  endfacet
  facet normal -0.707107 -0.707107 0
    outer loop
      vertex 60.5046 45.5872 9
      vertex 61.3211 44.7707 0
      vertex 61.3211 44.7707 9
    endloop
  endfacet
  facet normal -0.573551 -0.81917 0
    outer loop
      vertex 59.5586 46.2495 0
      vertex 60.5046 45.5872 9
      vertex 59.5586 46.2495 9
    endloop
  endfacet
  facet normal -0.573551 -0.81917 -0
    outer loop
      vertex 60.5046 45.5872 9
      vertex 59.5586 46.2495 0
      vertex 60.5046 45.5872 0
    endloop
  endfacet
  facet normal -0.258855 -0.965916 0
    outer loop
      vertex 57.3965 47.0366 0
      vertex 58.512 46.7377 9
      vertex 57.3965 47.0366 9
    endloop
  endfacet
  facet normal -0.258855 -0.965916 -0
    outer loop
      vertex 58.512 46.7377 9
      vertex 57.3965 47.0366 0
      vertex 58.512 46.7377 0
    endloop
  endfacet
  facet normal 0.0870686 -0.996202 0
    outer loop
      vertex 55.0957 47.0366 0
      vertex 56.2462 47.1371 9
      vertex 55.0957 47.0366 9
    endloop
  endfacet
  facet normal 0.0870686 -0.996202 0
    outer loop
      vertex 56.2462 47.1371 9
      vertex 55.0957 47.0366 0
      vertex 56.2462 47.1371 0
    endloop
  endfacet
  facet normal -0.965958 0.258699 0
    outer loop
      vertex 62.4716 38.2462 0
      vertex 62.7704 39.3617 9
      vertex 62.7704 39.3617 0
    endloop
  endfacet
  facet normal -0.965958 0.258699 0
    outer loop
      vertex 62.7704 39.3617 9
      vertex 62.4716 38.2462 0
      vertex 62.4716 38.2462 9
    endloop
  endfacet
  facet normal -0.996191 -0.0871997 0
    outer loop
      vertex 62.8711 40.5121 0
      vertex 62.7704 41.6626 9
      vertex 62.7704 41.6626 0
    endloop
  endfacet
  facet normal -0.996191 -0.0871997 0
    outer loop
      vertex 62.7704 41.6626 9
      vertex 62.8711 40.5121 0
      vertex 62.8711 40.5121 9
    endloop
  endfacet
  facet normal -0.819126 0.573613 0
    outer loop
      vertex 61.3211 36.2537 0
      vertex 61.9835 37.1996 9
      vertex 61.9835 37.1996 0
    endloop
  endfacet
  facet normal -0.819126 0.573613 0
    outer loop
      vertex 61.9835 37.1996 9
      vertex 61.3211 36.2537 0
      vertex 61.3211 36.2537 9
    endloop
  endfacet
  facet normal -0.573551 0.81917 0
    outer loop
      vertex 60.5046 35.4372 0
      vertex 59.5586 34.7748 9
      vertex 60.5046 35.4372 9
    endloop
  endfacet
  facet normal -0.573551 0.81917 0
    outer loop
      vertex 59.5586 34.7748 9
      vertex 60.5046 35.4372 0
      vertex 59.5586 34.7748 0
    endloop
  endfacet
  facet normal 0.996201 0.0870801 0
    outer loop
      vertex 49.7217 39.3617 9
      vertex 49.6211 40.5121 0
      vertex 49.6211 40.5121 9
    endloop
  endfacet
  facet normal 0.996201 0.0870801 0
    outer loop
      vertex 49.6211 40.5121 0
      vertex 49.7217 39.3617 9
      vertex 49.7217 39.3617 0
    endloop
  endfacet
  facet normal 0.906278 0.422683 0
    outer loop
      vertex 50.5087 37.1996 9
      vertex 50.0206 38.2462 0
      vertex 50.0206 38.2462 9
    endloop
  endfacet
  facet normal 0.906278 0.422683 0
    outer loop
      vertex 50.0206 38.2462 0
      vertex 50.5087 37.1996 9
      vertex 50.5087 37.1996 0
    endloop
  endfacet
  facet normal 0.707041 0.707173 -0
    outer loop
      vertex 51.9876 35.4372 0
      vertex 51.171 36.2537 9
      vertex 51.9876 35.4372 9
    endloop
  endfacet
  facet normal 0.707041 0.707173 0
    outer loop
      vertex 51.171 36.2537 9
      vertex 51.9876 35.4372 0
      vertex 51.171 36.2537 0
    endloop
  endfacet
  facet normal 0.422683 0.906278 -0
    outer loop
      vertex 53.9803 34.2867 0
      vertex 52.9337 34.7748 9
      vertex 53.9803 34.2867 9
    endloop
  endfacet
  facet normal 0.422683 0.906278 0
    outer loop
      vertex 52.9337 34.7748 9
      vertex 53.9803 34.2867 0
      vertex 52.9337 34.7748 0
    endloop
  endfacet
  facet normal 0.258732 0.965949 -0
    outer loop
      vertex 55.0957 33.9879 0
      vertex 53.9803 34.2867 9
      vertex 55.0957 33.9879 9
    endloop
  endfacet
  facet normal 0.258732 0.965949 0
    outer loop
      vertex 53.9803 34.2867 9
      vertex 55.0957 33.9879 0
      vertex 53.9803 34.2867 0
    endloop
  endfacet
  facet normal -0.906278 -0.422683 0
    outer loop
      vertex 62.4716 42.778 0
      vertex 61.9835 43.8246 9
      vertex 61.9835 43.8246 0
    endloop
  endfacet
  facet normal -0.906278 -0.422683 0
    outer loop
      vertex 61.9835 43.8246 9
      vertex 62.4716 42.778 0
      vertex 62.4716 42.778 9
    endloop
  endfacet
  facet normal -0.99619 0.0872112 0
    outer loop
      vertex 62.7704 39.3617 0
      vertex 62.8711 40.5121 9
      vertex 62.8711 40.5121 0
    endloop
  endfacet
  facet normal -0.99619 0.0872112 0
    outer loop
      vertex 62.8711 40.5121 9
      vertex 62.7704 39.3617 0
      vertex 62.7704 39.3617 9
    endloop
  endfacet
  facet normal -0.906278 0.422683 0
    outer loop
      vertex 61.9835 37.1996 0
      vertex 62.4716 38.2462 9
      vertex 62.4716 38.2462 0
    endloop
  endfacet
  facet normal -0.906278 0.422683 0
    outer loop
      vertex 62.4716 38.2462 9
      vertex 61.9835 37.1996 0
      vertex 61.9835 37.1996 9
    endloop
  endfacet
  facet normal -0.707107 0.707107 0
    outer loop
      vertex 60.5046 35.4372 0
      vertex 61.3211 36.2537 9
      vertex 61.3211 36.2537 0
    endloop
  endfacet
  facet normal -0.707107 0.707107 0
    outer loop
      vertex 61.3211 36.2537 9
      vertex 60.5046 35.4372 0
      vertex 60.5046 35.4372 9
    endloop
  endfacet
  facet normal 0.0871997 0.996191 -0
    outer loop
      vertex 56.2462 33.8872 0
      vertex 55.0957 33.9879 9
      vertex 56.2462 33.8872 9
    endloop
  endfacet
  facet normal 0.0871997 0.996191 0
    outer loop
      vertex 55.0957 33.9879 9
      vertex 56.2462 33.8872 0
      vertex 55.0957 33.9879 0
    endloop
  endfacet
endsolid OpenSCAD_Model
