solid OpenSCAD_Model
  facet normal 0.125913 -0.992041 0
    outer loop
      vertex 20.6567 -18.2153 0
      vertex 21.9536 -18.0507 5.4
      vertex 20.6567 -18.2153 5.4
    endloop
  endfacet
  facet normal 0.125913 -0.992041 0
    outer loop
      vertex 21.9536 -18.0507 5.4
      vertex 20.6567 -18.2153 0
      vertex 21.9536 -18.0507 0
    endloop
  endfacet
  facet normal 0.296304 -0.955094 0
    outer loop
      vertex 21.9536 -18.0507 0
      vertex 23.2022 -17.6634 5.4
      vertex 21.9536 -18.0507 5.4
    endloop
  endfacet
  facet normal 0.296304 -0.955094 0
    outer loop
      vertex 23.2022 -17.6634 5.4
      vertex 21.9536 -18.0507 0
      vertex 23.2022 -17.6634 0
    endloop
  endfacet
  facet normal -0.125913 0.992041 0
    outer loop
      vertex -0.292419 7.49423 0
      vertex -1.58936 7.32962 5.4
      vertex -0.292419 7.49423 5.4
    endloop
  endfacet
  facet normal -0.125913 0.992041 0
    outer loop
      vertex -1.58936 7.32962 5.4
      vertex -0.292419 7.49423 0
      vertex -1.58936 7.32962 0
    endloop
  endfacet
  facet normal -0.541232 -0.840873 0
    outer loop
      vertex -4.5932 -5.92886 0
      vertex -3.49384 -6.63647 5.4
      vertex -4.5932 -5.92886 5.4
    endloop
  endfacet
  facet normal -0.541232 -0.840873 -0
    outer loop
      vertex -3.49384 -6.63647 5.4
      vertex -4.5932 -5.92886 0
      vertex -3.49384 -6.63647 0
    endloop
  endfacet
  facet normal 0.465848 0.884865 -0
    outer loop
      vertex 23.8581 -4.08453 0
      vertex 3.49384 6.63647 5.4
      vertex 23.8581 -4.08453 5.4
    endloop
  endfacet
  facet normal 0.465848 0.884865 0
    outer loop
      vertex 3.49384 6.63647 5.4
      vertex 23.8581 -4.08453 0
      vertex 3.49384 6.63647 0
    endloop
  endfacet
  facet normal -0.840873 0.541232 0
    outer loop
      vertex -6.63647 3.49384 0
      vertex -5.92886 4.5932 5.4
      vertex -5.92886 4.5932 0
    endloop
  endfacet
  facet normal -0.840873 0.541232 0
    outer loop
      vertex -5.92886 4.5932 5.4
      vertex -6.63647 3.49384 0
      vertex -6.63647 3.49384 5.4
    endloop
  endfacet
  facet normal -0.922111 0.386926 0
    outer loop
      vertex -7.1423 2.28836 0
      vertex -6.63647 3.49384 5.4
      vertex -6.63647 3.49384 0
    endloop
  endfacet
  facet normal -0.922111 0.386926 0
    outer loop
      vertex -6.63647 3.49384 5.4
      vertex -7.1423 2.28836 0
      vertex -7.1423 2.28836 5.4
    endloop
  endfacet
  facet normal -0.386926 -0.922111 0
    outer loop
      vertex 16.8704 -17.3576 0
      vertex 18.0759 -17.8634 5.4
      vertex 16.8704 -17.3576 5.4
    endloop
  endfacet
  facet normal -0.386926 -0.922111 -0
    outer loop
      vertex 18.0759 -17.8634 5.4
      vertex 16.8704 -17.3576 0
      vertex 18.0759 -17.8634 0
    endloop
  endfacet
  facet normal -0.22094 -0.975287 0
    outer loop
      vertex 18.0759 -17.8634 0
      vertex 19.351 -18.1523 5.4
      vertex 18.0759 -17.8634 5.4
    endloop
  endfacet
  facet normal -0.22094 -0.975287 -0
    outer loop
      vertex 19.351 -18.1523 5.4
      vertex 18.0759 -17.8634 0
      vertex 19.351 -18.1523 0
    endloop
  endfacet
  facet normal -0.465851 -0.884863 0
    outer loop
      vertex -3.49384 -6.63647 0
      vertex 16.8704 -17.3576 5.4
      vertex -3.49384 -6.63647 5.4
    endloop
  endfacet
  facet normal -0.465851 -0.884863 -0
    outer loop
      vertex 16.8704 -17.3576 5.4
      vertex -3.49384 -6.63647 0
      vertex 16.8704 -17.3576 0
    endloop
  endfacet
  facet normal 0.22094 0.975287 -0
    outer loop
      vertex 2.28836 7.1423 0
      vertex 1.01331 7.43115 5.4
      vertex 2.28836 7.1423 5.4
    endloop
  endfacet
  facet normal 0.22094 0.975287 0
    outer loop
      vertex 1.01331 7.43115 5.4
      vertex 2.28836 7.1423 0
      vertex 1.01331 7.43115 0
    endloop
  endfacet
  facet normal -0.0482539 -0.998835 0
    outer loop
      vertex 19.351 -18.1523 0
      vertex 20.6567 -18.2153 5.4
      vertex 19.351 -18.1523 5.4
    endloop
  endfacet
  facet normal -0.0482539 -0.998835 -0
    outer loop
      vertex 20.6567 -18.2153 5.4
      vertex 19.351 -18.1523 0
      vertex 20.6567 -18.2153 0
    endloop
  endfacet
  facet normal -0 0 1
    outer loop
      vertex 24.2789 -10.0308 5.4
      vertex 27.8586 -10.4286 5.4
      vertex 27.6939 -9.13165 5.4
    endloop
  endfacet
  facet normal 0 0 1
    outer loop
      vertex 27.8586 -10.4286 5.4
      vertex 24.3393 -10.7211 5.4
      vertex 27.7955 -11.7344 5.4
    endloop
  endfacet
  facet normal 0 0 1
    outer loop
      vertex 24.0995 -9.36154 5.4
      vertex 27.6939 -9.13165 5.4
      vertex 27.3065 -7.88297 5.4
    endloop
  endfacet
  facet normal -0 0 1
    outer loop
      vertex 24.2789 -11.4113 5.4
      vertex 27.7955 -11.7344 5.4
      vertex 24.3393 -10.7211 5.4
    endloop
  endfacet
  facet normal 0 0 1
    outer loop
      vertex 23.8067 -8.73358 5.4
      vertex 27.3065 -7.88297 5.4
      vertex 26.7083 -6.72061 5.4
    endloop
  endfacet
  facet normal 0 0 1
    outer loop
      vertex 27.7955 -11.7344 5.4
      vertex 24.2789 -11.4113 5.4
      vertex 27.5066 -13.0094 5.4
    endloop
  endfacet
  facet normal 0 0 1
    outer loop
      vertex 23.4093 -8.16595 5.4
      vertex 26.7083 -6.72061 5.4
      vertex 25.9173 -5.67975 5.4
    endloop
  endfacet
  facet normal -0 0 1
    outer loop
      vertex 24.0995 -12.0806 5.4
      vertex 27.5066 -13.0094 5.4
      vertex 24.2789 -11.4113 5.4
    endloop
  endfacet
  facet normal 0 0 1
    outer loop
      vertex 22.9193 -7.67596 5.4
      vertex 25.9173 -5.67975 5.4
      vertex 24.9575 -4.79205 5.4
    endloop
  endfacet
  facet normal 0 0 1
    outer loop
      vertex 27.5066 -13.0094 5.4
      vertex 24.0995 -12.0806 5.4
      vertex 27.0007 -14.2149 5.4
    endloop
  endfacet
  facet normal -0 0 1
    outer loop
      vertex 23.8067 -12.7085 5.4
      vertex 27.0007 -14.2149 5.4
      vertex 24.0995 -12.0806 5.4
    endloop
  endfacet
  facet normal 0 0 1
    outer loop
      vertex 27.8586 -10.4286 5.4
      vertex 24.2789 -10.0308 5.4
      vertex 24.3393 -10.7211 5.4
    endloop
  endfacet
  facet normal 0 0 1
    outer loop
      vertex 27.6939 -9.13165 5.4
      vertex 24.0995 -9.36154 5.4
      vertex 24.2789 -10.0308 5.4
    endloop
  endfacet
  facet normal 0 0 1
    outer loop
      vertex 22.3518 -7.27853 5.4
      vertex 24.9575 -4.79205 5.4
      vertex 23.8581 -4.08453 5.4
    endloop
  endfacet
  facet normal 0 0 1
    outer loop
      vertex 27.3065 -7.88297 5.4
      vertex 23.8067 -8.73358 5.4
      vertex 24.0995 -9.36154 5.4
    endloop
  endfacet
  facet normal 0 0 1
    outer loop
      vertex 26.7083 -6.72061 5.4
      vertex 23.4093 -8.16595 5.4
      vertex 23.8067 -8.73358 5.4
    endloop
  endfacet
  facet normal 0 0 1
    outer loop
      vertex 25.9173 -5.67975 5.4
      vertex 22.9193 -7.67596 5.4
      vertex 23.4093 -8.16595 5.4
    endloop
  endfacet
  facet normal 0 0 1
    outer loop
      vertex 24.9575 -4.79205 5.4
      vertex 22.3518 -7.27853 5.4
      vertex 22.9193 -7.67596 5.4
    endloop
  endfacet
  facet normal 0 0 1
    outer loop
      vertex 23.8581 -4.08453 5.4
      vertex 21.7238 -6.98575 5.4
      vertex 22.3518 -7.27853 5.4
    endloop
  endfacet
  facet normal 0 0 1
    outer loop
      vertex 23.8581 -4.08453 5.4
      vertex 21.0545 -6.8064 5.4
      vertex 21.7238 -6.98575 5.4
    endloop
  endfacet
  facet normal 0 0 1
    outer loop
      vertex 23.8581 -4.08453 5.4
      vertex 20.3643 -6.74606 5.4
      vertex 21.0545 -6.8064 5.4
    endloop
  endfacet
  facet normal 0 0 1
    outer loop
      vertex 23.8581 -4.08453 5.4
      vertex 19.674 -6.8064 5.4
      vertex 20.3643 -6.74606 5.4
    endloop
  endfacet
  facet normal 0 0 1
    outer loop
      vertex 23.8581 -4.08453 5.4
      vertex 19.0047 -6.98575 5.4
      vertex 19.674 -6.8064 5.4
    endloop
  endfacet
  facet normal 0 0 1
    outer loop
      vertex 3.73526 1.35947 5.4
      vertex 19.0047 -6.98575 5.4
      vertex 23.8581 -4.08453 5.4
    endloop
  endfacet
  facet normal -0 0 1
    outer loop
      vertex 3.44238 -1.98743 5.4
      vertex 16.9218 -8.73358 5.4
      vertex 3.73526 -1.35947 5.4
    endloop
  endfacet
  facet normal 0 0 1
    outer loop
      vertex 17.3192 -8.16595 5.4
      vertex 3.73526 -1.35947 5.4
      vertex 16.9218 -8.73358 5.4
    endloop
  endfacet
  facet normal -0 0 1
    outer loop
      vertex 3.73526 -1.35947 5.4
      vertex 17.3192 -8.16595 5.4
      vertex 3.91452 -0.690216 5.4
    endloop
  endfacet
  facet normal 0 0 1
    outer loop
      vertex 17.8091 -7.67596 5.4
      vertex 3.91452 -0.690216 5.4
      vertex 17.3192 -8.16595 5.4
    endloop
  endfacet
  facet normal -0 0 1
    outer loop
      vertex 3.91452 -0.690216 5.4
      vertex 17.8091 -7.67596 5.4
      vertex 3.97495 0 5.4
    endloop
  endfacet
  facet normal 0 0 1
    outer loop
      vertex 18.3767 -7.27853 5.4
      vertex 3.97495 0 5.4
      vertex 17.8091 -7.67596 5.4
    endloop
  endfacet
  facet normal -0 -0 1
    outer loop
      vertex 3.91452 0.690216 5.4
      vertex 19.0047 -6.98575 5.4
      vertex 3.73526 1.35947 5.4
    endloop
  endfacet
  facet normal 0 0 1
    outer loop
      vertex 18.3767 -7.27853 5.4
      vertex 3.91452 0.690216 5.4
      vertex 3.97495 0 5.4
    endloop
  endfacet
  facet normal 0 0 1
    outer loop
      vertex 19.0047 -6.98575 5.4
      vertex 3.91452 0.690216 5.4
      vertex 18.3767 -7.27853 5.4
    endloop
  endfacet
  facet normal 0 0 1
    outer loop
      vertex 3.49384 6.63647 5.4
      vertex 3.73526 1.35947 5.4
      vertex 23.8581 -4.08453 5.4
    endloop
  endfacet
  facet normal 0 0 1
    outer loop
      vertex 3.49384 6.63647 5.4
      vertex 3.44238 1.98743 5.4
      vertex 3.73526 1.35947 5.4
    endloop
  endfacet
  facet normal 0 0 1
    outer loop
      vertex 3.49384 6.63647 5.4
      vertex 3.04495 2.55505 5.4
      vertex 3.44238 1.98743 5.4
    endloop
  endfacet
  facet normal 0 0 1
    outer loop
      vertex 3.49384 6.63647 5.4
      vertex 2.55505 3.04495 5.4
      vertex 3.04495 2.55505 5.4
    endloop
  endfacet
  facet normal 0 0 1
    outer loop
      vertex 1.35947 3.73526 5.4
      vertex 3.49384 6.63647 5.4
      vertex 2.28836 7.1423 5.4
    endloop
  endfacet
  facet normal 0 0 1
    outer loop
      vertex 3.49384 6.63647 5.4
      vertex 1.98743 3.44238 5.4
      vertex 2.55505 3.04495 5.4
    endloop
  endfacet
  facet normal 0 0 1
    outer loop
      vertex 3.49384 6.63647 5.4
      vertex 1.35947 3.73526 5.4
      vertex 1.98743 3.44238 5.4
    endloop
  endfacet
  facet normal 0 0 1
    outer loop
      vertex 0.690216 3.91452 5.4
      vertex 2.28836 7.1423 5.4
      vertex 1.01331 7.43115 5.4
    endloop
  endfacet
  facet normal 0 0 1
    outer loop
      vertex 2.28836 7.1423 5.4
      vertex 0.690216 3.91452 5.4
      vertex 1.35947 3.73526 5.4
    endloop
  endfacet
  facet normal 0 0 1
    outer loop
      vertex 1.01331 7.43115 5.4
      vertex 0 3.97495 5.4
      vertex 0.690216 3.91452 5.4
    endloop
  endfacet
  facet normal 0 0 1
    outer loop
      vertex -0.292419 7.49423 5.4
      vertex 0 3.97495 5.4
      vertex 1.01331 7.43115 5.4
    endloop
  endfacet
  facet normal 0 0 1
    outer loop
      vertex -0.292419 7.49423 5.4
      vertex -0.690216 3.91452 5.4
      vertex 0 3.97495 5.4
    endloop
  endfacet
  facet normal -0 0 1
    outer loop
      vertex -1.58936 7.32962 5.4
      vertex -0.690216 3.91452 5.4
      vertex -0.292419 7.49423 5.4
    endloop
  endfacet
  facet normal 0 0 1
    outer loop
      vertex -0.690216 3.91452 5.4
      vertex -1.58936 7.32962 5.4
      vertex -1.35947 3.73526 5.4
    endloop
  endfacet
  facet normal -0 0 1
    outer loop
      vertex -2.83795 6.94226 5.4
      vertex -1.35947 3.73526 5.4
      vertex -1.58936 7.32962 5.4
    endloop
  endfacet
  facet normal 0 0 1
    outer loop
      vertex -1.35947 3.73526 5.4
      vertex -2.83795 6.94226 5.4
      vertex -1.98743 3.44238 5.4
    endloop
  endfacet
  facet normal -0 0 1
    outer loop
      vertex -4.0004 6.34396 5.4
      vertex -1.98743 3.44238 5.4
      vertex -2.83795 6.94226 5.4
    endloop
  endfacet
  facet normal 0 0 1
    outer loop
      vertex -1.98743 3.44238 5.4
      vertex -4.0004 6.34396 5.4
      vertex -2.55505 3.04495 5.4
    endloop
  endfacet
  facet normal -0 0 1
    outer loop
      vertex -5.04126 5.55295 5.4
      vertex -2.55505 3.04495 5.4
      vertex -4.0004 6.34396 5.4
    endloop
  endfacet
  facet normal 0 0 1
    outer loop
      vertex -2.55505 3.04495 5.4
      vertex -5.04126 5.55295 5.4
      vertex -3.04495 2.55505 5.4
    endloop
  endfacet
  facet normal -0 0 1
    outer loop
      vertex -5.92886 4.5932 5.4
      vertex -3.04495 2.55505 5.4
      vertex -5.04126 5.55295 5.4
    endloop
  endfacet
  facet normal -0 0 1
    outer loop
      vertex -6.63647 3.49384 5.4
      vertex -3.44238 1.98743 5.4
      vertex -5.92886 4.5932 5.4
    endloop
  endfacet
  facet normal 0 0 1
    outer loop
      vertex -3.04495 2.55505 5.4
      vertex -5.92886 4.5932 5.4
      vertex -3.44238 1.98743 5.4
    endloop
  endfacet
  facet normal 0 0 1
    outer loop
      vertex 27.0007 -14.2149 5.4
      vertex 23.8067 -12.7085 5.4
      vertex 26.2932 -15.3142 5.4
    endloop
  endfacet
  facet normal -0 0 1
    outer loop
      vertex 23.4093 -13.2761 5.4
      vertex 26.2932 -15.3142 5.4
      vertex 23.8067 -12.7085 5.4
    endloop
  endfacet
  facet normal 0 0 1
    outer loop
      vertex 26.2932 -15.3142 5.4
      vertex 23.4093 -13.2761 5.4
      vertex 25.4055 -16.274 5.4
    endloop
  endfacet
  facet normal -0 0 1
    outer loop
      vertex 22.9193 -13.7661 5.4
      vertex 25.4055 -16.274 5.4
      vertex 23.4093 -13.2761 5.4
    endloop
  endfacet
  facet normal 0 0 1
    outer loop
      vertex 25.4055 -16.274 5.4
      vertex 22.9193 -13.7661 5.4
      vertex 24.3647 -17.0651 5.4
    endloop
  endfacet
  facet normal -0 0 1
    outer loop
      vertex 22.3518 -14.1635 5.4
      vertex 24.3647 -17.0651 5.4
      vertex 22.9193 -13.7661 5.4
    endloop
  endfacet
  facet normal 0 0 1
    outer loop
      vertex 24.3647 -17.0651 5.4
      vertex 22.3518 -14.1635 5.4
      vertex 23.2022 -17.6634 5.4
    endloop
  endfacet
  facet normal -0 0 1
    outer loop
      vertex 21.7238 -14.4563 5.4
      vertex 23.2022 -17.6634 5.4
      vertex 22.3518 -14.1635 5.4
    endloop
  endfacet
  facet normal 0 0 1
    outer loop
      vertex 23.2022 -17.6634 5.4
      vertex 21.7238 -14.4563 5.4
      vertex 21.9536 -18.0507 5.4
    endloop
  endfacet
  facet normal -0 0 1
    outer loop
      vertex 21.0545 -14.6356 5.4
      vertex 21.9536 -18.0507 5.4
      vertex 21.7238 -14.4563 5.4
    endloop
  endfacet
  facet normal 0 0 1
    outer loop
      vertex 21.0545 -14.6356 5.4
      vertex 20.6567 -18.2153 5.4
      vertex 21.9536 -18.0507 5.4
    endloop
  endfacet
  facet normal -0 0 1
    outer loop
      vertex 20.3643 -14.696 5.4
      vertex 20.6567 -18.2153 5.4
      vertex 21.0545 -14.6356 5.4
    endloop
  endfacet
  facet normal 0 0 1
    outer loop
      vertex 19.351 -18.1523 5.4
      vertex 20.3643 -14.696 5.4
      vertex 19.674 -14.6356 5.4
    endloop
  endfacet
  facet normal 0 0 1
    outer loop
      vertex 20.3643 -14.696 5.4
      vertex 19.351 -18.1523 5.4
      vertex 20.6567 -18.2153 5.4
    endloop
  endfacet
  facet normal 0 0 1
    outer loop
      vertex 18.0759 -17.8634 5.4
      vertex 19.674 -14.6356 5.4
      vertex 19.0047 -14.4563 5.4
    endloop
  endfacet
  facet normal 0 0 1
    outer loop
      vertex 16.8704 -17.3576 5.4
      vertex 19.0047 -14.4563 5.4
      vertex 18.3767 -14.1635 5.4
    endloop
  endfacet
  facet normal 0 0 1
    outer loop
      vertex 19.674 -14.6356 5.4
      vertex 18.0759 -17.8634 5.4
      vertex 19.351 -18.1523 5.4
    endloop
  endfacet
  facet normal 0 0 1
    outer loop
      vertex 16.8704 -17.3576 5.4
      vertex 18.3767 -14.1635 5.4
      vertex 17.8091 -13.7661 5.4
    endloop
  endfacet
  facet normal 0 0 1
    outer loop
      vertex 16.8704 -17.3576 5.4
      vertex 17.8091 -13.7661 5.4
      vertex 17.3192 -13.2761 5.4
    endloop
  endfacet
  facet normal 0 0 1
    outer loop
      vertex 16.8704 -17.3576 5.4
      vertex 17.3192 -13.2761 5.4
      vertex 16.9218 -12.7085 5.4
    endloop
  endfacet
  facet normal 0 0 1
    outer loop
      vertex 19.0047 -14.4563 5.4
      vertex 16.8704 -17.3576 5.4
      vertex 18.0759 -17.8634 5.4
    endloop
  endfacet
  facet normal 0 0 1
    outer loop
      vertex 16.629 -12.0806 5.4
      vertex 16.8704 -17.3576 5.4
      vertex 16.9218 -12.7085 5.4
    endloop
  endfacet
  facet normal 0 0 1
    outer loop
      vertex 1.35947 -3.73526 5.4
      vertex 16.629 -12.0806 5.4
      vertex 16.4496 -11.4113 5.4
    endloop
  endfacet
  facet normal 0 0 1
    outer loop
      vertex 1.98743 -3.44238 5.4
      vertex 16.4496 -11.4113 5.4
      vertex 16.3892 -10.7211 5.4
    endloop
  endfacet
  facet normal 0 0 1
    outer loop
      vertex 16.9218 -8.73358 5.4
      vertex 3.44238 -1.98743 5.4
      vertex 16.629 -9.36154 5.4
    endloop
  endfacet
  facet normal -0 0 1
    outer loop
      vertex 3.04495 -2.55505 5.4
      vertex 16.629 -9.36154 5.4
      vertex 3.44238 -1.98743 5.4
    endloop
  endfacet
  facet normal 0 0 1
    outer loop
      vertex 16.629 -9.36154 5.4
      vertex 3.04495 -2.55505 5.4
      vertex 16.4496 -10.0308 5.4
    endloop
  endfacet
  facet normal -0 0 1
    outer loop
      vertex 2.55505 -3.04495 5.4
      vertex 16.4496 -10.0308 5.4
      vertex 3.04495 -2.55505 5.4
    endloop
  endfacet
  facet normal 0 0 1
    outer loop
      vertex 16.4496 -10.0308 5.4
      vertex 2.55505 -3.04495 5.4
      vertex 16.3892 -10.7211 5.4
    endloop
  endfacet
  facet normal -0 0 1
    outer loop
      vertex 1.98743 -3.44238 5.4
      vertex 16.3892 -10.7211 5.4
      vertex 2.55505 -3.04495 5.4
    endloop
  endfacet
  facet normal 0 0 1
    outer loop
      vertex 16.4496 -11.4113 5.4
      vertex 1.98743 -3.44238 5.4
      vertex 1.35947 -3.73526 5.4
    endloop
  endfacet
  facet normal 0 0 1
    outer loop
      vertex 16.629 -12.0806 5.4
      vertex 1.35947 -3.73526 5.4
      vertex 16.8704 -17.3576 5.4
    endloop
  endfacet
  facet normal 0 0 1
    outer loop
      vertex -3.49384 -6.63647 5.4
      vertex 1.35947 -3.73526 5.4
      vertex 0.690216 -3.91452 5.4
    endloop
  endfacet
  facet normal 0 0 1
    outer loop
      vertex -3.49384 -6.63647 5.4
      vertex 0.690216 -3.91452 5.4
      vertex 0 -3.97495 5.4
    endloop
  endfacet
  facet normal 0 0 1
    outer loop
      vertex -3.49384 -6.63647 5.4
      vertex 0 -3.97495 5.4
      vertex -0.690216 -3.91452 5.4
    endloop
  endfacet
  facet normal 0 0 1
    outer loop
      vertex -3.49384 -6.63647 5.4
      vertex -0.690216 -3.91452 5.4
      vertex -1.35947 -3.73526 5.4
    endloop
  endfacet
  facet normal 0 0 1
    outer loop
      vertex -3.49384 -6.63647 5.4
      vertex -1.35947 -3.73526 5.4
      vertex -1.98743 -3.44238 5.4
    endloop
  endfacet
  facet normal 0 0 1
    outer loop
      vertex -4.5932 -5.92886 5.4
      vertex -1.98743 -3.44238 5.4
      vertex -2.55505 -3.04495 5.4
    endloop
  endfacet
  facet normal 0 0 1
    outer loop
      vertex 1.35947 -3.73526 5.4
      vertex -3.49384 -6.63647 5.4
      vertex 16.8704 -17.3576 5.4
    endloop
  endfacet
  facet normal 0 0 1
    outer loop
      vertex -5.55295 -5.04126 5.4
      vertex -2.55505 -3.04495 5.4
      vertex -3.04495 -2.55505 5.4
    endloop
  endfacet
  facet normal 0 0 1
    outer loop
      vertex -6.34396 -4.0004 5.4
      vertex -3.04495 -2.55505 5.4
      vertex -3.44238 -1.98743 5.4
    endloop
  endfacet
  facet normal 0 0 1
    outer loop
      vertex -6.94226 -2.83795 5.4
      vertex -3.44238 -1.98743 5.4
      vertex -3.73526 -1.35947 5.4
    endloop
  endfacet
  facet normal 0 0 1
    outer loop
      vertex -7.32962 -1.58936 5.4
      vertex -3.73526 -1.35947 5.4
      vertex -3.91452 -0.690216 5.4
    endloop
  endfacet
  facet normal -0 0 1
    outer loop
      vertex -7.49423 -0.292419 5.4
      vertex -3.91452 -0.690216 5.4
      vertex -3.97495 0 5.4
    endloop
  endfacet
  facet normal 0 0 1
    outer loop
      vertex -1.98743 -3.44238 5.4
      vertex -4.5932 -5.92886 5.4
      vertex -3.49384 -6.63647 5.4
    endloop
  endfacet
  facet normal 0 0 1
    outer loop
      vertex -3.44238 1.98743 5.4
      vertex -6.63647 3.49384 5.4
      vertex -3.73526 1.35947 5.4
    endloop
  endfacet
  facet normal -0 0 1
    outer loop
      vertex -7.1423 2.28836 5.4
      vertex -3.73526 1.35947 5.4
      vertex -6.63647 3.49384 5.4
    endloop
  endfacet
  facet normal 0 0 1
    outer loop
      vertex -2.55505 -3.04495 5.4
      vertex -5.55295 -5.04126 5.4
      vertex -4.5932 -5.92886 5.4
    endloop
  endfacet
  facet normal 0 0 1
    outer loop
      vertex -3.73526 1.35947 5.4
      vertex -7.1423 2.28836 5.4
      vertex -3.91452 0.690216 5.4
    endloop
  endfacet
  facet normal 0 0 1
    outer loop
      vertex -3.04495 -2.55505 5.4
      vertex -6.34396 -4.0004 5.4
      vertex -5.55295 -5.04126 5.4
    endloop
  endfacet
  facet normal -0 0 1
    outer loop
      vertex -7.43115 1.01331 5.4
      vertex -3.91452 0.690216 5.4
      vertex -7.1423 2.28836 5.4
    endloop
  endfacet
  facet normal 0 0 1
    outer loop
      vertex -3.44238 -1.98743 5.4
      vertex -6.94226 -2.83795 5.4
      vertex -6.34396 -4.0004 5.4
    endloop
  endfacet
  facet normal 0 0 1
    outer loop
      vertex -3.91452 0.690216 5.4
      vertex -7.43115 1.01331 5.4
      vertex -3.97495 0 5.4
    endloop
  endfacet
  facet normal 0 0 1
    outer loop
      vertex -3.73526 -1.35947 5.4
      vertex -7.32962 -1.58936 5.4
      vertex -6.94226 -2.83795 5.4
    endloop
  endfacet
  facet normal 0 0 1
    outer loop
      vertex -7.49423 -0.292419 5.4
      vertex -3.97495 0 5.4
      vertex -7.43115 1.01331 5.4
    endloop
  endfacet
  facet normal 0 0 1
    outer loop
      vertex -3.91452 -0.690216 5.4
      vertex -7.49423 -0.292419 5.4
      vertex -7.32962 -1.58936 5.4
    endloop
  endfacet
  facet normal 0 0 -1
    outer loop
      vertex 27.7955 -11.7344 0
      vertex 24.2789 -11.4113 0
      vertex 24.3393 -10.7211 0
    endloop
  endfacet
  facet normal 0 0 -1
    outer loop
      vertex 25.4055 -16.274 0
      vertex 24.0995 -12.0806 0
      vertex 24.2789 -11.4113 0
    endloop
  endfacet
  facet normal 0 0 -1
    outer loop
      vertex 25.4055 -16.274 0
      vertex 23.8067 -12.7085 0
      vertex 24.0995 -12.0806 0
    endloop
  endfacet
  facet normal 0 0 -1
    outer loop
      vertex 25.4055 -16.274 0
      vertex 23.4093 -13.2761 0
      vertex 23.8067 -12.7085 0
    endloop
  endfacet
  facet normal 0 0 -1
    outer loop
      vertex 22.3518 -14.1635 0
      vertex 24.3647 -17.0651 0
      vertex 23.2022 -17.6634 0
    endloop
  endfacet
  facet normal 0 0 -1
    outer loop
      vertex 25.4055 -16.274 0
      vertex 22.9193 -13.7661 0
      vertex 23.4093 -13.2761 0
    endloop
  endfacet
  facet normal 0 0 -1
    outer loop
      vertex 24.3647 -17.0651 0
      vertex 22.3518 -14.1635 0
      vertex 22.9193 -13.7661 0
    endloop
  endfacet
  facet normal 0 0 -1
    outer loop
      vertex 21.7238 -14.4563 0
      vertex 23.2022 -17.6634 0
      vertex 21.9536 -18.0507 0
    endloop
  endfacet
  facet normal 0 0 -1
    outer loop
      vertex 23.2022 -17.6634 0
      vertex 21.7238 -14.4563 0
      vertex 22.3518 -14.1635 0
    endloop
  endfacet
  facet normal 0 0 -1
    outer loop
      vertex 21.9536 -18.0507 0
      vertex 21.0545 -14.6356 0
      vertex 21.7238 -14.4563 0
    endloop
  endfacet
  facet normal 0 0 -1
    outer loop
      vertex 20.6567 -18.2153 0
      vertex 21.0545 -14.6356 0
      vertex 21.9536 -18.0507 0
    endloop
  endfacet
  facet normal 0 0 -1
    outer loop
      vertex 20.6567 -18.2153 0
      vertex 20.3643 -14.696 0
      vertex 21.0545 -14.6356 0
    endloop
  endfacet
  facet normal 0 0 -1
    outer loop
      vertex 19.351 -18.1523 0
      vertex 20.3643 -14.696 0
      vertex 20.6567 -18.2153 0
    endloop
  endfacet
  facet normal -0 0 -1
    outer loop
      vertex 20.3643 -14.696 0
      vertex 19.351 -18.1523 0
      vertex 19.674 -14.6356 0
    endloop
  endfacet
  facet normal 0 0 -1
    outer loop
      vertex 18.0759 -17.8634 0
      vertex 19.674 -14.6356 0
      vertex 19.351 -18.1523 0
    endloop
  endfacet
  facet normal -0 0 -1
    outer loop
      vertex 19.674 -14.6356 0
      vertex 18.0759 -17.8634 0
      vertex 19.0047 -14.4563 0
    endloop
  endfacet
  facet normal 0 0 -1
    outer loop
      vertex 16.8704 -17.3576 0
      vertex 19.0047 -14.4563 0
      vertex 18.0759 -17.8634 0
    endloop
  endfacet
  facet normal -0 0 -1
    outer loop
      vertex 19.0047 -14.4563 0
      vertex 16.8704 -17.3576 0
      vertex 18.3767 -14.1635 0
    endloop
  endfacet
  facet normal -0 0 -1
    outer loop
      vertex 18.3767 -14.1635 0
      vertex 16.8704 -17.3576 0
      vertex 17.8091 -13.7661 0
    endloop
  endfacet
  facet normal -0 0 -1
    outer loop
      vertex 17.8091 -13.7661 0
      vertex 16.8704 -17.3576 0
      vertex 17.3192 -13.2761 0
    endloop
  endfacet
  facet normal -0 0 -1
    outer loop
      vertex 17.3192 -13.2761 0
      vertex 16.8704 -17.3576 0
      vertex 16.9218 -12.7085 0
    endloop
  endfacet
  facet normal 0 0 -1
    outer loop
      vertex 16.8704 -17.3576 0
      vertex 16.629 -12.0806 0
      vertex 16.9218 -12.7085 0
    endloop
  endfacet
  facet normal 0 0 -1
    outer loop
      vertex 1.35947 -3.73526 0
      vertex 16.629 -12.0806 0
      vertex 16.8704 -17.3576 0
    endloop
  endfacet
  facet normal 0 0 -1
    outer loop
      vertex 16.629 -12.0806 0
      vertex 1.35947 -3.73526 0
      vertex 16.4496 -11.4113 0
    endloop
  endfacet
  facet normal 0 -0 -1
    outer loop
      vertex 1.98743 -3.44238 0
      vertex 16.4496 -11.4113 0
      vertex 1.35947 -3.73526 0
    endloop
  endfacet
  facet normal 0 0 -1
    outer loop
      vertex 16.3892 -10.7211 0
      vertex 3.91452 -0.690216 0
      vertex 3.97495 0 0
    endloop
  endfacet
  facet normal 0 0 -1
    outer loop
      vertex 16.3892 -10.7211 0
      vertex 3.73526 -1.35947 0
      vertex 3.91452 -0.690216 0
    endloop
  endfacet
  facet normal 0 0 -1
    outer loop
      vertex 16.3892 -10.7211 0
      vertex 3.44238 -1.98743 0
      vertex 3.73526 -1.35947 0
    endloop
  endfacet
  facet normal 0 0 -1
    outer loop
      vertex 16.3892 -10.7211 0
      vertex 3.04495 -2.55505 0
      vertex 3.44238 -1.98743 0
    endloop
  endfacet
  facet normal 0 0 -1
    outer loop
      vertex 16.3892 -10.7211 0
      vertex 2.55505 -3.04495 0
      vertex 3.04495 -2.55505 0
    endloop
  endfacet
  facet normal 0 0 -1
    outer loop
      vertex 16.3892 -10.7211 0
      vertex 1.98743 -3.44238 0
      vertex 2.55505 -3.04495 0
    endloop
  endfacet
  facet normal 0 0 -1
    outer loop
      vertex 16.4496 -11.4113 0
      vertex 1.98743 -3.44238 0
      vertex 16.3892 -10.7211 0
    endloop
  endfacet
  facet normal 0 0 -1
    outer loop
      vertex -3.49384 -6.63647 0
      vertex 1.35947 -3.73526 0
      vertex 16.8704 -17.3576 0
    endloop
  endfacet
  facet normal 0 0 -1
    outer loop
      vertex 1.35947 -3.73526 0
      vertex -3.49384 -6.63647 0
      vertex 0.690216 -3.91452 0
    endloop
  endfacet
  facet normal 0 0 -1
    outer loop
      vertex 0.690216 -3.91452 0
      vertex -3.49384 -6.63647 0
      vertex 0 -3.97495 0
    endloop
  endfacet
  facet normal -0 0 -1
    outer loop
      vertex 0 -3.97495 0
      vertex -3.49384 -6.63647 0
      vertex -0.690216 -3.91452 0
    endloop
  endfacet
  facet normal -0 0 -1
    outer loop
      vertex -0.690216 -3.91452 0
      vertex -3.49384 -6.63647 0
      vertex -1.35947 -3.73526 0
    endloop
  endfacet
  facet normal -0 0 -1
    outer loop
      vertex -1.35947 -3.73526 0
      vertex -3.49384 -6.63647 0
      vertex -1.98743 -3.44238 0
    endloop
  endfacet
  facet normal 0 0 -1
    outer loop
      vertex -4.5932 -5.92886 0
      vertex -1.98743 -3.44238 0
      vertex -3.49384 -6.63647 0
    endloop
  endfacet
  facet normal -0 0 -1
    outer loop
      vertex -1.98743 -3.44238 0
      vertex -4.5932 -5.92886 0
      vertex -2.55505 -3.04495 0
    endloop
  endfacet
  facet normal 0 0 -1
    outer loop
      vertex -5.55295 -5.04126 0
      vertex -2.55505 -3.04495 0
      vertex -4.5932 -5.92886 0
    endloop
  endfacet
  facet normal -0 0 -1
    outer loop
      vertex -2.55505 -3.04495 0
      vertex -5.55295 -5.04126 0
      vertex -3.04495 -2.55505 0
    endloop
  endfacet
  facet normal 0 0 -1
    outer loop
      vertex -6.34396 -4.0004 0
      vertex -3.04495 -2.55505 0
      vertex -5.55295 -5.04126 0
    endloop
  endfacet
  facet normal -0 0 -1
    outer loop
      vertex -3.04495 -2.55505 0
      vertex -6.34396 -4.0004 0
      vertex -3.44238 -1.98743 0
    endloop
  endfacet
  facet normal 0 0 -1
    outer loop
      vertex -6.94226 -2.83795 0
      vertex -3.44238 -1.98743 0
      vertex -6.34396 -4.0004 0
    endloop
  endfacet
  facet normal -0 0 -1
    outer loop
      vertex -3.44238 -1.98743 0
      vertex -6.94226 -2.83795 0
      vertex -3.73526 -1.35947 0
    endloop
  endfacet
  facet normal 0 0 -1
    outer loop
      vertex -3.97495 0 0
      vertex -5.04126 5.55295 0
      vertex -4.0004 6.34396 0
    endloop
  endfacet
  facet normal 0 0 -1
    outer loop
      vertex -7.32962 -1.58936 0
      vertex -3.73526 -1.35947 0
      vertex -6.94226 -2.83795 0
    endloop
  endfacet
  facet normal 0 0 -1
    outer loop
      vertex -3.97495 0 0
      vertex -5.92886 4.5932 0
      vertex -5.04126 5.55295 0
    endloop
  endfacet
  facet normal -0 0 -1
    outer loop
      vertex -3.73526 -1.35947 0
      vertex -7.32962 -1.58936 0
      vertex -3.91452 -0.690216 0
    endloop
  endfacet
  facet normal 0 0 -1
    outer loop
      vertex -3.97495 0 0
      vertex -6.63647 3.49384 0
      vertex -5.92886 4.5932 0
    endloop
  endfacet
  facet normal 0 0 -1
    outer loop
      vertex -7.49423 -0.292419 0
      vertex -3.91452 -0.690216 0
      vertex -7.32962 -1.58936 0
    endloop
  endfacet
  facet normal 0 0 -1
    outer loop
      vertex -3.97495 0 0
      vertex -7.1423 2.28836 0
      vertex -6.63647 3.49384 0
    endloop
  endfacet
  facet normal 0 0 -1
    outer loop
      vertex -3.91452 -0.690216 0
      vertex -7.49423 -0.292419 0
      vertex -3.97495 0 0
    endloop
  endfacet
  facet normal 0 0 -1
    outer loop
      vertex -3.97495 0 0
      vertex -7.43115 1.01331 0
      vertex -7.1423 2.28836 0
    endloop
  endfacet
  facet normal -0 0 -1
    outer loop
      vertex -3.97495 0 0
      vertex -7.49423 -0.292419 0
      vertex -7.43115 1.01331 0
    endloop
  endfacet
  facet normal 0 0 -1
    outer loop
      vertex 24.3393 -10.7211 0
      vertex 27.8586 -10.4286 0
      vertex 27.7955 -11.7344 0
    endloop
  endfacet
  facet normal 0 0 -1
    outer loop
      vertex 24.2789 -11.4113 0
      vertex 27.7955 -11.7344 0
      vertex 27.5066 -13.0094 0
    endloop
  endfacet
  facet normal 0 0 -1
    outer loop
      vertex 24.2789 -10.0308 0
      vertex 27.8586 -10.4286 0
      vertex 24.3393 -10.7211 0
    endloop
  endfacet
  facet normal 0 0 -1
    outer loop
      vertex 24.2789 -11.4113 0
      vertex 27.5066 -13.0094 0
      vertex 27.0007 -14.2149 0
    endloop
  endfacet
  facet normal 0 0 -1
    outer loop
      vertex 27.8586 -10.4286 0
      vertex 24.2789 -10.0308 0
      vertex 27.6939 -9.13165 0
    endloop
  endfacet
  facet normal 0 0 -1
    outer loop
      vertex 24.2789 -11.4113 0
      vertex 27.0007 -14.2149 0
      vertex 26.2932 -15.3142 0
    endloop
  endfacet
  facet normal 0 0 -1
    outer loop
      vertex 24.0995 -9.36154 0
      vertex 27.6939 -9.13165 0
      vertex 24.2789 -10.0308 0
    endloop
  endfacet
  facet normal 0 0 -1
    outer loop
      vertex 24.2789 -11.4113 0
      vertex 26.2932 -15.3142 0
      vertex 25.4055 -16.274 0
    endloop
  endfacet
  facet normal -0 0 -1
    outer loop
      vertex 27.6939 -9.13165 0
      vertex 24.0995 -9.36154 0
      vertex 27.3065 -7.88297 0
    endloop
  endfacet
  facet normal 0 0 -1
    outer loop
      vertex 22.9193 -13.7661 0
      vertex 25.4055 -16.274 0
      vertex 24.3647 -17.0651 0
    endloop
  endfacet
  facet normal 0 0 -1
    outer loop
      vertex 23.8067 -8.73358 0
      vertex 27.3065 -7.88297 0
      vertex 24.0995 -9.36154 0
    endloop
  endfacet
  facet normal -0 0 -1
    outer loop
      vertex 27.3065 -7.88297 0
      vertex 23.8067 -8.73358 0
      vertex 26.7083 -6.72061 0
    endloop
  endfacet
  facet normal 0 0 -1
    outer loop
      vertex 23.4093 -8.16595 0
      vertex 26.7083 -6.72061 0
      vertex 23.8067 -8.73358 0
    endloop
  endfacet
  facet normal -0 0 -1
    outer loop
      vertex 26.7083 -6.72061 0
      vertex 23.4093 -8.16595 0
      vertex 25.9173 -5.67975 0
    endloop
  endfacet
  facet normal 0 0 -1
    outer loop
      vertex 22.9193 -7.67596 0
      vertex 25.9173 -5.67975 0
      vertex 23.4093 -8.16595 0
    endloop
  endfacet
  facet normal -0 0 -1
    outer loop
      vertex 25.9173 -5.67975 0
      vertex 22.9193 -7.67596 0
      vertex 24.9575 -4.79205 0
    endloop
  endfacet
  facet normal 0 0 -1
    outer loop
      vertex 22.3518 -7.27853 0
      vertex 24.9575 -4.79205 0
      vertex 22.9193 -7.67596 0
    endloop
  endfacet
  facet normal -0 0 -1
    outer loop
      vertex 24.9575 -4.79205 0
      vertex 22.3518 -7.27853 0
      vertex 23.8581 -4.08453 0
    endloop
  endfacet
  facet normal 0 0 -1
    outer loop
      vertex 21.7238 -6.98575 0
      vertex 23.8581 -4.08453 0
      vertex 22.3518 -7.27853 0
    endloop
  endfacet
  facet normal 0 0 -1
    outer loop
      vertex 21.0545 -6.8064 0
      vertex 23.8581 -4.08453 0
      vertex 21.7238 -6.98575 0
    endloop
  endfacet
  facet normal 0 0 -1
    outer loop
      vertex 20.3643 -6.74606 0
      vertex 23.8581 -4.08453 0
      vertex 21.0545 -6.8064 0
    endloop
  endfacet
  facet normal 0 0 -1
    outer loop
      vertex 19.674 -6.8064 0
      vertex 23.8581 -4.08453 0
      vertex 20.3643 -6.74606 0
    endloop
  endfacet
  facet normal 0 0 -1
    outer loop
      vertex 19.0047 -6.98575 0
      vertex 23.8581 -4.08453 0
      vertex 19.674 -6.8064 0
    endloop
  endfacet
  facet normal 0 0 -1
    outer loop
      vertex 3.91452 0.690216 0
      vertex 19.0047 -6.98575 0
      vertex 18.3767 -7.27853 0
    endloop
  endfacet
  facet normal 0 0 -1
    outer loop
      vertex 3.97495 0 0
      vertex 16.4496 -10.0308 0
      vertex 16.3892 -10.7211 0
    endloop
  endfacet
  facet normal 0 0 -1
    outer loop
      vertex 3.97495 0 0
      vertex 16.629 -9.36154 0
      vertex 16.4496 -10.0308 0
    endloop
  endfacet
  facet normal 0 0 -1
    outer loop
      vertex 3.97495 0 0
      vertex 16.9218 -8.73358 0
      vertex 16.629 -9.36154 0
    endloop
  endfacet
  facet normal 0 0 -1
    outer loop
      vertex 3.97495 0 0
      vertex 17.3192 -8.16595 0
      vertex 16.9218 -8.73358 0
    endloop
  endfacet
  facet normal 0 0 -1
    outer loop
      vertex 3.97495 0 0
      vertex 17.8091 -7.67596 0
      vertex 17.3192 -8.16595 0
    endloop
  endfacet
  facet normal 0 0 -1
    outer loop
      vertex 3.97495 0 0
      vertex 18.3767 -7.27853 0
      vertex 17.8091 -7.67596 0
    endloop
  endfacet
  facet normal 0 0 -1
    outer loop
      vertex 3.91452 0.690216 0
      vertex 18.3767 -7.27853 0
      vertex 3.97495 0 0
    endloop
  endfacet
  facet normal 0 0 -1
    outer loop
      vertex 19.0047 -6.98575 0
      vertex 3.91452 0.690216 0
      vertex 3.73526 1.35947 0
    endloop
  endfacet
  facet normal 0 0 -1
    outer loop
      vertex 19.0047 -6.98575 0
      vertex 3.73526 1.35947 0
      vertex 23.8581 -4.08453 0
    endloop
  endfacet
  facet normal 0 0 -1
    outer loop
      vertex 3.73526 1.35947 0
      vertex 3.49384 6.63647 0
      vertex 23.8581 -4.08453 0
    endloop
  endfacet
  facet normal 0 0 -1
    outer loop
      vertex 3.44238 1.98743 0
      vertex 3.49384 6.63647 0
      vertex 3.73526 1.35947 0
    endloop
  endfacet
  facet normal 0 0 -1
    outer loop
      vertex 3.04495 2.55505 0
      vertex 3.49384 6.63647 0
      vertex 3.44238 1.98743 0
    endloop
  endfacet
  facet normal 0 0 -1
    outer loop
      vertex 2.55505 3.04495 0
      vertex 3.49384 6.63647 0
      vertex 3.04495 2.55505 0
    endloop
  endfacet
  facet normal 0 0 -1
    outer loop
      vertex 1.98743 3.44238 0
      vertex 3.49384 6.63647 0
      vertex 2.55505 3.04495 0
    endloop
  endfacet
  facet normal 0 0 -1
    outer loop
      vertex 1.35947 3.73526 0
      vertex 3.49384 6.63647 0
      vertex 1.98743 3.44238 0
    endloop
  endfacet
  facet normal -0 0 -1
    outer loop
      vertex 3.49384 6.63647 0
      vertex 1.35947 3.73526 0
      vertex 2.28836 7.1423 0
    endloop
  endfacet
  facet normal 0 0 -1
    outer loop
      vertex 0.690216 3.91452 0
      vertex 2.28836 7.1423 0
      vertex 1.35947 3.73526 0
    endloop
  endfacet
  facet normal -0 0 -1
    outer loop
      vertex 2.28836 7.1423 0
      vertex 0.690216 3.91452 0
      vertex 1.01331 7.43115 0
    endloop
  endfacet
  facet normal 0 0 -1
    outer loop
      vertex 0 3.97495 0
      vertex 1.01331 7.43115 0
      vertex 0.690216 3.91452 0
    endloop
  endfacet
  facet normal 0 0 -1
    outer loop
      vertex 0 3.97495 0
      vertex -0.292419 7.49423 0
      vertex 1.01331 7.43115 0
    endloop
  endfacet
  facet normal 0 0 -1
    outer loop
      vertex -0.690216 3.91452 0
      vertex -0.292419 7.49423 0
      vertex 0 3.97495 0
    endloop
  endfacet
  facet normal 0 0 -1
    outer loop
      vertex -1.58936 7.32962 0
      vertex -0.690216 3.91452 0
      vertex -1.35947 3.73526 0
    endloop
  endfacet
  facet normal 0 0 -1
    outer loop
      vertex -0.690216 3.91452 0
      vertex -1.58936 7.32962 0
      vertex -0.292419 7.49423 0
    endloop
  endfacet
  facet normal 0 0 -1
    outer loop
      vertex -2.83795 6.94226 0
      vertex -1.35947 3.73526 0
      vertex -1.98743 3.44238 0
    endloop
  endfacet
  facet normal 0 0 -1
    outer loop
      vertex -4.0004 6.34396 0
      vertex -1.98743 3.44238 0
      vertex -2.55505 3.04495 0
    endloop
  endfacet
  facet normal 0 0 -1
    outer loop
      vertex -1.35947 3.73526 0
      vertex -2.83795 6.94226 0
      vertex -1.58936 7.32962 0
    endloop
  endfacet
  facet normal 0 0 -1
    outer loop
      vertex -4.0004 6.34396 0
      vertex -2.55505 3.04495 0
      vertex -3.04495 2.55505 0
    endloop
  endfacet
  facet normal 0 0 -1
    outer loop
      vertex -4.0004 6.34396 0
      vertex -3.04495 2.55505 0
      vertex -3.44238 1.98743 0
    endloop
  endfacet
  facet normal 0 0 -1
    outer loop
      vertex -4.0004 6.34396 0
      vertex -3.44238 1.98743 0
      vertex -3.73526 1.35947 0
    endloop
  endfacet
  facet normal 0 0 -1
    outer loop
      vertex -4.0004 6.34396 0
      vertex -3.73526 1.35947 0
      vertex -3.91452 0.690216 0
    endloop
  endfacet
  facet normal 0 0 -1
    outer loop
      vertex -1.98743 3.44238 0
      vertex -4.0004 6.34396 0
      vertex -2.83795 6.94226 0
    endloop
  endfacet
  facet normal 0 0 -1
    outer loop
      vertex -4.0004 6.34396 0
      vertex -3.91452 0.690216 0
      vertex -3.97495 0 0
    endloop
  endfacet
  facet normal -0.678975 -0.734161 0
    outer loop
      vertex -5.55295 -5.04126 0
      vertex -4.5932 -5.92886 5.4
      vertex -5.55295 -5.04126 5.4
    endloop
  endfacet
  facet normal -0.678975 -0.734161 -0
    outer loop
      vertex -4.5932 -5.92886 5.4
      vertex -5.55295 -5.04126 0
      vertex -4.5932 -5.92886 0
    endloop
  endfacet
  facet normal 0.0482539 0.998835 -0
    outer loop
      vertex 1.01331 7.43115 0
      vertex -0.292419 7.49423 5.4
      vertex 1.01331 7.43115 5.4
    endloop
  endfacet
  facet normal 0.0482539 0.998835 0
    outer loop
      vertex -0.292419 7.49423 5.4
      vertex 1.01331 7.43115 0
      vertex -0.292419 7.49423 0
    endloop
  endfacet
  facet normal 0.998835 -0.0482505 0
    outer loop
      vertex 27.7955 -11.7344 5.4
      vertex 27.8586 -10.4286 0
      vertex 27.8586 -10.4286 5.4
    endloop
  endfacet
  facet normal 0.998835 -0.0482505 0
    outer loop
      vertex 27.8586 -10.4286 0
      vertex 27.7955 -11.7344 5.4
      vertex 27.7955 -11.7344 0
    endloop
  endfacet
  facet normal 0.796177 0.605064 0
    outer loop
      vertex 26.7083 -6.72061 5.4
      vertex 25.9173 -5.67975 0
      vertex 25.9173 -5.67975 5.4
    endloop
  endfacet
  facet normal 0.796177 0.605064 0
    outer loop
      vertex 25.9173 -5.67975 0
      vertex 26.7083 -6.72061 5.4
      vertex 26.7083 -6.72061 0
    endloop
  endfacet
  facet normal -0.605064 0.796177 0
    outer loop
      vertex -4.0004 6.34396 0
      vertex -5.04126 5.55295 5.4
      vertex -4.0004 6.34396 5.4
    endloop
  endfacet
  facet normal -0.605064 0.796177 0
    outer loop
      vertex -5.04126 5.55295 5.4
      vertex -4.0004 6.34396 0
      vertex -5.04126 5.55295 0
    endloop
  endfacet
  facet normal -0.889142 -0.457631 0
    outer loop
      vertex -6.34396 -4.0004 0
      vertex -6.94226 -2.83795 5.4
      vertex -6.94226 -2.83795 0
    endloop
  endfacet
  facet normal -0.889142 -0.457631 0
    outer loop
      vertex -6.94226 -2.83795 5.4
      vertex -6.34396 -4.0004 0
      vertex -6.34396 -4.0004 5.4
    endloop
  endfacet
  facet normal -0.796177 -0.605064 0
    outer loop
      vertex -5.55295 -5.04126 0
      vertex -6.34396 -4.0004 5.4
      vertex -6.34396 -4.0004 0
    endloop
  endfacet
  facet normal -0.796177 -0.605064 0
    outer loop
      vertex -6.34396 -4.0004 5.4
      vertex -5.55295 -5.04126 0
      vertex -5.55295 -5.04126 5.4
    endloop
  endfacet
  facet normal -0.992041 -0.125913 0
    outer loop
      vertex -7.32962 -1.58936 0
      vertex -7.49423 -0.292419 5.4
      vertex -7.49423 -0.292419 0
    endloop
  endfacet
  facet normal -0.992041 -0.125913 0
    outer loop
      vertex -7.49423 -0.292419 5.4
      vertex -7.32962 -1.58936 0
      vertex -7.32962 -1.58936 5.4
    endloop
  endfacet
  facet normal -0.955094 -0.296304 0
    outer loop
      vertex -6.94226 -2.83795 0
      vertex -7.32962 -1.58936 5.4
      vertex -7.32962 -1.58936 0
    endloop
  endfacet
  facet normal -0.955094 -0.296304 0
    outer loop
      vertex -7.32962 -1.58936 5.4
      vertex -6.94226 -2.83795 0
      vertex -6.94226 -2.83795 5.4
    endloop
  endfacet
  facet normal 0.386926 0.922111 -0
    outer loop
      vertex 3.49384 6.63647 0
      vertex 2.28836 7.1423 5.4
      vertex 3.49384 6.63647 5.4
    endloop
  endfacet
  facet normal 0.386926 0.922111 0
    outer loop
      vertex 2.28836 7.1423 5.4
      vertex 3.49384 6.63647 0
      vertex 2.28836 7.1423 0
    endloop
  endfacet
  facet normal 0.840885 -0.541214 0
    outer loop
      vertex 26.2932 -15.3142 5.4
      vertex 27.0007 -14.2149 0
      vertex 27.0007 -14.2149 5.4
    endloop
  endfacet
  facet normal 0.840885 -0.541214 0
    outer loop
      vertex 27.0007 -14.2149 0
      vertex 26.2932 -15.3142 5.4
      vertex 26.2932 -15.3142 0
    endloop
  endfacet
  facet normal 0.922121 -0.386901 0
    outer loop
      vertex 27.0007 -14.2149 5.4
      vertex 27.5066 -13.0094 0
      vertex 27.5066 -13.0094 5.4
    endloop
  endfacet
  facet normal 0.922121 -0.386901 0
    outer loop
      vertex 27.5066 -13.0094 0
      vertex 27.0007 -14.2149 5.4
      vertex 27.0007 -14.2149 0
    endloop
  endfacet
  facet normal 0.457631 -0.889142 0
    outer loop
      vertex 23.2022 -17.6634 0
      vertex 24.3647 -17.0651 5.4
      vertex 23.2022 -17.6634 5.4
    endloop
  endfacet
  facet normal 0.457631 -0.889142 0
    outer loop
      vertex 24.3647 -17.0651 5.4
      vertex 23.2022 -17.6634 0
      vertex 24.3647 -17.0651 0
    endloop
  endfacet
  facet normal 0.541182 0.840905 -0
    outer loop
      vertex 24.9575 -4.79205 0
      vertex 23.8581 -4.08453 5.4
      vertex 24.9575 -4.79205 5.4
    endloop
  endfacet
  facet normal 0.541182 0.840905 0
    outer loop
      vertex 23.8581 -4.08453 5.4
      vertex 24.9575 -4.79205 0
      vertex 23.8581 -4.08453 0
    endloop
  endfacet
  facet normal 0.678978 0.734159 -0
    outer loop
      vertex 25.9173 -5.67975 0
      vertex 24.9575 -4.79205 5.4
      vertex 25.9173 -5.67975 5.4
    endloop
  endfacet
  facet normal 0.678978 0.734159 0
    outer loop
      vertex 24.9575 -4.79205 5.4
      vertex 25.9173 -5.67975 0
      vertex 24.9575 -4.79205 0
    endloop
  endfacet
  facet normal -0.998835 0.0482539 0
    outer loop
      vertex -7.49423 -0.292419 0
      vertex -7.43115 1.01331 5.4
      vertex -7.43115 1.01331 0
    endloop
  endfacet
  facet normal -0.998835 0.0482539 0
    outer loop
      vertex -7.43115 1.01331 5.4
      vertex -7.49423 -0.292419 0
      vertex -7.49423 -0.292419 5.4
    endloop
  endfacet
  facet normal -0.975287 0.22094 0
    outer loop
      vertex -7.43115 1.01331 0
      vertex -7.1423 2.28836 5.4
      vertex -7.1423 2.28836 0
    endloop
  endfacet
  facet normal -0.975287 0.22094 0
    outer loop
      vertex -7.1423 2.28836 5.4
      vertex -7.43115 1.01331 0
      vertex -7.43115 1.01331 5.4
    endloop
  endfacet
  facet normal 0.992032 0.125982 0
    outer loop
      vertex 27.8586 -10.4286 5.4
      vertex 27.6939 -9.13165 0
      vertex 27.6939 -9.13165 5.4
    endloop
  endfacet
  facet normal 0.992032 0.125982 0
    outer loop
      vertex 27.6939 -9.13165 0
      vertex 27.8586 -10.4286 5.4
      vertex 27.8586 -10.4286 0
    endloop
  endfacet
  facet normal 0.975269 -0.221022 0
    outer loop
      vertex 27.5066 -13.0094 5.4
      vertex 27.7955 -11.7344 0
      vertex 27.7955 -11.7344 5.4
    endloop
  endfacet
  facet normal 0.975269 -0.221022 0
    outer loop
      vertex 27.7955 -11.7344 0
      vertex 27.5066 -13.0094 5.4
      vertex 27.5066 -13.0094 0
    endloop
  endfacet
  facet normal 0.605108 -0.796143 0
    outer loop
      vertex 24.3647 -17.0651 0
      vertex 25.4055 -16.274 5.4
      vertex 24.3647 -17.0651 5.4
    endloop
  endfacet
  facet normal 0.605108 -0.796143 0
    outer loop
      vertex 25.4055 -16.274 5.4
      vertex 24.3647 -17.0651 0
      vertex 25.4055 -16.274 0
    endloop
  endfacet
  facet normal 0.734126 -0.679013 0
    outer loop
      vertex 25.4055 -16.274 5.4
      vertex 26.2932 -15.3142 0
      vertex 26.2932 -15.3142 5.4
    endloop
  endfacet
  facet normal 0.734126 -0.679013 0
    outer loop
      vertex 26.2932 -15.3142 0
      vertex 25.4055 -16.274 5.4
      vertex 25.4055 -16.274 0
    endloop
  endfacet
  facet normal -0.734161 0.678975 0
    outer loop
      vertex -5.92886 4.5932 0
      vertex -5.04126 5.55295 5.4
      vertex -5.04126 5.55295 0
    endloop
  endfacet
  facet normal -0.734161 0.678975 0
    outer loop
      vertex -5.04126 5.55295 5.4
      vertex -5.92886 4.5932 0
      vertex -5.92886 4.5932 5.4
    endloop
  endfacet
  facet normal -0.457631 0.889142 0
    outer loop
      vertex -2.83795 6.94226 0
      vertex -4.0004 6.34396 5.4
      vertex -2.83795 6.94226 5.4
    endloop
  endfacet
  facet normal -0.457631 0.889142 0
    outer loop
      vertex -4.0004 6.34396 5.4
      vertex -2.83795 6.94226 0
      vertex -4.0004 6.34396 0
    endloop
  endfacet
  facet normal -0.296304 0.955094 0
    outer loop
      vertex -1.58936 7.32962 0
      vertex -2.83795 6.94226 5.4
      vertex -1.58936 7.32962 5.4
    endloop
  endfacet
  facet normal -0.296304 0.955094 0
    outer loop
      vertex -2.83795 6.94226 5.4
      vertex -1.58936 7.32962 0
      vertex -2.83795 6.94226 0
    endloop
  endfacet
  facet normal 0.889156 0.457604 0
    outer loop
      vertex 27.3065 -7.88297 5.4
      vertex 26.7083 -6.72061 0
      vertex 26.7083 -6.72061 5.4
    endloop
  endfacet
  facet normal 0.889156 0.457604 0
    outer loop
      vertex 26.7083 -6.72061 0
      vertex 27.3065 -7.88297 5.4
      vertex 27.3065 -7.88297 0
    endloop
  endfacet
  facet normal 0.9551 0.296285 0
    outer loop
      vertex 27.6939 -9.13165 5.4
      vertex 27.3065 -7.88297 0
      vertex 27.3065 -7.88297 5.4
    endloop
  endfacet
  facet normal 0.9551 0.296285 0
    outer loop
      vertex 27.3065 -7.88297 0
      vertex 27.6939 -9.13165 5.4
      vertex 27.6939 -9.13165 0
    endloop
  endfacet
  facet normal -0.422683 0.906278 0
    outer loop
      vertex 1.98743 -3.44238 0
      vertex 1.35947 -3.73526 5.4
      vertex 1.98743 -3.44238 5.4
    endloop
  endfacet
  facet normal -0.422683 0.906278 0
    outer loop
      vertex 1.35947 -3.73526 5.4
      vertex 1.98743 -3.44238 0
      vertex 1.35947 -3.73526 0
    endloop
  endfacet
  facet normal -0.0872112 0.99619 0
    outer loop
      vertex 0.690216 -3.91452 0
      vertex 0 -3.97495 5.4
      vertex 0.690216 -3.91452 5.4
    endloop
  endfacet
  facet normal -0.0872112 0.99619 0
    outer loop
      vertex 0 -3.97495 5.4
      vertex 0.690216 -3.91452 0
      vertex 0 -3.97495 0
    endloop
  endfacet
  facet normal 0.258732 -0.965949 0
    outer loop
      vertex -1.35947 3.73526 0
      vertex -0.690216 3.91452 5.4
      vertex -1.35947 3.73526 5.4
    endloop
  endfacet
  facet normal 0.258732 -0.965949 0
    outer loop
      vertex -0.690216 3.91452 5.4
      vertex -1.35947 3.73526 0
      vertex -0.690216 3.91452 0
    endloop
  endfacet
  facet normal -0.258732 0.965949 0
    outer loop
      vertex 1.35947 -3.73526 0
      vertex 0.690216 -3.91452 5.4
      vertex 1.35947 -3.73526 5.4
    endloop
  endfacet
  facet normal -0.258732 0.965949 0
    outer loop
      vertex 0.690216 -3.91452 5.4
      vertex 1.35947 -3.73526 0
      vertex 0.690216 -3.91452 0
    endloop
  endfacet
  facet normal -0.965949 -0.258732 0
    outer loop
      vertex 3.91452 0.690216 0
      vertex 3.73526 1.35947 5.4
      vertex 3.73526 1.35947 0
    endloop
  endfacet
  facet normal -0.965949 -0.258732 0
    outer loop
      vertex 3.73526 1.35947 5.4
      vertex 3.91452 0.690216 0
      vertex 3.91452 0.690216 5.4
    endloop
  endfacet
  facet normal 0.573551 -0.81917 0
    outer loop
      vertex -2.55505 3.04495 0
      vertex -1.98743 3.44238 5.4
      vertex -2.55505 3.04495 5.4
    endloop
  endfacet
  facet normal 0.573551 -0.81917 0
    outer loop
      vertex -1.98743 3.44238 5.4
      vertex -2.55505 3.04495 0
      vertex -1.98743 3.44238 0
    endloop
  endfacet
  facet normal 0.906278 -0.422683 0
    outer loop
      vertex -3.73526 1.35947 5.4
      vertex -3.44238 1.98743 0
      vertex -3.44238 1.98743 5.4
    endloop
  endfacet
  facet normal 0.906278 -0.422683 0
    outer loop
      vertex -3.44238 1.98743 0
      vertex -3.73526 1.35947 5.4
      vertex -3.73526 1.35947 0
    endloop
  endfacet
  facet normal -0.422683 -0.906278 0
    outer loop
      vertex 1.35947 3.73526 0
      vertex 1.98743 3.44238 5.4
      vertex 1.35947 3.73526 5.4
    endloop
  endfacet
  facet normal -0.422683 -0.906278 -0
    outer loop
      vertex 1.98743 3.44238 5.4
      vertex 1.35947 3.73526 0
      vertex 1.98743 3.44238 0
    endloop
  endfacet
  facet normal -0.81917 -0.573551 0
    outer loop
      vertex 3.44238 1.98743 0
      vertex 3.04495 2.55505 5.4
      vertex 3.04495 2.55505 0
    endloop
  endfacet
  facet normal -0.81917 -0.573551 0
    outer loop
      vertex 3.04495 2.55505 5.4
      vertex 3.44238 1.98743 0
      vertex 3.44238 1.98743 5.4
    endloop
  endfacet
  facet normal 0.707107 -0.707107 0
    outer loop
      vertex -3.04495 2.55505 5.4
      vertex -2.55505 3.04495 0
      vertex -2.55505 3.04495 5.4
    endloop
  endfacet
  facet normal 0.707107 -0.707107 0
    outer loop
      vertex -2.55505 3.04495 0
      vertex -3.04495 2.55505 5.4
      vertex -3.04495 2.55505 0
    endloop
  endfacet
  facet normal 0.81917 -0.573551 0
    outer loop
      vertex -3.44238 1.98743 5.4
      vertex -3.04495 2.55505 0
      vertex -3.04495 2.55505 5.4
    endloop
  endfacet
  facet normal 0.81917 -0.573551 0
    outer loop
      vertex -3.04495 2.55505 0
      vertex -3.44238 1.98743 5.4
      vertex -3.44238 1.98743 0
    endloop
  endfacet
  facet normal 0.99619 -0.0872112 0
    outer loop
      vertex -3.97495 0 5.4
      vertex -3.91452 0.690216 0
      vertex -3.91452 0.690216 5.4
    endloop
  endfacet
  facet normal 0.99619 -0.0872112 0
    outer loop
      vertex -3.91452 0.690216 0
      vertex -3.97495 0 5.4
      vertex -3.97495 0 0
    endloop
  endfacet
  facet normal 0.99619 0.0872112 0
    outer loop
      vertex -3.91452 -0.690216 5.4
      vertex -3.97495 0 0
      vertex -3.97495 0 5.4
    endloop
  endfacet
  facet normal 0.99619 0.0872112 0
    outer loop
      vertex -3.97495 0 0
      vertex -3.91452 -0.690216 5.4
      vertex -3.91452 -0.690216 0
    endloop
  endfacet
  facet normal 0.965949 -0.258732 0
    outer loop
      vertex -3.91452 0.690216 5.4
      vertex -3.73526 1.35947 0
      vertex -3.73526 1.35947 5.4
    endloop
  endfacet
  facet normal 0.965949 -0.258732 0
    outer loop
      vertex -3.73526 1.35947 0
      vertex -3.91452 0.690216 5.4
      vertex -3.91452 0.690216 0
    endloop
  endfacet
  facet normal 0.906278 0.422683 0
    outer loop
      vertex -3.44238 -1.98743 5.4
      vertex -3.73526 -1.35947 0
      vertex -3.73526 -1.35947 5.4
    endloop
  endfacet
  facet normal 0.906278 0.422683 0
    outer loop
      vertex -3.73526 -1.35947 0
      vertex -3.44238 -1.98743 5.4
      vertex -3.44238 -1.98743 0
    endloop
  endfacet
  facet normal 0.707107 0.707107 0
    outer loop
      vertex -2.55505 -3.04495 5.4
      vertex -3.04495 -2.55505 0
      vertex -3.04495 -2.55505 5.4
    endloop
  endfacet
  facet normal 0.707107 0.707107 0
    outer loop
      vertex -3.04495 -2.55505 0
      vertex -2.55505 -3.04495 5.4
      vertex -2.55505 -3.04495 0
    endloop
  endfacet
  facet normal 0.422683 0.906278 -0
    outer loop
      vertex -1.35947 -3.73526 0
      vertex -1.98743 -3.44238 5.4
      vertex -1.35947 -3.73526 5.4
    endloop
  endfacet
  facet normal 0.422683 0.906278 0
    outer loop
      vertex -1.98743 -3.44238 5.4
      vertex -1.35947 -3.73526 0
      vertex -1.98743 -3.44238 0
    endloop
  endfacet
  facet normal 0.0872112 0.99619 -0
    outer loop
      vertex 0 -3.97495 0
      vertex -0.690216 -3.91452 5.4
      vertex 0 -3.97495 5.4
    endloop
  endfacet
  facet normal 0.0872112 0.99619 0
    outer loop
      vertex -0.690216 -3.91452 5.4
      vertex 0 -3.97495 0
      vertex -0.690216 -3.91452 0
    endloop
  endfacet
  facet normal -0.0872112 -0.99619 0
    outer loop
      vertex 0 3.97495 0
      vertex 0.690216 3.91452 5.4
      vertex 0 3.97495 5.4
    endloop
  endfacet
  facet normal -0.0872112 -0.99619 -0
    outer loop
      vertex 0.690216 3.91452 5.4
      vertex 0 3.97495 0
      vertex 0.690216 3.91452 0
    endloop
  endfacet
  facet normal -0.707107 -0.707107 0
    outer loop
      vertex 3.04495 2.55505 0
      vertex 2.55505 3.04495 5.4
      vertex 2.55505 3.04495 0
    endloop
  endfacet
  facet normal -0.707107 -0.707107 0
    outer loop
      vertex 2.55505 3.04495 5.4
      vertex 3.04495 2.55505 0
      vertex 3.04495 2.55505 5.4
    endloop
  endfacet
  facet normal -0.573551 -0.81917 0
    outer loop
      vertex 1.98743 3.44238 0
      vertex 2.55505 3.04495 5.4
      vertex 1.98743 3.44238 5.4
    endloop
  endfacet
  facet normal -0.573551 -0.81917 -0
    outer loop
      vertex 2.55505 3.04495 5.4
      vertex 1.98743 3.44238 0
      vertex 2.55505 3.04495 0
    endloop
  endfacet
  facet normal -0.258732 -0.965949 0
    outer loop
      vertex 0.690216 3.91452 0
      vertex 1.35947 3.73526 5.4
      vertex 0.690216 3.91452 5.4
    endloop
  endfacet
  facet normal -0.258732 -0.965949 -0
    outer loop
      vertex 1.35947 3.73526 5.4
      vertex 0.690216 3.91452 0
      vertex 1.35947 3.73526 0
    endloop
  endfacet
  facet normal 0.0872112 -0.99619 0
    outer loop
      vertex -0.690216 3.91452 0
      vertex 0 3.97495 5.4
      vertex -0.690216 3.91452 5.4
    endloop
  endfacet
  facet normal 0.0872112 -0.99619 0
    outer loop
      vertex 0 3.97495 5.4
      vertex -0.690216 3.91452 0
      vertex 0 3.97495 0
    endloop
  endfacet
  facet normal -0.965949 0.258732 0
    outer loop
      vertex 3.73526 -1.35947 0
      vertex 3.91452 -0.690216 5.4
      vertex 3.91452 -0.690216 0
    endloop
  endfacet
  facet normal -0.965949 0.258732 0
    outer loop
      vertex 3.91452 -0.690216 5.4
      vertex 3.73526 -1.35947 0
      vertex 3.73526 -1.35947 5.4
    endloop
  endfacet
  facet normal -0.99619 -0.0872112 0
    outer loop
      vertex 3.97495 0 0
      vertex 3.91452 0.690216 5.4
      vertex 3.91452 0.690216 0
    endloop
  endfacet
  facet normal -0.99619 -0.0872112 0
    outer loop
      vertex 3.91452 0.690216 5.4
      vertex 3.97495 0 0
      vertex 3.97495 0 5.4
    endloop
  endfacet
  facet normal -0.81917 0.573551 0
    outer loop
      vertex 3.04495 -2.55505 0
      vertex 3.44238 -1.98743 5.4
      vertex 3.44238 -1.98743 0
    endloop
  endfacet
  facet normal -0.81917 0.573551 0
    outer loop
      vertex 3.44238 -1.98743 5.4
      vertex 3.04495 -2.55505 0
      vertex 3.04495 -2.55505 5.4
    endloop
  endfacet
  facet normal -0.573551 0.81917 0
    outer loop
      vertex 2.55505 -3.04495 0
      vertex 1.98743 -3.44238 5.4
      vertex 2.55505 -3.04495 5.4
    endloop
  endfacet
  facet normal -0.573551 0.81917 0
    outer loop
      vertex 1.98743 -3.44238 5.4
      vertex 2.55505 -3.04495 0
      vertex 1.98743 -3.44238 0
    endloop
  endfacet
  facet normal 0.422683 -0.906278 0
    outer loop
      vertex -1.98743 3.44238 0
      vertex -1.35947 3.73526 5.4
      vertex -1.98743 3.44238 5.4
    endloop
  endfacet
  facet normal 0.422683 -0.906278 0
    outer loop
      vertex -1.35947 3.73526 5.4
      vertex -1.98743 3.44238 0
      vertex -1.35947 3.73526 0
    endloop
  endfacet
  facet normal 0.965949 0.258732 0
    outer loop
      vertex -3.73526 -1.35947 5.4
      vertex -3.91452 -0.690216 0
      vertex -3.91452 -0.690216 5.4
    endloop
  endfacet
  facet normal 0.965949 0.258732 0
    outer loop
      vertex -3.91452 -0.690216 0
      vertex -3.73526 -1.35947 5.4
      vertex -3.73526 -1.35947 0
    endloop
  endfacet
  facet normal 0.81917 0.573551 0
    outer loop
      vertex -3.04495 -2.55505 5.4
      vertex -3.44238 -1.98743 0
      vertex -3.44238 -1.98743 5.4
    endloop
  endfacet
  facet normal 0.81917 0.573551 0
    outer loop
      vertex -3.44238 -1.98743 0
      vertex -3.04495 -2.55505 5.4
      vertex -3.04495 -2.55505 0
    endloop
  endfacet
  facet normal 0.573551 0.81917 -0
    outer loop
      vertex -1.98743 -3.44238 0
      vertex -2.55505 -3.04495 5.4
      vertex -1.98743 -3.44238 5.4
    endloop
  endfacet
  facet normal 0.573551 0.81917 0
    outer loop
      vertex -2.55505 -3.04495 5.4
      vertex -1.98743 -3.44238 0
      vertex -2.55505 -3.04495 0
    endloop
  endfacet
  facet normal 0.258732 0.965949 -0
    outer loop
      vertex -0.690216 -3.91452 0
      vertex -1.35947 -3.73526 5.4
      vertex -0.690216 -3.91452 5.4
    endloop
  endfacet
  facet normal 0.258732 0.965949 0
    outer loop
      vertex -1.35947 -3.73526 5.4
      vertex -0.690216 -3.91452 0
      vertex -1.35947 -3.73526 0
    endloop
  endfacet
  facet normal -0.906278 -0.422683 0
    outer loop
      vertex 3.73526 1.35947 0
      vertex 3.44238 1.98743 5.4
      vertex 3.44238 1.98743 0
    endloop
  endfacet
  facet normal -0.906278 -0.422683 0
    outer loop
      vertex 3.44238 1.98743 5.4
      vertex 3.73526 1.35947 0
      vertex 3.73526 1.35947 5.4
    endloop
  endfacet
  facet normal -0.99619 0.0872112 0
    outer loop
      vertex 3.91452 -0.690216 0
      vertex 3.97495 0 5.4
      vertex 3.97495 0 0
    endloop
  endfacet
  facet normal -0.99619 0.0872112 0
    outer loop
      vertex 3.97495 0 5.4
      vertex 3.91452 -0.690216 0
      vertex 3.91452 -0.690216 5.4
    endloop
  endfacet
  facet normal -0.906278 0.422683 0
    outer loop
      vertex 3.44238 -1.98743 0
      vertex 3.73526 -1.35947 5.4
      vertex 3.73526 -1.35947 0
    endloop
  endfacet
  facet normal -0.906278 0.422683 0
    outer loop
      vertex 3.73526 -1.35947 5.4
      vertex 3.44238 -1.98743 0
      vertex 3.44238 -1.98743 5.4
    endloop
  endfacet
  facet normal -0.707107 0.707107 0
    outer loop
      vertex 2.55505 -3.04495 0
      vertex 3.04495 -2.55505 5.4
      vertex 3.04495 -2.55505 0
    endloop
  endfacet
  facet normal -0.707107 0.707107 0
    outer loop
      vertex 3.04495 -2.55505 5.4
      vertex 2.55505 -3.04495 0
      vertex 2.55505 -3.04495 5.4
    endloop
  endfacet
  facet normal -0.422574 0.906328 0
    outer loop
      vertex 22.3518 -14.1635 0
      vertex 21.7238 -14.4563 5.4
      vertex 22.3518 -14.1635 5.4
    endloop
  endfacet
  facet normal -0.422574 0.906328 0
    outer loop
      vertex 21.7238 -14.4563 5.4
      vertex 22.3518 -14.1635 0
      vertex 21.7238 -14.4563 0
    endloop
  endfacet
  facet normal -0.573613 0.819126 0
    outer loop
      vertex 22.9193 -13.7661 0
      vertex 22.3518 -14.1635 5.4
      vertex 22.9193 -13.7661 5.4
    endloop
  endfacet
  facet normal -0.573613 0.819126 0
    outer loop
      vertex 22.3518 -14.1635 5.4
      vertex 22.9193 -13.7661 0
      vertex 22.3518 -14.1635 0
    endloop
  endfacet
  facet normal -0.258822 0.965925 0
    outer loop
      vertex 21.7238 -14.4563 0
      vertex 21.0545 -14.6356 5.4
      vertex 21.7238 -14.4563 5.4
    endloop
  endfacet
  facet normal -0.258822 0.965925 0
    outer loop
      vertex 21.0545 -14.6356 5.4
      vertex 21.7238 -14.4563 0
      vertex 21.0545 -14.6356 0
    endloop
  endfacet
  facet normal -0.906328 0.422574 0
    outer loop
      vertex 23.8067 -12.7085 0
      vertex 24.0995 -12.0806 5.4
      vertex 24.0995 -12.0806 0
    endloop
  endfacet
  facet normal -0.906328 0.422574 0
    outer loop
      vertex 24.0995 -12.0806 5.4
      vertex 23.8067 -12.7085 0
      vertex 23.8067 -12.7085 5.4
    endloop
  endfacet
  facet normal 0.965916 0.258855 0
    outer loop
      vertex 16.629 -12.0806 5.4
      vertex 16.4496 -11.4113 0
      vertex 16.4496 -11.4113 5.4
    endloop
  endfacet
  facet normal 0.965916 0.258855 0
    outer loop
      vertex 16.4496 -11.4113 0
      vertex 16.629 -12.0806 5.4
      vertex 16.629 -12.0806 0
    endloop
  endfacet
  facet normal 0.0870801 -0.996201 0
    outer loop
      vertex 19.674 -6.8064 0
      vertex 20.3643 -6.74606 5.4
      vertex 19.674 -6.8064 5.4
    endloop
  endfacet
  facet normal 0.0870801 -0.996201 0
    outer loop
      vertex 20.3643 -6.74606 5.4
      vertex 19.674 -6.8064 0
      vertex 20.3643 -6.74606 0
    endloop
  endfacet
  facet normal 0.258822 0.965925 -0
    outer loop
      vertex 19.674 -14.6356 0
      vertex 19.0047 -14.4563 5.4
      vertex 19.674 -14.6356 5.4
    endloop
  endfacet
  facet normal 0.258822 0.965925 0
    outer loop
      vertex 19.0047 -14.4563 5.4
      vertex 19.674 -14.6356 0
      vertex 19.0047 -14.4563 0
    endloop
  endfacet
  facet normal 0.965916 -0.258855 0
    outer loop
      vertex 16.4496 -10.0308 5.4
      vertex 16.629 -9.36154 0
      vertex 16.629 -9.36154 5.4
    endloop
  endfacet
  facet normal 0.965916 -0.258855 0
    outer loop
      vertex 16.629 -9.36154 0
      vertex 16.4496 -10.0308 5.4
      vertex 16.4496 -10.0308 0
    endloop
  endfacet
  facet normal 0.906328 0.422574 0
    outer loop
      vertex 16.9218 -12.7085 5.4
      vertex 16.629 -12.0806 0
      vertex 16.629 -12.0806 5.4
    endloop
  endfacet
  facet normal 0.906328 0.422574 0
    outer loop
      vertex 16.629 -12.0806 0
      vertex 16.9218 -12.7085 5.4
      vertex 16.9218 -12.7085 0
    endloop
  endfacet
  facet normal 0.422574 -0.906328 0
    outer loop
      vertex 18.3767 -7.27853 0
      vertex 19.0047 -6.98575 5.4
      vertex 18.3767 -7.27853 5.4
    endloop
  endfacet
  facet normal 0.422574 -0.906328 0
    outer loop
      vertex 19.0047 -6.98575 5.4
      vertex 18.3767 -7.27853 0
      vertex 19.0047 -6.98575 0
    endloop
  endfacet
  facet normal -0.258822 -0.965925 0
    outer loop
      vertex 21.0545 -6.8064 0
      vertex 21.7238 -6.98575 5.4
      vertex 21.0545 -6.8064 5.4
    endloop
  endfacet
  facet normal -0.258822 -0.965925 -0
    outer loop
      vertex 21.7238 -6.98575 5.4
      vertex 21.0545 -6.8064 0
      vertex 21.7238 -6.98575 0
    endloop
  endfacet
  facet normal 0.258822 -0.965925 0
    outer loop
      vertex 19.0047 -6.98575 0
      vertex 19.674 -6.8064 5.4
      vertex 19.0047 -6.98575 5.4
    endloop
  endfacet
  facet normal 0.258822 -0.965925 0
    outer loop
      vertex 19.674 -6.8064 5.4
      vertex 19.0047 -6.98575 0
      vertex 19.674 -6.8064 0
    endloop
  endfacet
  facet normal -0.0872112 0.99619 0
    outer loop
      vertex 21.0545 -14.6356 0
      vertex 20.3643 -14.696 5.4
      vertex 21.0545 -14.6356 5.4
    endloop
  endfacet
  facet normal -0.0872112 0.99619 0
    outer loop
      vertex 20.3643 -14.696 5.4
      vertex 21.0545 -14.6356 0
      vertex 20.3643 -14.696 0
    endloop
  endfacet
  facet normal 0.0872112 0.99619 -0
    outer loop
      vertex 20.3643 -14.696 0
      vertex 19.674 -14.6356 5.4
      vertex 20.3643 -14.696 5.4
    endloop
  endfacet
  facet normal 0.0872112 0.99619 0
    outer loop
      vertex 19.674 -14.6356 5.4
      vertex 20.3643 -14.696 0
      vertex 19.674 -14.6356 0
    endloop
  endfacet
  facet normal -0.707107 0.707107 0
    outer loop
      vertex 22.9193 -13.7661 0
      vertex 23.4093 -13.2761 5.4
      vertex 23.4093 -13.2761 0
    endloop
  endfacet
  facet normal -0.707107 0.707107 0
    outer loop
      vertex 23.4093 -13.2761 5.4
      vertex 22.9193 -13.7661 0
      vertex 22.9193 -13.7661 5.4
    endloop
  endfacet
  facet normal 0.573551 0.81917 -0
    outer loop
      vertex 18.3767 -14.1635 0
      vertex 17.8091 -13.7661 5.4
      vertex 18.3767 -14.1635 5.4
    endloop
  endfacet
  facet normal 0.573551 0.81917 0
    outer loop
      vertex 17.8091 -13.7661 5.4
      vertex 18.3767 -14.1635 0
      vertex 17.8091 -13.7661 0
    endloop
  endfacet
  facet normal 0.422574 0.906328 -0
    outer loop
      vertex 19.0047 -14.4563 0
      vertex 18.3767 -14.1635 5.4
      vertex 19.0047 -14.4563 5.4
    endloop
  endfacet
  facet normal 0.422574 0.906328 0
    outer loop
      vertex 18.3767 -14.1635 5.4
      vertex 19.0047 -14.4563 0
      vertex 18.3767 -14.1635 0
    endloop
  endfacet
  facet normal 0.81917 -0.573551 0
    outer loop
      vertex 16.9218 -8.73358 5.4
      vertex 17.3192 -8.16595 0
      vertex 17.3192 -8.16595 5.4
    endloop
  endfacet
  facet normal 0.81917 -0.573551 0
    outer loop
      vertex 17.3192 -8.16595 0
      vertex 16.9218 -8.73358 5.4
      vertex 16.9218 -8.73358 0
    endloop
  endfacet
  facet normal 0.707173 -0.707041 0
    outer loop
      vertex 17.3192 -8.16595 5.4
      vertex 17.8091 -7.67596 0
      vertex 17.8091 -7.67596 5.4
    endloop
  endfacet
  facet normal 0.707173 -0.707041 0
    outer loop
      vertex 17.8091 -7.67596 0
      vertex 17.3192 -8.16595 5.4
      vertex 17.3192 -8.16595 0
    endloop
  endfacet
  facet normal 0.573551 -0.81917 0
    outer loop
      vertex 17.8091 -7.67596 0
      vertex 18.3767 -7.27853 5.4
      vertex 17.8091 -7.67596 5.4
    endloop
  endfacet
  facet normal 0.573551 -0.81917 0
    outer loop
      vertex 18.3767 -7.27853 5.4
      vertex 17.8091 -7.67596 0
      vertex 18.3767 -7.27853 0
    endloop
  endfacet
  facet normal 0.99619 0.0872112 0
    outer loop
      vertex 16.4496 -11.4113 5.4
      vertex 16.3892 -10.7211 0
      vertex 16.3892 -10.7211 5.4
    endloop
  endfacet
  facet normal 0.99619 0.0872112 0
    outer loop
      vertex 16.3892 -10.7211 0
      vertex 16.4496 -11.4113 5.4
      vertex 16.4496 -11.4113 0
    endloop
  endfacet
  facet normal 0.996191 -0.0871997 0
    outer loop
      vertex 16.3892 -10.7211 5.4
      vertex 16.4496 -10.0308 0
      vertex 16.4496 -10.0308 5.4
    endloop
  endfacet
  facet normal 0.996191 -0.0871997 0
    outer loop
      vertex 16.4496 -10.0308 0
      vertex 16.3892 -10.7211 5.4
      vertex 16.3892 -10.7211 0
    endloop
  endfacet
  facet normal -0.422574 -0.906328 0
    outer loop
      vertex 21.7238 -6.98575 0
      vertex 22.3518 -7.27853 5.4
      vertex 21.7238 -6.98575 5.4
    endloop
  endfacet
  facet normal -0.422574 -0.906328 -0
    outer loop
      vertex 22.3518 -7.27853 5.4
      vertex 21.7238 -6.98575 0
      vertex 22.3518 -7.27853 0
    endloop
  endfacet
  facet normal -0.0870801 -0.996201 0
    outer loop
      vertex 20.3643 -6.74606 0
      vertex 21.0545 -6.8064 5.4
      vertex 20.3643 -6.74606 5.4
    endloop
  endfacet
  facet normal -0.0870801 -0.996201 -0
    outer loop
      vertex 21.0545 -6.8064 5.4
      vertex 20.3643 -6.74606 0
      vertex 21.0545 -6.8064 0
    endloop
  endfacet
  facet normal -0.965916 0.258855 0
    outer loop
      vertex 24.0995 -12.0806 0
      vertex 24.2789 -11.4113 5.4
      vertex 24.2789 -11.4113 0
    endloop
  endfacet
  facet normal -0.965916 0.258855 0
    outer loop
      vertex 24.2789 -11.4113 5.4
      vertex 24.0995 -12.0806 0
      vertex 24.0995 -12.0806 5.4
    endloop
  endfacet
  facet normal 0.707173 0.707041 0
    outer loop
      vertex 17.8091 -13.7661 5.4
      vertex 17.3192 -13.2761 0
      vertex 17.3192 -13.2761 5.4
    endloop
  endfacet
  facet normal 0.707173 0.707041 0
    outer loop
      vertex 17.3192 -13.2761 0
      vertex 17.8091 -13.7661 5.4
      vertex 17.8091 -13.7661 0
    endloop
  endfacet
  facet normal 0.819126 0.573613 0
    outer loop
      vertex 17.3192 -13.2761 5.4
      vertex 16.9218 -12.7085 0
      vertex 16.9218 -12.7085 5.4
    endloop
  endfacet
  facet normal 0.819126 0.573613 0
    outer loop
      vertex 16.9218 -12.7085 0
      vertex 17.3192 -13.2761 5.4
      vertex 17.3192 -13.2761 0
    endloop
  endfacet
  facet normal 0.906328 -0.422574 0
    outer loop
      vertex 16.629 -9.36154 5.4
      vertex 16.9218 -8.73358 0
      vertex 16.9218 -8.73358 5.4
    endloop
  endfacet
  facet normal 0.906328 -0.422574 0
    outer loop
      vertex 16.9218 -8.73358 0
      vertex 16.629 -9.36154 5.4
      vertex 16.629 -9.36154 0
    endloop
  endfacet
  facet normal -0.81917 -0.573551 0
    outer loop
      vertex 23.8067 -8.73358 0
      vertex 23.4093 -8.16595 5.4
      vertex 23.4093 -8.16595 0
    endloop
  endfacet
  facet normal -0.81917 -0.573551 0
    outer loop
      vertex 23.4093 -8.16595 5.4
      vertex 23.8067 -8.73358 0
      vertex 23.8067 -8.73358 5.4
    endloop
  endfacet
  facet normal -0.707107 -0.707107 0
    outer loop
      vertex 23.4093 -8.16595 0
      vertex 22.9193 -7.67596 5.4
      vertex 22.9193 -7.67596 0
    endloop
  endfacet
  facet normal -0.707107 -0.707107 0
    outer loop
      vertex 22.9193 -7.67596 5.4
      vertex 23.4093 -8.16595 0
      vertex 23.4093 -8.16595 5.4
    endloop
  endfacet
  facet normal -0.996191 -0.0871997 0
    outer loop
      vertex 24.3393 -10.7211 0
      vertex 24.2789 -10.0308 5.4
      vertex 24.2789 -10.0308 0
    endloop
  endfacet
  facet normal -0.996191 -0.0871997 0
    outer loop
      vertex 24.2789 -10.0308 5.4
      vertex 24.3393 -10.7211 0
      vertex 24.3393 -10.7211 5.4
    endloop
  endfacet
  facet normal -0.99619 0.0872112 0
    outer loop
      vertex 24.2789 -11.4113 0
      vertex 24.3393 -10.7211 5.4
      vertex 24.3393 -10.7211 0
    endloop
  endfacet
  facet normal -0.99619 0.0872112 0
    outer loop
      vertex 24.3393 -10.7211 5.4
      vertex 24.2789 -11.4113 0
      vertex 24.2789 -11.4113 5.4
    endloop
  endfacet
  facet normal -0.819126 0.573613 0
    outer loop
      vertex 23.4093 -13.2761 0
      vertex 23.8067 -12.7085 5.4
      vertex 23.8067 -12.7085 0
    endloop
  endfacet
  facet normal -0.819126 0.573613 0
    outer loop
      vertex 23.8067 -12.7085 5.4
      vertex 23.4093 -13.2761 0
      vertex 23.4093 -13.2761 5.4
    endloop
  endfacet
  facet normal -0.906328 -0.422574 0
    outer loop
      vertex 24.0995 -9.36154 0
      vertex 23.8067 -8.73358 5.4
      vertex 23.8067 -8.73358 0
    endloop
  endfacet
  facet normal -0.906328 -0.422574 0
    outer loop
      vertex 23.8067 -8.73358 5.4
      vertex 24.0995 -9.36154 0
      vertex 24.0995 -9.36154 5.4
    endloop
  endfacet
  facet normal -0.965916 -0.258855 0
    outer loop
      vertex 24.2789 -10.0308 0
      vertex 24.0995 -9.36154 5.4
      vertex 24.0995 -9.36154 0
    endloop
  endfacet
  facet normal -0.965916 -0.258855 0
    outer loop
      vertex 24.0995 -9.36154 5.4
      vertex 24.2789 -10.0308 0
      vertex 24.2789 -10.0308 5.4
    endloop
  endfacet
  facet normal -0.573613 -0.819126 0
    outer loop
      vertex 22.3518 -7.27853 0
      vertex 22.9193 -7.67596 5.4
      vertex 22.3518 -7.27853 5.4
    endloop
  endfacet
  facet normal -0.573613 -0.819126 -0
    outer loop
      vertex 22.9193 -7.67596 5.4
      vertex 22.3518 -7.27853 0
      vertex 22.9193 -7.67596 0
    endloop
  endfacet
endsolid OpenSCAD_Model
